<?xml version="1.0" encoding="UTF-8" standalone="no"?>
<!-- Creator: CorelDRAW 2021 (64-Bit) -->

<svg
   xml:space="preserve"
   width="6.43974in"
   height="4.12206in"
   version="1.1"
   style="shape-rendering:geometricPrecision; text-rendering:geometricPrecision; image-rendering:optimizeQuality; fill-rule:evenodd; clip-rule:evenodd"
   viewBox="0 0 1263.74 808.91"
   id="svg25"
   sodipodi:docname="Karate_white_yellow_belt.svg"
   inkscape:version="1.3.2 (091e20e, 2023-11-25)"
   xmlns:inkscape="http://www.inkscape.org/namespaces/inkscape"
   xmlns:sodipodi="http://sodipodi.sourceforge.net/DTD/sodipodi-0.dtd"
   xmlns="http://www.w3.org/2000/svg"
   xmlns:svg="http://www.w3.org/2000/svg"><sodipodi:namedview
   id="namedview25"
   pagecolor="#ffffff"
   bordercolor="#000000"
   borderopacity="0.25"
   inkscape:showpageshadow="2"
   inkscape:pageopacity="0.0"
   inkscape:pagecheckerboard="0"
   inkscape:deskcolor="#d1d1d1"
   inkscape:document-units="in"
   inkscape:zoom="1.34581"
   inkscape:cx="309.10753"
   inkscape:cy="198.02201"
   inkscape:window-width="1392"
   inkscape:window-height="1212"
   inkscape:window-x="0"
   inkscape:window-y="25"
   inkscape:window-maximized="0"
   inkscape:current-layer="Layer_x0020_1" />
 <defs
   id="defs1">
  <style
   type="text/css"
   id="style1">
   <![CDATA[
    .fil3 {fill:#A09D9D;fill-rule:nonzero}
    .fil2 {fill:#C6C6C6;fill-rule:nonzero}
    .fil1 {fill:#D8D6D6;fill-rule:nonzero}
    .fil0 {fill:#EFEFEF;fill-rule:nonzero}
    .fil4 {fill:white;fill-rule:nonzero}
   ]]>
  </style>
 </defs>
 <g
   id="Layer_x0020_1"
   inkscape:label="Layer 1">
  <metadata
   id="CorelCorpID_0Corel-Layer" />
  <polygon
   class="fil0"
   points="1214.6,39.88 49.13,39.88 -0,74.66 -0,231.94 49.13,266.72 1214.6,266.72 1263.74,231.94 1263.74,74.66 "
   id="polygon1" />
  <polygon
   class="fil1"
   points="228.35,64.82 1054.15,64.82 812.95,93.44 1156.35,126.14 829.3,158.85 980.56,195.65 862.01,216.08 1123.65,252.87 154.76,252.87 416.4,207.91 285.58,183.38 420.49,162.94 265.14,134.32 367.34,113.88 150.67,73 "
   id="polygon2"
   style="fill:#ffff00;fill-opacity:1" />
  <path
   class="fil2"
   d="M1153.25 72.59l0 -10.9 32.7 0 0 10.9 -32.7 0 0 0zm-65.41 0l0 -10.9 32.7 0 0 10.9 -32.7 0 0 0zm-65.41 0l0 -10.9 32.7 0 0 10.9 -32.7 0 0 0zm-65.42 0l0 -10.9 32.71 0 0 10.9 -32.71 0 0 0zm-65.41 0l0 -10.9 32.7 0 0 10.9 -32.7 0 0 0zm-65.41 0l0 -10.9 32.7 0 0 10.9 -32.7 0 0 0zm-65.42 0l0 -10.9 32.7 0 0 10.9 -32.7 0 0 0zm-65.42 0l0 -10.9 32.71 0 0 10.9 -32.71 0 0 0zm-65.41 0l0 -10.9 32.7 0 0 10.9 -32.7 0 0 0zm-65.42 0l0 -10.9 32.7 0 0 10.9 -32.7 0 0 0zm-65.42 0l0 -10.9 32.71 0 0 10.9 -32.71 0 0 0zm-65.42 0l0 -10.9 32.71 0 0 10.9 -32.71 0 0 0zm-65.41 0l0 -10.9 32.7 0 0 10.9 -32.7 0 0 0zm-65.42 0l0 -10.9 32.71 0 0 10.9 -32.71 0 0 0zm-65.41 0l0 -10.9 32.71 0 0 10.9 -32.71 0 0 0zm-65.41 0l0 -10.9 32.71 0 0 10.9 -32.71 0 0 0zm-65.41 0l0 -10.9 32.71 0 0 10.9 -32.71 0 0 0z"
   id="path2" />
  <path
   class="fil2"
   d="M1153.25 247.02l0 -10.9 32.7 0 0 10.9 -32.7 0 0 0zm-65.41 0l0 -10.9 32.7 0 0 10.9 -32.7 0 0 0zm-65.41 0l0 -10.9 32.7 0 0 10.9 -32.7 0 0 0zm-65.42 0l0 -10.9 32.71 0 0 10.9 -32.71 0 0 0zm-65.41 0l0 -10.9 32.7 0 0 10.9 -32.7 0 0 0zm-65.41 0l0 -10.9 32.7 0 0 10.9 -32.7 0 0 0zm-65.42 0l0 -10.9 32.7 0 0 10.9 -32.7 0 0 0zm-65.42 0l0 -10.9 32.71 0 0 10.9 -32.71 0 0 0zm-65.41 0l0 -10.9 32.7 0 0 10.9 -32.7 0 0 0zm-65.42 0l0 -10.9 32.7 0 0 10.9 -32.7 0 0 0zm-65.42 0l0 -10.9 32.71 0 0 10.9 -32.71 0 0 0zm-65.42 0l0 -10.9 32.71 0 0 10.9 -32.71 0 0 0zm-65.41 0l0 -10.9 32.7 0 0 10.9 -32.7 0 0 0zm-65.42 0l0 -10.9 32.71 0 0 10.9 -32.71 0 0 0zm-65.41 0l0 -10.9 32.71 0 0 10.9 -32.71 0 0 0zm-65.41 0l0 -10.9 32.71 0 0 10.9 -32.71 0 0 0zm-65.41 0l0 -10.9 32.71 0 0 10.9 -32.71 0 0 0z"
   id="path3" />
  <path
   class="fil3"
   d="M437.07 58.42c0,0 -6.68,7.14 -6.68,21.44 0,14.29 11.85,128 47.65,163.8 0,0 74.25,-33.03 127.21,-86 0,0 -120.54,-90.19 -168.19,-99.24z"
   id="path4" />
  <path
   class="fil0"
   d="M825.9 58.42c0,0 -32.88,-24.31 -72.9,-37.17 -40.03,-12.87 -87.2,-30.02 -133.66,-2.14 -46.46,27.87 -146.99,89.28 -209.43,112.21 -140.09,51.46 -293.05,305.92 -287.33,649.01 0,0 125.8,11.44 162.96,28.59 0,0 -31.45,-477.46 168.69,-557.51 200.14,-80.05 185.84,-82.91 248.74,-125.8 62.9,-42.88 122.94,-67.18 122.94,-67.18z"
   id="path5" />
  <path
   class="fil2"
   d="M122.57 780.33c-0.04,-2.41 -0.04,-4.8 -0.07,-7.2 40.38,-12.07 147.31,14.34 147.31,14.34 -8.58,-24.3 7.15,-304.49 52.89,-401.69 45.74,-97.21 75.77,-121.51 115.79,-140.1 40.03,-18.58 191.56,-82.91 231.58,-117.22 40.02,-34.31 92.92,-60.04 124.36,-71.48 9.27,-3.37 17.01,-4.35 23.37,-4.09 5.15,3.36 8.08,5.53 8.08,5.53 0,0 -60.04,24.3 -122.94,67.18 -62.9,42.89 -48.6,45.75 -248.74,125.8 -200.14,80.05 -168.69,557.51 -168.69,557.51 -37.17,-17.15 -162.96,-28.59 -162.96,-28.59z"
   id="path6" />
  <path
   class="fil0"
   d="M610.24 149.42c0,0 -89.3,75.59 -140.78,96.12 0,0 40.98,25.92 130.27,47.51 0,0 46.22,23.76 116.09,-78.29l-105.58 -65.34z"
   id="path7" />
  <path
   class="fil1"
   d="M618.56 160.12c0,0 -31.59,52.5 -75.03,77.76 0,0 33.57,-7.77 67.14,-34.99 0,0 -9.88,33.05 -21.73,40.83 0,0 29.62,7.78 69.12,-21.39 0,0 -3.94,25.27 -21.72,40.83 0,0 51.34,-29.16 71.09,-58.32l-88.87 -44.72z"
   id="path8"
   style="fill:#ffff00" />
  <path
   class="fil2"
   d="M610.24 149.42c0,0 -89.3,75.59 -140.78,96.12 0,0 3.51,2.2 10.64,5.86 67.88,-31.22 122.07,-83.14 136.69,-97.91l-6.56 -4.06z"
   id="path9" />
  <path
   class="fil0"
   d="M437.07 58.42c0,0 32.88,-24.31 72.9,-37.17 40.03,-12.87 87.2,-30.02 133.66,-2.14 46.46,27.87 146.99,89.28 209.43,112.21 140.09,51.46 293.05,305.92 287.33,649.01 0,0 -125.8,11.44 -162.97,28.59 0,0 31.45,-477.46 -168.69,-557.51 -200.14,-80.05 -185.84,-82.91 -248.73,-125.8 -62.9,-42.88 -122.94,-67.18 -122.94,-67.18z"
   id="path10" />
  <path
   class="fil3"
   d="M643.63 19.11c16.93,10.16 41.07,24.78 67.91,40.37 -7.12,-17.29 -21.77,-38.44 -40.37,-43.94 -10.76,-3.18 -21.21,-0.98 -29.51,2.46 0.66,0.37 1.31,0.72 1.97,1.12z"
   id="path11" />
  <path
   class="fil1"
   d="M560 125.6c-17.59,-11.99 -34.95,-22.53 -50.84,-31.49 -39.03,18.78 -85.57,41.44 -133.1,71.51 -93.4,59.09 -142.95,198.23 -142.95,198.23 26.69,-62.9 97.21,-135.33 97.21,-135.33 -83.86,114.36 -95.31,228.72 -95.31,228.72 49.56,-152.48 131.51,-198.22 131.51,-198.22 -40.02,51.46 -51.46,99.11 -51.46,99.11 36.21,-72.43 116.27,-133.42 173.45,-156.29 35.14,-14.06 76.74,-37.46 103.6,-53.43 -9.1,-6.56 -18.91,-13.8 -32.12,-22.82z"
   id="path12"
   style="fill:#ffff00" />
  <path
   class="fil1"
   d="M646.72 131.32c0,0 74.34,47.65 131.51,70.52 57.19,22.87 137.25,83.86 173.45,156.29 0,0 -11.43,-47.65 -51.46,-99.11 0,0 81.96,45.74 131.52,198.22 0,0 -11.44,-114.36 -95.31,-228.72 0,0 70.52,72.43 97.21,135.33 0,0 -49.56,-139.14 -142.95,-198.23 -93.4,-59.08 -182.98,-89.58 -219.19,-118.17 0,0 36.21,51.46 70.52,72.43 0,0 -87.68,-45.74 -137.24,-81.96 0,0 66.71,80.05 129.61,112.45 0,0 -62.9,-5.72 -87.68,-19.06z"
   id="path13"
   style="fill:#ffff00" />
  <path
   class="fil2"
   d="M1140.39 780.33c0.04,-2.41 0.04,-4.8 0.06,-7.2 -40.38,-12.07 -147.31,14.34 -147.31,14.34 8.58,-24.3 -7.15,-304.49 -52.89,-401.69 -45.75,-97.21 -75.77,-121.51 -115.79,-140.1 -40.03,-18.58 -191.56,-82.91 -231.58,-117.22 -40.03,-34.31 -92.92,-60.04 -124.37,-71.48 -9.27,-3.37 -17.01,-4.35 -23.37,-4.09 -5.14,3.36 -8.07,5.53 -8.07,5.53 0,0 60.04,24.3 122.94,67.18 62.9,42.89 48.6,45.75 248.73,125.8 200.14,80.05 168.69,557.51 168.69,557.51 37.17,-17.15 162.97,-28.59 162.97,-28.59z"
   id="path14" />
  <path
   class="fil4"
   d="M1064.14 409.6c0,0 68.62,181.07 62.9,350.71 0,0 -51.46,0 -99.12,9.53 0,0 62.9,-30.5 85.78,-24.78 0,0 3.81,-156.29 -49.56,-335.46z"
   id="path15"
   style="fill:#ffff00" />
  <path
   class="fil4"
   d="M195.95 409.6c0,0 -68.62,181.07 -62.9,350.71 0,0 51.47,0 99.12,9.53 0,0 -62.9,-30.5 -85.77,-24.78 0,0 -3.81,-156.29 49.55,-335.46z"
   id="path16"
   style="fill:#ffff00" />
  <path
   class="fil4"
   d="M478.52 41.26c0,0 70.04,-30.02 117.22,-30.02 47.17,0 77.19,47.18 77.19,47.18 0,0 -54.32,-65.76 -194.41,-17.15z"
   id="path17"
   style="fill:#ffff00" />
  <path
   class="fil4"
   d="M1008.73 751.73c-1.57,-0.07 -2.79,-1.42 -2.71,-3l0 0c0.05,-1.19 0.11,-2.38 0.16,-3.57l0 0c0.07,-1.58 1.41,-2.8 2.98,-2.73l0 0c1.58,0.07 2.8,1.41 2.73,2.98l0 0c-0.05,1.19 -0.11,2.39 -0.16,3.58l0 0c-0.08,1.53 -1.34,2.73 -2.86,2.73l0 0c-0.05,0 -0.09,0 -0.14,-0.01l0 0zm0.67 -15c-1.58,-0.06 -2.81,-1.39 -2.75,-2.96l0 0c0.15,-3.83 0.28,-7.63 0.38,-11.41l0 0c0.05,-1.58 1.36,-2.82 2.94,-2.77l0 0c1.58,0.05 2.82,1.36 2.77,2.94l0 0c-0.11,3.79 -0.24,7.61 -0.38,11.45l0 0c-0.05,1.54 -1.33,2.75 -2.86,2.75l0 0c-0.03,0 -0.07,0 -0.1,0l0 0zm0.72 -22.85c-1.58,-0.04 -2.83,-1.35 -2.79,-2.93l0 0c0.08,-3.84 0.14,-7.63 0.19,-11.41l0 0c0.02,-1.58 1.31,-2.84 2.89,-2.82l0 0c1.58,0.02 2.84,1.31 2.82,2.89l0 0c-0.05,3.79 -0.11,7.61 -0.2,11.46l0 0c-0.03,1.56 -1.31,2.8 -2.86,2.8l0 0c-0.02,0 -0.04,0 -0.06,0l0 0zm0.35 -22.87c-1.58,0 -2.86,-1.29 -2.85,-2.87l0 0c0.01,-1.94 0.02,-3.87 0.02,-5.8l0 0c0,-1.88 -0.01,-3.75 -0.02,-5.61l0 0c-0.01,-1.58 1.27,-2.87 2.85,-2.88l0 0c1.57,0 2.86,1.27 2.87,2.85l0 0c0.01,1.87 0.01,3.75 0.01,5.64l0 0c0,1.93 -0.01,3.87 -0.01,5.82l0 0c-0.01,1.58 -1.29,2.85 -2.87,2.85l-0.01 0 0 0zm-2.95 -25.69c-0.05,-3.84 -0.12,-7.63 -0.2,-11.41l0 0c-0.03,-1.58 1.21,-2.89 2.79,-2.92l0 0c1.58,-0.04 2.89,1.21 2.92,2.79l0 0c0.1,3.78 0.16,7.61 0.21,11.46l0 0c0.03,1.58 -1.24,2.88 -2.82,2.89l0 0c-0.01,0 -0.03,0 -0.04,0l0 0c-1.57,0 -2.83,-1.25 -2.86,-2.82l0 0zm-0.53 -22.81c-0.11,-3.84 -0.26,-7.63 -0.43,-11.4l0 0c-0.06,-1.58 1.16,-2.91 2.74,-2.97l0 0c1.58,-0.07 2.91,1.15 2.98,2.73l0 0c0.16,3.78 0.3,7.6 0.43,11.45l0 0c0.05,1.58 -1.19,2.9 -2.76,2.95l0 0c-0.04,0 -0.07,0 -0.1,0l0 0c-1.54,0 -2.81,-1.22 -2.86,-2.76l0 0zm-0.97 -22.79c-0.2,-3.83 -0.43,-7.62 -0.67,-11.38l0 0c-0.1,-1.58 1.1,-2.94 2.67,-3.04l0 0c1.58,-0.1 2.94,1.09 3.04,2.67l0 0c0.25,3.78 0.47,7.6 0.67,11.44l0 0c0.09,1.58 -1.12,2.93 -2.7,3.01l0 0c-0.05,0.01 -0.1,0.01 -0.16,0.01l0 0c-1.51,0 -2.76,-1.19 -2.84,-2.7l0 0zm-1.46 -22.75c-0.29,-3.83 -0.59,-7.62 -0.92,-11.36l0 0c-0.14,-1.57 1.02,-2.96 2.6,-3.09l0 0c1.58,-0.15 2.96,1.02 3.09,2.6l0 0c0.33,3.77 0.64,7.58 0.93,11.43l0 0c0.12,1.58 -1.06,2.95 -2.64,3.07l0 0c-0.07,0.01 -0.14,0.01 -0.21,0.01l0 0c-1.48,0 -2.74,-1.15 -2.85,-2.65l0 0zm-1.97 -22.71c-0.38,-3.82 -0.78,-7.6 -1.19,-11.34l-0.01 0c-0.17,-1.57 0.96,-2.98 2.53,-3.16l0 0c1.56,-0.17 2.98,0.96 3.16,2.53l0 0c0.41,3.76 0.81,7.56 1.19,11.41l0 0c0.16,1.57 -0.99,2.96 -2.56,3.12l0 0c-0.1,0.02 -0.19,0.02 -0.28,0.02l0 0c-1.46,0 -2.7,-1.11 -2.84,-2.58l0 0zm-2.52 -22.65c-0.47,-3.81 -0.96,-7.58 -1.48,-11.3l0 0c-0.22,-1.56 0.88,-3.01 2.44,-3.23l0 0c1.56,-0.22 3.01,0.88 3.22,2.45l0 0c0.52,3.74 1.01,7.54 1.49,11.36l0 0c0.2,1.57 -0.91,3 -2.48,3.19l0 0c-0.12,0.02 -0.24,0.02 -0.35,0.02l0 0c-1.42,0 -2.66,-1.06 -2.84,-2.51l0 0zm-3.11 -22.57c-0.57,-3.8 -1.17,-7.55 -1.78,-11.25l0 0c-0.26,-1.56 0.8,-3.03 2.35,-3.3l0 0c1.56,-0.25 3.03,0.8 3.29,2.35l0 0c0.62,3.73 1.22,7.51 1.8,11.33l0 0c0.23,1.57 -0.84,3.02 -2.4,3.25l0 0c-0.15,0.02 -0.3,0.03 -0.44,0.03l0 0c-1.39,0 -2.61,-1.01 -2.82,-2.42l0 0zm-3.73 -22.47c-0.68,-3.78 -1.4,-7.51 -2.12,-11.19l0 0c-0.31,-1.55 0.7,-3.05 2.25,-3.36l0 0c1.55,-0.31 3.05,0.7 3.37,2.25l0 0c0.73,3.71 1.44,7.46 2.13,11.28l0 0c0.28,1.55 -0.75,3.04 -2.31,3.32l0 0c-0.17,0.03 -0.34,0.04 -0.51,0.04l0 0c-1.35,0 -2.56,-0.97 -2.81,-2.35l0 0zm-4.41 -22.34c-0.81,-3.76 -1.63,-7.46 -2.48,-11.11l0 0c-0.35,-1.54 0.61,-3.08 2.15,-3.43l0 0c1.53,-0.36 3.07,0.6 3.42,2.14l0 0c0.85,3.68 1.69,7.41 2.49,11.21l0 0c0.33,1.55 -0.65,3.06 -2.19,3.39l0 0c-0.2,0.04 -0.41,0.06 -0.6,0.06l0 0c-1.32,0 -2.51,-0.92 -2.79,-2.26l0 0zm-5.13 -22.18c-0.93,-3.73 -1.89,-7.4 -2.86,-11.01l-0.01 0c-0.4,-1.53 0.5,-3.09 2.03,-3.51l0 0c1.52,-0.4 3.09,0.5 3.51,2.03l0 0c0.98,3.64 1.93,7.34 2.88,11.12l0 0c0.38,1.52 -0.55,3.08 -2.08,3.46l0 0c-0.24,0.06 -0.47,0.09 -0.7,0.09l0 0c-1.28,0 -2.44,-0.87 -2.76,-2.17l0 0zm-5.92 -21.97c-1.07,-3.7 -2.16,-7.33 -3.27,-10.89l0 0c-0.47,-1.51 0.37,-3.11 1.89,-3.58l0 0c1.5,-0.47 3.1,0.37 3.58,1.88l0 0c1.12,3.6 2.22,7.27 3.3,11l0 0c0.44,1.51 -0.44,3.1 -1.94,3.54l0 0c-0.27,0.08 -0.53,0.11 -0.8,0.11l0 0c-1.24,0 -2.39,-0.81 -2.75,-2.06l0 0zm-6.76 -21.72c-1.22,-3.65 -2.45,-7.23 -3.71,-10.74l0 0c-0.53,-1.5 0.24,-3.13 1.73,-3.66l0 0c1.48,-0.53 3.12,0.24 3.65,1.73l0 0c1.27,3.55 2.53,7.17 3.75,10.86l0 0c0.5,1.5 -0.31,3.11 -1.8,3.61l0 0c-0.3,0.1 -0.61,0.15 -0.91,0.15l0 0c-1.2,0 -2.31,-0.75 -2.71,-1.96l0 0zm-7.66 -21.4c-1.38,-3.59 -2.78,-7.11 -4.2,-10.56l0 0c-0.6,-1.47 0.1,-3.14 1.56,-3.73l0 0c1.45,-0.6 3.13,0.09 3.72,1.55l0 0c1.44,3.49 2.84,7.05 4.25,10.68l0 0c0.57,1.48 -0.17,3.13 -1.64,3.7l0 0c-0.34,0.13 -0.68,0.19 -1.02,0.19l0 0c-1.15,0 -2.24,-0.71 -2.67,-1.84l0 0zm-8.64 -21.01c-1.55,-3.53 -3.12,-6.97 -4.7,-10.33l0 0c-0.68,-1.42 -0.06,-3.13 1.36,-3.8l0 0c1.43,-0.67 3.13,-0.06 3.8,1.37l0 0c1.61,3.41 3.19,6.9 4.77,10.47l0 0c0.64,1.44 -0.02,3.13 -1.47,3.76l0 0c-0.38,0.17 -0.76,0.25 -1.15,0.25l0 0c-1.1,0 -2.14,-0.64 -2.62,-1.71l0 0zm-9.68 -20.53c-1.75,-3.44 -3.5,-6.79 -5.26,-10.05l0 0c-0.76,-1.39 -0.24,-3.13 1.15,-3.87l0 0c1.39,-0.75 3.13,-0.24 3.88,1.15l0 0c1.79,3.31 3.57,6.7 5.33,10.19l0 0c0.71,1.41 0.15,3.13 -1.26,3.84l0 0c-0.41,0.2 -0.85,0.31 -1.28,0.31l0 0c-1.05,0 -2.05,-0.57 -2.55,-1.57l0 0zm-10.81 -19.95c-1.94,-3.34 -3.9,-6.58 -5.85,-9.71l-0.01 0c-0.84,-1.34 -0.43,-3.11 0.91,-3.94l0 0c1.35,-0.84 3.11,-0.43 3.94,0.92l0 0c1.99,3.18 3.97,6.47 5.94,9.87l0 0c0.8,1.36 0.33,3.11 -1.03,3.9l0 0c-0.45,0.26 -0.95,0.39 -1.43,0.39l0 0c-0.99,0 -1.95,-0.51 -2.47,-1.42l0 0zm-12 -19.23c-2.16,-3.22 -4.32,-6.32 -6.47,-9.29l-0.01 0c-0.92,-1.29 -0.64,-3.08 0.65,-4l0 0c1.28,-0.93 3.07,-0.64 3.99,0.65l0 0c2.19,3.03 4.39,6.18 6.58,9.46l0 0c0.88,1.31 0.53,3.09 -0.78,3.97l0 0c-0.49,0.32 -1.04,0.48 -1.58,0.48l0 0c-0.92,0 -1.83,-0.44 -2.38,-1.27l0 0zm-13.27 -18.35c-2.4,-3.06 -4.77,-5.99 -7.14,-8.77l0 0c-1.02,-1.21 -0.87,-3.02 0.34,-4.04l0 0c1.21,-1.02 3.01,-0.87 4.03,0.34l0 0c2.41,2.85 4.84,5.83 7.28,8.96l0 0c0.97,1.24 0.75,3.04 -0.5,4.01l0 0c-0.52,0.41 -1.15,0.61 -1.76,0.61l0 0c-0.85,0 -1.69,-0.38 -2.25,-1.1l0 0zm-14.62 -17.26c-2.66,-2.88 -5.26,-5.59 -7.84,-8.15l0 0c-1.11,-1.11 -1.12,-2.93 -0.01,-4.04l0 0c1.12,-1.13 2.93,-1.13 4.05,-0.02l0 0c2.63,2.61 5.3,5.39 8.01,8.34l0 0c1.06,1.16 0.99,2.97 -0.17,4.04l0 0c-0.55,0.5 -1.25,0.75 -1.93,0.75l0 0c-0.78,0 -1.54,-0.31 -2.1,-0.92l0 0zm-16.02 -15.93c-2.94,-2.67 -5.8,-5.11 -8.56,-7.37l0 0c-1.23,-1 -1.41,-2.8 -0.41,-4.02l0 0c1,-1.22 2.8,-1.4 4.02,-0.41l0 0c2.84,2.32 5.78,4.83 8.78,7.55l0 0c1.17,1.06 1.26,2.87 0.19,4.04l0 0c-0.56,0.63 -1.34,0.94 -2.12,0.94l0 0c-0.68,0 -1.37,-0.25 -1.91,-0.74l0 0zm-17.49 -14.26c-3.32,-2.41 -6.44,-4.52 -9.31,-6.34l0 0c-1.34,-0.85 -1.73,-2.61 -0.88,-3.94l0 0c0.85,-1.34 2.61,-1.74 3.94,-0.89l0 0c2.97,1.89 6.19,4.06 9.61,6.55l0 0c1.27,0.93 1.55,2.72 0.63,3.99l0 0c-0.56,0.77 -1.43,1.18 -2.31,1.18l0 0c-0.58,0 -1.17,-0.18 -1.68,-0.55l0 0zm-19 -11.99c-3.21,-1.71 -5.75,-2.88 -7.47,-3.61l0 0c-1.71,-0.74 -2.54,-1.01 -2.55,-1.01l0 0c-1.49,-0.51 -2.29,-2.13 -1.78,-3.63l0 0c0.51,-1.49 2.13,-2.29 3.63,-1.78l0 0c0.14,0.05 4.13,1.42 10.85,4.99l0 0c1.4,0.74 1.92,2.47 1.19,3.87l0 0c-0.52,0.96 -1.51,1.52 -2.53,1.52l0 0c-0.45,0 -0.91,-0.11 -1.34,-0.33l0 0z"
   id="path18" />
  <path
   class="fil4"
   d="M254.07 766.59c-1.57,-0.01 -2.85,-1.3 -2.84,-2.87l0 0c0.01,-2.29 0.04,-6.21 0.12,-11.54l0.01 0c0.03,-1.58 1.31,-2.84 2.89,-2.81l0 0c1.58,0.02 2.84,1.32 2.82,2.9l0 0c-0.08,5.31 -0.1,9.21 -0.12,11.48l0 0c-0.01,1.58 -1.29,2.84 -2.87,2.84l0 0c0,0 -0.01,0 -0.01,0l0 0zm0.29 -22.99c-1.58,-0.03 -2.83,-1.34 -2.8,-2.92l0 0c0.07,-3.52 0.16,-7.35 0.27,-11.49l0 0c0.04,-1.58 1.35,-2.83 2.93,-2.78l0 0c1.58,0.04 2.82,1.35 2.79,2.93l0 0c-0.11,4.12 -0.2,7.95 -0.28,11.46l0 0c-0.03,1.56 -1.3,2.8 -2.86,2.8l0 0c-0.02,0 -0.04,0 -0.05,0l0 0zm0.58 -22.94c-1.58,-0.05 -2.81,-1.37 -2.77,-2.95l0 0c0.12,-3.66 0.25,-7.49 0.4,-11.47l0 0c0.05,-1.58 1.38,-2.81 2.96,-2.76l0 0c1.58,0.06 2.81,1.39 2.75,2.97l0 0c-0.15,3.97 -0.28,7.79 -0.4,11.44l0 0c-0.05,1.55 -1.32,2.76 -2.85,2.76l0 0c-0.03,0 -0.06,0 -0.1,0l0 0zm0.82 -22.91c-1.58,-0.07 -2.81,-1.4 -2.74,-2.98l0 0c0.16,-3.71 0.32,-7.54 0.51,-11.46l0 0c0.08,-1.58 1.41,-2.8 2.99,-2.73l0 0c1.58,0.08 2.8,1.42 2.73,3l0 0c-0.19,3.91 -0.36,7.73 -0.52,11.43l0 0c-0.06,1.54 -1.33,2.74 -2.86,2.74l0 0c-0.04,0 -0.08,0 -0.11,-0.01l0 0zm1.05 -22.89c-1.58,-0.09 -2.79,-1.43 -2.7,-3l0 0c0.2,-3.76 0.4,-7.57 0.63,-11.46l0 0 0 0.01c0.09,-1.58 1.44,-2.79 3.02,-2.69l0 0c1.57,0.09 2.77,1.44 2.69,3.02l0 0c-0.23,3.87 -0.44,7.68 -0.63,11.42l0 0c-0.08,1.53 -1.35,2.71 -2.85,2.71l0 0c-0.05,0 -0.1,0 -0.16,-0l0 0zm1.29 -22.87c-1.58,-0.11 -2.77,-1.46 -2.68,-3.03l0 0c0.24,-3.77 0.49,-7.59 0.75,-11.44l0 0c0.11,-1.58 1.48,-2.77 3.06,-2.66l0 0c1.57,0.11 2.76,1.47 2.65,3.04l0 0c-0.26,3.85 -0.51,7.67 -0.75,11.42l0 0c-0.09,1.51 -1.36,2.68 -2.85,2.68l0 0c-0.06,0 -0.12,-0.01 -0.18,-0.01l0 0zm1.53 -22.86c-1.58,-0.11 -2.76,-1.49 -2.64,-3.06l0 0c0.28,-3.78 0.58,-7.59 0.88,-11.44l0 0c0.13,-1.57 1.51,-2.75 3.08,-2.62l0 0c1.58,0.13 2.75,1.51 2.62,3.08l0 0c-0.31,3.84 -0.59,7.63 -0.87,11.4l0 0c-0.11,1.5 -1.36,2.65 -2.85,2.65l0 0c-0.07,0 -0.15,-0.01 -0.22,-0.01l0 0zm1.79 -22.83c-1.57,-0.14 -2.74,-1.52 -2.6,-3.1l0 0c0.33,-3.78 0.67,-7.6 1.02,-11.42l0 0c0.14,-1.57 1.54,-2.73 3.1,-2.59l0 0c1.57,0.15 2.73,1.54 2.59,3.11l0 0c-0.35,3.82 -0.69,7.61 -1.01,11.39l0 0c-0.13,1.49 -1.38,2.61 -2.85,2.61l0 0c-0.08,0 -0.16,0 -0.25,-0.01l0 0zm2.07 -22.81c-1.57,-0.16 -2.72,-1.56 -2.57,-3.13l0 0c0.38,-3.79 0.77,-7.6 1.18,-11.41l0 0c0.17,-1.57 1.57,-2.71 3.15,-2.54l0 0c1.57,0.16 2.7,1.57 2.54,3.14l0 0c-0.41,3.8 -0.8,7.59 -1.17,11.37l0 0c-0.15,1.48 -1.39,2.59 -2.85,2.58l0 0c-0.09,0 -0.19,-0.01 -0.29,-0.01l0 0zm2.39 -22.78c-1.57,-0.18 -2.7,-1.6 -2.52,-3.17l0 0c0.43,-3.79 0.87,-7.59 1.34,-11.4l0 0.01c0.19,-1.57 1.62,-2.69 3.18,-2.49l0 0c1.57,0.19 2.68,1.61 2.49,3.18l0 0c-0.47,3.79 -0.91,7.57 -1.34,11.35l0 0c-0.16,1.45 -1.4,2.53 -2.84,2.53l0 0c-0.11,0 -0.22,-0.01 -0.32,-0.02l0 0zm2.73 -22.77c-1.57,-0.2 -2.67,-1.64 -2.47,-3.21l0 0c0.49,-3.79 1.01,-7.59 1.54,-11.37l0 0c0.22,-1.57 1.66,-2.66 3.23,-2.44l0 0c1.56,0.22 2.65,1.66 2.44,3.23l0 0c-0.52,3.77 -1.03,7.55 -1.53,11.34l0 0c-0.19,1.43 -1.42,2.48 -2.83,2.48l0 0c-0.12,0 -0.25,-0.01 -0.38,-0.03l0 0zm3.11 -22.67c-1.56,-0.24 -2.63,-1.7 -2.4,-3.25l0 0c0.57,-3.8 1.15,-7.58 1.75,-11.35l0 0c0.25,-1.56 1.71,-2.62 3.28,-2.37l0 0c1.55,0.25 2.61,1.71 2.36,3.27l0 0c-0.6,3.75 -1.19,7.52 -1.75,11.29l0 0c-0.22,1.42 -1.43,2.44 -2.83,2.44l0 0c-0.14,0 -0.28,-0.01 -0.42,-0.03l0 0zm3.57 -22.62c-1.56,-0.27 -2.61,-1.75 -2.34,-3.3l0 0c0.65,-3.79 1.32,-7.56 2.01,-11.31l0 0c0.29,-1.56 1.77,-2.58 3.34,-2.29l0 0c1.55,0.28 2.57,1.77 2.28,3.33l0 0c-0.68,3.72 -1.35,7.47 -2,11.23l0 0c-0.24,1.4 -1.44,2.38 -2.81,2.38l0 0c-0.16,0 -0.32,-0.01 -0.49,-0.04l0 0zm4.08 -22.54c-1.55,-0.31 -2.56,-1.82 -2.25,-3.36l0 0c0.75,-3.79 1.53,-7.54 2.32,-11.26l0 0c0.33,-1.54 1.85,-2.53 3.39,-2.2l0 0c1.54,0.33 2.53,1.85 2.19,3.4l0 0c-0.79,3.69 -1.55,7.41 -2.31,11.17l0 0c-0.27,1.36 -1.47,2.3 -2.81,2.3l0 0c-0.18,0 -0.36,-0.02 -0.55,-0.05l0 0zm4.72 -22.41c-1.54,-0.35 -2.49,-1.89 -2.14,-3.42l0 0c0.87,-3.78 1.78,-7.51 2.7,-11.19l0 0c0.38,-1.54 1.94,-2.46 3.47,-2.08l0 0c1.54,0.39 2.46,1.94 2.08,3.48l0 0c-0.92,3.64 -1.81,7.34 -2.68,11.08l0 0c-0.3,1.32 -1.48,2.21 -2.78,2.21l0 0c-0.21,0 -0.43,-0.02 -0.65,-0.08l0 0zm5.49 -22.23c-1.53,-0.43 -2.42,-1.99 -2,-3.51l0 0c1.03,-3.76 2.1,-7.45 3.18,-11.08l0 0c0.45,-1.51 2.05,-2.36 3.56,-1.91l0 0c1.51,0.46 2.37,2.04 1.92,3.56l0 0c-1.08,3.58 -2.12,7.23 -3.14,10.94l0 0c-0.35,1.27 -1.5,2.11 -2.76,2.11l0 0c-0.25,0 -0.51,-0.03 -0.75,-0.1l0 0zm6.47 -21.97c-1.5,-0.5 -2.31,-2.12 -1.82,-3.61l0 0c1.24,-3.72 2.51,-7.36 3.82,-10.89l0 0c0.54,-1.48 2.19,-2.24 3.67,-1.7l0 0c1.48,0.55 2.24,2.19 1.69,3.67l0 0c-1.29,3.48 -2.53,7.05 -3.75,10.72l0 0c-0.4,1.19 -1.52,1.95 -2.72,1.95l0 0c-0.3,0 -0.6,-0.05 -0.9,-0.15l0 0zm7.77 -21.54c-1.46,-0.61 -2.14,-2.28 -1.54,-3.74l0 0c1.51,-3.66 3.09,-7.19 4.7,-10.59l0 0c0.68,-1.43 2.38,-2.03 3.81,-1.35l0 0c1.43,0.68 2.04,2.38 1.35,3.81l0 0c-1.57,3.31 -3.1,6.76 -4.59,10.33l0 0c-0.46,1.09 -1.52,1.76 -2.64,1.76l0 0c-0.37,0 -0.74,-0.07 -1.09,-0.22l0 0zm9.58 -20.78c-1.38,-0.76 -1.89,-2.51 -1.12,-3.89l0 0c0.09,-0.18 0.2,-0.36 0.3,-0.53l0 0c1.79,-3.22 3.61,-6.37 5.44,-9.46l0 0c0.81,-1.36 2.56,-1.81 3.92,-1l0 0c1.36,0.81 1.81,2.57 1,3.92l0 0c-1.8,3.05 -3.59,6.16 -5.37,9.33l0 0c-0.1,0.17 -0.19,0.34 -0.29,0.52l0 0c-0.52,0.94 -1.5,1.47 -2.51,1.47l0 0c-0.47,0 -0.94,-0.11 -1.38,-0.36l0 0zm11.52 -19.75c-1.33,-0.85 -1.73,-2.61 -0.89,-3.94l0 0c2.09,-3.3 4.18,-6.51 6.29,-9.64l0 0c0.88,-1.31 2.66,-1.66 3.97,-0.78l0 0c1.3,0.88 1.65,2.66 0.78,3.97l0 0c-2.08,3.09 -4.15,6.26 -6.2,9.51l0 0c-0.54,0.86 -1.47,1.33 -2.42,1.33l0 0c-0.52,0 -1.06,-0.14 -1.53,-0.44l0 0zm12.62 -19.06c-1.28,-0.92 -1.57,-2.71 -0.65,-3.99l0 0c2.27,-3.17 4.56,-6.25 6.86,-9.26l0 0c0.95,-1.25 2.75,-1.49 4,-0.53l0 0c1.26,0.96 1.5,2.75 0.54,4l0 0c-2.26,2.96 -4.52,6 -6.76,9.12l0 0c-0.55,0.78 -1.43,1.2 -2.33,1.2l0 0c-0.57,0 -1.15,-0.17 -1.66,-0.53l0 0zm13.76 -18.27c-1.23,-1 -1.4,-2.8 -0.41,-4.03l0 0c2.48,-3.02 4.96,-5.96 7.44,-8.8l0 0c1.03,-1.2 2.84,-1.31 4.03,-0.28l0 0c1.19,1.03 1.31,2.84 0.27,4.04l0 0c-2.44,2.8 -4.88,5.68 -7.32,8.66l0 0c-0.56,0.69 -1.38,1.05 -2.21,1.05l0 0c-0.64,0 -1.27,-0.21 -1.8,-0.64l0 0zm14.9 -17.35c-1.16,-1.08 -1.23,-2.89 -0.15,-4.04l0 0c2.67,-2.86 5.33,-5.63 8.01,-8.3l0 0c1.12,-1.11 2.93,-1.11 4.04,0l0 0c1.12,1.12 1.12,2.93 0,4.04l0 0c-2.62,2.63 -5.24,5.34 -7.87,8.16l0 0c-0.55,0.6 -1.32,0.91 -2.08,0.91l0 0c-0.7,0 -1.4,-0.25 -1.95,-0.77l0 0zm16.01 -16.32c-1.08,-1.14 -1.02,-2.95 0.14,-4.04l0 0c2.87,-2.67 5.72,-5.25 8.57,-7.72l0 0c1.19,-1.03 2.99,-0.92 4.03,0.28l0 0c1.03,1.19 0.92,3 -0.28,4.04l0 0c-2.8,2.42 -5.6,4.96 -8.42,7.58l0 0c-0.55,0.52 -1.25,0.78 -1.95,0.78l0 0c-0.76,0 -1.53,-0.31 -2.09,-0.92l0 0zm17.12 -15.16c-0.99,-1.22 -0.8,-3.03 0.43,-4.02l0 0c3.05,-2.48 6.09,-4.84 9.09,-7.1l0 -0.01c1.27,-0.95 3.06,-0.69 4.01,0.57l0 0c0.95,1.26 0.69,3.05 -0.57,4l0 0c-2.95,2.22 -5.93,4.54 -8.93,6.97l0 0c-0.53,0.43 -1.16,0.63 -1.79,0.63l0 0c-0.84,0 -1.66,-0.36 -2.23,-1.06l0 0zm18.15 -13.91c-0.9,-1.3 -0.59,-3.08 0.7,-3.98l0 0c3.24,-2.27 6.44,-4.41 9.58,-6.44l0 0c1.33,-0.86 3.09,-0.48 3.95,0.85l0 0c0.86,1.32 0.48,3.1 -0.85,3.95l0 0c-3.08,1.99 -6.22,4.09 -9.41,6.33l0 0c-0.5,0.35 -1.07,0.51 -1.63,0.51l0 0c-0.9,0 -1.79,-0.42 -2.34,-1.22l0 0zm19.08 -12.6c-0.81,-1.35 -0.37,-3.11 0.99,-3.92l0 0c3.42,-2.05 6.75,-3.96 9.98,-5.77l0 0c1.38,-0.76 3.12,-0.26 3.89,1.12l0 0c0.77,1.38 0.27,3.11 -1.11,3.89l0 0c-3.19,1.77 -6.47,3.66 -9.83,5.67l0 0c-0.46,0.28 -0.96,0.4 -1.47,0.4l0 0c-0.97,0 -1.92,-0.5 -2.46,-1.39l0 0zm19.9 -11.28c-0.73,-1.4 -0.18,-3.13 1.22,-3.86l0 0c3.6,-1.86 7.04,-3.57 10.29,-5.16l0 0c1.42,-0.69 3.13,-0.1 3.83,1.32l0 0c0.68,1.42 0.1,3.13 -1.33,3.82l0 0c-3.22,1.57 -6.61,3.26 -10.16,5.1l0 0c-0.42,0.21 -0.87,0.32 -1.31,0.32l0 0c-1.04,0 -2.04,-0.56 -2.54,-1.55l0 0zm20.5 -10.16c-0.68,-1.43 -0.06,-3.14 1.37,-3.81l0 0c3.29,-1.55 6.29,-2.96 8.94,-4.25l0 0c0.44,-0.21 0.89,-0.43 1.34,-0.65l0 -0.01c1.42,-0.7 3.14,-0.1 3.83,1.31l0 0c0.69,1.42 0.11,3.13 -1.31,3.83l0 0c-0.46,0.22 -0.92,0.45 -1.36,0.66l0 0c-2.71,1.31 -5.72,2.73 -9.01,4.27l0 0c-0.39,0.19 -0.81,0.28 -1.21,0.28l0 0c-1.07,0 -2.1,-0.6 -2.59,-1.64l0 0zm20.61 -9.96c-0.72,-1.41 -0.15,-3.13 1.26,-3.84l0 0c3.23,-1.64 6.64,-3.38 10.18,-5.21l0 0.01c1.4,-0.73 3.12,-0.18 3.85,1.22l0 0c0.72,1.41 0.17,3.14 -1.23,3.85l0 0c-3.55,1.83 -6.97,3.59 -10.22,5.23l0 0c-0.41,0.21 -0.86,0.31 -1.29,0.31l0 0c-1.05,0 -2.05,-0.57 -2.55,-1.57l0 0zm20.38 -10.45c-0.73,-1.41 -0.19,-3.13 1.21,-3.86l0 0c3.34,-1.75 6.73,-3.52 10.13,-5.31l0.01 0c1.4,-0.74 3.13,-0.2 3.86,1.2l0 0c0.74,1.4 0.2,3.13 -1.2,3.86l0 0c-3.4,1.79 -6.81,3.57 -10.15,5.31l0 0c-0.43,0.23 -0.88,0.33 -1.33,0.33l0 0c-1.02,0 -2.03,-0.55 -2.53,-1.53l0 0zm20.28 -10.65c-0.73,-1.4 -0.2,-3.13 1.19,-3.87l0 0c3.43,-1.82 6.81,-3.62 10.1,-5.38l0 0c1.38,-0.74 3.13,-0.21 3.87,1.18l0 0c0.74,1.39 0.22,3.13 -1.18,3.87l0 0c-3.3,1.76 -6.68,3.56 -10.12,5.38l0 0c-0.43,0.22 -0.88,0.33 -1.34,0.33l0 0c-1.02,0 -2.01,-0.55 -2.53,-1.51l0 0zm20.22 -10.77c-0.75,-1.39 -0.22,-3.13 1.16,-3.87l0 0c3.58,-1.92 6.97,-3.74 10.09,-5.42l0 0c1.39,-0.75 3.13,-0.23 3.87,1.16l0 0c0.75,1.39 0.23,3.13 -1.16,3.87l0 0c-3.14,1.69 -6.52,3.51 -10.1,5.43l0 0c-0.43,0.23 -0.89,0.33 -1.34,0.33l0 0c-1.02,0 -2.01,-0.55 -2.53,-1.51l0 0zm20.18 -10.85c-0.74,-1.39 -0.23,-3.13 1.16,-3.87l0 0c6.27,-3.39 10.09,-5.47 10.1,-5.48l0 0c1.39,-0.75 3.13,-0.24 3.88,1.14l0 0c0.75,1.39 0.24,3.12 -1.14,3.88l0 0c0,0.01 -3.83,2.09 -10.11,5.48l0 0c-0.43,0.24 -0.9,0.35 -1.36,0.35l0 0c-1.01,0 -2,-0.54 -2.52,-1.49l0 0z"
   id="path19" />
  <path
   class="fil0"
   d="M816.58 49.71c-39.87,-19.3 -63.77,-37.1 -125.8,-41.46 -1.8,-0.12 -3.23,-1.38 -4.79,-1.96 12.1,8.6 24.8,23.15 34.12,47.83 23.76,62.9 26.97,147.67 -49.07,232.93 46.54,-9.57 131.24,-24.34 131.24,-24.34 8.57,-5.72 44.31,-60.04 51.46,-107.21 7.15,-47.18 -6.89,-91.12 -37.17,-105.79z"
   id="path20" />
  <path
   class="fil4"
   d="M714.39 18.39c0,0 81.49,25.73 102.93,41.45 0,0 32.88,55.75 15.73,110.08 0,0 1.43,-47.18 -10.01,-65.77 0,0 8.58,51.47 -5.72,92.92 0,0 -2.86,-114.36 -35.74,-138.66l-67.19 -40.03z"
   id="path21"
   style="fill:#ffff00" />
  <path
   class="fil2"
   d="M631.12 12.67l13.7 7.15c0,0 18.11,-15.73 42.41,5.72 40.18,35.46 37.17,105.79 25.73,168.69 -11.43,62.9 -72.21,94.22 -72.21,94.22 15.32,3.27 23.27,0.02 30.3,-1.4 76.04,-85.25 72.83,-170.03 49.07,-232.93 -9.38,-24.81 -22.15,-39.39 -34.31,-47.96 -0.47,-0.21 -0.98,-0.43 -1.43,-0.64 -34.31,-15.72 -53.25,7.15 -53.25,7.15z"
   id="path22" />
  <path
   class="fil4"
   d="M713.07 179.6c-0.01,0 -2.97,-1.53 -8.07,-4.22l0 -0.01c-1.4,-0.73 -1.93,-2.46 -1.2,-3.86l0 0c0.73,-1.39 2.46,-1.93 3.86,-1.2l0 0c5.09,2.68 8.03,4.2 8.04,4.21l0 0c1.4,0.72 1.94,2.45 1.22,3.85l0 0c-0.51,0.98 -1.51,1.54 -2.54,1.54l0 0c-0.44,0 -0.89,-0.1 -1.31,-0.32l0 0zm-18.22 -9.61c-3.08,-1.65 -6.47,-3.47 -10.11,-5.43l0 0c-1.4,-0.75 -1.91,-2.48 -1.16,-3.87l0 0c0.74,-1.39 2.49,-1.91 3.87,-1.16l0 0c3.63,1.96 7.02,3.78 10.09,5.42l0 0c1.39,0.74 1.91,2.47 1.17,3.87l0 0c-0.51,0.96 -1.5,1.51 -2.53,1.51l0 0c-0.45,0 -0.91,-0.11 -1.34,-0.33l0 0zm-20.2 -10.92c-3.24,-1.77 -6.6,-3.61 -10.05,-5.53l0 0c-1.38,-0.76 -1.89,-2.51 -1.12,-3.88l0 0c0.76,-1.38 2.5,-1.88 3.88,-1.11l0 0c3.45,1.9 6.81,3.74 10.04,5.51l0 0c1.37,0.76 1.89,2.49 1.13,3.88l0 0c-0.52,0.95 -1.5,1.49 -2.51,1.49l0 0c-0.46,0 -0.94,-0.11 -1.37,-0.35l0 0zm-20.08 -11.11c-3.29,-1.85 -6.63,-3.73 -10.01,-5.64l0.01 0c-1.37,-0.78 -1.85,-2.53 -1.08,-3.9l0 0c0.78,-1.37 2.53,-1.86 3.91,-1.08l0 0c3.35,1.91 6.68,3.79 9.96,5.63l0 0c1.38,0.77 1.86,2.52 1.09,3.89l0 0c-0.52,0.94 -1.5,1.46 -2.49,1.46l0 0c-0.47,0 -0.95,-0.11 -1.39,-0.36l0 0zm-19.96 -11.36c-3.32,-1.91 -6.63,-3.85 -9.93,-5.79l0 -0.01c-1.36,-0.8 -1.81,-2.55 -1.01,-3.91l0 0c0.8,-1.36 2.55,-1.81 3.91,-1.01l0 0c3.28,1.93 6.58,3.86 9.88,5.77l0 0c1.37,0.8 1.84,2.54 1.05,3.91l0 0c-0.53,0.91 -1.49,1.43 -2.48,1.43l0 0c-0.49,0 -0.98,-0.13 -1.43,-0.39l0 0zm-19.8 -11.67c-3.32,-2 -6.6,-4 -9.81,-5.99l0 0c-1.34,-0.84 -1.76,-2.59 -0.93,-3.94l0 0c0.84,-1.34 2.59,-1.76 3.93,-0.93l0 0c3.19,1.98 6.44,3.97 9.76,5.95l0 0c1.35,0.81 1.79,2.58 0.97,3.93l0 0c-0.53,0.89 -1.48,1.38 -2.45,1.38l0 0c-0.5,0 -1.01,-0.13 -1.48,-0.41l0 0zm-19.54 -12.12c-3.35,-2.14 -6.57,-4.25 -9.64,-6.31l0 0c-1.31,-0.88 -1.66,-2.66 -0.78,-3.97l0 0c0.88,-1.3 2.66,-1.65 3.97,-0.78l0 0c3.03,2.04 6.22,4.13 9.53,6.26l0 0c1.33,0.85 1.71,2.61 0.87,3.95l0 0c-0.55,0.85 -1.48,1.31 -2.41,1.31l0 0c-0.53,0 -1.06,-0.15 -1.54,-0.45l0 0zm-19.13 -12.9c-3.4,-2.45 -6.51,-4.81 -9.26,-7.04l0 0c-1.23,-0.99 -1.41,-2.79 -0.41,-4.02l0 0c1,-1.23 2.79,-1.41 4.02,-0.42l0 0c2.65,2.15 5.66,4.44 8.99,6.84l0 0c1.28,0.92 1.57,2.7 0.65,3.98l0 0c-0.56,0.78 -1.44,1.19 -2.32,1.19l0 0c-0.58,0 -1.16,-0.17 -1.66,-0.54l0 0zm-17.91 -14.66c-2.7,-2.33 -5.68,-4.56 -8.85,-6.68l0 0c-1.31,-0.88 -1.66,-2.66 -0.79,-3.97l0 0c0.88,-1.31 2.66,-1.66 3.97,-0.78l0 0c3.34,2.23 6.49,4.6 9.4,7.1l0 0c1.2,1.02 1.34,2.83 0.31,4.02l0 0c-0.57,0.66 -1.36,0.99 -2.17,0.99l0 0c-0.66,0 -1.33,-0.22 -1.86,-0.68l0 0zm-18.43 -12.48c-3.25,-1.79 -6.62,-3.48 -10.04,-5.09l0 0c-1.43,-0.67 -2.05,-2.37 -1.38,-3.8l0 0c0.66,-1.44 2.36,-2.05 3.8,-1.39l0 0c3.52,1.65 7,3.4 10.38,5.26l0 0c1.38,0.76 1.89,2.5 1.13,3.88l0 0c-0.52,0.95 -1.49,1.48 -2.51,1.48l0 0c-0.47,0 -0.94,-0.11 -1.38,-0.35l0 0zm-20.4 -9.6c-3.54,-1.44 -7.1,-2.78 -10.59,-4.02l0 0c-1.48,-0.53 -2.26,-2.17 -1.73,-3.65l0 0c0.53,-1.49 2.16,-2.26 3.65,-1.73l0 0c3.56,1.27 7.18,2.63 10.82,4.12l0 0c1.46,0.59 2.16,2.26 1.57,3.72l0 0c-0.45,1.1 -1.51,1.78 -2.65,1.78l0 0c-0.36,0 -0.72,-0.06 -1.08,-0.21l0 0zm-21.34 -7.63c-3.83,-1.21 -7.49,-2.3 -10.88,-3.24l0 0c-1.52,-0.43 -2.41,-2 -1.99,-3.52l0 0c0.43,-1.52 2,-2.41 3.52,-1.98l0 0c3.45,0.96 7.18,2.06 11.07,3.29l0 0c1.51,0.48 2.35,2.09 1.86,3.59l0 0c-0.38,1.22 -1.51,1.99 -2.73,1.99l0 0c-0.28,0 -0.57,-0.04 -0.86,-0.12l0 0zm-21.88 -6.13c-6.85,-1.69 -11.06,-2.49 -11.07,-2.49l0.01 0c-1.56,-0.3 -2.58,-1.79 -2.27,-3.34l0 0c0.29,-1.56 1.79,-2.58 3.34,-2.27l0 0c0.04,0.01 4.39,0.84 11.35,2.55l0 0c1.54,0.38 2.47,1.92 2.1,3.45l0 0c-0.32,1.31 -1.5,2.18 -2.78,2.18l0 0c-0.23,0 -0.45,-0.03 -0.68,-0.08l0 0z"
   id="path23" />
  <path
   class="fil4"
   d="M508.6 249.14c-0.32,-1.55 0.66,-3.07 2.2,-3.39l0 0c0.53,-0.12 1.07,-0.23 1.59,-0.35l0 -0.01c1.54,-0.35 3.08,0.61 3.43,2.16l0 0c0.35,1.53 -0.61,3.07 -2.16,3.42l0 0c-0.55,0.12 -1.11,0.24 -1.67,0.37l0 0c-0.2,0.04 -0.4,0.06 -0.6,0.06l0 0c-1.31,0 -2.5,-0.92 -2.79,-2.26l0 0zm12.73 -3.12c-0.49,-1.5 0.33,-3.11 1.83,-3.6l0 0c3.57,-1.17 7.06,-2.48 10.46,-3.93l0 0c1.45,-0.63 3.13,0.05 3.75,1.51l0 0c0.62,1.45 -0.05,3.12 -1.51,3.75l0 0c-3.54,1.51 -7.18,2.89 -10.93,4.11l0 0c-0.3,0.1 -0.59,0.14 -0.88,0.14l0 0c-1.21,0 -2.33,-0.77 -2.72,-1.97l0 0zm21.21 -8.49c-0.74,-1.4 -0.2,-3.13 1.2,-3.86l0 0c3.35,-1.75 6.59,-3.63 9.74,-5.59l-0.01 0c1.35,-0.84 3.11,-0.43 3.94,0.91l0 0c0.84,1.34 0.43,3.1 -0.91,3.94l0 0c-3.25,2.03 -6.62,3.97 -10.1,5.8l0 0c-0.43,0.23 -0.87,0.33 -1.33,0.33l0 0c-1.03,0 -2.03,-0.55 -2.53,-1.53l0 0zm19.62 -11.74c-0.92,-1.29 -0.64,-3.08 0.64,-3.99l0 0c3.09,-2.24 6.06,-4.55 8.91,-6.89l0 0c1.22,-1 3.02,-0.83 4.02,0.39l0 0c1.01,1.22 0.84,3.02 -0.39,4.02l0 0c-2.93,2.42 -5.99,4.8 -9.19,7.11l0 0c-0.5,0.36 -1.09,0.54 -1.67,0.54l0 0c-0.89,0 -1.76,-0.41 -2.32,-1.18l0 0zm17.89 -14.27c-1.07,-1.16 -1,-2.97 0.15,-4.04l0 0c2.86,-2.63 5.55,-5.29 8.08,-7.89l0 0c1.1,-1.14 2.91,-1.17 4.05,-0.06l0 0c1.14,1.1 1.16,2.91 0.06,4.05l0 0c-2.6,2.67 -5.37,5.39 -8.3,8.1l0 0c-0.55,0.51 -1.24,0.77 -1.95,0.77l0 0c-0.76,0 -1.53,-0.31 -2.1,-0.92l0 0zm16.15 -16.21c-1.19,-1.04 -1.3,-2.84 -0.26,-4.04l0 0c2.67,-3.04 5.08,-5.96 7.23,-8.69l0 0c0.98,-1.24 2.79,-1.45 4.02,-0.47l0 0c1.24,0.98 1.45,2.78 0.47,4.01l0 0c-2.21,2.8 -4.69,5.79 -7.41,8.91l0 0c-0.57,0.64 -1.36,0.97 -2.15,0.97l0 0c-0.67,0 -1.35,-0.23 -1.89,-0.71l0 0zm14.43 -17.78c-1.29,-0.92 -1.59,-2.7 -0.68,-3.99l0 0c4.11,-5.79 6.19,-9.36 6.2,-9.37l0 0c0.8,-1.36 2.54,-1.82 3.91,-1.02l0 0c1.37,0.79 1.83,2.54 1.03,3.91l0 0c-0.03,0.06 -2.24,3.84 -6.47,9.8l0 0c-0.55,0.79 -1.44,1.2 -2.33,1.2l0 0c-0.57,0 -1.15,-0.17 -1.65,-0.52l0 0z"
   id="path24" />
  <path
   class="fil4"
   d="M697.29 268.14c-1.2,-1.02 -1.34,-2.83 -0.31,-4.03l0 0c2.5,-2.93 4.89,-5.84 7.17,-8.74l0.01 0c0.98,-1.24 2.78,-1.45 4.01,-0.47l0 0c1.24,0.97 1.45,2.77 0.48,4.01l0 0c-2.34,2.97 -4.78,5.95 -7.33,8.93l0 0c-0.57,0.66 -1.37,1 -2.17,1l0 0c-0.66,0 -1.32,-0.23 -1.86,-0.69l0 0zm14.32 -17.82c-1.28,-0.92 -1.58,-2.71 -0.66,-3.99l0 0c2.25,-3.13 4.37,-6.23 6.37,-9.34l0 0c0.86,-1.33 2.62,-1.71 3.95,-0.84l0 0c1.33,0.86 1.7,2.63 0.85,3.95l0 0c-2.05,3.18 -4.23,6.36 -6.52,9.56l0 0c-0.56,0.78 -1.43,1.19 -2.33,1.19l0 0c-0.58,0 -1.16,-0.17 -1.66,-0.53l0 0zm12.66 -19.04c-1.37,-0.79 -1.84,-2.54 -1.05,-3.9l0 0c1.92,-3.33 3.72,-6.63 5.39,-9.91l0 0c0.72,-1.41 2.44,-1.97 3.84,-1.25l0 0c1.41,0.72 1.97,2.44 1.25,3.84l0 0c-1.71,3.38 -3.56,6.77 -5.53,10.18l0 0c-0.53,0.92 -1.48,1.43 -2.47,1.43l0 0c-0.49,0 -0.98,-0.12 -1.43,-0.38l0 0zm10.64 -20.23c-1.45,-0.63 -2.1,-2.32 -1.47,-3.77l0 0c1.54,-3.51 2.95,-6.99 4.23,-10.44l0 0c0.55,-1.49 2.19,-2.24 3.67,-1.69l0 0c1.48,0.55 2.23,2.19 1.69,3.67l0 0c-1.32,3.57 -2.77,7.15 -4.35,10.76l0 0c-0.47,1.07 -1.52,1.7 -2.62,1.7l0 0c-0.39,0 -0.78,-0.08 -1.15,-0.24l0 0zm8.27 -21.31c-1.51,-0.46 -2.37,-2.05 -1.91,-3.57l0 0c1.1,-3.66 2.07,-7.27 2.92,-10.86l0 -0.01c0.36,-1.54 1.9,-2.49 3.44,-2.13l0 0c1.54,0.36 2.49,1.9 2.13,3.44l0 0c-0.87,3.7 -1.87,7.44 -3.01,11.22l0 0c-0.38,1.23 -1.51,2.02 -2.74,2.02l0 0c-0.27,0 -0.56,-0.03 -0.83,-0.12l0 0zm5.57 -22.17c-1.56,-0.25 -2.61,-1.73 -2.34,-3.29l0 0c0.63,-3.77 1.11,-7.48 1.49,-11.15l0 0c0.16,-1.57 1.56,-2.72 3.13,-2.56l0 0c1.57,0.15 2.72,1.56 2.56,3.13l0 0c-0.38,3.79 -0.89,7.63 -1.54,11.52l0 0c-0.23,1.4 -1.44,2.39 -2.82,2.39l0 0c-0.16,0 -0.31,-0.02 -0.47,-0.04l0 0zm2.66 -22.7c-1.58,-0.05 -2.82,-1.38 -2.76,-2.96l0 0c0.06,-1.96 0.1,-3.91 0.1,-5.84l0 0c0,-1.82 -0.03,-3.61 -0.09,-5.4l0 0c-0.05,-1.58 1.19,-2.9 2.77,-2.94l0 0c1.57,-0.05 2.89,1.19 2.94,2.76l0 0c0.06,1.84 0.09,3.71 0.09,5.58l0 0c0,1.99 -0.03,4.01 -0.1,6.03l0 0c-0.05,1.55 -1.33,2.76 -2.86,2.76l0 0c-0.03,0 -0.06,0 -0.09,0l0 0zm-3.47 -25.43c-0.36,-3.8 -0.85,-7.52 -1.43,-11.16l0 0c-0.25,-1.56 0.81,-3.03 2.38,-3.28l0 0c1.55,-0.25 3.02,0.81 3.27,2.37l0 0c0.6,3.75 1.09,7.59 1.47,11.52l0 0c0.15,1.57 -1,2.97 -2.58,3.11l0 0c-0.09,0.01 -0.18,0.02 -0.27,0.02l0 0c-1.46,0 -2.7,-1.11 -2.85,-2.59l0 0zm-3.55 -22.22c-0.84,-3.75 -1.77,-7.4 -2.78,-10.92l0 0c-0.44,-1.51 0.44,-3.1 1.96,-3.53l0 0c1.52,-0.44 3.1,0.44 3.54,1.96l0 0c1.04,3.63 2,7.38 2.88,11.25l0 0c0.33,1.54 -0.64,3.07 -2.18,3.41l0 0c-0.21,0.05 -0.43,0.07 -0.63,0.07l0 0c-1.3,0 -2.48,-0.9 -2.79,-2.24l0 0zm-6.21 -21.65c-1.29,-3.69 -2.65,-7.2 -4.03,-10.53l0 0.01c-0.61,-1.46 0.08,-3.14 1.54,-3.74l0 0c1.45,-0.6 3.13,0.08 3.74,1.54l0 0c1.42,3.43 2.82,7.04 4.14,10.83l0 0c0.53,1.49 -0.25,3.13 -1.75,3.65l0 0c-0.31,0.11 -0.63,0.16 -0.94,0.16l0 0c-1.18,0 -2.29,-0.73 -2.7,-1.91l0 0zm-8.66 -20.82c-1.76,-3.65 -3.52,-7 -5.19,-10.01l0 0c-0.76,-1.38 -0.27,-3.13 1.12,-3.89l0 0c1.37,-0.77 3.11,-0.27 3.88,1.11l0 0c1.72,3.1 3.52,6.55 5.34,10.3l0 0c0.68,1.42 0.09,3.13 -1.33,3.82l0 0c-0.4,0.19 -0.82,0.29 -1.24,0.29l0 0c-1.06,0 -2.08,-0.59 -2.58,-1.62l0 0zm-10.97 -19.69c-3.84,-5.99 -6.37,-9.13 -6.38,-9.15l0 0.01c-0.99,-1.23 -0.8,-3.03 0.43,-4.02l0 0c1.22,-0.99 3.03,-0.8 4.03,0.43l0 0c0.05,0.07 2.78,3.45 6.75,9.65l0 0c0.86,1.34 0.46,3.1 -0.86,3.95l0 0c-0.48,0.31 -1.01,0.45 -1.54,0.45l0 0c-0.95,0 -1.87,-0.46 -2.42,-1.31l0 0z"
   id="path25" />
 </g>
</svg>
