<?xml version="1.0" encoding="UTF-8"?>
<!DOCTYPE svg PUBLIC "-//W3C//DTD SVG 1.1//EN" "http://www.w3.org/Graphics/SVG/1.1/DTD/svg11.dtd">
<!-- Creator: CorelDRAW 2021 (64-Bit) -->
<svg xmlns="http://www.w3.org/2000/svg" xml:space="preserve" width="6.43974in" height="4.13569in" version="1.1" style="shape-rendering:geometricPrecision; text-rendering:geometricPrecision; image-rendering:optimizeQuality; fill-rule:evenodd; clip-rule:evenodd"
viewBox="0 0 1263.74 811.59"
 xmlns:xlink="http://www.w3.org/1999/xlink"
 xmlns:xodm="http://www.corel.com/coreldraw/odm/2003">
 <defs>
  <style type="text/css">
   <![CDATA[
    .fil3 {fill:#305612;fill-rule:nonzero}
    .fil4 {fill:#4A7C29;fill-rule:nonzero}
    .fil2 {fill:#4A7F28;fill-rule:nonzero}
    .fil1 {fill:#5B9337;fill-rule:nonzero}
    .fil0 {fill:#6EAF48;fill-rule:nonzero}
    .fil5 {fill:#96D16F;fill-rule:nonzero}
   ]]>
  </style>
 </defs>
 <g id="Layer_x0020_1">
  <metadata id="CorelCorpID_0Corel-Layer"/>
  <polygon class="fil0" points="1214.6,36.64 49.13,36.64 -0,71.45 -0,228.72 49.13,263.48 1214.6,263.48 1263.74,228.72 1263.74,71.45 "/>
  <polygon class="fil1" points="228.35,61.59 1054.15,61.59 812.95,90.2 1156.35,122.9 829.3,155.61 980.56,192.41 862.01,212.88 1123.65,249.68 154.76,249.68 416.4,204.69 285.58,180.18 420.49,159.7 265.14,131.09 367.34,110.67 150.67,69.78 "/>
  <path class="fil2" d="M1153.25 69.35l0 -10.88 32.7 0 0 10.88 -32.7 0 0 0zm-65.41 0l0 -10.88 32.7 0 0 10.88 -32.7 0 0 0zm-65.41 0l0 -10.88 32.7 0 0 10.88 -32.7 0 0 0zm-65.42 0l0 -10.88 32.71 0 0 10.88 -32.71 0 0 0zm-65.41 0l0 -10.88 32.7 0 0 10.88 -32.7 0 0 0zm-65.41 0l0 -10.88 32.7 0 0 10.88 -32.7 0 0 0zm-65.42 0l0 -10.88 32.7 0 0 10.88 -32.7 0 0 0zm-65.42 0l0 -10.88 32.71 0 0 10.88 -32.71 0 0 0zm-65.41 0l0 -10.88 32.7 0 0 10.88 -32.7 0 0 0zm-65.42 0l0 -10.88 32.7 0 0 10.88 -32.7 0 0 0zm-65.42 0l0 -10.88 32.71 0 0 10.88 -32.71 0 0 0zm-65.42 0l0 -10.88 32.71 0 0 10.88 -32.71 0 0 0zm-65.41 0l0 -10.88 32.7 0 0 10.88 -32.7 0 0 0zm-65.42 0l0 -10.88 32.71 0 0 10.88 -32.71 0 0 0zm-65.41 0l0 -10.88 32.71 0 0 10.88 -32.71 0 0 0zm-65.41 0l0 -10.88 32.71 0 0 10.88 -32.71 0 0 0zm-65.41 0l0 -10.88 32.71 0 0 10.88 -32.71 0 0 0z"/>
  <path class="fil2" d="M1153.25 243.81l0 -10.88 32.7 0 0 10.88 -32.7 0 0 0zm-65.41 0l0 -10.88 32.7 0 0 10.88 -32.7 0 0 0zm-65.41 0l0 -10.88 32.7 0 0 10.88 -32.7 0 0 0zm-65.42 0l0 -10.88 32.71 0 0 10.88 -32.71 0 0 0zm-65.41 0l0 -10.88 32.7 0 0 10.88 -32.7 0 0 0zm-65.41 0l0 -10.88 32.7 0 0 10.88 -32.7 0 0 0zm-65.42 0l0 -10.88 32.7 0 0 10.88 -32.7 0 0 0zm-65.42 0l0 -10.88 32.71 0 0 10.88 -32.71 0 0 0zm-65.41 0l0 -10.88 32.7 0 0 10.88 -32.7 0 0 0zm-65.42 0l0 -10.88 32.7 0 0 10.88 -32.7 0 0 0zm-65.42 0l0 -10.88 32.71 0 0 10.88 -32.71 0 0 0zm-65.42 0l0 -10.88 32.71 0 0 10.88 -32.71 0 0 0zm-65.41 0l0 -10.88 32.7 0 0 10.88 -32.7 0 0 0zm-65.42 0l0 -10.88 32.71 0 0 10.88 -32.71 0 0 0zm-65.41 0l0 -10.88 32.71 0 0 10.88 -32.71 0 0 0zm-65.41 0l0 -10.88 32.71 0 0 10.88 -32.71 0 0 0zm-65.41 0l0 -10.88 32.71 0 0 10.88 -32.71 0 0 0z"/>
  <path class="fil3" d="M443.44 56.52c0,0 -6.73,7.06 -6.86,21.39 -0.12,14.28 10.77,128.07 46.26,164.17 0,0 74.53,-32.38 127.94,-84.91 0,0 -119.77,-91.22 -167.34,-100.65z"/>
  <path class="fil0" d="M832.26 59.81c0,0 -32.67,-24.57 -72.59,-37.77 -39.91,-13.2 -86.94,-30.76 -133.64,-3.29 -46.69,27.48 -147.74,88.04 -210.37,110.45 -140.53,50.27 -295.65,303.4 -292.84,646.5 0,0 125.7,12.5 162.72,30.01 0,0 -27.39,-477.75 173.42,-556.09 200.81,-78.34 186.54,-81.3 249.8,-123.65 63.26,-42.35 123.51,-66.16 123.51,-66.16z"/>
  <path class="fil4" d="M122.82 775.71c-0.02,-2.37 -0,-4.8 -0.01,-7.17 40.48,-11.75 147.18,15.57 147.18,15.57 -8.37,-24.35 9.74,-304.42 56.3,-401.24 46.57,-96.82 76.79,-120.85 116.98,-139.06 40.18,-18.27 192.26,-81.3 232.57,-115.25 40.32,-34 93.43,-59.27 124.97,-70.42 9.3,-3.29 17.05,-4.2 23.41,-3.93 5.12,3.39 8.03,5.6 8.03,5.6 0,0 -60.25,23.81 -123.51,66.16 -63.26,42.35 -48.99,45.31 -249.8,123.65 -200.81,78.34 -173.42,556.09 -173.42,556.09 -37.02,-17.51 -162.72,-30.01 -162.72,-30.01z"/>
  <path class="fil0" d="M615.84 148.98c0,0 -89.94,74.84 -141.6,94.94 0,0 40.76,26.24 129.87,48.6 0,0 46.02,24.14 116.75,-77.32l-105.02 -66.22z"/>
  <path class="fil1" d="M624.06 159.76c0,0 -32.04,52.21 -75.7,77.1 0,0 33.64,-7.49 67.44,-34.38 0,0 -10.16,32.92 -22.07,40.63 0,0 29.56,8.03 69.3,-20.8 0,0 -4.17,25.22 -22.07,40.62 0,0 51.59,-28.72 71.58,-57.7l-88.48 -45.47z"/>
  <path class="fil4" d="M615.84 148.98c0,0 -89.94,74.84 -141.6,94.94 0,0 3.49,2.21 10.6,5.93 68.14,-30.66 122.77,-82.11 137.52,-96.71l-6.52 -4.15z"/>
  <path class="fil0" d="M443.44 56.52c0,0 33.08,-24.03 73.22,-36.53 40.14,-12.55 87.45,-29.31 133.67,-1.02 46.22,28.23 146.22,90.52 208.47,113.96 139.65,52.69 290.44,308.41 281.81,651.46 0,0 -125.89,10.35 -163.21,27.21 0,0 35.51,-477.21 -163.93,-558.95 -199.45,-81.73 -185.13,-84.48 -247.66,-127.91 -62.53,-43.43 -122.36,-68.21 -122.36,-68.21z"/>
  <path class="fil3" d="M650.33 18.97c16.85,10.29 40.85,25.11 67.56,40.95 -6.97,-17.35 -21.44,-38.63 -39.99,-44.29 -10.73,-3.29 -21.2,-1.19 -29.53,2.21 0.65,0.38 1.3,0.7 1.96,1.13z"/>
  <path class="fil1" d="M565.8 124.74c-17.48,-12.12 -34.76,-22.79 -50.57,-31.9 -39.19,18.43 -85.91,40.68 -133.7,70.37 -93.9,58.3 -144.63,196.98 -144.63,196.98 27.22,-62.66 98.36,-134.48 98.36,-134.48 -84.84,113.63 -97.25,227.91 -97.25,227.91 50.85,-152.05 133.2,-197.09 133.2,-197.09 -40.46,51.13 -52.3,98.65 -52.3,98.65 36.83,-72.09 117.4,-132.44 174.77,-154.8 35.26,-13.74 77.06,-36.8 104.06,-52.53 -9.05,-6.68 -18.79,-14.01 -31.93,-23.11z"/>
  <path class="fil1" d="M652.47 131.2c0,0 73.93,48.28 130.92,71.66 56.98,23.33 136.51,85.02 172.11,157.76 0,0 -11.03,-47.79 -50.62,-99.57 0,0 81.57,46.44 129.83,199.35 0,0 -10.46,-114.49 -93.36,-229.53 0,0 69.9,73.01 96.06,136.15 0,0 -48.37,-139.6 -141.26,-199.46 -92.89,-59.86 -182.21,-91.11 -218.18,-120.04 0,0 35.78,51.78 69.91,73.06 0,0 -87.29,-46.5 -136.53,-83.14 0,0 66.03,80.6 128.65,113.58 0,0 -62.85,-6.3 -87.52,-19.83z"/>
  <path class="fil4" d="M1140.6 784.38c0.06,-2.42 0.09,-4.8 0.13,-7.22 -40.27,-12.39 -147.43,13.09 -147.43,13.09 8.78,-24.19 -4.56,-304.53 -49.48,-402.1 -44.92,-97.63 -74.73,-122.15 -114.6,-141.11 -39.87,-18.91 -190.85,-84.54 -230.58,-119.18 -39.74,-34.64 -92.41,-60.83 -123.76,-72.52 -9.23,-3.45 -16.97,-4.47 -23.33,-4.31 -5.18,3.34 -8.13,5.5 -8.13,5.5 0,0 59.83,24.78 122.36,68.21 62.53,43.43 48.22,46.17 247.66,127.91 199.45,81.74 163.93,558.95 163.93,558.95 37.32,-16.86 163.21,-27.21 163.21,-27.21z"/>
  <path class="fil5" d="M1067.51 413.04c0,0 67.08,181.63 59.92,351.19 0,0 -51.47,-0.43 -99.19,8.73 0,0 63.15,-29.96 85.98,-24.08 0,0 5.15,-156.25 -46.71,-335.83z"/>
  <path class="fil5" d="M199.35 405.66c0,0 -70.15,180.44 -65.88,350.16 0,0 51.46,0.43 99.03,10.34 0,0 -62.64,-31.03 -85.56,-25.48 0,0 -2.49,-156.36 52.4,-335.02z"/>
  <path class="fil5" d="M485.03 39.71c0,0 70.3,-29.42 117.47,-29.04 47.18,0.43 76.79,47.84 76.79,47.84 0,0 -53.76,-66.22 -194.26,-18.8z"/>
  <path class="fil2" d="M1009.2 754.64c-1.58,-0.05 -2.78,-1.4 -2.69,-2.96l0 0c0.06,-1.24 0.13,-2.42 0.2,-3.61l0 0c0.08,-1.56 1.43,-2.75 3,-2.69l0 0c1.58,0.11 2.79,1.45 2.7,3.02l0 0c-0.06,1.19 -0.12,2.37 -0.19,3.56l0 0c-0.09,1.56 -1.36,2.75 -2.88,2.75l0 0c-0.04,0 -0.09,0 -0.13,-0.05l0 0zm0.8 -14.98c-1.58,-0.05 -2.8,-1.4 -2.73,-2.96l0 0c0.18,-3.83 0.34,-7.65 0.48,-11.42l0 0c0.06,-1.56 1.38,-2.8 2.96,-2.75l0 0c1.58,0.05 2.81,1.4 2.75,2.96l0 0c-0.15,3.77 -0.31,7.6 -0.48,11.48l0 0c-0.07,1.51 -1.35,2.69 -2.88,2.69l0 0c-0.03,0 -0.07,0 -0.1,0l0 0zm0.91 -22.84c-1.58,-0.05 -2.82,-1.35 -2.77,-2.96l0 0c0.11,-3.83 0.22,-7.6 0.3,-11.37l0 0c0.03,-1.56 1.34,-2.86 2.92,-2.8l0 0c1.58,0 2.83,1.35 2.8,2.91l0 0c-0.09,3.77 -0.18,7.6 -0.3,11.48l0 0c-0.05,1.56 -1.34,2.75 -2.88,2.75l0 0c-0.02,0 -0.05,0 -0.07,0l0 0zm0.54 -22.85c-1.57,-0.05 -2.83,-1.35 -2.82,-2.91l0 0c0.03,-1.94 0.05,-3.88 0.06,-5.77l0 0c0.02,-1.89 0.03,-3.77 0.03,-5.66l0 0c0.01,-1.56 1.29,-2.86 2.87,-2.8l0 0c1.58,0 2.86,1.24 2.85,2.86l0 0c0,1.83 -0.02,3.72 -0.03,5.6l0 0c-0.02,1.94 -0.04,3.88 -0.06,5.82l0 0c-0.02,1.62 -1.31,2.86 -2.88,2.86l0 0c-0.01,0 -0.01,0 -0.02,0l0 0zm-2.73 -25.7c-0.02,-3.88 -0.06,-7.65 -0.11,-11.42l0 0c-0.02,-1.62 1.23,-2.91 2.81,-2.91l0 0c1.58,0 2.88,1.24 2.9,2.8l0 0c0.06,3.83 0.1,7.6 0.11,11.48l0 0c0.01,1.56 -1.26,2.86 -2.84,2.86l0 0c-0.01,0 -0.03,0 -0.04,0l0 0c-1.56,0 -2.82,-1.24 -2.83,-2.8l0 0zm-0.33 -22.85c-0.09,-3.83 -0.2,-7.6 -0.33,-11.37l0 0c-0.05,-1.62 1.18,-2.91 2.75,-2.96l0 0c1.58,-0.05 2.91,1.19 2.96,2.75l0 0c0.12,3.77 0.24,7.6 0.33,11.48l0 0c0.04,1.56 -1.21,2.86 -2.79,2.91l0 0c-0.03,0 -0.06,0 -0.09,0l0 0c-1.54,0 -2.8,-1.24 -2.83,-2.8l0 0zm-0.78 -22.79c-0.17,-3.83 -0.36,-7.65 -0.58,-11.37l0 0c-0.09,-1.62 1.12,-2.96 2.7,-3.02l0 0c1.57,-0.11 2.93,1.13 3.01,2.69l0 0c0.22,3.77 0.4,7.6 0.58,11.42l0 0c0.08,1.62 -1.15,2.91 -2.72,3.02l0 0c-0.05,0 -0.11,0 -0.16,0l0 0c-1.51,0 -2.76,-1.24 -2.82,-2.75l0 0zm-1.27 -22.74c-0.26,-3.83 -0.53,-7.65 -0.82,-11.37l0 0c-0.13,-1.62 1.05,-2.96 2.62,-3.07l0 0c1.57,-0.16 2.95,1.02 3.07,2.59l0 0c0.3,3.77 0.57,7.6 0.83,11.48l0 0c0.1,1.56 -1.09,2.91 -2.67,3.02l0 0c-0.07,0 -0.15,0 -0.22,0l0 0c-1.48,0 -2.72,-1.19 -2.82,-2.64l0 0zm-1.78 -22.74c-0.34,-3.83 -0.71,-7.6 -1.09,-11.37l-0.01 0c-0.16,-1.56 0.99,-2.96 2.55,-3.13l0 0c1.57,-0.16 2.97,0.97 3.14,2.53l0 0c0.38,3.77 0.75,7.6 1.1,11.42l0 0c0.14,1.56 -1.02,2.96 -2.59,3.13l0 0c-0.09,0 -0.18,0 -0.28,0l0 0c-1.45,0 -2.69,-1.13 -2.82,-2.59l0 0zm-2.33 -22.68c-0.44,-3.83 -0.89,-7.6 -1.38,-11.31l0 0c-0.2,-1.56 0.9,-3.02 2.47,-3.18l0 0c1.56,-0.22 3,0.86 3.19,2.48l0 0c0.49,3.72 0.95,7.54 1.4,11.37l0 0c0.18,1.56 -0.94,2.96 -2.51,3.18l0 0c-0.12,0 -0.24,0 -0.35,0l0 0c-1.43,0 -2.65,-1.08 -2.82,-2.53l0 0zm-2.91 -22.58c-0.54,-3.83 -1.1,-7.6 -1.69,-11.31l0 0c-0.25,-1.51 0.81,-3.02 2.38,-3.23l0 0c1.56,-0.27 3.02,0.81 3.27,2.37l0 0c0.59,3.72 1.16,7.54 1.7,11.37l0 0c0.23,1.56 -0.86,2.96 -2.43,3.18l0 0c-0.15,0.05 -0.29,0.05 -0.44,0.05l0 0c-1.39,0 -2.6,-1.02 -2.8,-2.43l0 0zm-3.55 -22.52c-0.65,-3.77 -1.33,-7.54 -2.02,-11.21l0 0c-0.3,-1.56 0.73,-3.07 2.28,-3.34l0 0c1.55,-0.27 3.04,0.75 3.35,2.26l0 0c0.69,3.72 1.37,7.49 2.04,11.31l0 0c0.26,1.56 -0.78,3.02 -2.34,3.29l0 0c-0.17,0.05 -0.34,0.05 -0.51,0.05l0 0c-1.35,0 -2.55,-0.97 -2.79,-2.37l0 0zm-4.22 -22.36c-0.77,-3.77 -1.57,-7.49 -2.38,-11.15l0 0c-0.34,-1.51 0.63,-3.07 2.17,-3.39l0 0c1.54,-0.38 3.07,0.59 3.41,2.15l0 0c0.81,3.72 1.62,7.44 2.39,11.21l0 0c0.32,1.56 -0.67,3.07 -2.22,3.39l0 0c-0.2,0.05 -0.41,0.05 -0.61,0.05l0 0c-1.31,0 -2.49,-0.92 -2.77,-2.26l0 0zm-4.94 -22.25c-0.91,-3.72 -1.83,-7.38 -2.76,-10.99l-0.01 0c-0.39,-1.56 0.52,-3.13 2.05,-3.5l0 0c1.52,-0.43 3.09,0.48 3.49,2.05l0 0c0.94,3.61 1.88,7.38 2.79,11.15l0 0c0.37,1.51 -0.58,3.07 -2.12,3.39l0 0c-0.23,0.11 -0.46,0.11 -0.69,0.11l0 0c-1.28,0 -2.44,-0.92 -2.74,-2.21l0 0zm-5.73 -21.98c-1.04,-3.72 -2.1,-7.38 -3.17,-10.94l0 0c-0.46,-1.51 0.4,-3.12 1.91,-3.56l0 0c1.51,-0.49 3.1,0.38 3.56,1.89l0 0c1.09,3.61 2.16,7.33 3.21,11.05l0 0c0.43,1.51 -0.46,3.07 -1.98,3.5l0 0c-0.27,0.11 -0.53,0.11 -0.79,0.11l0 0c-1.25,0 -2.39,-0.81 -2.74,-2.05l0 0zm-6.57 -21.77c-1.19,-3.66 -2.4,-7.27 -3.62,-10.78l0 0c-0.52,-1.51 0.26,-3.12 1.76,-3.66l0 0c1.49,-0.54 3.12,0.27 3.64,1.78l0 0c1.24,3.56 2.46,7.17 3.66,10.88l0 0c0.49,1.51 -0.34,3.12 -1.84,3.61l0 0c-0.3,0.05 -0.61,0.11 -0.91,0.11l0 0c-1.2,0 -2.31,-0.75 -2.69,-1.94l0 0zm-7.48 -21.5c-1.35,-3.61 -2.72,-7.11 -4.1,-10.56l-0.01 0c-0.59,-1.51 0.12,-3.18 1.59,-3.72l0 0c1.46,-0.59 3.13,0.11 3.72,1.56l0 0c1.4,3.5 2.78,7.06 4.15,10.72l0 0c0.55,1.45 -0.2,3.13 -1.68,3.66l0 0c-0.33,0.16 -0.68,0.22 -1.02,0.22l0 0c-1.15,0 -2.23,-0.75 -2.65,-1.89l0 0zm-8.46 -21.07c-1.52,-3.56 -3.07,-7 -4.62,-10.4l0 0c-0.66,-1.4 -0.03,-3.13 1.4,-3.77l0 0c1.43,-0.65 3.13,-0.05 3.79,1.4l0 0c1.58,3.39 3.14,6.9 4.68,10.51l0 0c0.63,1.45 -0.04,3.13 -1.49,3.77l0 0c-0.38,0.16 -0.77,0.22 -1.15,0.22l0 0c-1.1,0 -2.14,-0.65 -2.61,-1.72l0 0zm-9.5 -20.64c-1.71,-3.45 -3.44,-6.79 -5.17,-10.08l0 0c-0.75,-1.4 -0.21,-3.13 1.18,-3.88l0 0c1.4,-0.75 3.13,-0.21 3.86,1.19l0 0c1.77,3.34 3.52,6.73 5.25,10.24l0 0c0.7,1.45 0.12,3.13 -1.29,3.83l0 0c-0.41,0.22 -0.86,0.32 -1.29,0.32l0 0c-1.04,0 -2.05,-0.59 -2.54,-1.62l0 0zm-10.64 -20.04c-1.91,-3.34 -3.84,-6.57 -5.76,-9.75l-0.01 0c-0.82,-1.35 -0.4,-3.13 0.95,-3.93l0 0c1.35,-0.81 3.1,-0.38 3.93,0.97l0 0c1.96,3.18 3.91,6.52 5.86,9.91l0 0c0.78,1.35 0.3,3.13 -1.07,3.88l0 0c-0.45,0.27 -0.95,0.38 -1.44,0.38l0 0c-0.98,0 -1.93,-0.54 -2.46,-1.45l0 0zm-11.84 -19.29c-2.13,-3.23 -4.26,-6.36 -6.39,-9.37l-0.01 0c-0.91,-1.29 -0.61,-3.07 0.68,-3.99l0 0c1.28,-0.92 3.07,-0.59 3.98,0.7l0 0c2.17,3.02 4.34,6.2 6.5,9.48l0 0c0.87,1.35 0.51,3.13 -0.82,3.99l0 0c-0.49,0.32 -1.04,0.49 -1.58,0.43l0 0c-0.92,0 -1.83,-0.43 -2.37,-1.24l0 0zm-13.11 -18.48c-2.37,-3.07 -4.73,-6.03 -7.07,-8.84l0 0c-1.01,-1.24 -0.84,-3.02 0.37,-4.04l0 0c1.22,-1.02 3.02,-0.81 4.03,0.38l0 0c2.39,2.86 4.78,5.87 7.2,9l0 0c0.96,1.29 0.72,3.07 -0.53,4.04l0 0c-0.53,0.38 -1.15,0.59 -1.76,0.59l0 0c-0.85,0 -1.69,-0.43 -2.24,-1.13l0 0zm-14.47 -17.4c-2.63,-2.91 -5.22,-5.6 -7.77,-8.19l0 0c-1.1,-1.13 -1.09,-2.96 0.03,-4.04l0 0c1.13,-1.13 2.94,-1.13 4.05,0l0 0c2.6,2.64 5.26,5.44 7.94,8.41l0 0c1.06,1.19 0.96,2.96 -0.2,4.04l0 0c-0.56,0.48 -1.26,0.75 -1.95,0.75l0 0c-0.77,0 -1.54,-0.32 -2.1,-0.97l0 0zm-15.88 -16.06c-2.92,-2.69 -5.76,-5.17 -8.49,-7.44l0 0c-1.22,-1.02 -1.38,-2.8 -0.38,-4.04l0 0c1,-1.19 2.81,-1.35 4.02,-0.38l0 0c2.81,2.37 5.73,4.9 8.71,7.65l0 0c1.16,1.08 1.23,2.86 0.16,4.04l0 0c-0.57,0.59 -1.35,0.92 -2.13,0.92l0 0c-0.68,0 -1.36,-0.27 -1.9,-0.75l0 0zm-17.37 -14.39c-3.31,-2.48 -6.41,-4.58 -9.25,-6.41l0 0c-1.33,-0.86 -1.71,-2.64 -0.86,-3.99l0 0c0.86,-1.29 2.62,-1.67 3.95,-0.81l0 0c2.95,1.89 6.15,4.09 9.56,6.57l0 0c1.27,0.97 1.53,2.75 0.59,4.04l0 0c-0.56,0.75 -1.44,1.13 -2.32,1.13l0 0c-0.58,0 -1.17,-0.16 -1.67,-0.54l0 0zm-18.91 -12.18c-3.19,-1.72 -5.72,-2.91 -7.44,-3.66l0 0c-1.7,-0.75 -2.53,-1.02 -2.53,-1.02l0 0c-1.49,-0.54 -2.28,-2.16 -1.76,-3.66l0 0c0.52,-1.51 2.15,-2.26 3.65,-1.72l0 0c0.14,0 4.11,1.45 10.8,5.06l0 0c1.39,0.75 1.9,2.48 1.15,3.88l0 0c-0.53,0.97 -1.52,1.51 -2.54,1.51l0 0c-0.45,-0.05 -0.91,-0.16 -1.34,-0.38l0 0z"/>
  <path class="fil2" d="M254.43 763.1c-1.57,0 -2.84,-1.29 -2.82,-2.91l0 0c0.03,-2.26 0.1,-6.2 0.22,-11.53l0.01 0c0.04,-1.56 1.34,-2.8 2.92,-2.75l0 0c1.58,0 2.83,1.35 2.79,2.91l0 0c-0.12,5.28 -0.18,9.21 -0.22,11.48l0 0c-0.02,1.56 -1.31,2.8 -2.88,2.8l0 0c0,0 -0.01,0 -0.02,0l0 0zm0.48 -22.95c-1.58,-0.05 -2.81,-1.4 -2.77,-2.96l0 0c0.1,-3.5 0.22,-7.38 0.38,-11.48l0 0c0.05,-1.62 1.37,-2.86 2.95,-2.75l0 0c1.58,0.05 2.81,1.35 2.76,2.91l0 0c-0.15,4.15 -0.27,7.97 -0.37,11.48l0 0c-0.05,1.56 -1.34,2.8 -2.9,2.8l0 0c-0.02,0 -0.03,0 -0.05,0l0 0zm0.78 -22.95c-1.58,-0.05 -2.81,-1.4 -2.75,-2.96l0 0c0.16,-3.66 0.31,-7.49 0.5,-11.48l0 0c0.06,-1.56 1.41,-2.8 2.98,-2.75l0 0c1.58,0.11 2.8,1.4 2.73,3.02l0 0c-0.18,3.93 -0.35,7.76 -0.5,11.42l0 0c-0.06,1.56 -1.34,2.75 -2.88,2.75l0 0c-0.03,0 -0.06,0 -0.09,0l0 0zm1.01 -22.9c-1.57,-0.11 -2.79,-1.45 -2.71,-3.02l0 0c0.19,-3.72 0.39,-7.54 0.61,-11.48l0 0c0.09,-1.56 1.44,-2.75 3.01,-2.69l0 0c1.58,0.11 2.79,1.45 2.7,3.02l0 0c-0.23,3.93 -0.42,7.76 -0.61,11.42l0 0c-0.07,1.56 -1.36,2.75 -2.89,2.75l0 0c-0.04,0 -0.07,0 -0.11,0l0 0zm1.24 -22.9c-1.58,-0.11 -2.78,-1.45 -2.68,-3.02l0 0c0.23,-3.77 0.47,-7.54 0.73,-11.48l0 0 0 0.05c0.11,-1.62 1.47,-2.8 3.04,-2.69l0 0c1.57,0.11 2.76,1.45 2.66,3.02l0 0c-0.26,3.88 -0.5,7.71 -0.73,11.42l0 0c-0.09,1.56 -1.37,2.69 -2.88,2.69l0 0c-0.05,0 -0.1,0 -0.15,0l0 0zm1.49 -22.85c-1.58,-0.11 -2.76,-1.51 -2.65,-3.07l0 0c0.26,-3.77 0.55,-7.6 0.85,-11.42l0 0c0.12,-1.56 1.49,-2.75 3.07,-2.64l0 0c1.58,0.11 2.75,1.51 2.64,3.07l0 0c-0.3,3.83 -0.58,7.65 -0.85,11.42l0 0c-0.1,1.51 -1.38,2.64 -2.87,2.64l0 0c-0.06,0 -0.12,0 -0.18,0l0 0zm1.73 -22.85c-1.58,-0.16 -2.75,-1.51 -2.62,-3.13l0 0c0.32,-3.77 0.65,-7.54 0.98,-11.42l0 0c0.14,-1.56 1.53,-2.69 3.1,-2.59l0 0c1.57,0.16 2.74,1.56 2.6,3.13l0 0c-0.34,3.83 -0.66,7.6 -0.97,11.37l0 0c-0.12,1.51 -1.39,2.64 -2.87,2.64l0 0c-0.07,0 -0.14,0 -0.21,0l0 0zm1.98 -22.85c-1.57,-0.11 -2.73,-1.51 -2.58,-3.13l0 0c0.36,-3.77 0.73,-7.54 1.12,-11.37l0 0c0.15,-1.62 1.56,-2.75 3.12,-2.59l0 0c1.57,0.16 2.72,1.56 2.56,3.13l0 0c-0.38,3.83 -0.75,7.6 -1.11,11.37l0 0c-0.14,1.51 -1.4,2.64 -2.87,2.64l0 0c-0.08,0 -0.16,-0.05 -0.24,-0.05l0 0zm2.26 -22.79c-1.56,-0.16 -2.7,-1.56 -2.54,-3.13l0 0c0.41,-3.83 0.84,-7.6 1.27,-11.42l0 0c0.18,-1.56 1.6,-2.69 3.17,-2.48l0 0c1.57,0.16 2.69,1.56 2.52,3.13l0 0c-0.44,3.83 -0.86,7.6 -1.27,11.37l0 0c-0.16,1.51 -1.41,2.59 -2.87,2.59l0 0c-0.09,0 -0.19,-0.05 -0.29,-0.05l0 0zm2.58 -22.74c-1.57,-0.22 -2.68,-1.62 -2.48,-3.18l0 0c0.46,-3.83 0.94,-7.6 1.43,-11.42l0 0.05c0.2,-1.62 1.64,-2.69 3.21,-2.48l0 0c1.56,0.16 2.67,1.62 2.47,3.18l0 0c-0.5,3.77 -0.98,7.6 -1.43,11.37l0 0c-0.18,1.45 -1.43,2.48 -2.87,2.48l0 0c-0.11,0 -0.22,0 -0.32,0l0 0zm2.93 -22.74c-1.56,-0.22 -2.66,-1.67 -2.44,-3.23l0 0c0.52,-3.83 1.07,-7.6 1.63,-11.37l0 0c0.23,-1.56 1.69,-2.64 3.25,-2.42l0 0c1.56,0.22 2.64,1.67 2.4,3.23l0 0c-0.55,3.77 -1.09,7.54 -1.62,11.31l0 0c-0.2,1.45 -1.44,2.48 -2.86,2.48l0 0c-0.12,0 -0.25,0 -0.38,0l0 0zm3.31 -22.68c-1.56,-0.22 -2.62,-1.72 -2.38,-3.23l0 0c0.6,-3.83 1.21,-7.6 1.86,-11.37l0 0c0.25,-1.56 1.73,-2.59 3.29,-2.32l0 0c1.55,0.27 2.6,1.72 2.34,3.29l0 0c-0.63,3.72 -1.25,7.49 -1.84,11.26l0 0c-0.23,1.4 -1.45,2.42 -2.85,2.42l0 0c-0.14,0 -0.28,0 -0.42,-0.05l0 0zm3.76 -22.58c-1.56,-0.27 -2.59,-1.78 -2.31,-3.34l0 0c0.68,-3.77 1.39,-7.54 2.11,-11.26l0 0c0.3,-1.56 1.79,-2.59 3.35,-2.26l0 0c1.55,0.27 2.56,1.78 2.26,3.34l0 0c-0.72,3.72 -1.42,7.44 -2.1,11.21l0 0c-0.25,1.4 -1.47,2.37 -2.83,2.37l0 0c-0.16,0 -0.32,0 -0.49,-0.05l0 0zm4.28 -22.52c-1.55,-0.32 -2.54,-1.83 -2.23,-3.34l0 0c0.79,-3.83 1.6,-7.54 2.42,-11.26l0 0c0.35,-1.56 1.86,-2.53 3.41,-2.15l0 0c1.54,0.32 2.51,1.89 2.17,3.39l0 0c-0.82,3.72 -1.62,7.44 -2.4,11.15l0 0c-0.29,1.35 -1.49,2.32 -2.83,2.32l0 0c-0.18,0 -0.37,-0.05 -0.55,-0.11l0 0zm4.9 -22.36c-1.54,-0.38 -2.47,-1.89 -2.11,-3.45l0 0c0.91,-3.77 1.84,-7.49 2.8,-11.15l0 0c0.39,-1.51 1.96,-2.42 3.49,-2.05l0 0c1.53,0.38 2.44,1.94 2.05,3.5l0 0c-0.95,3.61 -1.88,7.33 -2.78,11.05l0 0c-0.31,1.35 -1.49,2.21 -2.8,2.21l0 0c-0.21,0 -0.43,-0.05 -0.65,-0.11l0 0zm5.68 -22.2c-1.52,-0.43 -2.4,-1.99 -1.97,-3.5l0 0c1.06,-3.77 2.16,-7.44 3.27,-11.05l0 0c0.47,-1.51 2.07,-2.37 3.58,-1.89l0 0c1.51,0.49 2.35,2.05 1.89,3.56l0 0c-1.1,3.61 -2.18,7.22 -3.23,10.94l0 0c-0.36,1.24 -1.52,2.1 -2.77,2.1l0 0c-0.25,-0.05 -0.51,-0.05 -0.76,-0.16l0 0zm6.65 -21.88c-1.5,-0.54 -2.3,-2.15 -1.78,-3.66l0 0c1.27,-3.72 2.57,-7.33 3.91,-10.83l0 0c0.56,-1.51 2.21,-2.21 3.69,-1.67l0 0c1.47,0.54 2.23,2.21 1.65,3.66l0 0c-1.31,3.5 -2.59,7.06 -3.84,10.72l0 0c-0.41,1.19 -1.53,1.94 -2.73,1.94l0 0c-0.3,0 -0.6,-0.05 -0.9,-0.16l0 0zm7.95 -21.5c-1.45,-0.59 -2.12,-2.26 -1.51,-3.72l0 0c1.55,-3.66 3.15,-7.17 4.8,-10.56l0 0c0.7,-1.45 2.4,-2.05 3.83,-1.35l0 0c1.42,0.7 2.01,2.42 1.31,3.83l0 0c-1.59,3.29 -3.16,6.74 -4.68,10.29l0 0c-0.46,1.08 -1.54,1.78 -2.65,1.72l0 0c-0.37,0 -0.74,-0.05 -1.1,-0.22l0 0zm9.76 -20.69c-1.37,-0.75 -1.86,-2.53 -1.08,-3.88l0 0c0.1,-0.22 0.2,-0.38 0.3,-0.54l0 0c1.82,-3.23 3.67,-6.36 5.53,-9.43l0 0c0.81,-1.35 2.57,-1.78 3.92,-0.97l0 0c1.35,0.81 1.78,2.59 0.96,3.93l0 0c-1.83,3.02 -3.64,6.14 -5.45,9.27l0 0c-0.1,0.22 -0.19,0.38 -0.29,0.54l0 0c-0.53,0.92 -1.51,1.45 -2.52,1.45l0 0c-0.47,0 -0.94,-0.11 -1.38,-0.38l0 0zm11.69 -19.67c-1.33,-0.86 -1.71,-2.59 -0.86,-3.93l0 0c2.11,-3.29 4.23,-6.47 6.37,-9.59l0 0c0.89,-1.29 2.67,-1.62 3.97,-0.75l0 0c1.3,0.92 1.63,2.69 0.74,3.99l0 0c-2.11,3.07 -4.2,6.2 -6.28,9.43l0 0c-0.55,0.86 -1.48,1.35 -2.44,1.35l0 0c-0.52,0 -1.05,-0.16 -1.52,-0.49l0 0zm12.78 -18.91c-1.27,-0.97 -1.55,-2.75 -0.62,-4.04l0 0c2.3,-3.13 4.62,-6.2 6.93,-9.16l0 0c0.97,-1.24 2.77,-1.51 4.01,-0.54l0 0c1.24,0.97 1.47,2.8 0.5,4.04l0 0c-2.28,2.91 -4.56,5.93 -6.82,9.05l0 0c-0.57,0.75 -1.45,1.19 -2.34,1.19l0 0c-0.58,0 -1.16,-0.22 -1.66,-0.54l0 0zm13.91 -18.16c-1.22,-1.02 -1.39,-2.8 -0.38,-4.04l0 0c2.49,-3.02 5.01,-5.93 7.51,-8.73l0 0c1.05,-1.19 2.86,-1.29 4.04,-0.27l0 0c1.19,1.08 1.29,2.86 0.24,4.04l0 0c-2.47,2.8 -4.94,5.66 -7.39,8.62l0 0c-0.58,0.7 -1.4,1.02 -2.23,1.02l0 0c-0.64,0 -1.27,-0.22 -1.79,-0.65l0 0zm15.03 -17.24c-1.15,-1.08 -1.2,-2.91 -0.11,-4.04l0 0c2.7,-2.86 5.39,-5.55 8.08,-8.24l0 0c1.13,-1.08 2.94,-1.08 4.04,0.05l0 0c1.11,1.13 1.09,2.96 -0.03,4.04l0 0c-2.65,2.59 -5.3,5.28 -7.94,8.08l0 0c-0.57,0.59 -1.34,0.92 -2.1,0.92l0 0c-0.7,0 -1.4,-0.27 -1.95,-0.81l0 0zm16.16 -16.16c-1.07,-1.19 -0.99,-2.96 0.17,-4.04l0 0c2.89,-2.64 5.77,-5.23 8.63,-7.65l0 0c1.2,-1.02 3.01,-0.92 4.03,0.32l0 0c1.02,1.19 0.89,3.02 -0.31,4.04l0 0c-2.81,2.37 -5.65,4.9 -8.49,7.49l0 0c-0.55,0.54 -1.26,0.75 -1.95,0.75l0 0c-0.77,0 -1.53,-0.32 -2.09,-0.92l0 0zm17.25 -15.03c-0.99,-1.24 -0.78,-3.02 0.46,-3.99l0 0c3.08,-2.48 6.13,-4.8 9.15,-7.06l0 0c1.27,-0.92 3.06,-0.65 4,0.59l0 0c0.94,1.29 0.66,3.07 -0.6,4.04l0 0c-2.97,2.15 -5.97,4.47 -9,6.9l0 0c-0.53,0.43 -1.17,0.59 -1.8,0.59l0 0c-0.83,0 -1.66,-0.38 -2.21,-1.08l0 0zm18.27 -13.74c-0.89,-1.29 -0.56,-3.07 0.74,-3.99l0 0c3.27,-2.21 6.48,-4.31 9.63,-6.36l0 0c1.33,-0.81 3.1,-0.43 3.94,0.92l0 0c0.85,1.29 0.45,3.07 -0.88,3.93l0 0c-3.1,1.94 -6.26,4.04 -9.46,6.25l0 0c-0.5,0.32 -1.07,0.48 -1.64,0.48l0 0c-0.9,0 -1.79,-0.43 -2.34,-1.24l0 0zm19.2 -12.45c-0.8,-1.35 -0.35,-3.13 1.02,-3.88l0 0c3.43,-2.05 6.78,-3.93 10.03,-5.71l0 0c1.38,-0.75 3.13,-0.22 3.88,1.13l0 0c0.75,1.4 0.24,3.13 -1.15,3.88l0 0c-3.2,1.78 -6.49,3.61 -9.87,5.6l0 0c-0.46,0.27 -0.97,0.43 -1.47,0.38l0 0c-0.98,0 -1.92,-0.49 -2.45,-1.4l0 0zm19.99 -11.1c-0.72,-1.4 -0.16,-3.13 1.25,-3.83l0 0c3.62,-1.83 7.07,-3.56 10.33,-5.07l0 0c1.43,-0.7 3.13,-0.11 3.81,1.35l0 0c0.67,1.4 0.07,3.12 -1.36,3.77l0 0c-3.23,1.56 -6.64,3.23 -10.2,5.01l0 0c-0.41,0.22 -0.87,0.32 -1.31,0.32l0 0c-1.03,0 -2.03,-0.59 -2.53,-1.56l0 0zm20.59 -9.97c-0.66,-1.45 -0.04,-3.12 1.4,-3.83l0 0c3.3,-1.51 6.32,-2.91 8.98,-4.15l0 0c0.44,-0.22 0.89,-0.43 1.35,-0.65l0 0c1.42,-0.7 3.13,-0.11 3.81,1.35l0 0c0.68,1.4 0.09,3.13 -1.34,3.83l0 0c-0.47,0.22 -0.92,0.43 -1.37,0.65l0 0c-2.72,1.29 -5.74,2.64 -9.04,4.2l0 0c-0.39,0.16 -0.81,0.27 -1.21,0.27l0 0c-1.07,-0.05 -2.1,-0.65 -2.58,-1.67l0 0zm20.69 -9.81c-0.71,-1.4 -0.12,-3.13 1.29,-3.83l0 0c3.25,-1.62 6.68,-3.34 10.23,-5.12l0 0c1.41,-0.7 3.13,-0.16 3.84,1.24l0 0c0.71,1.45 0.15,3.18 -1.27,3.88l0 0c-3.56,1.78 -7,3.5 -10.26,5.12l0 0c-0.41,0.22 -0.86,0.32 -1.29,0.32l0 0c-1.05,-0.05 -2.05,-0.59 -2.54,-1.62l0 0zm20.47 -10.29c-0.72,-1.4 -0.16,-3.13 1.24,-3.83l0 0c3.36,-1.72 6.76,-3.5 10.17,-5.23l0.01 0c1.41,-0.75 3.13,-0.16 3.85,1.24l0 0c0.73,1.4 0.17,3.13 -1.23,3.83l0 0c-3.42,1.78 -6.83,3.5 -10.19,5.23l0 0c-0.43,0.22 -0.88,0.32 -1.33,0.32l0 0c-1.03,0 -2.02,-0.59 -2.52,-1.56l0 0zm20.36 -10.45c-0.73,-1.4 -0.18,-3.13 1.23,-3.88l0 0c3.44,-1.78 6.83,-3.56 10.15,-5.28l0 0c1.4,-0.75 3.13,-0.16 3.86,1.19l0 0c0.73,1.4 0.19,3.13 -1.21,3.88l0 0c-3.31,1.72 -6.72,3.5 -10.16,5.28l0 0c-0.43,0.27 -0.89,0.32 -1.34,0.32l0 0c-1.02,0 -2.01,-0.54 -2.52,-1.51l0 0zm20.31 -10.61c-0.73,-1.4 -0.19,-3.13 1.2,-3.88l0 0c3.59,-1.89 7,-3.66 10.13,-5.33l0 0c1.4,-0.7 3.13,-0.16 3.86,1.24l0 0c0.74,1.35 0.2,3.12 -1.2,3.83l0 0c-3.14,1.67 -6.54,3.45 -10.14,5.33l0 0c-0.43,0.27 -0.89,0.38 -1.35,0.32l0 0c-1.02,0 -2.01,-0.54 -2.52,-1.51l0 0zm20.27 -10.67c-0.73,-1.4 -0.2,-3.13 1.19,-3.88l0 0c6.3,-3.34 10.13,-5.39 10.14,-5.39l0 0c1.39,-0.75 3.14,-0.22 3.87,1.19l0 0c0.74,1.4 0.21,3.13 -1.18,3.88l0 0c0,0 -3.84,2.05 -10.16,5.39l0 0c-0.43,0.22 -0.9,0.32 -1.36,0.32l0 0c-1.01,0 -1.99,-0.54 -2.51,-1.51l0 0z"/>
  <path class="fil0" d="M823.01 51.03c-39.7,-19.67 -63.45,-37.66 -125.44,-42.51 -1.8,-0.16 -3.22,-1.4 -4.77,-1.99 12.03,8.67 24.6,23.33 33.71,48.11 23.23,63.09 25.71,147.9 -51.05,232.49 46.63,-9.16 131.45,-23.22 131.45,-23.22 8.63,-5.66 44.82,-59.64 52.37,-106.79 7.55,-47.09 -6.11,-91.16 -36.27,-106.09z"/>
  <path class="fil5" d="M721.1 18.86c0,0 81.26,26.4 102.57,42.3 0,0 32.41,56.03 14.8,110.24 0,0 1.83,-47.2 -9.45,-65.84 0,0 8.14,51.51 -6.51,92.83 0,0 -1.89,-114.39 -34.56,-138.95l-66.84 -40.57z"/>
  <path class="fil4" d="M637.87 12.4l13.64 7.27c0,0 18.24,-15.57 42.36,6.09 39.87,35.78 36.26,106.09 24.29,168.91 -11.97,62.77 -73.01,93.59 -73.01,93.59 15.29,3.39 23.26,0.22 30.3,-1.13 76.76,-84.59 74.28,-169.4 51.05,-232.49 -9.17,-24.89 -21.81,-39.6 -33.9,-48.28 -0.47,-0.22 -0.98,-0.43 -1.43,-0.65 -34.18,-16 -53.31,6.68 -53.31,6.68z"/>
  <path class="fil2" d="M718.41 180.02c0,0 -2.95,-1.51 -8.03,-4.26l0 0c-1.39,-0.75 -1.91,-2.48 -1.16,-3.88l0 0c0.75,-1.4 2.48,-1.94 3.87,-1.19l0 0c5.07,2.75 8,4.31 8.01,4.31l0 0c1.39,0.7 1.92,2.42 1.19,3.83l0 0c-0.52,0.97 -1.52,1.56 -2.55,1.56l0 0c-0.45,0 -0.89,-0.11 -1.31,-0.38l0 0zm-18.14 -9.75c-3.06,-1.67 -6.43,-3.5 -10.06,-5.5l0 0c-1.38,-0.75 -1.89,-2.53 -1.12,-3.88l0 0c0.76,-1.4 2.5,-1.89 3.87,-1.13l0 0c3.62,1.99 6.99,3.83 10.05,5.5l0 0c1.38,0.75 1.9,2.48 1.14,3.88l0 0c-0.53,0.97 -1.52,1.51 -2.55,1.51l0 0c-0.45,0 -0.91,-0.11 -1.34,-0.38l0 0zm-20.1 -11.1c-3.22,-1.78 -6.57,-3.66 -10.01,-5.6l0 0c-1.37,-0.75 -1.86,-2.48 -1.08,-3.88l0 0c0.78,-1.4 2.52,-1.89 3.9,-1.08l0 0c3.43,1.94 6.78,3.77 9.99,5.6l0 0c1.37,0.75 1.87,2.48 1.1,3.88l0 0c-0.53,0.97 -1.51,1.45 -2.52,1.45l0 0c-0.46,0 -0.93,-0.11 -1.37,-0.38l0 0zm-19.98 -11.26c-3.28,-1.89 -6.6,-3.77 -9.96,-5.71l0.01 0c-1.36,-0.81 -1.83,-2.53 -1.04,-3.93l0 0c0.79,-1.35 2.54,-1.83 3.91,-1.02l0 0c3.34,1.94 6.65,3.83 9.92,5.71l0 0c1.37,0.75 1.84,2.53 1.06,3.88l0 0c-0.53,0.97 -1.51,1.45 -2.51,1.45l0 0c-0.47,0 -0.95,-0.11 -1.39,-0.38l0 0zm-19.85 -11.53c-3.3,-1.94 -6.61,-3.88 -9.88,-5.87l0 0c-1.35,-0.81 -1.79,-2.59 -0.98,-3.93l0 0c0.81,-1.35 2.57,-1.78 3.92,-0.97l0 0c3.27,1.99 6.56,3.93 9.84,5.87l0 0c1.36,0.81 1.81,2.53 1.01,3.88l0 0c-0.53,0.92 -1.5,1.45 -2.48,1.45l0 0c-0.49,-0.05 -0.98,-0.16 -1.42,-0.43l0 0zm-19.7 -11.85c-3.31,-1.99 -6.57,-4.04 -9.76,-6.03l0 0c-1.34,-0.86 -1.73,-2.64 -0.89,-3.93l0 0c0.85,-1.35 2.61,-1.78 3.94,-0.92l0 0c3.17,1.99 6.42,4.04 9.7,6.03l0 0c1.35,0.81 1.77,2.59 0.94,3.93l0 0c-0.54,0.86 -1.5,1.35 -2.47,1.35l0 0c-0.5,0 -1.01,-0.11 -1.47,-0.43l0 0zm-19.44 -12.28c-3.32,-2.16 -6.53,-4.31 -9.59,-6.36l0 0c-1.3,-0.92 -1.64,-2.69 -0.74,-3.99l0 0c0.89,-1.29 2.67,-1.67 3.98,-0.75l0 0c3.02,2.05 6.19,4.2 9.48,6.36l0 0c1.33,0.86 1.69,2.59 0.83,3.93l0 0c-0.55,0.86 -1.48,1.29 -2.42,1.29l0 0c-0.52,0 -1.06,-0.16 -1.54,-0.48l0 0zm-19.01 -13.04c-3.38,-2.48 -6.47,-4.85 -9.2,-7.11l0 0c-1.21,-1.02 -1.4,-2.8 -0.38,-4.04l0 0c1.01,-1.24 2.81,-1.4 4.02,-0.38l0 0c2.62,2.16 5.63,4.47 8.93,6.9l0 0c1.28,0.97 1.55,2.75 0.62,3.99l0 0c-0.57,0.81 -1.44,1.19 -2.33,1.19l0 0c-0.58,0 -1.16,-0.16 -1.66,-0.54l0 0zm-17.79 -14.82c-2.68,-2.37 -5.64,-4.63 -8.79,-6.73l0 0c-1.3,-0.92 -1.64,-2.69 -0.75,-3.99l0 0c0.89,-1.35 2.67,-1.67 3.98,-0.75l0 0c3.32,2.26 6.45,4.63 9.34,7.17l0 0c1.19,1.02 1.31,2.86 0.27,4.04l0 0c-0.57,0.65 -1.37,0.97 -2.18,0.97l0 0c-0.66,0 -1.32,-0.22 -1.86,-0.7l0 0zm-18.32 -12.66c-3.23,-1.78 -6.58,-3.5 -10,-5.17l0 0c-1.43,-0.65 -2.03,-2.37 -1.35,-3.77l0 0c0.68,-1.45 2.39,-2.05 3.81,-1.35l0 0c3.51,1.67 6.97,3.45 10.33,5.33l0 0c1.37,0.75 1.86,2.53 1.09,3.88l0 0c-0.53,0.97 -1.51,1.45 -2.52,1.45l0 0c-0.47,0 -0.94,-0.11 -1.38,-0.38l0 0zm-20.32 -9.75c-3.54,-1.45 -7.08,-2.86 -10.56,-4.09l0 0c-1.48,-0.59 -2.24,-2.21 -1.7,-3.66l0 0c0.54,-1.51 2.19,-2.26 3.67,-1.72l0 0c3.55,1.29 7.16,2.69 10.78,4.2l0 0c1.46,0.59 2.14,2.26 1.54,3.72l0 0c-0.46,1.13 -1.54,1.78 -2.66,1.78l0 0c-0.36,0 -0.72,-0.05 -1.07,-0.22l0 0zm-21.28 -7.81c-3.83,-1.24 -7.47,-2.37 -10.86,-3.34l0 0c-1.52,-0.43 -2.39,-1.99 -1.96,-3.56l0 0c0.44,-1.51 2.03,-2.37 3.54,-1.94l0 0c3.44,1.02 7.16,2.16 11.04,3.39l0 0c1.51,0.48 2.33,2.1 1.84,3.61l0 0c-0.39,1.19 -1.53,1.99 -2.74,1.94l0 0c-0.29,0 -0.58,0 -0.86,-0.11l0 0zm-21.83 -6.3c-6.84,-1.72 -11.03,-2.59 -11.05,-2.59l0.01 0c-1.55,-0.32 -2.55,-1.83 -2.24,-3.34l0 0c0.31,-1.56 1.82,-2.59 3.36,-2.26l0 0c0.04,0 4.38,0.86 11.33,2.64l0 0c1.53,0.38 2.46,1.94 2.07,3.45l0 0c-0.33,1.35 -1.51,2.21 -2.8,2.16l0 0c-0.23,0 -0.45,0 -0.68,-0.05l0 0z"/>
  <path class="fil2" d="M513.35 247.85c-0.32,-1.56 0.68,-3.07 2.23,-3.39l0 0c0.53,-0.11 1.07,-0.22 1.59,-0.32l0 0c1.55,-0.38 3.07,0.65 3.41,2.15l0 0c0.33,1.56 -0.65,3.07 -2.18,3.45l0 0c-0.56,0.11 -1.11,0.22 -1.68,0.32l0 0c-0.2,0.05 -0.4,0.05 -0.6,0.05l0 0c-1.31,0 -2.49,-0.92 -2.76,-2.26l0 0zm12.75 -3.02c-0.48,-1.51 0.35,-3.12 1.86,-3.61l0 0c3.58,-1.13 7.08,-2.42 10.5,-3.83l0 0c1.46,-0.59 3.14,0.05 3.74,1.56l0 0c0.61,1.4 -0.08,3.13 -1.55,3.72l0 0c-3.55,1.45 -7.21,2.8 -10.97,4.04l0 0c-0.29,0.05 -0.59,0.11 -0.88,0.11l0 0c-1.21,0 -2.32,-0.81 -2.7,-1.99l0 0zm21.28 -8.3c-0.73,-1.4 -0.17,-3.13 1.23,-3.88l0 0c3.37,-1.72 6.62,-3.56 9.78,-5.5l-0.01 0c1.35,-0.81 3.11,-0.38 3.93,0.97l0 0c0.83,1.35 0.4,3.07 -0.94,3.93l0 0c-3.27,1.99 -6.66,3.88 -10.15,5.71l0 0c-0.43,0.22 -0.88,0.32 -1.33,0.32l0 0c-1.03,-0.05 -2.03,-0.59 -2.52,-1.56l0 0zm19.71 -11.58c-0.91,-1.29 -0.61,-3.07 0.68,-3.99l0 0c3.11,-2.21 6.1,-4.47 8.97,-6.79l0 0c1.23,-1.02 3.03,-0.81 4.02,0.38l0 0c1,1.24 0.81,3.07 -0.43,4.04l0 0c-2.95,2.37 -6.03,4.74 -9.25,7l0 0c-0.51,0.38 -1.1,0.54 -1.68,0.54l0 0c-0.88,0 -1.76,-0.43 -2.31,-1.19l0 0zm18.01 -14.12c-1.06,-1.19 -0.98,-2.96 0.19,-4.04l0 0c2.88,-2.59 5.59,-5.23 8.14,-7.81l0 0c1.11,-1.13 2.93,-1.13 4.05,-0.05l0 0c1.13,1.13 1.13,2.96 0.03,4.04l0 0c-2.62,2.69 -5.41,5.39 -8.37,8.08l0 0c-0.55,0.48 -1.25,0.75 -1.94,0.7l0 0c-0.77,0 -1.53,-0.32 -2.09,-0.92l0 0zm16.29 -16.06c-1.18,-1.08 -1.28,-2.86 -0.23,-4.04l0 0c2.69,-3.02 5.12,-5.93 7.31,-8.62l0 0c0.99,-1.24 2.79,-1.45 4.02,-0.43l0 0c1.23,0.97 1.43,2.75 0.44,3.99l0 0c-2.24,2.8 -4.74,5.77 -7.49,8.89l0 0c-0.57,0.59 -1.36,0.92 -2.16,0.92l0 0c-0.67,0 -1.34,-0.22 -1.88,-0.7l0 0zm14.58 -17.67c-1.28,-0.92 -1.57,-2.69 -0.65,-3.99l0 0c4.15,-5.77 6.27,-9.32 6.27,-9.32l0 0c0.81,-1.35 2.56,-1.78 3.92,-0.97l0 0c1.36,0.81 1.81,2.53 1,3.88l0 0c-0.03,0.11 -2.27,3.83 -6.55,9.75l0 0c-0.57,0.81 -1.45,1.19 -2.34,1.19l0 0c-0.57,0 -1.15,-0.16 -1.65,-0.54l0 0z"/>
  <path class="fil2" d="M701.88 268.43c-1.19,-1.02 -1.32,-2.86 -0.28,-4.04l0 0c2.52,-2.86 4.94,-5.77 7.25,-8.67l0.01 0c0.98,-1.24 2.78,-1.4 4.01,-0.43l0 0c1.23,0.97 1.43,2.8 0.45,4.04l0 0c-2.36,2.91 -4.83,5.87 -7.41,8.84l0 0c-0.57,0.65 -1.37,0.97 -2.18,0.97l0 0c-0.65,0 -1.31,-0.22 -1.85,-0.7l0 0zm14.47 -17.67c-1.27,-0.97 -1.56,-2.75 -0.63,-3.99l0 0c2.27,-3.13 4.42,-6.25 6.45,-9.32l0 0c0.87,-1.29 2.65,-1.67 3.96,-0.81l0 0c1.32,0.86 1.69,2.64 0.81,3.99l0 0c-2.09,3.13 -4.28,6.3 -6.6,9.48l0 0c-0.57,0.75 -1.45,1.19 -2.34,1.19l0 0c-0.57,0 -1.15,-0.22 -1.65,-0.54l0 0zm12.82 -18.97c-1.37,-0.81 -1.82,-2.53 -1.01,-3.88l0 0c1.95,-3.34 3.77,-6.63 5.47,-9.86l0 0c0.73,-1.4 2.45,-1.99 3.85,-1.24l0 0c1.4,0.7 1.95,2.48 1.22,3.88l0 0c-1.74,3.34 -3.61,6.73 -5.61,10.13l0 0c-0.54,0.86 -1.5,1.4 -2.49,1.4l0 0c-0.48,0 -0.97,-0.16 -1.42,-0.43l0 0zm10.81 -20.1c-1.44,-0.65 -2.08,-2.37 -1.43,-3.83l0 0c1.57,-3.45 3.01,-6.95 4.32,-10.4l0 0c0.56,-1.45 2.21,-2.21 3.69,-1.62l0 0c1.48,0.54 2.22,2.21 1.65,3.66l0 0c-1.35,3.56 -2.83,7.11 -4.44,10.72l0 0c-0.49,1.08 -1.54,1.67 -2.64,1.67l0 0c-0.38,0 -0.77,-0.05 -1.14,-0.22l0 0zm8.45 -21.28c-1.51,-0.43 -2.35,-2.05 -1.88,-3.56l0 0c1.14,-3.66 2.14,-7.27 3.01,-10.83l0 0c0.37,-1.56 1.91,-2.48 3.45,-2.1l0 0c1.54,0.32 2.47,1.89 2.1,3.45l0 0c-0.9,3.66 -1.93,7.43 -3.11,11.21l0 0c-0.38,1.19 -1.52,1.99 -2.75,1.99l0 0c-0.27,0 -0.55,-0.05 -0.83,-0.16l0 0zm5.75 -22.09c-1.55,-0.27 -2.59,-1.78 -2.32,-3.34l0 0c0.66,-3.72 1.18,-7.44 1.58,-11.1l0 0c0.17,-1.56 1.58,-2.69 3.15,-2.53l0 0c1.57,0.16 2.7,1.56 2.53,3.13l0 0c-0.41,3.83 -0.95,7.65 -1.64,11.53l0 0c-0.24,1.4 -1.45,2.37 -2.83,2.37l0 0c-0.16,0 -0.31,-0.05 -0.47,-0.05l0 0zm2.84 -22.68c-1.57,-0.05 -2.8,-1.4 -2.73,-3.02l0 0c0.08,-1.94 0.13,-3.88 0.15,-5.82l0 0c0.02,-1.83 0.01,-3.61 -0.04,-5.39l0 0c-0.03,-1.56 1.22,-2.91 2.8,-2.91l0 0c1.57,-0.05 2.88,1.19 2.92,2.75l0 0c0.04,1.89 0.05,3.72 0.04,5.6l0 0c-0.02,1.99 -0.07,3.99 -0.16,6.03l0 0c-0.06,1.56 -1.35,2.75 -2.88,2.75l0 0c-0.03,0 -0.06,0 -0.1,0l0 0zm-3.24 -25.48c-0.33,-3.77 -0.79,-7.49 -1.34,-11.15l0 0c-0.24,-1.56 0.84,-3.02 2.4,-3.23l0 0c1.56,-0.27 3.02,0.81 3.25,2.37l0 0c0.57,3.77 1.03,7.6 1.38,11.53l0 0c0.14,1.56 -1.02,2.96 -2.6,3.13l0 0c-0.09,0 -0.19,0 -0.28,0l0 0c-1.46,0 -2.69,-1.13 -2.82,-2.64l0 0zm-3.36 -22.25c-0.81,-3.72 -1.71,-7.38 -2.7,-10.94l0 0c-0.42,-1.51 0.48,-3.07 1.99,-3.5l0 0c1.52,-0.43 3.1,0.48 3.52,1.99l0 0c1.01,3.61 1.94,7.38 2.78,11.26l0 0c0.33,1.56 -0.65,3.07 -2.2,3.39l0 0c-0.21,0.05 -0.42,0.05 -0.63,0.05l0 0c-1.31,0 -2.48,-0.92 -2.76,-2.26l0 0zm-6.03 -21.66c-1.27,-3.72 -2.59,-7.27 -3.94,-10.61l0 0c-0.6,-1.45 0.1,-3.12 1.57,-3.72l0 0c1.46,-0.59 3.13,0.11 3.73,1.56l0 0c1.39,3.45 2.76,7.11 4.05,10.88l0 0c0.51,1.51 -0.28,3.13 -1.78,3.66l0 0c-0.31,0.11 -0.63,0.11 -0.94,0.11l0 0c-1.19,0 -2.28,-0.75 -2.69,-1.89l0 0zm-8.48 -20.91c-1.74,-3.66 -3.46,-7.06 -5.11,-10.08l0 0c-0.75,-1.4 -0.25,-3.12 1.14,-3.88l0 0c1.38,-0.75 3.13,-0.27 3.88,1.13l0 0c1.7,3.13 3.48,6.57 5.26,10.35l0 0c0.67,1.45 0.06,3.12 -1.36,3.83l0 0c-0.4,0.16 -0.83,0.27 -1.24,0.27l0 0c-1.06,0 -2.07,-0.59 -2.56,-1.62l0 0zm-10.8 -19.83c-3.78,-5.98 -6.3,-9.16 -6.3,-9.16l0 0c-0.98,-1.24 -0.77,-3.07 0.46,-4.04l0 0c1.24,-0.97 3.04,-0.75 4.02,0.49l0 0c0.05,0.05 2.75,3.45 6.67,9.7l0 0c0.84,1.35 0.43,3.12 -0.9,3.93l0 0c-0.48,0.32 -1.02,0.43 -1.55,0.43l0 0c-0.94,0 -1.86,-0.48 -2.4,-1.35l0 0z"/>
 </g>
</svg>
