<?xml version="1.0" encoding="UTF-8"?>
<!DOCTYPE svg PUBLIC "-//W3C//DTD SVG 1.1//EN" "http://www.w3.org/Graphics/SVG/1.1/DTD/svg11.dtd">
<!-- Creator: CorelDRAW 2021 (64-Bit) -->
<svg xmlns="http://www.w3.org/2000/svg" xml:space="preserve" width="6.43977in" height="4.12206in" version="1.1" style="shape-rendering:geometricPrecision; text-rendering:geometricPrecision; image-rendering:optimizeQuality; fill-rule:evenodd; clip-rule:evenodd"
viewBox="0 0 1444.85 924.84"
 xmlns:xlink="http://www.w3.org/1999/xlink"
 xmlns:xodm="http://www.corel.com/coreldraw/odm/2003">
 <defs>
  <style type="text/css">
   <![CDATA[
    .fil3 {fill:#002742;fill-rule:nonzero}
    .fil0 {fill:#0068FF;fill-rule:nonzero}
    .fil2 {fill:#014277;fill-rule:nonzero}
    .fil1 {fill:#055FCC;fill-rule:nonzero}
    .fil4 {fill:#3891FC;fill-rule:nonzero}
   ]]>
  </style>
 </defs>
 <g id="Layer_x0020_1">
  <metadata id="CorelCorpID_0Corel-Layer"/>
  <polygon class="fil0" points="1388.67,45.6 56.18,45.6 -0,85.36 -0,265.18 56.18,304.95 1388.67,304.95 1444.85,265.18 1444.85,85.36 "/>
  <polygon class="fil1" points="261.07,74.11 1205.23,74.11 929.44,106.84 1322.08,144.22 948.16,181.61 1121.08,223.69 985.56,247.05 1284.69,289.11 176.92,289.11 476.05,237.7 326.49,209.66 480.74,186.29 303.14,153.57 420,130.2 172.24,83.46 "/>
  <path class="fil2" d="M1318.51 82.99l0 -12.46 37.39 0 0 12.46 -37.39 0 0 0zm-74.78 0l0 -12.46 37.39 0 0 12.46 -37.39 0 0 0zm-74.78 0l0 -12.46 37.39 0 0 12.46 -37.39 0 0 0zm-74.78 0l0 -12.46 37.39 0 0 12.46 -37.39 0 0 0zm-74.78 0l0 -12.46 37.39 0 0 12.46 -37.39 0 0 0zm-74.78 0l0 -12.46 37.39 0 0 12.46 -37.39 0 0 0zm-74.78 0l0 -12.46 37.39 0 0 12.46 -37.39 0 0 0zm-74.78 0l0 -12.46 37.39 0 0 12.46 -37.39 0 0 0zm-74.78 0l0 -12.46 37.39 0 0 12.46 -37.39 0 0 0zm-74.78 0l0 -12.46 37.39 0 0 12.46 -37.39 0 0 0zm-74.78 0l0 -12.46 37.39 0 0 12.46 -37.39 0 0 0zm-74.85 0l0 -12.46 37.45 0 0 12.46 -37.45 0 0 0zm-74.78 0l0 -12.46 37.39 0 0 12.46 -37.39 0 0 0zm-74.78 0l0 -12.46 37.39 0 0 12.46 -37.39 0 0 0zm-74.78 0l0 -12.46 37.39 0 0 12.46 -37.39 0 0 0zm-74.78 0l0 -12.46 37.39 0 0 12.46 -37.39 0 0 0zm-74.78 0l0 -12.46 37.39 0 0 12.46 -37.39 0 0 0z"/>
  <path class="fil2" d="M1318.51 282.42l0 -12.46 37.39 0 0 12.46 -37.39 0 0 0zm-74.78 0l0 -12.46 37.39 0 0 12.46 -37.39 0 0 0zm-74.78 0l0 -12.46 37.39 0 0 12.46 -37.39 0 0 0zm-74.78 0l0 -12.46 37.39 0 0 12.46 -37.39 0 0 0zm-74.78 0l0 -12.46 37.39 0 0 12.46 -37.39 0 0 0zm-74.78 0l0 -12.46 37.39 0 0 12.46 -37.39 0 0 0zm-74.78 0l0 -12.46 37.39 0 0 12.46 -37.39 0 0 0zm-74.78 0l0 -12.46 37.39 0 0 12.46 -37.39 0 0 0zm-74.78 0l0 -12.46 37.39 0 0 12.46 -37.39 0 0 0zm-74.78 0l0 -12.46 37.39 0 0 12.46 -37.39 0 0 0zm-74.78 0l0 -12.46 37.39 0 0 12.46 -37.39 0 0 0zm-74.85 0l0 -12.46 37.45 0 0 12.46 -37.45 0 0 0zm-74.78 0l0 -12.46 37.39 0 0 12.46 -37.39 0 0 0zm-74.78 0l0 -12.46 37.39 0 0 12.46 -37.39 0 0 0zm-74.78 0l0 -12.46 37.39 0 0 12.46 -37.39 0 0 0zm-74.78 0l0 -12.46 37.39 0 0 12.46 -37.39 0 0 0zm-74.78 0l0 -12.46 37.39 0 0 12.46 -37.39 0 0 0z"/>
  <path class="fil3" d="M499.71 66.79c0,0 -7.64,8.17 -7.64,24.51 0,16.34 13.55,146.35 54.46,187.27 0,0 84.89,-37.76 145.44,-98.32 0,0 -137.8,-103.11 -192.26,-113.46z"/>
  <path class="fil0" d="M944.28 66.79c0,0 -37.64,-27.79 -83.41,-42.5 -45.71,-14.71 -99.67,-34.32 -152.77,-2.45 -53.16,31.87 -168.05,102.09 -239.44,128.3 -160.16,58.84 -335.05,349.76 -328.52,742.02 0,0 143.84,13.08 186.34,32.69 0,0 -35.98,-545.88 192.81,-637.41 228.85,-91.53 212.46,-94.8 284.41,-143.83 71.89,-49.03 140.57,-76.82 140.57,-76.82z"/>
  <path class="fil2" d="M140.14 892.16c-0.06,-2.75 -0.06,-5.48 -0.06,-8.23 46.14,-13.8 168.42,16.4 168.42,16.4 -9.79,-27.78 8.13,-348.13 60.43,-459.27 52.3,-111.13 86.67,-138.92 132.38,-160.17 45.77,-21.25 219.05,-94.79 264.82,-134.02 45.77,-39.23 106.2,-68.64 142.18,-81.72 10.59,-3.85 19.47,-4.97 26.73,-4.68 5.85,3.84 9.24,6.31 9.24,6.31 0,0 -68.68,27.78 -140.57,76.82 -71.95,49.03 -55.56,52.3 -284.41,143.83 -228.79,91.53 -192.81,637.41 -192.81,637.41 -42.5,-19.61 -186.34,-32.69 -186.34,-32.69z"/>
  <path class="fil0" d="M697.69 170.85c0,0 -102.07,86.43 -160.96,109.88 0,0 46.88,29.64 148.95,54.33 0,0 52.85,27.17 132.69,-89.51l-120.68 -74.7z"/>
  <path class="fil1" d="M707.18 183.07c0,0 -36.1,60.01 -85.75,88.91 0,0 38.38,-8.9 76.75,-40.02 0,0 -11.27,37.79 -24.83,46.68 0,0 33.88,8.89 79.03,-24.45 0,0 -4.56,28.89 -24.89,46.67 0,0 58.71,-33.34 81.31,-66.68l-101.64 -51.12z"/>
  <path class="fil2" d="M697.69 170.85c0,0 -102.07,86.43 -160.96,109.88 0,0 4,2.53 12.2,6.71 77.62,-35.7 139.53,-95.06 156.28,-111.95l-7.52 -4.64z"/>
  <path class="fil0" d="M499.71 66.79c0,0 37.58,-27.79 83.35,-42.5 45.77,-14.71 99.67,-34.32 152.83,-2.45 53.1,31.87 168.05,102.09 239.44,128.3 160.16,58.84 335.05,349.76 328.52,742.02 0,0 -143.84,13.08 -186.34,32.69 0,0 35.98,-545.88 -192.87,-637.41 -228.79,-91.53 -212.46,-94.8 -284.35,-143.83 -71.95,-49.03 -140.57,-76.82 -140.57,-76.82z"/>
  <path class="fil3" d="M735.89 21.84c19.34,11.62 46.94,28.34 77.62,46.16 -8.13,-19.77 -24.89,-43.95 -46.14,-50.25 -12.32,-3.63 -24.27,-1.11 -33.76,2.82 0.74,0.42 1.54,0.83 2.28,1.27z"/>
  <path class="fil1" d="M640.28 143.61c-20.14,-13.71 -39.98,-25.76 -58.15,-36 -44.6,21.47 -97.82,47.38 -152.16,81.76 -106.82,67.56 -163.43,226.64 -163.43,226.64 30.49,-71.91 111.13,-154.72 111.13,-154.72 -95.91,130.75 -108.97,261.5 -108.97,261.5 56.67,-174.32 150.37,-226.63 150.37,-226.63 -45.77,58.84 -58.83,113.32 -58.83,113.32 41.4,-82.81 132.94,-152.55 198.29,-178.7 40.16,-16.07 87.72,-42.83 118.46,-61.08 -10.41,-7.5 -21.62,-15.78 -36.71,-26.08z"/>
  <path class="fil1" d="M739.4 150.14c0,0 85.01,54.48 150.37,80.63 65.36,26.15 156.9,95.89 198.29,178.7 0,0 -13.06,-54.49 -58.83,-113.32 0,0 93.7,52.31 150.37,226.63 0,0 -13.06,-130.75 -108.97,-261.5 0,0 80.64,82.82 111.13,154.72 0,0 -56.61,-159.08 -163.43,-226.64 -106.75,-67.55 -209.2,-102.42 -250.59,-135.1 0,0 41.4,58.84 80.64,82.8 0,0 -100.23,-52.29 -156.9,-93.7 0,0 76.26,91.53 148.15,128.57 0,0 -71.89,-6.54 -100.23,-21.8z"/>
  <path class="fil2" d="M1303.85 892.16c0,-2.75 0,-5.48 0.06,-8.23 -46.2,-13.8 -168.42,16.4 -168.42,16.4 9.79,-27.78 -8.19,-348.13 -60.49,-459.27 -52.3,-111.13 -86.61,-138.92 -132.38,-160.17 -45.77,-21.25 -218.99,-94.79 -264.76,-134.02 -45.77,-39.23 -106.26,-68.64 -142.24,-81.72 -10.53,-3.85 -19.4,-4.97 -26.67,-4.68 -5.91,3.84 -9.24,6.31 -9.24,6.31 0,0 68.62,27.78 140.57,76.82 71.89,49.03 55.56,52.3 284.35,143.83 228.85,91.53 192.87,637.41 192.87,637.41 42.5,-19.61 186.34,-32.69 186.34,-32.69z"/>
  <path class="fil4" d="M1216.68 468.31c0,0 78.42,207.03 71.89,400.97 0,0 -58.83,0 -113.35,10.89 0,0 71.95,-34.86 98.07,-28.32 0,0 4.37,-178.69 -56.61,-383.54z"/>
  <path class="fil4" d="M224.04 468.31c0,0 -78.48,207.03 -71.95,400.97 0,0 58.89,0 113.35,10.89 0,0 -71.89,-34.86 -98.07,-28.32 0,0 -4.37,-178.69 56.67,-383.54z"/>
  <path class="fil4" d="M547.08 47.18c0,0 80.08,-34.32 134.04,-34.32 53.9,0 88.28,53.94 88.28,53.94 0,0 -62.16,-75.18 -222.32,-19.61z"/>
  <path class="fil4" d="M1153.3 859.47c-1.79,-0.09 -3.2,-1.63 -3.08,-3.43l0 0c0.06,-1.36 0.12,-2.72 0.18,-4.08l0 0c0.06,-1.8 1.6,-3.2 3.39,-3.12l0 0c1.79,0.08 3.2,1.61 3.14,3.41l0 0c-0.06,1.36 -0.12,2.73 -0.18,4.1l0 0c-0.12,1.76 -1.54,3.12 -3.26,3.12l0 0c-0.06,0 -0.12,0 -0.18,0l0 0zm0.74 -17.16c-1.79,-0.07 -3.2,-1.59 -3.14,-3.39l0 0c0.18,-4.37 0.37,-8.72 0.49,-13.04l0 0c0,-1.8 1.54,-3.22 3.33,-3.17l0 0c1.79,0.05 3.2,1.56 3.2,3.36l0 0c-0.12,4.33 -0.31,8.7 -0.49,13.09l0 0c-0.06,1.76 -1.48,3.14 -3.2,3.14l0 0c-0.06,0 -0.12,0 -0.18,0l0 0zm0.86 -26.12c-1.79,-0.05 -3.26,-1.54 -3.2,-3.34l0 0c0.06,-4.39 0.18,-8.74 0.25,-13.04l0 0c0,-1.81 1.48,-3.26 3.26,-3.23l0 0c1.85,0.02 3.26,1.5 3.26,3.3l0 0c-0.06,4.34 -0.12,8.7 -0.25,13.1l0 0c-0.06,1.78 -1.48,3.2 -3.26,3.2l0 0c0,0 -0.06,0 -0.06,0l0 0zm0.37 -26.14c-1.79,-0.01 -3.26,-1.48 -3.2,-3.29l0 0c0,-2.22 0,-4.43 0,-6.62l0 0c0,-2.16 0,-4.3 0,-6.43l0 0c-0.06,-1.8 1.42,-3.28 3.2,-3.29l0 0c1.85,0 3.33,1.45 3.33,3.26l0 0c0,2.14 0,4.29 0,6.46l0 0c0,2.2 0,4.42 0,6.64l0 0c0,1.8 -1.48,3.26 -3.26,3.26l0 0c-0.06,0 -0.06,0 -0.06,0l0 0zm-3.33 -29.38c-0.06,-4.39 -0.19,-8.72 -0.25,-13.04l0 0c-0.06,-1.81 1.36,-3.3 3.2,-3.34l0 0c1.79,-0.04 3.26,1.39 3.33,3.19l0 0c0.12,4.33 0.18,8.7 0.25,13.1l0 0c0,1.81 -1.42,3.29 -3.26,3.31l0 0c0,0 0,0 0,0l0 0c-1.79,0 -3.26,-1.44 -3.26,-3.22l0 0zm-0.62 -26.07c-0.12,-4.39 -0.31,-8.73 -0.49,-13.04l0 0c-0.06,-1.8 1.29,-3.33 3.14,-3.4l0 0c1.79,-0.08 3.33,1.32 3.39,3.12l0 0c0.18,4.32 0.37,8.69 0.49,13.09l0 0c0.06,1.8 -1.36,3.31 -3.14,3.38l0 0c-0.06,0 -0.12,0 -0.12,0l0 0c-1.79,0 -3.2,-1.39 -3.26,-3.15l0 0zm-1.11 -26.05c-0.25,-4.39 -0.49,-8.72 -0.8,-13.01l0 0c-0.12,-1.81 1.29,-3.37 3.08,-3.47l0 0c1.79,-0.12 3.33,1.25 3.45,3.05l0 0c0.31,4.32 0.55,8.69 0.8,13.08l0 0c0.06,1.8 -1.29,3.34 -3.08,3.43l0 0c-0.06,0.01 -0.12,0.01 -0.18,0.01l0 0c-1.73,0 -3.2,-1.36 -3.26,-3.09l0 0zm-1.66 -26.03c-0.37,-4.37 -0.68,-8.7 -1.05,-12.99l0 0c-0.18,-1.8 1.17,-3.38 2.96,-3.54l0 0c1.79,-0.16 3.39,1.17 3.51,2.97l0 0c0.37,4.31 0.74,8.67 1.11,13.07l0 0c0.12,1.8 -1.23,3.36 -3.02,3.51l0 0c-0.12,0.01 -0.18,0.01 -0.31,0.01l0 0c-1.66,0 -3.08,-1.31 -3.2,-3.03l0 0zm-2.28 -25.96c-0.43,-4.37 -0.86,-8.69 -1.36,-12.96l0 0c-0.18,-1.79 1.11,-3.41 2.9,-3.61l0 0c1.79,-0.2 3.39,1.09 3.63,2.89l0 0c0.43,4.3 0.92,8.64 1.36,13.04l0 0c0.18,1.79 -1.17,3.39 -2.96,3.58l0 0c-0.12,0.01 -0.18,0.01 -0.31,0.01l0 0c-1.66,0 -3.08,-1.26 -3.26,-2.94l0 0zm-2.9 -25.9c-0.49,-4.35 -1.11,-8.66 -1.66,-12.92l0 0c-0.25,-1.79 0.99,-3.44 2.77,-3.69l0 0c1.79,-0.24 3.45,1.01 3.7,2.8l0 0c0.62,4.28 1.17,8.62 1.72,12.99l0 0c0.18,1.79 -1.05,3.43 -2.83,3.65l0 0c-0.18,0.02 -0.31,0.02 -0.43,0.02l0 0c-1.6,0 -3.02,-1.21 -3.26,-2.86l0 0zm-3.51 -25.8c-0.68,-4.34 -1.36,-8.64 -2.03,-12.86l0 0c-0.31,-1.79 0.86,-3.46 2.65,-3.76l0 0c1.79,-0.3 3.51,0.91 3.76,2.69l0 0c0.74,4.26 1.42,8.58 2.09,12.95l0 0c0.25,1.78 -0.98,3.45 -2.77,3.71l0 0c-0.18,0.03 -0.31,0.04 -0.49,0.04l0 0c-1.6,0 -2.96,-1.16 -3.2,-2.78l0 0zm-4.31 -25.69c-0.74,-4.32 -1.54,-8.58 -2.4,-12.79l0 0c-0.37,-1.77 0.8,-3.49 2.59,-3.84l0 0c1.79,-0.34 3.51,0.8 3.82,2.57l0 0c0.86,4.24 1.66,8.54 2.46,12.9l0 0c0.31,1.76 -0.86,3.47 -2.65,3.79l0 0c-0.18,0.04 -0.37,0.05 -0.55,0.05l0 0c-1.6,0 -2.96,-1.11 -3.26,-2.69l0 0zm-4.99 -25.53c-0.92,-4.3 -1.91,-8.53 -2.83,-12.71l0 0c-0.43,-1.76 0.68,-3.52 2.4,-3.92l0 0c1.79,-0.4 3.51,0.69 3.94,2.45l0 0c0.98,4.21 1.91,8.48 2.83,12.82l0 0c0.37,1.76 -0.74,3.5 -2.46,3.87l0 0c-0.25,0.06 -0.49,0.07 -0.74,0.07l0 0c-1.48,0 -2.83,-1.05 -3.14,-2.58l0 0zm-5.91 -25.36c-1.05,-4.26 -2.16,-8.46 -3.26,-12.58l0 0c-0.43,-1.75 0.55,-3.54 2.34,-4.02l0 0c1.72,-0.46 3.51,0.57 4,2.31l0 0c1.11,4.17 2.22,8.4 3.26,12.71l0 0c0.43,1.74 -0.62,3.52 -2.34,3.96l0 0c-0.31,0.06 -0.55,0.09 -0.8,0.09l0 0c-1.48,0 -2.83,-0.98 -3.2,-2.48l0 0zm-6.72 -25.11c-1.23,-4.23 -2.53,-8.38 -3.76,-12.46l0 0c-0.55,-1.73 0.43,-3.55 2.16,-4.09l0 0c1.73,-0.54 3.51,0.43 4.07,2.16l0 0c1.29,4.12 2.53,8.3 3.76,12.57l0 0c0.55,1.74 -0.49,3.55 -2.22,4.05l0 0c-0.31,0.09 -0.55,0.13 -0.86,0.13l0 0c-1.48,0 -2.77,-0.93 -3.14,-2.36l0 0zm-7.76 -24.83c-1.42,-4.17 -2.77,-8.27 -4.25,-12.28l0 0c-0.62,-1.71 0.31,-3.57 1.97,-4.19l0 0c1.73,-0.6 3.57,0.28 4.19,1.98l0 0c1.48,4.07 2.9,8.21 4.31,12.43l0 0c0.55,1.71 -0.37,3.55 -2.09,4.13l0 0c-0.31,0.12 -0.68,0.17 -1.05,0.17l0 0c-1.36,0 -2.59,-0.86 -3.08,-2.24l0 0zm-8.75 -24.46c-1.6,-4.11 -3.2,-8.13 -4.81,-12.07l0 0c-0.68,-1.68 0.12,-3.58 1.79,-4.26l0 0c1.66,-0.68 3.57,0.11 4.25,1.78l0 0c1.66,3.99 3.26,8.06 4.87,12.21l0 0c0.62,1.69 -0.19,3.58 -1.91,4.23l0 0c-0.37,0.15 -0.74,0.22 -1.17,0.22l0 0c-1.29,0 -2.53,-0.8 -3.02,-2.1l0 0zm-9.86 -24.02c-1.79,-4.04 -3.57,-7.97 -5.42,-11.82l0 0c-0.74,-1.63 -0.06,-3.57 1.6,-4.35l0 0c1.6,-0.77 3.57,-0.07 4.31,1.57l0 0c1.85,3.89 3.7,7.88 5.48,11.96l0 0c0.74,1.65 -0.06,3.59 -1.66,4.31l0 0c-0.43,0.18 -0.92,0.28 -1.36,0.28l0 0c-1.23,0 -2.46,-0.73 -2.96,-1.95l0 0zm-11.09 -23.48c-1.97,-3.94 -4,-7.77 -6.04,-11.5l0 0c-0.86,-1.58 -0.25,-3.57 1.36,-4.43l0 0c1.6,-0.86 3.57,-0.27 4.44,1.32l0 0c2.03,3.78 4.07,7.66 6.04,11.65l0 0c0.86,1.61 0.18,3.58 -1.42,4.39l0 0c-0.43,0.24 -0.99,0.35 -1.48,0.35l0 0c-1.17,0 -2.34,-0.65 -2.89,-1.79l0 0zm-12.38 -22.81c-2.22,-3.82 -4.44,-7.52 -6.65,-11.11l0 0c-0.99,-1.53 -0.49,-3.54 1.05,-4.5l0 0c1.54,-0.95 3.51,-0.49 4.5,1.05l0 0c2.28,3.64 4.56,7.4 6.78,11.29l0 0c0.92,1.56 0.37,3.55 -1.17,4.47l0 0c-0.55,0.3 -1.11,0.44 -1.66,0.44l0 0c-1.11,0 -2.22,-0.58 -2.83,-1.63l0 0zm-13.74 -21.99c-2.46,-3.67 -4.93,-7.22 -7.39,-10.62l0 0c-1.05,-1.47 -0.68,-3.51 0.74,-4.57l0 0c1.48,-1.05 3.51,-0.73 4.56,0.74l0 0c2.53,3.47 5.05,7.07 7.58,10.82l0 0c0.98,1.5 0.55,3.52 -0.92,4.53l0 0c-0.55,0.37 -1.17,0.55 -1.79,0.55l0 0c-1.05,0 -2.09,-0.5 -2.77,-1.45l0 0zm-15.15 -20.98c-2.71,-3.51 -5.42,-6.85 -8.13,-10.03l0 0c-1.17,-1.38 -0.99,-3.44 0.37,-4.61l0 0c1.36,-1.17 3.45,-1 4.62,0.39l0 0c2.71,3.26 5.54,6.67 8.32,10.24l0 0c1.11,1.42 0.86,3.48 -0.55,4.59l0 0c-0.62,0.47 -1.36,0.69 -2.03,0.69l0 0c-0.98,0 -1.91,-0.43 -2.59,-1.26l0 0zm-16.69 -19.74c-3.02,-3.28 -6.04,-6.39 -8.93,-9.31l0 0c-1.29,-1.27 -1.29,-3.34 -0.06,-4.62l0 0c1.29,-1.29 3.39,-1.29 4.62,-0.01l0 0c3.02,2.98 6.1,6.16 9.18,9.52l0 0c1.23,1.33 1.11,3.4 -0.18,4.62l0 0c-0.62,0.58 -1.42,0.86 -2.22,0.86l0 0c-0.86,0 -1.79,-0.36 -2.4,-1.06l0 0zm-18.3 -18.21c-3.39,-3.04 -6.65,-5.85 -9.79,-8.42l0 0c-1.42,-1.14 -1.6,-3.2 -0.49,-4.6l0 0c1.17,-1.4 3.2,-1.6 4.62,-0.47l0 0c3.2,2.65 6.59,5.53 10.04,8.64l0 0c1.29,1.21 1.42,3.28 0.18,4.61l0 0c-0.62,0.71 -1.54,1.08 -2.4,1.08l0 0c-0.8,0 -1.54,-0.28 -2.16,-0.84l0 0zm-20.02 -16.29c-3.82,-2.76 -7.39,-5.17 -10.66,-7.25l0 0c-1.48,-0.96 -1.97,-2.98 -0.99,-4.51l0 0c0.99,-1.53 2.96,-1.98 4.5,-1.01l0 0c3.39,2.15 7.08,4.63 10.96,7.48l0 0c1.48,1.06 1.79,3.1 0.74,4.57l0 0c-0.62,0.88 -1.6,1.35 -2.65,1.35l0 0c-0.68,0 -1.36,-0.2 -1.91,-0.62l0 0zm-21.75 -13.72c-3.63,-1.95 -6.59,-3.29 -8.5,-4.13l0 0c-1.97,-0.84 -2.89,-1.16 -2.96,-1.16l0 0c-1.66,-0.58 -2.59,-2.44 -2.03,-4.15l0 0c0.62,-1.71 2.46,-2.62 4.19,-2.04l0 0c0.12,0.06 4.68,1.63 12.38,5.71l0 0c1.6,0.84 2.22,2.82 1.36,4.42l0 0c-0.62,1.1 -1.72,1.73 -2.89,1.73l0 0c-0.49,0 -1.05,-0.13 -1.54,-0.38l0 0z"/>
  <path class="fil4" d="M290.51 876.46c-1.85,-0.02 -3.26,-1.48 -3.26,-3.29l0 0c0,-2.61 0.06,-7.1 0.12,-13.18l0 0c0.06,-1.81 1.54,-3.25 3.33,-3.22l0 0c1.79,0.02 3.26,1.51 3.2,3.31l0 0c-0.06,6.08 -0.12,10.53 -0.12,13.12l0 0c0,1.8 -1.48,3.26 -3.26,3.26l0 0c0,0 0,0 0,0l0 0zm0.31 -26.29c-1.85,-0.04 -3.26,-1.53 -3.2,-3.33l0 0c0.06,-4.03 0.18,-8.41 0.31,-13.14l0 0c0.06,-1.8 1.54,-3.23 3.33,-3.18l0 0c1.85,0.04 3.26,1.55 3.2,3.35l0 0c-0.12,4.72 -0.25,9.09 -0.31,13.1l0 0c-0.06,1.78 -1.48,3.2 -3.26,3.2l0 0c-0.06,0 -0.06,0 -0.06,0l0 0zm0.68 -26.22c-1.85,-0.06 -3.26,-1.57 -3.2,-3.37l0 0c0.12,-4.19 0.31,-8.57 0.49,-13.12l0 0c0.06,-1.81 1.54,-3.22 3.39,-3.15l0 0c1.79,0.06 3.2,1.58 3.14,3.39l0 0c-0.19,4.54 -0.31,8.91 -0.49,13.08l0 0c-0.06,1.77 -1.48,3.17 -3.27,3.17l0 0c0,0 -0.06,0 -0.06,0l0 0zm0.92 -26.19c-1.79,-0.09 -3.2,-1.6 -3.14,-3.41l0 0c0.18,-4.24 0.37,-8.62 0.62,-13.1l0 0c0.06,-1.81 1.6,-3.2 3.39,-3.12l0 0c1.79,0.09 3.2,1.61 3.14,3.42l0 0c-0.25,4.47 -0.43,8.83 -0.62,13.07l0 0c-0.06,1.76 -1.54,3.14 -3.26,3.14l0 0c-0.06,0 -0.06,0 -0.12,0l0 0zm1.17 -26.18c-1.79,-0.09 -3.14,-1.63 -3.08,-3.43l0 0c0.25,-4.29 0.49,-8.65 0.74,-13.1l0 0 0 0.01c0.12,-1.82 1.66,-3.19 3.45,-3.08l0 0c1.79,0.1 3.14,1.64 3.08,3.45l0 0c-0.25,4.43 -0.49,8.78 -0.74,13.06l0 0c-0.06,1.75 -1.54,3.1 -3.26,3.1l0 0c-0.06,0 -0.12,0 -0.18,-0.01l0 0zm1.48 -26.15c-1.79,-0.12 -3.14,-1.67 -3.02,-3.47l0 0c0.25,-4.31 0.55,-8.67 0.86,-13.08l0 0c0.12,-1.8 1.66,-3.17 3.45,-3.04l0 0c1.79,0.12 3.14,1.68 3.02,3.47l0 0c-0.25,4.41 -0.55,8.77 -0.8,13.05l0 0c-0.12,1.74 -1.6,3.07 -3.26,3.07l0 0c-0.06,0 -0.19,-0.01 -0.25,-0.01l0 0zm1.79 -26.14c-1.85,-0.13 -3.14,-1.7 -3.02,-3.5l0 0c0.31,-4.32 0.62,-8.68 0.99,-13.07l0 0c0.12,-1.8 1.72,-3.14 3.51,-3l0 0c1.79,0.15 3.14,1.72 3.02,3.52l0 0c-0.37,4.38 -0.68,8.72 -0.99,13.03l0 0c-0.12,1.72 -1.6,3.03 -3.26,3.03l0 0c-0.12,0 -0.18,-0.01 -0.25,-0.01l0 0zm2.03 -26.1c-1.79,-0.15 -3.14,-1.74 -2.96,-3.54l0 0c0.37,-4.32 0.74,-8.68 1.17,-13.07l0 0c0.12,-1.79 1.73,-3.12 3.51,-2.95l0 0c1.79,0.17 3.14,1.76 2.96,3.56l0 0c-0.37,4.36 -0.8,8.7 -1.17,13.02l0 0c-0.12,1.71 -1.54,2.99 -3.26,2.99l0 0c-0.06,0 -0.12,0 -0.25,-0.01l0 0zm2.34 -26.08c-1.79,-0.18 -3.08,-1.79 -2.89,-3.58l0 0c0.43,-4.33 0.86,-8.69 1.36,-13.04l0 0c0.18,-1.8 1.79,-3.1 3.57,-2.91l0 0c1.79,0.18 3.08,1.81 2.89,3.6l0 0c-0.43,4.35 -0.92,8.68 -1.29,13l0 0c-0.18,1.69 -1.6,2.95 -3.26,2.94l0 0c-0.12,0 -0.25,0 -0.37,-0.01l0 0zm2.77 -26.04c-1.85,-0.2 -3.08,-1.83 -2.9,-3.62l0 0c0.49,-4.32 0.99,-8.67 1.54,-13.03l0 0.01c0.19,-1.79 1.85,-3.07 3.63,-2.85l0 0c1.79,0.22 3.08,1.85 2.83,3.63l0 0c-0.49,4.33 -1.05,8.66 -1.54,12.98l0 0c-0.18,1.66 -1.6,2.9 -3.2,2.9l0 0c-0.12,0 -0.25,-0.01 -0.37,-0.02l0 0zm3.08 -26.03c-1.79,-0.23 -3.02,-1.88 -2.77,-3.67l0 0c0.55,-4.34 1.11,-8.67 1.73,-13.01l0 0c0.25,-1.8 1.91,-3.04 3.7,-2.79l0 0c1.79,0.25 3.02,1.9 2.77,3.69l0 0c-0.62,4.31 -1.17,8.63 -1.72,12.96l0 0c-0.25,1.64 -1.6,2.84 -3.26,2.84l0 0c-0.12,0 -0.25,-0.01 -0.43,-0.02l0 0zm3.57 -25.93c-1.79,-0.26 -3.02,-1.94 -2.71,-3.71l0 0c0.62,-4.34 1.29,-8.66 1.97,-12.98l0 0c0.31,-1.78 1.97,-2.99 3.76,-2.71l0 0c1.79,0.29 2.96,1.96 2.71,3.74l0 0c-0.68,4.29 -1.36,8.6 -1.97,12.91l0 0c-0.25,1.63 -1.66,2.8 -3.26,2.8l0 0c-0.18,0 -0.31,-0.01 -0.49,-0.04l0 0zm4.07 -25.87c-1.79,-0.31 -2.96,-2 -2.65,-3.78l0 0c0.74,-4.34 1.54,-8.65 2.28,-12.93l0 0c0.37,-1.77 2.03,-2.95 3.82,-2.62l0 0c1.79,0.33 2.96,2.03 2.65,3.81l0 0c-0.8,4.26 -1.54,8.54 -2.28,12.84l0 0c-0.31,1.6 -1.66,2.72 -3.26,2.72l0 0c-0.19,0 -0.37,-0.02 -0.55,-0.05l0 0zm4.68 -25.77c-1.79,-0.35 -2.9,-2.08 -2.59,-3.84l0 0c0.86,-4.33 1.79,-8.62 2.71,-12.87l0 0c0.37,-1.77 2.1,-2.9 3.88,-2.51l0 0c1.73,0.38 2.83,2.11 2.46,3.88l0 0c-0.86,4.22 -1.79,8.48 -2.59,12.77l0 0c-0.37,1.56 -1.72,2.64 -3.26,2.64l0 0c-0.18,0 -0.37,-0.02 -0.62,-0.07l0 0zm5.42 -25.62c-1.79,-0.41 -2.83,-2.16 -2.46,-3.92l0 0c0.99,-4.32 2.03,-8.58 3.08,-12.79l0 0c0.43,-1.76 2.22,-2.82 3.94,-2.38l0 0c1.79,0.45 2.83,2.22 2.4,3.97l0 0c-1.05,4.16 -2.09,8.39 -3.08,12.66l0 0c-0.31,1.52 -1.66,2.54 -3.14,2.54l0 0c-0.25,0 -0.49,-0.03 -0.74,-0.09l0 0zm6.28 -25.42c-1.79,-0.48 -2.77,-2.28 -2.34,-4.02l0 0c1.23,-4.29 2.4,-8.52 3.63,-12.67l0 0c0.55,-1.73 2.34,-2.7 4.13,-2.19l0 0c1.73,0.52 2.71,2.34 2.16,4.07l0 0c-1.23,4.09 -2.4,8.26 -3.57,12.51l0 0c-0.43,1.45 -1.73,2.41 -3.14,2.41l0 0c-0.31,0 -0.62,-0.04 -0.86,-0.12l0 0zm7.39 -25.12c-1.73,-0.57 -2.65,-2.42 -2.09,-4.13l0 0c1.42,-4.26 2.83,-8.41 4.37,-12.45l0 0c0.62,-1.69 2.46,-2.56 4.19,-1.94l0 0c1.66,0.63 2.59,2.5 1.91,4.2l0 0c-1.48,3.98 -2.9,8.06 -4.25,12.26l0 0c-0.49,1.36 -1.73,2.23 -3.14,2.23l0 0c-0.31,0 -0.68,-0.05 -0.99,-0.17l0 0zm8.87 -24.62c-1.66,-0.69 -2.46,-2.61 -1.79,-4.28l0 0c1.72,-4.18 3.51,-8.22 5.36,-12.11l0 0c0.8,-1.63 2.77,-2.32 4.37,-1.54l0 0c1.66,0.77 2.34,2.72 1.54,4.35l0 0c-1.79,3.78 -3.51,7.72 -5.24,11.81l0 0c-0.49,1.26 -1.73,2.01 -3.02,2.01l0 0c-0.43,0 -0.86,-0.08 -1.23,-0.25l0 0zm10.96 -23.76c-1.6,-0.87 -2.16,-2.86 -1.29,-4.45l0 0c0.12,-0.21 0.25,-0.41 0.31,-0.61l0 0c2.1,-3.68 4.13,-7.28 6.22,-10.82l0 0c0.92,-1.55 2.96,-2.06 4.5,-1.14l0 0c1.54,0.93 2.09,2.93 1.17,4.48l0 0c-2.09,3.48 -4.13,7.03 -6.16,10.67l0 0c-0.12,0.18 -0.18,0.38 -0.31,0.58l0 0c-0.62,1.07 -1.72,1.68 -2.89,1.68l0 0c-0.49,0 -1.05,-0.13 -1.54,-0.41l0 0zm13.12 -22.58c-1.48,-0.97 -1.97,-2.99 -0.98,-4.51l0 0c2.4,-3.77 4.8,-7.44 7.21,-11.03l0 0c0.99,-1.5 3.02,-1.9 4.5,-0.89l0 0c1.54,1 1.91,3.04 0.92,4.53l0 0c-2.4,3.54 -4.74,7.16 -7.08,10.88l0 0c-0.62,0.98 -1.73,1.52 -2.77,1.52l0 0c-0.62,0 -1.23,-0.16 -1.79,-0.51l0 0zm14.48 -21.79c-1.48,-1.05 -1.79,-3.09 -0.74,-4.57l0 0c2.59,-3.62 5.17,-7.15 7.82,-10.58l0 0c1.11,-1.44 3.14,-1.71 4.56,-0.6l0 0c1.48,1.1 1.73,3.14 0.62,4.58l0 0c-2.59,3.38 -5.17,6.86 -7.7,10.42l0 0c-0.62,0.89 -1.66,1.37 -2.65,1.37l0 0c-0.68,0 -1.36,-0.2 -1.91,-0.62l0 0zm15.71 -20.88c-1.42,-1.15 -1.6,-3.2 -0.49,-4.6l0 0c2.83,-3.46 5.67,-6.82 8.5,-10.08l0 0c1.23,-1.36 3.26,-1.49 4.62,-0.31l0 0c1.36,1.18 1.54,3.25 0.31,4.61l0 0c-2.77,3.2 -5.54,6.49 -8.32,9.91l0 0c-0.68,0.79 -1.6,1.2 -2.53,1.2l0 0c-0.74,0 -1.48,-0.23 -2.09,-0.73l0 0zm17 -19.83c-1.29,-1.24 -1.36,-3.31 -0.12,-4.63l0 0c3.02,-3.27 6.1,-6.43 9.12,-9.48l0 0c1.29,-1.28 3.39,-1.28 4.62,0l0 0c1.29,1.28 1.29,3.34 0,4.61l0 0c-2.96,3.01 -5.98,6.11 -8.99,9.33l0 0c-0.62,0.69 -1.48,1.04 -2.34,1.04l0 0c-0.8,0 -1.6,-0.29 -2.28,-0.87l0 0zm18.36 -18.66c-1.23,-1.31 -1.17,-3.38 0.12,-4.62l0 0c3.26,-3.06 6.59,-6 9.79,-8.83l0 0c1.36,-1.18 3.45,-1.05 4.62,0.32l0 0c1.17,1.37 1.05,3.43 -0.31,4.61l0 0c-3.2,2.78 -6.41,5.67 -9.61,8.67l0 0c-0.62,0.59 -1.48,0.88 -2.28,0.88l0 0c-0.86,0 -1.73,-0.34 -2.34,-1.04l0 0zm19.53 -17.34c-1.11,-1.4 -0.92,-3.46 0.49,-4.59l0 0c3.51,-2.84 6.96,-5.54 10.41,-8.12l0 -0.01c1.42,-1.08 3.51,-0.79 4.56,0.65l0 0c1.11,1.45 0.8,3.49 -0.62,4.58l0 0c-3.39,2.54 -6.78,5.2 -10.23,7.97l0 0c-0.62,0.49 -1.36,0.73 -2.03,0.73l0 0c-0.98,0 -1.91,-0.42 -2.59,-1.21l0 0zm20.76 -15.9c-0.99,-1.48 -0.68,-3.52 0.8,-4.55l0 0c3.76,-2.59 7.39,-5.04 10.96,-7.36l0 0c1.54,-0.98 3.57,-0.55 4.5,0.97l0 0c0.99,1.51 0.55,3.54 -0.92,4.52l0 0c-3.51,2.28 -7.15,4.68 -10.78,7.23l0 0c-0.55,0.39 -1.23,0.59 -1.85,0.58l0 0c-1.05,0 -2.03,-0.48 -2.71,-1.39l0 0zm21.87 -14.4c-0.99,-1.55 -0.43,-3.55 1.11,-4.48l0 0c3.88,-2.35 7.7,-4.53 11.4,-6.6l0 0c1.6,-0.88 3.57,-0.31 4.44,1.27l0 0c0.92,1.58 0.31,3.57 -1.23,4.45l0 0c-3.63,2.02 -7.39,4.18 -11.27,6.49l0 0c-0.49,0.31 -1.11,0.46 -1.66,0.46l0 0c-1.11,0 -2.16,-0.57 -2.77,-1.59l0 0zm22.73 -12.9c-0.86,-1.6 -0.25,-3.58 1.42,-4.4l0 0c4.07,-2.13 8.01,-4.09 11.77,-5.9l0 0c1.6,-0.79 3.57,-0.12 4.31,1.5l0 0c0.8,1.63 0.12,3.58 -1.48,4.37l0 0c-3.7,1.8 -7.58,3.73 -11.64,5.83l0 0c-0.43,0.25 -0.99,0.36 -1.48,0.36l0 0c-1.17,0 -2.34,-0.64 -2.9,-1.76l0 0zm23.41 -11.61c-0.74,-1.64 -0.06,-3.58 1.6,-4.35l0 0c3.76,-1.77 7.21,-3.39 10.23,-4.86l0 0c0.49,-0.24 0.99,-0.49 1.54,-0.74l0 -0.01c1.6,-0.79 3.57,-0.12 4.37,1.5l0 0c0.8,1.63 0.12,3.58 -1.54,4.37l0 0c-0.49,0.26 -1.05,0.51 -1.54,0.76l0 0c-3.08,1.5 -6.53,3.12 -10.29,4.89l0 0c-0.43,0.21 -0.92,0.31 -1.42,0.31l0 0c-1.23,0 -2.4,-0.69 -2.96,-1.87l0 0zm23.59 -11.38c-0.8,-1.61 -0.18,-3.59 1.42,-4.39l0 0c3.7,-1.88 7.64,-3.87 11.64,-5.96l0 0.01c1.6,-0.83 3.57,-0.21 4.44,1.39l0 0c0.8,1.61 0.18,3.59 -1.42,4.4l0 0c-4.07,2.09 -7.95,4.1 -11.7,5.98l0 0c-0.43,0.23 -0.99,0.35 -1.48,0.35l0 0c-1.17,0 -2.34,-0.66 -2.9,-1.79l0 0zm23.29 -11.96c-0.8,-1.61 -0.18,-3.57 1.42,-4.41l0 0c3.82,-2 7.7,-4.03 11.58,-6.07l0 0c1.6,-0.84 3.57,-0.23 4.44,1.37l0 0c0.8,1.6 0.18,3.57 -1.42,4.42l0 0c-3.88,2.04 -7.76,4.07 -11.58,6.07l0 0c-0.49,0.25 -0.99,0.38 -1.54,0.38l0 0c-1.17,-0.01 -2.28,-0.64 -2.9,-1.76l0 0zm23.22 -12.18c-0.86,-1.6 -0.25,-3.58 1.36,-4.42l0 0c3.88,-2.08 7.76,-4.14 11.52,-6.15l0 0c1.6,-0.84 3.57,-0.24 4.44,1.35l0 0c0.86,1.59 0.25,3.58 -1.36,4.43l0 0c-3.76,2.01 -7.64,4.07 -11.58,6.15l0 0c-0.49,0.26 -0.99,0.38 -1.48,0.38l0 0c-1.17,0 -2.34,-0.63 -2.9,-1.74l0 0zm23.1 -12.31c-0.86,-1.59 -0.25,-3.57 1.36,-4.42l0 0c4.07,-2.19 7.95,-4.28 11.52,-6.2l0 0c1.6,-0.86 3.57,-0.26 4.44,1.33l0 0c0.86,1.58 0.25,3.57 -1.36,4.42l0 0c-3.57,1.93 -7.45,4.02 -11.52,6.21l0 0c-0.49,0.26 -1.05,0.38 -1.54,0.38l0 0c-1.17,0 -2.34,-0.62 -2.9,-1.73l0 0zm23.1 -12.41c-0.86,-1.59 -0.31,-3.57 1.29,-4.43l0 0c7.15,-3.88 11.52,-6.26 11.52,-6.27l0 0c1.6,-0.86 3.57,-0.28 4.44,1.31l0 0c0.86,1.58 0.31,3.57 -1.29,4.43l0 0c0,0 -4.37,2.38 -11.52,6.26l0 0c-0.55,0.27 -1.05,0.4 -1.6,0.4l0 0c-1.11,0 -2.28,-0.62 -2.83,-1.71l0 0z"/>
  <path class="fil0" d="M933.63 56.84c-45.58,-22.07 -72.94,-42.43 -143.84,-47.4 -2.09,-0.14 -3.7,-1.58 -5.48,-2.24 13.86,9.83 28.34,26.46 38.99,54.68 27.17,71.92 30.86,168.84 -56.12,266.31 53.22,-10.94 150.06,-27.82 150.06,-27.82 9.86,-6.54 50.7,-68.65 58.83,-122.59 8.19,-53.93 -7.82,-104.17 -42.44,-120.94z"/>
  <path class="fil4" d="M816.77 21.03c0,0 93.14,29.41 117.66,47.4 0,0 37.64,63.74 17.99,125.85 0,0 1.66,-53.94 -11.4,-75.19 0,0 9.8,58.84 -6.59,106.24 0,0 -3.26,-130.75 -40.84,-158.53l-76.82 -45.76z"/>
  <path class="fil2" d="M721.6 14.48l15.65 8.17c0,0 20.7,-17.98 48.48,6.54 45.95,40.53 42.5,120.95 29.38,192.86 -13.06,71.91 -82.54,107.73 -82.54,107.73 17.49,3.74 26.61,0.02 34.62,-1.6 86.98,-97.47 83.29,-194.39 56.12,-266.31 -10.72,-28.36 -25.32,-45.02 -39.24,-54.84 -0.49,-0.24 -1.11,-0.49 -1.6,-0.73 -39.24,-17.98 -60.86,8.17 -60.86,8.17z"/>
  <path class="fil4" d="M815.29 205.34c0,0 -3.39,-1.75 -9.24,-4.82l0 -0.01c-1.6,-0.84 -2.22,-2.82 -1.36,-4.42l0 0c0.8,-1.59 2.77,-2.21 4.37,-1.36l0 0c5.85,3.06 9.18,4.8 9.24,4.81l0 0c1.54,0.83 2.22,2.8 1.36,4.4l0 0c-0.55,1.12 -1.73,1.77 -2.9,1.77l0 0c-0.49,0 -1.05,-0.12 -1.48,-0.38l0 0zm-20.88 -10.98c-3.51,-1.88 -7.39,-3.97 -11.52,-6.21l0 0c-1.6,-0.86 -2.22,-2.84 -1.36,-4.43l0 0c0.86,-1.59 2.83,-2.18 4.44,-1.32l0 0c4.19,2.24 8.01,4.32 11.58,6.19l0 0c1.54,0.85 2.16,2.83 1.29,4.42l0 0c-0.55,1.11 -1.72,1.74 -2.89,1.74l0 0c-0.49,0 -1.05,-0.12 -1.54,-0.39l0 0zm-23.04 -12.48c-3.76,-2.02 -7.58,-4.13 -11.52,-6.32l0 0c-1.6,-0.87 -2.16,-2.86 -1.29,-4.44l0 0c0.86,-1.58 2.9,-2.16 4.44,-1.28l0 0c3.94,2.17 7.82,4.28 11.46,6.3l0 0c1.6,0.87 2.22,2.85 1.36,4.44l0 0c-0.62,1.08 -1.72,1.7 -2.89,1.7l0 0c-0.55,0 -1.05,-0.14 -1.54,-0.41l0 0zm-22.98 -12.7c-3.76,-2.11 -7.58,-4.26 -11.46,-6.45l0 0c-1.54,-0.89 -2.09,-2.89 -1.23,-4.46l0 0c0.92,-1.57 2.9,-2.13 4.5,-1.23l0 0c3.82,2.18 7.64,4.34 11.4,6.43l0 0c1.54,0.88 2.09,2.88 1.23,4.45l0 0c-0.62,1.07 -1.72,1.68 -2.83,1.68l0 0c-0.55,0 -1.11,-0.14 -1.6,-0.42l0 0zm-22.79 -12.98c-3.82,-2.18 -7.64,-4.4 -11.4,-6.62l0 -0.01c-1.54,-0.91 -2.03,-2.92 -1.11,-4.47l0 0c0.86,-1.55 2.9,-2.07 4.44,-1.16l0 0c3.76,2.21 7.52,4.41 11.33,6.59l0 0c1.54,0.91 2.09,2.9 1.17,4.47l0 0c-0.62,1.04 -1.72,1.63 -2.83,1.63l0 0c-0.55,0 -1.11,-0.14 -1.6,-0.44l0 0zm-22.67 -13.34c-3.82,-2.29 -7.52,-4.58 -11.21,-6.85l0 0c-1.54,-0.95 -2.03,-2.96 -1.05,-4.5l0 0c0.92,-1.54 2.96,-2.01 4.5,-1.07l0 0c3.63,2.27 7.33,4.53 11.15,6.81l0 0c1.54,0.92 2.03,2.95 1.11,4.49l0 0c-0.62,1.02 -1.72,1.58 -2.83,1.58l0 0c-0.55,0 -1.11,-0.15 -1.66,-0.47l0 0zm-22.36 -13.86c-3.82,-2.45 -7.52,-4.87 -11.03,-7.23l0 0c-1.48,-1 -1.85,-3.04 -0.86,-4.54l0 0c0.99,-1.5 3.02,-1.89 4.56,-0.89l0 0c3.45,2.33 7.08,4.72 10.9,7.15l0 0c1.48,0.97 1.91,2.99 0.98,4.51l0 0c-0.68,0.98 -1.72,1.51 -2.77,1.51l0 0c-0.62,0 -1.23,-0.17 -1.79,-0.52l0 0zm-21.87 -14.76c-3.88,-2.8 -7.39,-5.49 -10.6,-8.04l0 0c-1.36,-1.13 -1.6,-3.19 -0.43,-4.59l0 0c1.11,-1.41 3.2,-1.62 4.56,-0.49l0 0c3.02,2.46 6.47,5.08 10.29,7.82l0 0c1.48,1.05 1.79,3.09 0.74,4.55l0 0c-0.62,0.89 -1.6,1.37 -2.65,1.37l0 0c-0.68,0 -1.29,-0.2 -1.91,-0.62l0 0zm-20.45 -16.76c-3.08,-2.66 -6.53,-5.21 -10.1,-7.64l0 0c-1.54,-1 -1.91,-3.04 -0.92,-4.54l0 0c0.99,-1.5 3.02,-1.9 4.56,-0.89l0 0c3.82,2.55 7.39,5.25 10.72,8.12l0 0c1.36,1.17 1.54,3.24 0.37,4.6l0 0c-0.68,0.76 -1.6,1.14 -2.53,1.14l0 0c-0.74,0 -1.48,-0.26 -2.09,-0.79l0 0zm-21.07 -14.27c-3.76,-2.04 -7.58,-3.98 -11.52,-5.81l0 0.01c-1.6,-0.77 -2.34,-2.72 -1.54,-4.35l0 0c0.74,-1.64 2.71,-2.34 4.31,-1.58l0 0c4.07,1.89 8.01,3.89 11.89,6.01l0 0c1.6,0.87 2.16,2.86 1.29,4.44l0 0c-0.62,1.08 -1.73,1.69 -2.9,1.69l0 0c-0.49,0 -1.05,-0.12 -1.54,-0.4l0 0zm-23.35 -10.98c-4.07,-1.64 -8.13,-3.18 -12.07,-4.6l0 0c-1.72,-0.62 -2.59,-2.48 -2.03,-4.18l0 0c0.62,-1.7 2.53,-2.59 4.19,-1.98l0 0c4.07,1.45 8.19,3.01 12.38,4.71l0 0c1.66,0.68 2.46,2.59 1.79,4.26l0 0c-0.49,1.26 -1.73,2.03 -3.02,2.03l0 0c-0.43,0 -0.8,-0.07 -1.23,-0.24l0 0zm-24.39 -8.72c-4.37,-1.39 -8.56,-2.62 -12.44,-3.71l0 0c-1.73,-0.49 -2.77,-2.29 -2.28,-4.02l0 0c0.49,-1.75 2.28,-2.77 4,-2.27l0 0c3.94,1.1 8.25,2.35 12.69,3.76l0 0c1.73,0.54 2.65,2.38 2.09,4.1l0 0c-0.43,1.39 -1.72,2.29 -3.08,2.29l0 0c-0.31,0 -0.68,-0.05 -0.99,-0.15l0 0zm-25.01 -7c-7.82,-1.92 -12.63,-2.85 -12.69,-2.85l0 0c-1.72,-0.34 -2.89,-2.05 -2.59,-3.83l0 0c0.37,-1.77 2.09,-2.93 3.82,-2.59l0 0c0.06,0.01 5.05,0.95 13,2.92l0 0c1.72,0.42 2.83,2.19 2.4,3.94l0 0c-0.37,1.5 -1.72,2.5 -3.2,2.5l0 0c-0.25,0 -0.49,-0.03 -0.74,-0.09l0 0z"/>
  <path class="fil4" d="M581.51 284.84c-0.43,-1.77 0.74,-3.51 2.46,-3.88l0 0c0.62,-0.13 1.23,-0.26 1.85,-0.39l0 -0.01c1.73,-0.4 3.51,0.71 3.94,2.47l0 0c0.37,1.75 -0.74,3.51 -2.46,3.91l0 0c-0.68,0.15 -1.29,0.28 -1.91,0.42l0 0c-0.25,0.04 -0.49,0.07 -0.74,0.07l0 0c-1.48,0 -2.83,-1.05 -3.14,-2.59l0 0zm14.54 -3.57c-0.55,-1.71 0.37,-3.56 2.09,-4.12l0 0c4.07,-1.33 8.07,-2.84 11.95,-4.5l0 0c1.66,-0.71 3.57,0.06 4.31,1.73l0 0c0.68,1.66 -0.12,3.57 -1.79,4.29l0 0c-4,1.73 -8.19,3.3 -12.51,4.71l0 0c-0.31,0.11 -0.62,0.16 -0.99,0.16l0 0c-1.36,0 -2.65,-0.88 -3.08,-2.26l0 0zm24.21 -9.7c-0.8,-1.6 -0.18,-3.57 1.42,-4.42l0 0c3.82,-2 7.52,-4.15 11.09,-6.39l0 0c1.54,-0.95 3.57,-0.49 4.5,1.04l0 0c0.99,1.53 0.49,3.55 -0.99,4.51l0 0c-3.76,2.32 -7.58,4.54 -11.58,6.63l0 0c-0.49,0.26 -0.99,0.38 -1.54,0.38l0 0c-1.17,0 -2.28,-0.63 -2.9,-1.75l0 0zm22.49 -13.42c-1.11,-1.47 -0.74,-3.52 0.68,-4.57l0 0c3.57,-2.56 6.96,-5.2 10.23,-7.88l0 0c1.36,-1.15 3.45,-0.95 4.56,0.44l0 0c1.17,1.4 0.99,3.46 -0.43,4.61l0 0c-3.33,2.76 -6.84,5.48 -10.47,8.13l0 0c-0.62,0.42 -1.29,0.62 -1.91,0.62l0 0c-1.05,0 -2.03,-0.47 -2.65,-1.36l0 0zm20.39 -16.31c-1.17,-1.32 -1.11,-3.39 0.18,-4.62l0 0c3.26,-3.01 6.34,-6.04 9.24,-9.02l0 0c1.29,-1.3 3.33,-1.34 4.62,-0.07l0 0c1.29,1.26 1.36,3.33 0.12,4.63l0 0c-3.02,3.06 -6.16,6.17 -9.49,9.26l0 0c-0.68,0.58 -1.48,0.87 -2.22,0.87l0 0c-0.92,0 -1.79,-0.35 -2.46,-1.05l0 0zm18.48 -18.54c-1.36,-1.19 -1.48,-3.25 -0.31,-4.61l0 0c3.08,-3.47 5.85,-6.83 8.32,-9.94l0 0c1.11,-1.42 3.14,-1.66 4.56,-0.54l0 0c1.42,1.12 1.66,3.17 0.55,4.59l0 0c-2.53,3.2 -5.36,6.62 -8.5,10.19l0 0c-0.62,0.73 -1.54,1.11 -2.46,1.11l0 0c-0.74,0 -1.54,-0.26 -2.16,-0.81l0 0zm16.51 -20.33c-1.48,-1.05 -1.79,-3.09 -0.74,-4.56l0 0c4.68,-6.62 7.02,-10.7 7.08,-10.71l0 0c0.86,-1.55 2.9,-2.08 4.44,-1.17l0 0c1.54,0.91 2.09,2.91 1.17,4.47l0 0c0,0.07 -2.59,4.39 -7.39,11.21l0 0c-0.62,0.89 -1.66,1.37 -2.65,1.37l0 0c-0.68,0 -1.36,-0.19 -1.91,-0.6l0 0z"/>
  <path class="fil4" d="M797.24 306.57c-1.36,-1.18 -1.54,-3.24 -0.37,-4.61l0 0c2.83,-3.35 5.61,-6.68 8.19,-10l0 0c1.11,-1.42 3.2,-1.66 4.62,-0.55l0 0c1.42,1.12 1.66,3.18 0.55,4.59l0 0c-2.71,3.39 -5.48,6.8 -8.44,10.21l0 0c-0.62,0.76 -1.54,1.14 -2.46,1.14l0 0c-0.74,0 -1.48,-0.25 -2.09,-0.78l0 0zm16.32 -20.37c-1.42,-1.06 -1.79,-3.1 -0.74,-4.56l0 0c2.59,-3.58 4.99,-7.13 7.27,-10.68l0 0c0.99,-1.52 3.02,-1.95 4.56,-0.97l0 0c1.48,0.98 1.97,3.01 0.98,4.52l0 0c-2.4,3.63 -4.87,7.27 -7.45,10.92l0 0c-0.68,0.89 -1.66,1.36 -2.71,1.36l0 0c-0.62,0 -1.29,-0.2 -1.91,-0.6l0 0zm14.48 -21.77c-1.54,-0.91 -2.09,-2.91 -1.17,-4.47l0 0c2.22,-3.81 4.25,-7.58 6.16,-11.33l0 0c0.8,-1.6 2.77,-2.25 4.37,-1.43l0 0c1.6,0.82 2.28,2.78 1.42,4.39l0 0c-1.91,3.86 -4.07,7.74 -6.28,11.64l0 0c-0.62,1.05 -1.73,1.64 -2.83,1.64l0 0c-0.55,0 -1.11,-0.15 -1.66,-0.44l0 0zm12.2 -23.13c-1.66,-0.73 -2.4,-2.65 -1.66,-4.31l0 0c1.73,-4.01 3.33,-7.99 4.81,-11.93l0 0c0.62,-1.7 2.53,-2.56 4.19,-1.93l0 0c1.73,0.63 2.59,2.51 1.97,4.2l0 0c-1.54,4.07 -3.2,8.17 -4.99,12.3l0 0c-0.55,1.22 -1.79,1.95 -3.02,1.95l0 0c-0.43,0 -0.86,-0.09 -1.29,-0.27l0 0zm9.43 -24.38c-1.73,-0.52 -2.71,-2.33 -2.16,-4.07l0 0c1.23,-4.19 2.34,-8.32 3.33,-12.42l0 -0.01c0.43,-1.77 2.16,-2.85 3.94,-2.43l0 0c1.73,0.41 2.83,2.16 2.4,3.92l0 0c-0.99,4.23 -2.09,8.51 -3.45,12.83l0 0c-0.43,1.4 -1.73,2.32 -3.08,2.32l0 0c-0.31,0 -0.68,-0.05 -0.99,-0.15l0 0zm6.41 -25.34c-1.79,-0.3 -3.02,-1.98 -2.71,-3.76l0 0c0.74,-4.31 1.29,-8.54 1.73,-12.75l0 0c0.12,-1.79 1.73,-3.1 3.57,-2.93l0 0c1.79,0.18 3.08,1.79 2.9,3.57l0 0c-0.43,4.34 -0.99,8.73 -1.73,13.18l0 0c-0.31,1.6 -1.66,2.73 -3.26,2.73l0 0c-0.18,0 -0.31,-0.02 -0.49,-0.04l0 0zm3.02 -25.96c-1.79,-0.05 -3.2,-1.58 -3.14,-3.38l0 0c0.06,-2.24 0.06,-4.47 0.06,-6.68l0 0c0,-2.08 0,-4.13 -0.06,-6.18l0 0c-0.06,-1.81 1.36,-3.31 3.14,-3.36l0 0c1.79,-0.06 3.33,1.36 3.39,3.16l0 0c0.06,2.11 0.12,4.24 0.12,6.38l0 0c0,2.28 -0.06,4.59 -0.12,6.91l0 0c-0.06,1.77 -1.54,3.16 -3.27,3.16l0 0c-0.06,0 -0.12,-0.01 -0.12,-0.01l0 0zm-3.94 -29.08c-0.43,-4.34 -0.99,-8.6 -1.66,-12.76l0 0c-0.31,-1.78 0.92,-3.46 2.71,-3.75l0 0c1.79,-0.28 3.45,0.93 3.76,2.71l0 0c0.68,4.29 1.23,8.69 1.66,13.18l0 0c0.18,1.79 -1.11,3.39 -2.96,3.57l0 0c-0.06,0.01 -0.18,0.01 -0.31,0.01l0 0c-1.66,0 -3.08,-1.27 -3.2,-2.96l0 0zm-4.07 -25.4c-0.99,-4.29 -2.03,-8.46 -3.2,-12.47l0 0c-0.49,-1.74 0.49,-3.55 2.22,-4.05l0 0c1.79,-0.51 3.57,0.51 4.07,2.24l0 0c1.17,4.15 2.28,8.43 3.26,12.86l0 0c0.43,1.76 -0.68,3.52 -2.46,3.9l0 0c-0.25,0.06 -0.49,0.08 -0.74,0.08l0 0c-1.48,0 -2.83,-1.03 -3.14,-2.56l0 0zm-7.15 -24.76c-1.48,-4.21 -3.02,-8.23 -4.56,-12.04l0 0.01c-0.74,-1.67 0.06,-3.59 1.73,-4.28l0 0c1.66,-0.7 3.57,0.09 4.31,1.76l0 0c1.6,3.92 3.2,8.05 4.74,12.39l0 0c0.55,1.71 -0.31,3.57 -2.03,4.17l0 0c-0.37,0.12 -0.74,0.18 -1.05,0.18l0 0c-1.36,0 -2.65,-0.84 -3.14,-2.19l0 0zm-9.86 -23.81c-2.03,-4.18 -4,-8 -5.97,-11.45l0 0c-0.86,-1.58 -0.31,-3.57 1.29,-4.45l0 0c1.54,-0.88 3.57,-0.31 4.44,1.28l0 0c1.97,3.54 4.07,7.48 6.1,11.77l0 0c0.8,1.63 0.12,3.58 -1.48,4.37l0 0c-0.49,0.22 -0.99,0.33 -1.42,0.33l0 0c-1.23,0 -2.4,-0.68 -2.96,-1.85l0 0zm-12.57 -22.52c-4.37,-6.85 -7.27,-10.44 -7.27,-10.45l0 0.01c-1.17,-1.4 -0.92,-3.47 0.49,-4.6l0 0c1.36,-1.13 3.45,-0.92 4.56,0.49l0 0c0.06,0.08 3.2,3.95 7.76,11.04l0 0c0.92,1.52 0.49,3.54 -1.05,4.52l0 0c-0.49,0.35 -1.11,0.52 -1.73,0.52l0 0c-1.11,0 -2.16,-0.54 -2.77,-1.51l0 0z"/>
 </g>
</svg>
