<?xml version="1.0" encoding="UTF-8" standalone="no"?>
<!-- Creator: CorelDRAW 2021 (64-Bit) -->

<svg
   xml:space="preserve"
   width="6.43974in"
   height="4.12209in"
   version="1.1"
   style="shape-rendering:geometricPrecision; text-rendering:geometricPrecision; image-rendering:optimizeQuality; fill-rule:evenodd; clip-rule:evenodd"
   viewBox="0 0 1263.74 808.92"
   id="svg25"
   sodipodi:docname="Karate_yellow_orange_belt.svg"
   inkscape:version="1.3.2 (091e20e, 2023-11-25)"
   xmlns:inkscape="http://www.inkscape.org/namespaces/inkscape"
   xmlns:sodipodi="http://sodipodi.sourceforge.net/DTD/sodipodi-0.dtd"
   xmlns="http://www.w3.org/2000/svg"
   xmlns:svg="http://www.w3.org/2000/svg"><sodipodi:namedview
   id="namedview25"
   pagecolor="#ffffff"
   bordercolor="#000000"
   borderopacity="0.25"
   inkscape:showpageshadow="2"
   inkscape:pageopacity="0.0"
   inkscape:pagecheckerboard="0"
   inkscape:deskcolor="#d1d1d1"
   inkscape:document-units="in"
   inkscape:zoom="0.95163137"
   inkscape:cx="307.89233"
   inkscape:cy="226.45323"
   inkscape:window-width="1392"
   inkscape:window-height="1212"
   inkscape:window-x="0"
   inkscape:window-y="25"
   inkscape:window-maximized="0"
   inkscape:current-layer="Layer_x0020_1" />
 <defs
   id="defs1">
  <style
   type="text/css"
   id="style1">
   <![CDATA[
    .fil3 {fill:#754D29;fill-rule:nonzero}
    .fil2 {fill:#EABA42;fill-rule:nonzero}
    .fil1 {fill:#FFD24F;fill-rule:nonzero}
    .fil4 {fill:#FFEACC;fill-rule:nonzero}
    .fil0 {fill:#FFFF33;fill-rule:nonzero}
   ]]>
  </style>
 </defs>
 <g
   id="Layer_x0020_1"
   inkscape:label="Layer 1">
  <metadata
   id="CorelCorpID_0Corel-Layer" />
  <polygon
   class="fil0"
   points="1214.6,39.88 49.13,39.88 -0,74.66 -0,231.94 49.13,266.72 1214.6,266.72 1263.74,231.94 1263.74,74.66 "
   id="polygon1" />
  <polygon
   class="fil1"
   points="228.35,64.82 1054.15,64.82 812.95,93.44 1156.35,126.14 829.3,158.85 980.56,195.65 862.01,216.08 1123.65,252.88 154.76,252.88 416.4,207.91 285.58,183.38 420.49,162.94 265.14,134.32 367.34,113.89 150.67,73 "
   id="polygon2"
   style="fill:#d85b05;fill-opacity:1" />
  <path
   class="fil2"
   d="M1153.25 72.59l0 -10.9 32.7 0 0 10.9 -32.7 0 0 0zm-65.41 0l0 -10.9 32.7 0 0 10.9 -32.7 0 0 0zm-65.41 0l0 -10.9 32.7 0 0 10.9 -32.7 0 0 0zm-65.42 0l0 -10.9 32.71 0 0 10.9 -32.71 0 0 0zm-65.41 0l0 -10.9 32.7 0 0 10.9 -32.7 0 0 0zm-65.41 0l0 -10.9 32.7 0 0 10.9 -32.7 0 0 0zm-65.42 0l0 -10.9 32.7 0 0 10.9 -32.7 0 0 0zm-65.42 0l0 -10.9 32.71 0 0 10.9 -32.71 0 0 0zm-65.41 0l0 -10.9 32.7 0 0 10.9 -32.7 0 0 0zm-65.42 0l0 -10.9 32.7 0 0 10.9 -32.7 0 0 0zm-65.42 0l0 -10.9 32.71 0 0 10.9 -32.71 0 0 0zm-65.42 0l0 -10.9 32.71 0 0 10.9 -32.71 0 0 0zm-65.41 0l0 -10.9 32.7 0 0 10.9 -32.7 0 0 0zm-65.42 0l0 -10.9 32.71 0 0 10.9 -32.71 0 0 0zm-65.41 0l0 -10.9 32.71 0 0 10.9 -32.71 0 0 0zm-65.41 0l0 -10.9 32.71 0 0 10.9 -32.71 0 0 0zm-65.41 0l0 -10.9 32.71 0 0 10.9 -32.71 0 0 0z"
   id="path2" />
  <path
   class="fil2"
   d="M1153.25 247.02l0 -10.9 32.7 0 0 10.9 -32.7 0 0 0zm-65.41 0l0 -10.9 32.7 0 0 10.9 -32.7 0 0 0zm-65.41 0l0 -10.9 32.7 0 0 10.9 -32.7 0 0 0zm-65.42 0l0 -10.9 32.71 0 0 10.9 -32.71 0 0 0zm-65.41 0l0 -10.9 32.7 0 0 10.9 -32.7 0 0 0zm-65.41 0l0 -10.9 32.7 0 0 10.9 -32.7 0 0 0zm-65.42 0l0 -10.9 32.7 0 0 10.9 -32.7 0 0 0zm-65.42 0l0 -10.9 32.71 0 0 10.9 -32.71 0 0 0zm-65.41 0l0 -10.9 32.7 0 0 10.9 -32.7 0 0 0zm-65.42 0l0 -10.9 32.7 0 0 10.9 -32.7 0 0 0zm-65.42 0l0 -10.9 32.71 0 0 10.9 -32.71 0 0 0zm-65.42 0l0 -10.9 32.71 0 0 10.9 -32.71 0 0 0zm-65.41 0l0 -10.9 32.7 0 0 10.9 -32.7 0 0 0zm-65.42 0l0 -10.9 32.71 0 0 10.9 -32.71 0 0 0zm-65.41 0l0 -10.9 32.71 0 0 10.9 -32.71 0 0 0zm-65.41 0l0 -10.9 32.71 0 0 10.9 -32.71 0 0 0zm-65.41 0l0 -10.9 32.71 0 0 10.9 -32.71 0 0 0z"
   id="path3" />
  <path
   class="fil3"
   d="M437.07 58.41c0,0 -6.68,7.15 -6.68,21.44 0,14.29 11.85,128 47.65,163.8 0,0 74.25,-33.04 127.21,-86 0,0 -120.54,-90.19 -168.19,-99.25z"
   id="path4" />
  <path
   class="fil0"
   d="M825.9 58.41c0,0 -32.88,-24.3 -72.9,-37.17 -40.03,-12.86 -87.2,-30.02 -133.66,-2.14 -46.46,27.88 -146.98,89.28 -209.42,112.22 -140.09,51.46 -293.05,305.92 -287.33,649.01 0,0 125.8,11.44 162.96,28.59 0,0 -31.45,-477.47 168.69,-557.52 200.14,-80.05 185.84,-82.92 248.74,-125.8 62.9,-42.89 122.94,-67.19 122.94,-67.19z"
   id="path5" />
  <path
   class="fil2"
   d="M122.57 780.33c-0.04,-2.41 -0.04,-4.8 -0.06,-7.2 40.38,-12.07 147.31,14.34 147.31,14.34 -8.58,-24.3 7.15,-304.49 52.89,-401.69 45.74,-97.21 75.77,-121.51 115.79,-140.09 40.02,-18.59 191.56,-82.92 231.58,-117.23 40.02,-34.31 92.92,-60.04 124.36,-71.48 9.27,-3.37 17.01,-4.35 23.37,-4.09 5.15,3.36 8.08,5.52 8.08,5.52 0,0 -60.04,24.31 -122.94,67.19 -62.9,42.88 -48.6,45.74 -248.74,125.8 -200.14,80.05 -168.69,557.52 -168.69,557.52 -37.17,-17.16 -162.96,-28.59 -162.96,-28.59z"
   id="path6" />
  <path
   class="fil0"
   d="M610.24 149.43c0,0 -89.3,75.59 -140.78,96.11 0,0 40.98,25.91 130.27,47.51 0,0 46.22,23.76 116.09,-78.29l-105.58 -65.33z"
   id="path7" />
  <path
   class="fil1"
   d="M618.56 160.12c0,0 -31.59,52.5 -75.04,77.76 0,0 33.57,-7.77 67.14,-34.99 0,0 -9.88,33.05 -21.73,40.82 0,0 29.63,7.77 69.13,-21.38 0,0 -3.95,25.27 -21.72,40.82 0,0 51.34,-29.16 71.09,-58.31l-88.87 -44.72z"
   id="path8" />
  <path
   class="fil2"
   d="M610.24 149.43c0,0 -89.3,75.59 -140.78,96.11 0,0 3.51,2.2 10.65,5.86 67.88,-31.22 122.07,-83.14 136.69,-97.91l-6.56 -4.06z"
   id="path9" />
  <path
   class="fil0"
   d="M437.07 58.41c0,0 32.87,-24.3 72.9,-37.17 40.03,-12.86 87.2,-30.02 133.66,-2.14 46.45,27.88 146.99,89.28 209.42,112.22 140.09,51.46 293.06,305.92 287.34,649.01 0,0 -125.8,11.44 -162.97,28.59 0,0 31.45,-477.47 -168.69,-557.52 -200.14,-80.05 -185.84,-82.92 -248.73,-125.8 -62.9,-42.89 -122.94,-67.19 -122.94,-67.19z"
   id="path10" />
  <path
   class="fil3"
   d="M643.63 19.1c16.93,10.16 41.07,24.78 67.9,40.37 -7.11,-17.28 -21.77,-38.44 -40.36,-43.94 -10.76,-3.18 -21.21,-0.97 -29.51,2.45 0.65,0.37 1.31,0.73 1.97,1.12z"
   id="path11" />
  <path
   class="fil1"
   d="M560 125.6c-17.59,-11.99 -34.95,-22.53 -50.84,-31.49 -39.03,18.78 -85.56,41.44 -133.1,71.51 -93.4,59.09 -142.95,198.23 -142.95,198.23 26.69,-62.9 97.21,-135.32 97.21,-135.32 -83.86,114.36 -95.31,228.72 -95.31,228.72 49.56,-152.48 131.52,-198.23 131.52,-198.23 -40.03,51.47 -51.46,99.11 -51.46,99.11 36.21,-72.43 116.27,-133.42 173.45,-156.29 35.14,-14.06 76.74,-37.46 103.6,-53.43 -9.11,-6.56 -18.91,-13.8 -32.13,-22.81z"
   id="path12" />
  <path
   class="fil1"
   d="M646.72 131.32c0,0 74.34,47.65 131.52,70.52 57.18,22.87 137.24,83.86 173.45,156.29 0,0 -11.43,-47.65 -51.47,-99.11 0,0 81.97,45.75 131.52,198.23 0,0 -11.44,-114.36 -95.3,-228.72 0,0 70.52,72.42 97.2,135.32 0,0 -49.55,-139.14 -142.95,-198.23 -93.4,-59.08 -182.98,-89.59 -219.2,-118.17 0,0 36.22,51.46 70.53,72.43 0,0 -87.68,-45.74 -137.23,-81.96 0,0 66.7,80.05 129.61,112.45 0,0 -62.9,-5.72 -87.68,-19.06z"
   id="path13" />
  <path
   class="fil2"
   d="M1140.39 780.33c0.04,-2.41 0.04,-4.8 0.06,-7.2 -40.38,-12.07 -147.31,14.34 -147.31,14.34 8.58,-24.3 -7.14,-304.49 -52.89,-401.69 -45.74,-97.21 -75.77,-121.51 -115.8,-140.09 -40.03,-18.59 -191.55,-82.92 -231.58,-117.23 -40.03,-34.31 -92.92,-60.04 -124.37,-71.48 -9.27,-3.37 -17,-4.35 -23.37,-4.09 -5.15,3.36 -8.08,5.52 -8.08,5.52 0,0 60.04,24.31 122.94,67.19 62.9,42.88 48.6,45.74 248.73,125.8 200.14,80.05 168.69,557.52 168.69,557.52 37.17,-17.16 162.97,-28.59 162.97,-28.59z"
   id="path14" />
  <path
   class="fil4"
   d="M1064.15 409.6c0,0 68.62,181.07 62.9,350.71 0,0 -51.47,0 -99.12,9.54 0,0 62.9,-30.5 85.78,-24.78 0,0 3.81,-156.29 -49.56,-335.46z"
   id="path15" />
  <path
   class="fil4"
   d="M195.95 409.6c0,0 -68.62,181.07 -62.9,350.71 0,0 51.46,0 99.11,9.54 0,0 -62.9,-30.5 -85.77,-24.78 0,0 -3.81,-156.29 49.55,-335.46z"
   id="path16" />
  <path
   class="fil4"
   d="M478.52 41.26c0,0 70.04,-30.02 117.22,-30.02 47.18,0 77.2,47.17 77.2,47.17 0,0 -54.32,-65.75 -194.41,-17.15z"
   id="path17" />
  <path
   class="fil1"
   d="M1008.73 751.73c-1.57,-0.07 -2.79,-1.42 -2.71,-3l0 0c0.05,-1.19 0.11,-2.38 0.17,-3.57l0 0c0.06,-1.58 1.41,-2.8 2.97,-2.73l0 0c1.59,0.08 2.8,1.42 2.73,2.99l0 0c-0.05,1.19 -0.1,2.39 -0.16,3.58l0 0c-0.08,1.54 -1.34,2.73 -2.86,2.73l0 0c-0.05,0 -0.09,0 -0.14,0l0 0zm0.67 -15c-1.58,-0.06 -2.81,-1.39 -2.75,-2.96l0 0c0.15,-3.83 0.28,-7.63 0.38,-11.41l0 0c0.05,-1.58 1.36,-2.82 2.94,-2.77l0 0c1.58,0.05 2.82,1.36 2.78,2.94l0 0c-0.11,3.79 -0.24,7.61 -0.38,11.46l0 0c-0.06,1.54 -1.33,2.75 -2.86,2.75l0 0c-0.03,0 -0.07,0 -0.1,0l0 0zm0.72 -22.86c-1.58,-0.03 -2.83,-1.34 -2.8,-2.92l0 0c0.08,-3.84 0.15,-7.63 0.2,-11.41l0 0c0.01,-1.58 1.31,-2.84 2.89,-2.82l0 0c1.58,0.02 2.84,1.31 2.83,2.89l0 0c-0.06,3.79 -0.12,7.61 -0.2,11.46l0 0c-0.03,1.56 -1.31,2.8 -2.85,2.8l0 0c-0.02,0 -0.04,0 -0.07,0l0 0zm0.34 -22.87c-1.58,-0.01 -2.85,-1.29 -2.84,-2.87l0 0c0,-1.94 0.01,-3.87 0.01,-5.8l0 0c0,-1.88 -0.01,-3.76 -0.01,-5.61l0 0c-0.01,-1.58 1.26,-2.87 2.84,-2.87l0 0c1.58,-0.01 2.87,1.27 2.88,2.84l0 0c0.01,1.88 0.01,3.76 0.01,5.64l0 0c0,1.93 -0.01,3.87 -0.01,5.82l0 0c-0.01,1.58 -1.29,2.85 -2.86,2.85l0 0c-0.01,0 -0.01,0 -0.02,0l0 0zm-2.95 -25.69c-0.05,-3.84 -0.12,-7.64 -0.2,-11.41l0 0c-0.03,-1.58 1.21,-2.89 2.79,-2.92l0 0c1.58,-0.04 2.89,1.21 2.92,2.79l0 0c0.1,3.78 0.16,7.6 0.21,11.46l0 0c0.03,1.58 -1.24,2.87 -2.82,2.9l0 0c-0.01,0 -0.03,0 -0.04,0l0 0c-1.57,0 -2.84,-1.26 -2.86,-2.82l0 0zm-0.52 -22.81c-0.12,-3.83 -0.27,-7.62 -0.44,-11.39l0 0c-0.06,-1.58 1.16,-2.92 2.74,-2.98l0 0c1.58,-0.07 2.91,1.15 2.98,2.74l0 0c0.16,3.78 0.3,7.6 0.43,11.46l0 0c0.05,1.58 -1.19,2.89 -2.76,2.95l0 0c-0.03,0 -0.06,0 -0.1,0l0 0c-1.54,0 -2.81,-1.22 -2.86,-2.77l0 0zm-0.98 -22.78c-0.2,-3.84 -0.43,-7.63 -0.67,-11.38l0 0c-0.1,-1.58 1.1,-2.94 2.67,-3.04l0 0c1.58,-0.1 2.94,1.09 3.03,2.67l0 0c0.25,3.78 0.47,7.6 0.67,11.44l0 0c0.09,1.58 -1.13,2.93 -2.7,3.01l0 0c-0.05,0 -0.1,0.01 -0.16,0.01l0 0c-1.51,0 -2.76,-1.19 -2.84,-2.7l0 0zm-1.45 -22.76c-0.3,-3.82 -0.6,-7.61 -0.92,-11.36l0 0c-0.14,-1.57 1.02,-2.96 2.6,-3.09l0 0c1.57,-0.14 2.96,1.03 3.1,2.6l0 0c0.32,3.77 0.63,7.58 0.92,11.43l0 0c0.12,1.57 -1.07,2.94 -2.63,3.07l0 0c-0.07,0 -0.15,0.01 -0.22,0.01l0 0c-1.48,0 -2.73,-1.15 -2.84,-2.65l0 0zm-1.97 -22.7c-0.38,-3.82 -0.78,-7.6 -1.19,-11.34l0 0c-0.17,-1.57 0.95,-2.98 2.53,-3.16l0 0c1.56,-0.17 2.98,0.95 3.16,2.53l0 0c0.41,3.76 0.82,7.56 1.2,11.41l0 0c0.16,1.57 -1,2.96 -2.57,3.12l0 0c-0.1,0.01 -0.19,0.02 -0.29,0.02l0 0c-1.45,0 -2.7,-1.11 -2.84,-2.58l0 0zm-2.52 -22.65c-0.47,-3.81 -0.96,-7.58 -1.48,-11.3l0 0c-0.22,-1.56 0.88,-3.01 2.44,-3.22l0 0c1.56,-0.22 3.01,0.88 3.22,2.45l0 0c0.51,3.74 1.01,7.54 1.49,11.37l0 0c0.2,1.57 -0.91,3 -2.48,3.19l0 0c-0.12,0.01 -0.24,0.02 -0.35,0.02l0 0c-1.42,0 -2.66,-1.07 -2.84,-2.51l0 0zm-3.1 -22.58c-0.58,-3.8 -1.17,-7.55 -1.79,-11.25l0 0c-0.25,-1.56 0.79,-3.03 2.35,-3.29l0 0c1.56,-0.25 3.03,0.8 3.29,2.35l0 0c0.62,3.73 1.22,7.51 1.8,11.33l0 0c0.24,1.56 -0.84,3.02 -2.4,3.25l0 0c-0.15,0.02 -0.3,0.03 -0.44,0.03l0 0c-1.39,0 -2.61,-1.01 -2.82,-2.43l0 0zm-3.73 -22.46c-0.68,-3.79 -1.4,-7.52 -2.12,-11.2l0 0c-0.31,-1.55 0.7,-3.05 2.25,-3.36l0 0c1.55,-0.31 3.05,0.7 3.37,2.25l0 0c0.73,3.7 1.44,7.46 2.13,11.27l0 0c0.28,1.56 -0.75,3.04 -2.31,3.32l0 0c-0.17,0.03 -0.35,0.04 -0.52,0.04l0 0c-1.35,0 -2.56,-0.96 -2.81,-2.34l0 0zm-4.41 -22.35c-0.8,-3.76 -1.63,-7.46 -2.48,-11.1l0 0c-0.36,-1.55 0.61,-3.08 2.14,-3.44l0 0c1.54,-0.36 3.08,0.6 3.43,2.14l0 0c0.85,3.68 1.69,7.41 2.49,11.21l0 0c0.33,1.55 -0.65,3.06 -2.19,3.39l0 0c-0.2,0.04 -0.4,0.06 -0.6,0.06l0 0c-1.32,0 -2.51,-0.92 -2.79,-2.26l0 0zm-5.13 -22.17c-0.93,-3.73 -1.89,-7.4 -2.86,-11.01l-0.01 0c-0.41,-1.53 0.5,-3.09 2.03,-3.5l0 0c1.51,-0.41 3.08,0.49 3.5,2.02l0 0c0.98,3.64 1.95,7.34 2.89,11.12l0 0c0.38,1.53 -0.55,3.08 -2.09,3.46l0 0c-0.23,0.06 -0.46,0.09 -0.69,0.09l0 0c-1.28,0 -2.44,-0.87 -2.76,-2.17l0 0zm-5.92 -21.97c-1.07,-3.7 -2.16,-7.33 -3.27,-10.89l0 0c-0.47,-1.51 0.37,-3.11 1.88,-3.58l0 0c1.51,-0.47 3.11,0.37 3.58,1.88l0 0c1.12,3.6 2.23,7.27 3.3,11l0 0c0.44,1.51 -0.43,3.1 -1.94,3.54l0 0c-0.27,0.08 -0.53,0.11 -0.8,0.11l0 0c-1.24,0 -2.39,-0.81 -2.75,-2.06l0 0zm-6.76 -21.72c-1.22,-3.65 -2.46,-7.23 -3.71,-10.74l0 0c-0.54,-1.49 0.24,-3.12 1.73,-3.65l0 0c1.48,-0.53 3.11,0.24 3.65,1.72l0 0c1.27,3.56 2.53,7.18 3.75,10.86l0 0c0.5,1.5 -0.31,3.13 -1.8,3.62l0 0c-0.3,0.1 -0.61,0.15 -0.9,0.15l0 0c-1.2,0 -2.31,-0.76 -2.72,-1.96l0 0zm-7.66 -21.39c-1.38,-3.6 -2.77,-7.11 -4.19,-10.56l-0.01 0c-0.6,-1.47 0.1,-3.14 1.56,-3.73l0 0c1.45,-0.6 3.13,0.09 3.73,1.55l0 0c1.43,3.49 2.84,7.05 4.24,10.68l0 0c0.57,1.48 -0.17,3.13 -1.65,3.7l0 0c-0.33,0.13 -0.68,0.19 -1.02,0.19l0 0c-1.15,0 -2.24,-0.7 -2.67,-1.83l0 0zm-8.64 -21.01c-1.55,-3.53 -3.13,-6.97 -4.7,-10.33l0 0c-0.67,-1.43 -0.06,-3.13 1.36,-3.8l0 0c1.43,-0.67 3.14,-0.06 3.81,1.37l0 0c1.61,3.4 3.19,6.89 4.77,10.47l0 0c0.64,1.44 -0.02,3.13 -1.47,3.76l0 0c-0.37,0.17 -0.76,0.25 -1.15,0.25l0 0c-1.1,0 -2.15,-0.64 -2.62,-1.71l0 0zm-9.68 -20.53c-1.74,-3.44 -3.5,-6.79 -5.26,-10.05l0 0c-0.75,-1.4 -0.23,-3.13 1.15,-3.87l0 0c1.4,-0.75 3.12,-0.24 3.87,1.15l0 0c1.79,3.31 3.58,6.71 5.33,10.2l0 0c0.71,1.41 0.15,3.13 -1.26,3.84l0 0c-0.41,0.21 -0.85,0.31 -1.29,0.31l0 0c-1.04,0 -2.05,-0.57 -2.55,-1.57l0 0zm-10.8 -19.95c-1.95,-3.34 -3.9,-6.58 -5.85,-9.71l-0.01 0c-0.84,-1.34 -0.43,-3.1 0.91,-3.94l0 0c1.34,-0.84 3.1,-0.43 3.94,0.92l0 0c1.98,3.18 3.96,6.47 5.94,9.87l0 0c0.79,1.36 0.32,3.11 -1.05,3.91l0 0c-0.45,0.26 -0.94,0.39 -1.43,0.39l0 0c-0.99,0 -1.94,-0.51 -2.47,-1.42l0 0zm-12.01 -19.24c-2.16,-3.21 -4.32,-6.31 -6.47,-9.28l-0.01 0c-0.92,-1.28 -0.64,-3.08 0.65,-4l0 0c1.28,-0.92 3.07,-0.63 3.99,0.65l0 0c2.19,3.04 4.39,6.19 6.58,9.46l0 0c0.88,1.31 0.53,3.09 -0.78,3.97l0 0c-0.49,0.32 -1.04,0.48 -1.58,0.48l0 0c-0.93,0 -1.83,-0.45 -2.38,-1.27l0 0zm-13.27 -18.35c-2.4,-3.05 -4.78,-5.99 -7.14,-8.78l0 0c-1.01,-1.21 -0.87,-3.01 0.34,-4.04l0 0c1.2,-1.02 3,-0.86 4.02,0.34l0 0c2.42,2.84 4.84,5.83 7.28,8.96l0 0c0.96,1.24 0.75,3.04 -0.5,4.01l0 0c-0.53,0.41 -1.15,0.61 -1.76,0.61l0 0c-0.85,0 -1.69,-0.38 -2.25,-1.1l0 0zm-14.62 -17.26c-2.65,-2.89 -5.26,-5.59 -7.83,-8.15l0 0c-1.12,-1.12 -1.13,-2.93 -0.02,-4.05l0 0c1.12,-1.12 2.93,-1.12 4.05,-0.01l0 0c2.63,2.62 5.3,5.39 8.01,8.33l0 0c1.07,1.16 0.99,2.97 -0.17,4.04l0 0c-0.55,0.51 -1.24,0.75 -1.93,0.75l0 0c-0.77,0 -1.54,-0.31 -2.11,-0.92l0 0zm-16.02 -15.93c-2.94,-2.67 -5.8,-5.11 -8.56,-7.37l0 0c-1.22,-1 -1.41,-2.8 -0.41,-4.02l0 0c1,-1.23 2.8,-1.41 4.02,-0.41l0 0c2.83,2.32 5.77,4.83 8.78,7.55l0 0c1.17,1.06 1.26,2.87 0.19,4.04l0 0c-0.56,0.63 -1.34,0.94 -2.12,0.94l0 0c-0.68,0 -1.37,-0.25 -1.91,-0.74l0 0zm-17.49 -14.26c-3.32,-2.41 -6.44,-4.52 -9.31,-6.33l0 0c-1.33,-0.85 -1.73,-2.61 -0.88,-3.94l0 0c0.84,-1.34 2.61,-1.74 3.94,-0.88l0 0c2.97,1.88 6.19,4.05 9.61,6.54l0 0c1.28,0.92 1.56,2.72 0.63,3.99l0 0c-0.56,0.77 -1.43,1.18 -2.32,1.18l0 0c-0.58,0 -1.17,-0.18 -1.68,-0.55l0 0zm-19 -11.99c-3.21,-1.71 -5.75,-2.87 -7.46,-3.61l0 0c-1.72,-0.73 -2.54,-1.01 -2.55,-1.01l0 0c-1.49,-0.51 -2.3,-2.13 -1.78,-3.64l0 0c0.51,-1.49 2.13,-2.29 3.63,-1.78l0 0c0.14,0.04 4.12,1.42 10.85,4.99l0 0c1.4,0.74 1.92,2.47 1.19,3.87l0 0c-0.52,0.96 -1.5,1.52 -2.53,1.52l0 0c-0.45,0 -0.92,-0.11 -1.34,-0.34l0 0z"
   id="path18" />
  <path
   class="fil1"
   d="M254.08 766.59c-1.58,-0.01 -2.86,-1.29 -2.85,-2.87l0 0c0.01,-2.28 0.04,-6.21 0.12,-11.53l0.01 0c0.02,-1.58 1.31,-2.84 2.89,-2.82l0 0c1.58,0.03 2.84,1.33 2.82,2.9l0 0c-0.08,5.31 -0.11,9.21 -0.12,11.48l0 0c-0.01,1.57 -1.28,2.84 -2.86,2.84l0 0c0,0 -0.01,0 -0.01,0l0 0zm0.28 -22.98c-1.58,-0.03 -2.83,-1.34 -2.79,-2.93l0 0c0.07,-3.51 0.16,-7.35 0.27,-11.48l0 0c0.04,-1.58 1.36,-2.83 2.94,-2.78l0 0c1.58,0.04 2.82,1.35 2.78,2.93l0 0c-0.11,4.12 -0.2,7.95 -0.28,11.45l0 0c-0.03,1.56 -1.31,2.8 -2.87,2.8l0 0c-0.02,0 -0.04,0 -0.05,0l0 0zm0.58 -22.94c-1.58,-0.05 -2.81,-1.37 -2.77,-2.95l0 0c0.12,-3.66 0.25,-7.49 0.4,-11.48l0 0c0.05,-1.57 1.38,-2.81 2.96,-2.75l0 0c1.58,0.06 2.81,1.39 2.75,2.97l0 0c-0.15,3.97 -0.28,7.79 -0.4,11.44l0 0c-0.05,1.54 -1.32,2.77 -2.85,2.77l0 0c-0.03,0 -0.06,-0.01 -0.1,-0.01l0 0zm0.82 -22.91c-1.58,-0.06 -2.81,-1.4 -2.74,-2.98l0 0c0.16,-3.72 0.32,-7.54 0.51,-11.46l0 0c0.08,-1.58 1.42,-2.8 2.99,-2.73l0 0c1.58,0.08 2.8,1.42 2.73,3l0 0c-0.19,3.91 -0.36,7.73 -0.51,11.43l0 0c-0.06,1.54 -1.33,2.75 -2.86,2.75l0 0c-0.04,0 -0.08,0 -0.11,-0.01l0 0zm1.05 -22.89c-1.58,-0.09 -2.79,-1.43 -2.7,-3.01l0 0c0.2,-3.75 0.41,-7.56 0.63,-11.45l0 0 0.01 0.01c0.09,-1.58 1.44,-2.79 3.02,-2.69l0 0c1.57,0.08 2.77,1.43 2.69,3.01l0 0c-0.23,3.88 -0.43,7.69 -0.63,11.43l0 0c-0.09,1.53 -1.35,2.7 -2.86,2.7l0 0c-0.05,0 -0.1,0 -0.15,0l0 0zm1.29 -22.88c-1.58,-0.1 -2.77,-1.45 -2.67,-3.03l0 0c0.24,-3.76 0.49,-7.58 0.75,-11.44l0 0c0.11,-1.57 1.47,-2.76 3.05,-2.66l0 0c1.57,0.11 2.76,1.47 2.66,3.04l0 0c-0.26,3.85 -0.52,7.67 -0.75,11.42l0 0c-0.09,1.52 -1.36,2.68 -2.85,2.68l0 0c-0.06,0 -0.12,0 -0.18,-0.01l0 0zm1.54 -22.86c-1.58,-0.12 -2.76,-1.49 -2.65,-3.06l0 0c0.29,-3.78 0.58,-7.59 0.88,-11.44l0 0c0.13,-1.57 1.51,-2.75 3.08,-2.62l0 0c1.58,0.12 2.75,1.5 2.62,3.08l0 0c-0.3,3.83 -0.59,7.63 -0.87,11.4l0 0c-0.11,1.5 -1.36,2.65 -2.85,2.65l0 0c-0.07,0 -0.15,-0.01 -0.21,-0.01l0 0zm1.79 -22.83c-1.57,-0.14 -2.74,-1.53 -2.61,-3.1l0 0c0.33,-3.78 0.67,-7.6 1.02,-11.42l0 0c0.14,-1.58 1.54,-2.73 3.1,-2.59l0 0c1.57,0.14 2.73,1.54 2.59,3.11l0 0c-0.36,3.82 -0.7,7.61 -1.02,11.4l0 0c-0.12,1.49 -1.38,2.61 -2.85,2.61l0 0c-0.08,0 -0.16,-0.01 -0.24,-0.01l0 0zm2.07 -22.82c-1.57,-0.15 -2.72,-1.56 -2.56,-3.13l0 0c0.38,-3.79 0.76,-7.6 1.17,-11.41l0 0c0.17,-1.57 1.57,-2.71 3.15,-2.54l0 0c1.57,0.17 2.71,1.58 2.54,3.15l0 0c-0.4,3.8 -0.8,7.6 -1.17,11.37l0 0c-0.15,1.48 -1.39,2.58 -2.85,2.58l0 0c-0.09,0 -0.19,-0.01 -0.29,-0.02l0 0zm2.38 -22.77c-1.57,-0.18 -2.7,-1.6 -2.51,-3.17l0 0c0.43,-3.79 0.88,-7.59 1.34,-11.4l0 0.01c0.19,-1.57 1.61,-2.69 3.18,-2.49l0 0c1.57,0.19 2.68,1.62 2.49,3.18l0 0c-0.46,3.79 -0.91,7.57 -1.34,11.35l0 0c-0.17,1.46 -1.41,2.54 -2.84,2.54l0 0c-0.11,0 -0.22,-0.01 -0.33,-0.02l0 0zm2.74 -22.77c-1.57,-0.2 -2.67,-1.64 -2.47,-3.21l0 0c0.49,-3.79 1.01,-7.59 1.54,-11.38l0 0c0.22,-1.57 1.66,-2.66 3.23,-2.44l0 0c1.56,0.22 2.66,1.66 2.44,3.22l0 0c-0.53,3.78 -1.04,7.55 -1.53,11.34l0 0c-0.19,1.43 -1.42,2.48 -2.83,2.48l0 0c-0.12,0 -0.25,-0.01 -0.38,-0.03l0 0zm3.11 -22.67c-1.56,-0.24 -2.64,-1.7 -2.4,-3.25l0 0c0.57,-3.79 1.15,-7.58 1.76,-11.35l0 0c0.25,-1.56 1.71,-2.62 3.28,-2.37l0 0c1.56,0.25 2.61,1.72 2.36,3.27l0 0c-0.6,3.75 -1.19,7.52 -1.75,11.29l0 0c-0.21,1.42 -1.43,2.44 -2.83,2.44l0 0c-0.14,0 -0.28,-0.01 -0.42,-0.03l0 0zm3.57 -22.63c-1.56,-0.27 -2.6,-1.75 -2.33,-3.3l0 0c0.65,-3.79 1.32,-7.56 2.01,-11.31l0 0c0.29,-1.55 1.77,-2.58 3.34,-2.29l0 0c1.55,0.29 2.57,1.78 2.28,3.34l0 0c-0.68,3.72 -1.35,7.47 -2,11.23l0 0c-0.24,1.39 -1.44,2.38 -2.81,2.38l0 0c-0.16,0 -0.33,-0.01 -0.49,-0.04l0 0zm4.09 -22.53c-1.56,-0.31 -2.56,-1.82 -2.25,-3.36l0 0c0.75,-3.79 1.53,-7.55 2.32,-11.26l0 0c0.33,-1.55 1.85,-2.53 3.39,-2.2l0 0c1.55,0.33 2.53,1.85 2.2,3.39l0 0c-0.79,3.69 -1.56,7.42 -2.31,11.17l0 0c-0.27,1.36 -1.47,2.3 -2.81,2.3l0 0c-0.19,0 -0.37,-0.02 -0.55,-0.05l0 0zm4.71 -22.42c-1.54,-0.35 -2.49,-1.89 -2.14,-3.43l0 0c0.88,-3.77 1.78,-7.5 2.7,-11.18l0 0c0.38,-1.54 1.93,-2.46 3.46,-2.08l0 0c1.54,0.39 2.46,1.95 2.08,3.48l0 0c-0.92,3.64 -1.81,7.33 -2.68,11.07l0 0c-0.3,1.33 -1.48,2.21 -2.78,2.21l0 0c-0.21,0 -0.43,-0.02 -0.65,-0.07l0 0zm5.49 -22.23c-1.53,-0.43 -2.42,-1.99 -2,-3.51l0 0c1.03,-3.76 2.1,-7.46 3.18,-11.08l0 0c0.45,-1.52 2.05,-2.37 3.56,-1.91l0 0c1.51,0.45 2.36,2.04 1.91,3.56l0 0c-1.07,3.58 -2.12,7.23 -3.14,10.94l0 0c-0.35,1.27 -1.5,2.11 -2.75,2.11l0 0c-0.25,0 -0.51,-0.03 -0.76,-0.1l0 0zm6.47 -21.97c-1.5,-0.5 -2.31,-2.12 -1.81,-3.61l0 0c1.23,-3.73 2.51,-7.37 3.82,-10.9l0 0c0.55,-1.48 2.2,-2.24 3.67,-1.69l0 0c1.48,0.55 2.24,2.19 1.69,3.67l0 0c-1.29,3.48 -2.53,7.05 -3.76,10.72l0 0c-0.39,1.19 -1.51,1.95 -2.71,1.95l0 0c-0.3,0 -0.6,-0.05 -0.9,-0.15l0 0zm7.76 -21.54c-1.45,-0.61 -2.14,-2.28 -1.53,-3.74l0 0c1.51,-3.66 3.08,-7.19 4.7,-10.6l0 0c0.68,-1.42 2.38,-2.03 3.82,-1.35l0 0c1.42,0.67 2.03,2.38 1.35,3.81l0 0c-1.57,3.31 -3.1,6.76 -4.59,10.33l0 0c-0.46,1.09 -1.52,1.76 -2.63,1.76l0 0c-0.37,0 -0.74,-0.07 -1.1,-0.22l0 0zm9.58 -20.79c-1.38,-0.76 -1.88,-2.51 -1.12,-3.89l0 0c0.1,-0.17 0.2,-0.35 0.3,-0.53l0 0c1.79,-3.21 3.61,-6.36 5.44,-9.45l0 0c0.81,-1.36 2.56,-1.81 3.92,-1l0 0c1.36,0.81 1.81,2.57 1,3.92l0 0c-1.8,3.04 -3.59,6.15 -5.37,9.33l0 0c-0.09,0.17 -0.19,0.34 -0.28,0.51l0 0c-0.53,0.94 -1.5,1.48 -2.51,1.48l0 0c-0.47,0 -0.94,-0.11 -1.38,-0.36l0 0zm11.52 -19.75c-1.34,-0.84 -1.73,-2.6 -0.89,-3.94l0 0c2.09,-3.3 4.18,-6.51 6.3,-9.64l0 0c0.88,-1.31 2.65,-1.65 3.96,-0.78l0 0c1.31,0.88 1.65,2.65 0.78,3.97l0 0c-2.08,3.09 -4.15,6.26 -6.2,9.51l0 0c-0.54,0.86 -1.47,1.33 -2.42,1.33l0 0c-0.52,0 -1.05,-0.14 -1.53,-0.45l0 0zm12.62 -19.06c-1.28,-0.92 -1.57,-2.7 -0.65,-3.99l0 0c2.27,-3.17 4.56,-6.25 6.86,-9.26l0 0c0.95,-1.26 2.75,-1.5 4.01,-0.53l0 0c1.26,0.96 1.49,2.75 0.53,4l0 0c-2.26,2.96 -4.51,6 -6.75,9.12l0 0c-0.56,0.78 -1.44,1.2 -2.33,1.2l0 0c-0.58,0 -1.16,-0.18 -1.67,-0.54l0 0zm13.76 -18.26c-1.22,-1 -1.4,-2.8 -0.41,-4.03l0 0c2.48,-3.03 4.96,-5.96 7.44,-8.8l0 0c1.03,-1.19 2.84,-1.31 4.03,-0.28l0 0c1.19,1.04 1.31,2.85 0.28,4.04l0 0c-2.45,2.8 -4.88,5.69 -7.32,8.66l0 0c-0.57,0.69 -1.39,1.05 -2.22,1.05l0 0c-0.64,0 -1.27,-0.21 -1.8,-0.64l0 0zm14.9 -17.34c-1.16,-1.08 -1.22,-2.89 -0.15,-4.05l0 0c2.67,-2.86 5.34,-5.62 8.01,-8.3l0 0c1.11,-1.11 2.93,-1.11 4.04,0l0 0c1.12,1.12 1.12,2.93 0,4.05l0 0c-2.62,2.63 -5.25,5.34 -7.87,8.15l0 0c-0.56,0.61 -1.33,0.92 -2.09,0.92l0 0c-0.7,0 -1.4,-0.25 -1.95,-0.76l0 0zm16.02 -16.32c-1.08,-1.15 -1.02,-2.96 0.13,-4.04l0 0c2.87,-2.67 5.72,-5.25 8.57,-7.72l0 0c1.19,-1.04 3,-0.92 4.03,0.28l0 0c1.04,1.19 0.91,2.99 -0.28,4.04l0 0c-2.79,2.42 -5.6,4.96 -8.42,7.58l0 0c-0.55,0.52 -1.25,0.78 -1.94,0.78l0 0c-0.77,0 -1.53,-0.31 -2.09,-0.91l0 0zm17.11 -15.16c-0.99,-1.22 -0.8,-3.03 0.43,-4.02l0 0c3.05,-2.47 6.09,-4.84 9.09,-7.1l0 -0.01c1.27,-0.95 3.06,-0.69 4.01,0.57l0 0c0.95,1.27 0.69,3.06 -0.57,4.01l0 0c-2.95,2.22 -5.93,4.54 -8.93,6.97l0 0c-0.53,0.43 -1.17,0.64 -1.8,0.64l0 0c-0.84,0 -1.66,-0.37 -2.23,-1.06l0 0zm18.15 -13.91c-0.9,-1.29 -0.59,-3.08 0.7,-3.98l0 0c3.25,-2.27 6.44,-4.41 9.58,-6.44l0 0c1.33,-0.86 3.09,-0.48 3.95,0.85l0 0c0.86,1.32 0.48,3.09 -0.85,3.95l0 0c-3.08,2 -6.22,4.1 -9.4,6.33l0 0c-0.5,0.35 -1.07,0.51 -1.63,0.51l0 0c-0.91,0 -1.79,-0.42 -2.35,-1.22l0 0zm19.09 -12.6c-0.81,-1.35 -0.37,-3.11 0.99,-3.92l0 0c3.41,-2.05 6.75,-3.97 9.98,-5.77l0 0c1.38,-0.76 3.12,-0.27 3.89,1.11l0 0c0.77,1.38 0.27,3.12 -1.11,3.9l0 0c-3.19,1.77 -6.47,3.66 -9.83,5.67l0 0c-0.46,0.28 -0.96,0.41 -1.47,0.41l0 0c-0.97,0 -1.92,-0.5 -2.45,-1.39l0 0zm19.9 -11.28c-0.73,-1.4 -0.18,-3.13 1.22,-3.86l0 0c3.6,-1.86 7.04,-3.58 10.29,-5.16l0 0c1.42,-0.69 3.13,-0.1 3.83,1.32l0 0c0.68,1.42 0.1,3.14 -1.33,3.83l0 0c-3.22,1.56 -6.61,3.25 -10.16,5.1l0 0c-0.42,0.22 -0.87,0.32 -1.31,0.32l0 0c-1.03,0 -2.03,-0.57 -2.54,-1.55l0 0zm20.5 -10.16c-0.67,-1.43 -0.06,-3.13 1.37,-3.8l0 0c3.29,-1.55 6.29,-2.96 8.94,-4.25l0 0c0.44,-0.21 0.89,-0.44 1.35,-0.65l0 -0.01c1.41,-0.7 3.13,-0.1 3.83,1.31l0 0c0.69,1.42 0.1,3.13 -1.31,3.82l0 0c-0.46,0.23 -0.92,0.45 -1.36,0.67l0 0c-2.7,1.31 -5.72,2.72 -9.01,4.27l0 0c-0.39,0.19 -0.8,0.27 -1.21,0.27l0 0c-1.07,0 -2.11,-0.61 -2.59,-1.64l0 0zm20.61 -9.96c-0.72,-1.41 -0.15,-3.13 1.26,-3.84l0 0c3.23,-1.64 6.64,-3.38 10.18,-5.21l0 0.01c1.41,-0.73 3.13,-0.18 3.86,1.22l0 0c0.72,1.41 0.17,3.13 -1.23,3.85l0 0c-3.55,1.83 -6.97,3.58 -10.22,5.22l0 0c-0.41,0.22 -0.86,0.31 -1.29,0.31l0 0c-1.04,0 -2.05,-0.57 -2.55,-1.57l0 0zm20.38 -10.45c-0.73,-1.41 -0.19,-3.13 1.21,-3.86l0 0c3.35,-1.75 6.73,-3.53 10.13,-5.31l0.01 0c1.4,-0.74 3.13,-0.2 3.86,1.2l0 0c0.74,1.4 0.2,3.12 -1.2,3.86l0 0c-3.4,1.79 -6.81,3.57 -10.15,5.32l0 0c-0.43,0.22 -0.88,0.32 -1.32,0.32l0 0c-1.03,0 -2.03,-0.55 -2.54,-1.53l0 0zm20.27 -10.66c-0.73,-1.39 -0.2,-3.13 1.2,-3.86l0 0c3.43,-1.82 6.81,-3.62 10.1,-5.38l0 0c1.39,-0.74 3.13,-0.21 3.87,1.18l0 0c0.74,1.39 0.22,3.13 -1.18,3.87l0 0c-3.3,1.76 -6.69,3.56 -10.12,5.38l0 0c-0.43,0.23 -0.88,0.33 -1.34,0.33l0 0c-1.02,0 -2.02,-0.55 -2.53,-1.52l0 0zm20.23 -10.77c-0.75,-1.4 -0.22,-3.13 1.17,-3.87l0 0c3.57,-1.91 6.97,-3.73 10.09,-5.42l0 0c1.4,-0.75 3.13,-0.23 3.87,1.16l0 0c0.75,1.39 0.23,3.12 -1.16,3.88l0 0c-3.13,1.68 -6.52,3.5 -10.1,5.42l0 0c-0.43,0.23 -0.89,0.34 -1.34,0.34l0 0c-1.02,0 -2.01,-0.55 -2.53,-1.51l0 0zm20.18 -10.85c-0.75,-1.4 -0.23,-3.13 1.16,-3.88l0 0c6.28,-3.39 10.09,-5.47 10.09,-5.47l0 0c1.39,-0.76 3.13,-0.24 3.89,1.15l0 0c0.75,1.38 0.24,3.11 -1.14,3.87l0 0c0,0.01 -3.83,2.09 -10.12,5.48l0 0c-0.43,0.23 -0.89,0.35 -1.35,0.35l0 0c-1.01,0 -2,-0.54 -2.52,-1.49l0 0z"
   id="path19" />
  <path
   class="fil0"
   d="M816.58 49.71c-39.86,-19.3 -63.77,-37.1 -125.79,-41.45 -1.81,-0.13 -3.23,-1.38 -4.8,-1.96 12.1,8.6 24.8,23.15 34.12,47.83 23.76,62.9 26.97,147.67 -49.07,232.92 46.55,-9.57 131.24,-24.33 131.24,-24.33 8.58,-5.72 44.32,-60.04 51.46,-107.21 7.15,-47.18 -6.88,-91.12 -37.17,-105.79z"
   id="path20" />
  <path
   class="fil4"
   d="M714.39 18.38c0,0 81.48,25.73 102.93,41.45 0,0 32.88,55.75 15.73,110.08 0,0 1.43,-47.17 -10.01,-65.75 0,0 8.58,51.46 -5.72,92.92 0,0 -2.86,-114.36 -35.74,-138.67l-67.19 -40.03z"
   id="path21" />
  <path
   class="fil2"
   d="M631.12 12.67l13.7 7.15c0,0 18.11,-15.73 42.41,5.72 40.18,35.45 37.17,105.79 25.73,168.69 -11.43,62.9 -72.21,94.22 -72.21,94.22 15.32,3.28 23.27,0.02 30.29,-1.4 76.05,-85.25 72.83,-170.02 49.07,-232.92 -9.38,-24.81 -22.15,-39.39 -34.31,-47.96 -0.47,-0.22 -0.98,-0.43 -1.43,-0.64 -34.31,-15.72 -53.25,7.15 -53.25,7.15z"
   id="path22" />
  <path
   class="fil1"
   d="M713.08 179.6c-0.01,0 -2.97,-1.53 -8.08,-4.22l0 -0.01c-1.4,-0.73 -1.93,-2.46 -1.2,-3.86l0 0c0.74,-1.39 2.46,-1.93 3.86,-1.19l0 0c5.1,2.68 8.03,4.2 8.04,4.2l0 0c1.4,0.73 1.95,2.45 1.22,3.86l0 0c-0.51,0.98 -1.51,1.54 -2.54,1.54l0 0c-0.44,0 -0.89,-0.1 -1.31,-0.32l0 0zm-18.23 -9.61c-3.08,-1.64 -6.47,-3.47 -10.11,-5.44l0 0c-1.4,-0.75 -1.91,-2.48 -1.16,-3.87l0 0c0.75,-1.39 2.49,-1.91 3.87,-1.16l0 0c3.63,1.96 7.02,3.78 10.09,5.42l0 0c1.38,0.74 1.92,2.47 1.17,3.87l0 0c-0.52,0.96 -1.51,1.51 -2.54,1.51l0 0c-0.45,0 -0.9,-0.11 -1.34,-0.33l0 0zm-20.2 -10.92c-3.24,-1.77 -6.59,-3.62 -10.05,-5.53l0 0c-1.38,-0.76 -1.89,-2.5 -1.12,-3.88l0 0c0.76,-1.38 2.5,-1.89 3.88,-1.12l0 0c3.45,1.91 6.81,3.75 10.03,5.52l0 0c1.38,0.76 1.89,2.49 1.14,3.88l0 0c-0.52,0.95 -1.5,1.49 -2.51,1.49l0 0c-0.46,0 -0.93,-0.11 -1.37,-0.35l0 0zm-20.08 -11.11c-3.29,-1.85 -6.63,-3.73 -10,-5.65l0.01 0c-1.37,-0.78 -1.85,-2.53 -1.07,-3.9l0 0c0.78,-1.37 2.53,-1.86 3.9,-1.08l0 0c3.36,1.91 6.68,3.79 9.97,5.63l0 0c1.37,0.78 1.86,2.52 1.09,3.9l0 0c-0.53,0.94 -1.5,1.46 -2.49,1.46l0 0c-0.48,0 -0.96,-0.11 -1.4,-0.36l0 0zm-19.95 -11.36c-3.31,-1.91 -6.63,-3.85 -9.92,-5.79l0 -0.01c-1.36,-0.8 -1.82,-2.55 -1.01,-3.91l0 0c0.8,-1.36 2.55,-1.81 3.91,-1.01l0 0c3.28,1.93 6.58,3.86 9.88,5.77l0 0c1.37,0.8 1.84,2.54 1.05,3.91l0 0c-0.53,0.92 -1.49,1.43 -2.48,1.43l0 0c-0.49,0 -0.98,-0.12 -1.43,-0.38l0 0zm-19.8 -11.67c-3.33,-2 -6.61,-4.01 -9.81,-5.99l0 0c-1.34,-0.83 -1.76,-2.6 -0.93,-3.94l0 0c0.84,-1.35 2.6,-1.76 3.93,-0.93l0 0c3.19,1.98 6.45,3.96 9.76,5.96l0 0c1.35,0.81 1.79,2.57 0.97,3.92l0 0c-0.53,0.89 -1.48,1.38 -2.45,1.38l0 0c-0.5,0 -1.01,-0.13 -1.47,-0.41l0 0zm-19.55 -12.12c-3.34,-2.14 -6.57,-4.26 -9.64,-6.32l0 0c-1.31,-0.88 -1.66,-2.66 -0.78,-3.97l0 0c0.88,-1.3 2.66,-1.66 3.97,-0.78l0 0c3.03,2.04 6.22,4.13 9.54,6.25l0 0c1.33,0.86 1.71,2.62 0.86,3.95l0 0c-0.54,0.85 -1.47,1.31 -2.41,1.31l0 0c-0.53,0 -1.06,-0.15 -1.54,-0.45l0 0zm-19.13 -12.91c-3.4,-2.45 -6.51,-4.8 -9.26,-7.04l0 0c-1.23,-0.99 -1.42,-2.79 -0.42,-4.02l0 0c0.99,-1.23 2.8,-1.41 4.02,-0.41l0 0c2.65,2.14 5.66,4.43 9,6.83l0 0c1.28,0.92 1.57,2.7 0.65,3.99l0 0c-0.56,0.78 -1.43,1.19 -2.32,1.19l0 0c-0.58,0 -1.16,-0.18 -1.66,-0.54l0 0zm-17.91 -14.66c-2.7,-2.33 -5.68,-4.56 -8.85,-6.68l0 0c-1.31,-0.88 -1.66,-2.66 -0.79,-3.97l0 0c0.88,-1.31 2.66,-1.66 3.97,-0.78l0 0c3.34,2.23 6.49,4.6 9.4,7.1l0 0c1.19,1.02 1.33,2.83 0.3,4.02l0 0c-0.57,0.66 -1.36,0.99 -2.17,0.99l0 0c-0.66,0 -1.32,-0.22 -1.86,-0.68l0 0zm-18.43 -12.48c-3.25,-1.79 -6.62,-3.49 -10.04,-5.09l0 0c-1.43,-0.67 -2.04,-2.38 -1.37,-3.8l0 0c0.67,-1.43 2.37,-2.05 3.8,-1.38l0 0c3.53,1.65 7,3.4 10.38,5.26l0 0c1.38,0.76 1.89,2.5 1.13,3.88l0 0c-0.52,0.95 -1.49,1.48 -2.5,1.48l0 0c-0.47,0 -0.94,-0.11 -1.38,-0.35l0 0zm-20.4 -9.6c-3.55,-1.44 -7.1,-2.78 -10.59,-4.03l0 0c-1.49,-0.53 -2.26,-2.17 -1.74,-3.65l0 0c0.53,-1.49 2.17,-2.27 3.65,-1.73l0 0c3.56,1.27 7.18,2.63 10.82,4.12l0 0c1.46,0.59 2.16,2.26 1.57,3.72l0 0c-0.45,1.11 -1.51,1.78 -2.65,1.78l0 0c-0.36,0 -0.72,-0.06 -1.07,-0.21l0 0zm-21.34 -7.63c-3.84,-1.21 -7.49,-2.3 -10.89,-3.24l0 0c-1.52,-0.43 -2.41,-2 -1.99,-3.52l0 0c0.43,-1.53 2,-2.41 3.52,-1.99l0 0c3.45,0.97 7.18,2.06 11.07,3.3l0 0c1.5,0.47 2.34,2.08 1.86,3.58l0 0c-0.38,1.22 -1.51,2 -2.73,2l0 0c-0.29,0 -0.57,-0.04 -0.86,-0.13l0 0zm-21.89 -6.13c-6.85,-1.68 -11.06,-2.48 -11.07,-2.48l0.01 0c-1.55,-0.3 -2.57,-1.79 -2.27,-3.34l0 0c0.3,-1.56 1.8,-2.58 3.35,-2.27l0 0c0.04,0.01 4.39,0.84 11.35,2.55l0 0c1.54,0.37 2.47,1.92 2.1,3.45l0 0c-0.32,1.31 -1.49,2.18 -2.78,2.18l0 0c-0.23,0 -0.45,-0.03 -0.68,-0.08l0 0z"
   id="path23" />
  <path
   class="fil1"
   d="M508.6 249.13c-0.33,-1.55 0.66,-3.07 2.2,-3.39l0 0c0.53,-0.12 1.07,-0.23 1.59,-0.35l0 -0.01c1.54,-0.35 3.08,0.62 3.43,2.16l0 0c0.35,1.54 -0.61,3.07 -2.16,3.42l0 0c-0.55,0.13 -1.11,0.25 -1.67,0.37l0 0c-0.2,0.05 -0.4,0.07 -0.6,0.07l0 0c-1.32,0 -2.5,-0.92 -2.79,-2.27l0 0zm12.73 -3.11c-0.5,-1.5 0.32,-3.11 1.83,-3.6l0 0c3.57,-1.18 7.06,-2.49 10.46,-3.93l0 0c1.45,-0.62 3.13,0.05 3.75,1.51l0 0c0.63,1.45 -0.05,3.13 -1.51,3.75l0 0c-3.54,1.51 -7.19,2.89 -10.93,4.11l0 0c-0.29,0.1 -0.59,0.14 -0.88,0.14l0 0c-1.21,0 -2.32,-0.77 -2.71,-1.97l0 0zm21.21 -8.49c-0.74,-1.4 -0.19,-3.12 1.2,-3.86l0 0c3.35,-1.75 6.58,-3.63 9.74,-5.59l-0.01 0c1.34,-0.84 3.1,-0.43 3.94,0.91l0 0c0.84,1.34 0.43,3.1 -0.91,3.94l0 0c-3.25,2.03 -6.62,3.98 -10.1,5.8l0 0c-0.43,0.22 -0.88,0.33 -1.33,0.33l0 0c-1.03,0 -2.03,-0.55 -2.53,-1.54l0 0zm19.62 -11.73c-0.92,-1.29 -0.64,-3.07 0.64,-4l0 0c3.09,-2.24 6.06,-4.54 8.91,-6.89l0 0c1.22,-1 3.02,-0.83 4.02,0.39l0 0c1.01,1.22 0.84,3.02 -0.39,4.02l0 0c-2.93,2.42 -6,4.8 -9.19,7.11l0 0c-0.51,0.37 -1.09,0.54 -1.68,0.54l0 0c-0.89,0 -1.77,-0.41 -2.32,-1.18l0 0zm17.89 -14.27c-1.07,-1.16 -1,-2.97 0.16,-4.04l0 0c2.86,-2.64 5.54,-5.29 8.08,-7.89l0 0c1.1,-1.14 2.91,-1.16 4.05,-0.06l0 0c1.13,1.1 1.15,2.9 0.06,4.04l0 0c-2.6,2.68 -5.37,5.39 -8.3,8.1l0 0c-0.55,0.51 -1.24,0.76 -1.95,0.76l0 0c-0.76,0 -1.53,-0.31 -2.1,-0.92l0 0zm16.16 -16.21c-1.19,-1.04 -1.31,-2.84 -0.27,-4.04l0 0c2.67,-3.04 5.08,-5.96 7.24,-8.68l0 0c0.98,-1.24 2.77,-1.45 4.01,-0.47l0 0c1.24,0.98 1.45,2.77 0.47,4.01l0 0c-2.21,2.8 -4.69,5.79 -7.42,8.91l0 0c-0.56,0.64 -1.36,0.98 -2.15,0.98l0 0c-0.67,0 -1.35,-0.24 -1.89,-0.71l0 0zm14.43 -17.79c-1.29,-0.92 -1.6,-2.69 -0.68,-3.98l0 0c4.11,-5.79 6.19,-9.36 6.2,-9.38l0 0c0.79,-1.36 2.54,-1.82 3.91,-1.02l0 0c1.36,0.79 1.83,2.54 1.03,3.91l0 0c-0.04,0.06 -2.24,3.84 -6.47,9.8l0 0c-0.56,0.79 -1.44,1.2 -2.33,1.2l0 0c-0.58,0 -1.15,-0.17 -1.65,-0.53l0 0z"
   id="path24" />
  <path
   class="fil1"
   d="M697.29 268.14c-1.2,-1.03 -1.34,-2.83 -0.31,-4.03l0 0c2.5,-2.92 4.89,-5.84 7.18,-8.74l0.01 0c0.97,-1.24 2.76,-1.46 4,-0.47l0 0c1.24,0.97 1.45,2.77 0.49,4l0 0c-2.33,2.97 -4.78,5.95 -7.33,8.93l0 0c-0.56,0.66 -1.37,1 -2.17,1l0 0c-0.66,0 -1.32,-0.23 -1.86,-0.68l0 0zm14.32 -17.82c-1.28,-0.92 -1.58,-2.71 -0.65,-3.99l0 0c2.24,-3.13 4.36,-6.24 6.36,-9.34l0 0c0.86,-1.33 2.63,-1.71 3.95,-0.85l0 0c1.33,0.86 1.71,2.63 0.85,3.95l0 0c-2.06,3.18 -4.23,6.36 -6.52,9.56l0 0c-0.57,0.78 -1.44,1.19 -2.33,1.19l0 0c-0.58,0 -1.15,-0.17 -1.66,-0.53l0 0zm12.66 -19.05c-1.37,-0.79 -1.84,-2.53 -1.05,-3.9l0 0c1.92,-3.33 3.72,-6.63 5.39,-9.91l0 0c0.71,-1.41 2.44,-1.97 3.84,-1.26l0 0c1.41,0.72 1.97,2.44 1.25,3.85l0 0c-1.71,3.38 -3.56,6.77 -5.53,10.18l0 0c-0.53,0.92 -1.49,1.43 -2.48,1.43l0 0c-0.49,0 -0.98,-0.12 -1.42,-0.39l0 0zm10.64 -20.23c-1.45,-0.63 -2.11,-2.32 -1.47,-3.77l0 0c1.54,-3.5 2.95,-6.98 4.23,-10.44l0 0c0.54,-1.48 2.19,-2.23 3.67,-1.68l0 0c1.48,0.54 2.24,2.19 1.69,3.67l0 0c-1.33,3.56 -2.77,7.15 -4.36,10.75l0 0c-0.47,1.07 -1.52,1.71 -2.62,1.71l0 0c-0.38,0 -0.76,-0.08 -1.14,-0.24l0 0zm8.27 -21.31c-1.51,-0.46 -2.37,-2.05 -1.91,-3.57l0 0c1.11,-3.66 2.07,-7.27 2.92,-10.86l0 -0.01c0.36,-1.54 1.9,-2.49 3.43,-2.13l0 0c1.54,0.36 2.49,1.9 2.14,3.44l0 0c-0.87,3.7 -1.88,7.45 -3.02,11.22l0 0c-0.37,1.23 -1.5,2.02 -2.73,2.02l0 0c-0.28,0 -0.56,-0.04 -0.83,-0.12l0 0zm5.57 -22.17c-1.56,-0.25 -2.6,-1.74 -2.34,-3.29l0 0c0.63,-3.76 1.11,-7.47 1.48,-11.14l0 0c0.16,-1.57 1.56,-2.72 3.14,-2.56l0 0c1.57,0.16 2.71,1.56 2.55,3.13l0 0c-0.38,3.79 -0.88,7.62 -1.54,11.52l0 0c-0.23,1.4 -1.44,2.39 -2.82,2.39l0 0c-0.16,0 -0.31,-0.02 -0.47,-0.04l0 0zm2.66 -22.7c-1.58,-0.05 -2.82,-1.38 -2.76,-2.96l0 0c0.06,-1.96 0.1,-3.91 0.1,-5.84l0 0c0,-1.82 -0.03,-3.61 -0.09,-5.4l0 0c-0.05,-1.58 1.19,-2.9 2.77,-2.94l0 0c1.57,-0.05 2.89,1.18 2.94,2.76l0 0c0.06,1.84 0.09,3.71 0.09,5.58l0 0c0,2 -0.04,4.01 -0.11,6.03l0 0c-0.05,1.55 -1.33,2.76 -2.86,2.76l0 0c-0.03,0 -0.06,0 -0.09,0l0 0zm-3.47 -25.43c-0.36,-3.8 -0.85,-7.53 -1.42,-11.16l0 0c-0.25,-1.55 0.81,-3.02 2.37,-3.27l0 0c1.56,-0.25 3.03,0.81 3.27,2.37l0 0c0.6,3.75 1.1,7.59 1.48,11.52l0 0c0.15,1.57 -1,2.96 -2.58,3.11l0 0c-0.09,0.01 -0.18,0.02 -0.27,0.02l0 0c-1.45,0 -2.7,-1.11 -2.85,-2.59l0 0zm-3.54 -22.23c-0.84,-3.75 -1.78,-7.39 -2.79,-10.91l0 0c-0.43,-1.52 0.45,-3.1 1.96,-3.53l0 0c1.52,-0.44 3.1,0.44 3.54,1.96l0 0c1.04,3.62 2,7.38 2.87,11.25l0 0c0.34,1.54 -0.63,3.07 -2.17,3.41l0 0c-0.21,0.04 -0.43,0.07 -0.63,0.07l0 0c-1.31,0 -2.49,-0.9 -2.79,-2.24l0 0zm-6.21 -21.65c-1.29,-3.69 -2.65,-7.2 -4.03,-10.53l0 0.01c-0.61,-1.46 0.07,-3.14 1.54,-3.74l0 0c1.46,-0.6 3.13,0.09 3.74,1.54l0 0c1.42,3.43 2.82,7.04 4.15,10.83l0 0c0.53,1.49 -0.25,3.13 -1.75,3.65l0 0c-0.31,0.11 -0.63,0.16 -0.94,0.16l0 0c-1.19,0 -2.29,-0.74 -2.7,-1.91l0 0zm-8.66 -20.82c-1.77,-3.65 -3.52,-7 -5.19,-10.01l0 0c-0.76,-1.39 -0.27,-3.13 1.11,-3.89l0 0c1.38,-0.77 3.13,-0.28 3.88,1.11l0 0c1.73,3.1 3.53,6.55 5.35,10.3l0 0c0.68,1.42 0.09,3.13 -1.33,3.82l0 0c-0.4,0.19 -0.82,0.29 -1.24,0.29l0 0c-1.07,0 -2.08,-0.59 -2.58,-1.62l0 0zm-10.97 -19.69c-3.83,-5.99 -6.37,-9.14 -6.38,-9.15l0 0.01c-0.99,-1.23 -0.8,-3.03 0.43,-4.02l0 0c1.23,-0.99 3.03,-0.8 4.02,0.43l0 0c0.06,0.07 2.79,3.45 6.75,9.66l0 0c0.85,1.33 0.45,3.09 -0.87,3.95l0 0c-0.48,0.3 -1.01,0.45 -1.54,0.45l0 0c-0.94,0 -1.86,-0.46 -2.41,-1.31l0 0z"
   id="path25" />
 <path
   style="fill:#d85b05;fill-opacity:1;stroke-width:0.743047"
   d="m 116.69847,215.4446 c -0.0221,-0.83881 1.118,-6.24158 2.53346,-12.00616 7.24158,-29.492 19.58303,-57.28833 36.99139,-83.31477 2.82547,-4.22422 5.02676,-7.78231 4.89178,-7.90687 -0.39201,-0.36172 -12.06012,12.88439 -19.26306,21.86821 -7.15439,8.92327 -13.54927,17.79127 -17.94855,24.88986 -6.73504,10.86755 0.2267,-4.48921 8.77496,-19.35649 8.3105,-14.45378 18.95993,-28.97557 29.28795,-39.937693 12.11922,-12.86329 30.74823,-24.905456 66.39096,-42.916426 l 20.67574,-10.447858 8.67462,5.195187 c 4.77103,2.857353 13.35581,8.452532 19.07727,12.43373 5.72146,3.981199 11.0523,7.298294 11.84631,7.371323 0.79401,0.07303 1.54355,0.440845 1.66564,0.817369 0.24879,0.767299 -5.09616,4.0283 -6.6026,4.0283 -0.53335,0 -2.61578,1.170299 -4.62762,2.600664 -2.01184,1.430365 -4.03249,2.600664 -4.49034,2.600664 -0.45784,0 -2.65599,1.161741 -4.88477,2.581646 -2.22878,1.419904 -4.45868,2.590203 -4.95533,2.600664 -0.49665,0.01046 -2.47053,1.013112 -4.38638,2.228114 -1.91587,1.215002 -4.68604,2.589381 -6.15595,3.054176 -1.46991,0.464795 -3.00693,1.258359 -3.41561,1.763476 -1.19401,1.475787 -5.34076,3.37591 -7.36743,3.37591 -1.04833,0 -2.18697,0.59532 -2.59428,1.356382 -0.86406,1.614524 -6.55654,4.027132 -7.1679,3.037932 -0.5731,-0.9273 -3.30418,0.58932 -3.30418,1.83488 0,1.17922 -5.50151,3.79183 -6.58047,3.125 -0.42084,-0.2601 -1.92167,0.68358 -3.33516,2.09707 -1.41349,1.41349 -3.90392,2.92918 -5.53428,3.36819 -1.67522,0.45109 -3.46746,1.56612 -4.12133,2.56405 -0.63636,0.97122 -2.59545,2.47842 -4.3535,3.34933 -1.75806,0.87091 -4.36505,2.76235 -5.7933,4.20319 -1.42826,1.44085 -3.29963,2.79612 -4.1586,3.0117 -0.85898,0.21559 -2.81788,1.89468 -4.35311,3.7313 -1.53522,1.83663 -3.60128,3.64727 -4.59123,4.02365 -0.98996,0.37638 -2.00836,1.27449 -2.26312,1.99581 -0.6871,1.9454 -3.35699,4.72459 -5.23634,5.45071 -0.90797,0.3508 -2.11877,1.73641 -2.69066,3.07911 -0.99309,2.3316 -4.94656,6.68905 -4.94656,5.452 0,-0.32562 -0.50156,-0.17577 -1.11457,0.33298 -0.61301,0.50876 -1.11457,1.57512 -1.11457,2.36971 0,1.55551 -3.67019,6.83958 -4.30777,6.202 -0.70247,-0.70247 -2.37965,1.24492 -2.37965,2.76303 0,2.00741 -2.84069,6.49839 -4.11044,6.49839 -0.55938,0 -1.38914,0.58515 -1.84392,1.30033 -0.67706,1.06474 -0.74482,0.89646 -0.37401,-0.92881 0.87122,-4.28849 10.58907,-23.1085 16.26117,-31.49207 3.14721,-4.65168 5.59123,-8.58857 5.43116,-8.74865 -0.63908,-0.63908 -10.15625,7.05987 -16.15016,13.06474 -16.66277,16.69322 -32.21545,41.65765 -42.62216,68.41509 -1.82788,4.69977 -3.34145,7.85874 -3.3635,7.01993 z"
   id="path26"
   transform="matrix(2.0441753,0,0,2.0441753,0,-0.00117705)" /><path
   style="fill:#d85b05;fill-opacity:1;stroke-width:0.743047"
   d="m 315.0519,125.60101 c 0,-0.2362 0.85466,-1.72094 1.89924,-3.29941 1.82123,-2.75205 5.72774,-12.75335 5.19109,-13.29001 -0.14234,-0.14233 -2.88259,1.26177 -6.08946,3.12022 -7.82545,4.53502 -13.5245,6.4228 -20.89849,6.9225 l -6.15126,0.41684 2.52148,-3.74691 c 2.72065,-4.04287 7.42386,-14.68244 7.02255,-15.886369 -0.13515,-0.405438 -1.74319,0.397569 -3.57342,1.784459 -7.48519,5.67203 -27.51522,15.61986 -28.81773,14.31221 -0.81176,-0.81497 2.67358,-3.26431 5.86962,-4.12492 1.59602,-0.42976 2.90185,-1.20717 2.90185,-1.72758 0,-0.86984 3.66097,-4.06688 5.6579,-4.9409 2.00494,-0.87752 15.43044,-16.317874 19.22103,-22.105644 2.25179,-3.438212 3.29722,-3.918025 3.85868,-1.770998 0.54268,2.075231 14.61616,9.454375 36.23564,18.999432 l 4.41492,1.9492 -4.78644,4.89942 c -6.09712,6.24103 -24.4772,20.12412 -24.4772,18.48846 z"
   id="path27"
   transform="matrix(2.0441753,0,0,2.0441753,0,-0.00117705)" /><path
   style="fill:#d85b05;fill-opacity:1;stroke-width:0.743047"
   d="m 344.77378,64.172088 c -3.47374,-2.493368 -9.15805,-6.88731 -12.6318,-9.764315 -6.98316,-5.783556 -33.05318,-31.633401 -32.48045,-32.206134 0.19884,-0.198841 3.32505,1.613671 6.94714,4.027803 7.92489,5.281961 21.50345,13.459668 35.37869,21.306864 l 10.21689,5.778206 v 7.708665 c 0,4.239766 -0.25078,7.702735 -0.55728,7.695487 -0.30651,-0.0072 -3.39944,-2.053208 -6.87319,-4.546576 z"
   id="path28"
   transform="matrix(2.0441753,0,0,2.0441753,0,-0.00117705)" /><path
   style="fill:#d85b05;fill-opacity:1;stroke-width:0.743047"
   d="m 322.11085,22.178252 c -2.87578,-2.284346 -13.44044,-6.857895 -19.31922,-8.363488 -12.81811,-3.282799 -28.96926,-3.428037 -44.91142,-0.403862 -3.38104,0.641374 -6.27964,1.033851 -6.44132,0.872171 -0.16168,-0.161681 3.56476,-1.380905 8.28099,-2.709389 31.51392,-8.8769613 44.96731,-7.2521345 60.59258,7.318044 2.62382,2.446646 4.43621,4.452619 4.02753,4.457717 -0.40867,0.0051 -1.41179,-0.521938 -2.22914,-1.171193 z"
   id="path29"
   transform="matrix(2.0441753,0,0,2.0441753,0,-0.00117705)" /><path
   style="fill:#d85b05;fill-opacity:1;stroke-width:0.743047"
   d="m 344.77378,42.227831 c -6.74085,-7.121615 -13.8687,-15.877872 -12.86686,-15.806375 0.33362,0.02381 4.45186,2.28878 9.15163,5.033268 l 8.54504,4.989979 0.92058,4.44058 c 1.80121,8.688472 1.31109,8.802902 -5.75039,1.342548 z"
   id="path30"
   transform="matrix(2.0441753,0,0,2.0441753,0,-0.00117705)" /><path
   style="fill:#d85b05;fill-opacity:1;stroke-width:0.743047"
   d="m 337.34331,76.462064 c -13.28764,-7.670522 -15.07014,-8.941509 -11.51723,-8.212221 1.22603,0.251661 6.2416,1.295478 11.14571,2.319594 4.90411,1.024116 9.75249,1.870662 10.77418,1.881213 3.34067,0.0345 3.72577,0.77089 3.22236,6.161824 -0.25579,2.739169 -0.6675,4.968323 -0.91491,4.953676 -0.24741,-0.01465 -5.96696,-3.211486 -12.71011,-7.104086 z"
   id="path31"
   transform="matrix(2.0441753,0,0,2.0441753,0,-0.00117705)" /><path
   style="fill:#d85b05;fill-opacity:1;stroke-width:0.743047"
   d="m 499.00262,207.08599 c -12.68038,-32.61317 -34.21578,-63.40197 -54.59344,-78.05134 -1.80213,-1.29554 -3.40187,-2.23026 -3.55498,-2.07715 -0.15311,0.15311 2.24147,4.00704 5.32129,8.56428 6.12128,9.0577 13.21442,22.63303 16.27638,31.15078 2.09449,5.82643 2.37677,7.57195 1.22452,7.57195 -1.1039,0 -4.07157,-6.20216 -3.11951,-6.51951 0.569,-0.18966 0.56941,-0.76928 0.001,-2.01587 -0.4423,-0.97073 -1.23091,-1.58323 -1.7714,-1.37584 -1.20353,0.46185 -4.9235,-5.21089 -4.36741,-6.66005 0.23168,-0.60374 -0.65405,-1.83241 -2.13555,-2.9624 -1.39228,-1.06194 -3.08898,-3.10579 -3.77045,-4.54188 -1.75521,-3.69884 -19.56992,-21.50225 -27.86746,-27.84978 -3.83761,-2.93574 -8.52685,-6.00423 -10.42052,-6.81886 -5.32365,-2.29018 -5.52351,-3.60607 -1.7224,-11.34015 4.01763,-8.174634 8.0123,-19.997944 9.26766,-27.430169 l 0.95714,-5.666706 10.33538,6.278357 c 19.89229,12.083819 32.97676,24.681738 47.39503,45.632618 6.72509,9.77209 10.16001,15.53076 16.58613,27.8068 5.89894,11.26895 7.36737,15.63916 2.7532,8.1938 -4.39928,-7.09859 -10.79416,-15.96659 -17.94855,-24.88987 -7.20294,-8.98381 -18.87105,-22.22992 -19.26306,-21.8682 -0.13498,0.12456 2.06744,3.68265 4.89427,7.90687 17.61766,26.32657 29.93296,54.29509 37.3689,84.86622 1.26125,5.18528 2.18716,9.90114 2.0576,10.47969 -0.12956,0.57856 -1.88645,-3.19406 -3.9042,-8.38359 z"
   id="path32"
   transform="matrix(2.0441753,0,0,2.0441753,0,-0.00117705)" /><path
   style="fill:#d85b05;fill-opacity:1;stroke-width:0.743047"
   d="m 96.596103,373.70933 c -3.882421,-0.52585 -12.541597,-1.20364 -19.242614,-1.50621 l -12.183668,-0.55011 0.449675,-17.8979 c 0.643172,-25.59945 2.962384,-45.24914 8.73382,-73.99794 4.070433,-20.27571 12.514292,-53.3345 13.141822,-51.45192 0.159009,0.47703 -0.7178,5.31066 -1.948467,10.7414 -8.025283,35.41434 -14.214164,86.16718 -14.214164,116.56536 v 8.63445 l 5.673257,0.47957 c 5.786119,0.48911 19.037787,4.48362 27.020806,8.14501 3.58734,1.64533 3.81435,1.8695 1.85762,1.83438 -1.22603,-0.022 -5.40567,-0.47024 -9.288087,-0.99609 z"
   id="path33"
   transform="matrix(2.0441753,0,0,2.0441753,0,-0.00117705)" /><path
   style="fill:#d85b05;fill-opacity:1;stroke-width:0.0928809"
   d="m 503.51223,376.36912 c 0.0668,-0.0738 3.28386,-1.54087 5.44075,-2.48111 16.62577,-7.24762 29.25679,-10.63508 35.32072,-9.47252 0.27646,0.053 0.51117,0.0857 0.52158,0.0727 0.16559,-0.20713 0.0807,-10.02788 -0.14117,-16.32426 -0.8574,-24.33575 -3.39447,-49.62311 -7.56639,-75.41533 -0.33431,-2.06676 -0.60783,-3.81176 -0.60783,-3.87778 0,-0.0941 0.40101,-0.12003 1.85762,-0.12003 1.02169,0 1.85762,0.0148 1.85762,0.0329 0,0.0181 0.28962,1.36603 0.6436,2.99541 5.693,26.20522 9.20233,51.85338 10.26715,75.03807 0.31483,6.85501 0.42762,16.4792 0.2665,22.74075 l -0.0613,2.38353 -1.95883,4.3e-4 c -2.15869,4.9e-4 -5.5418,0.11509 -9.66794,0.32751 -12.4326,0.64006 -24.46784,1.97763 -34.27304,3.80903 -1.72228,0.32168 -1.95996,0.35806 -1.89901,0.29071 z"
   id="path35"
   transform="matrix(2.0441753,0,0,2.0441753,0,-0.00117705)" /><path
   style="fill:#d85b05;fill-opacity:1;stroke-width:0.525414"
   d="m 399.66148,88.630343 c -0.8171,-13.89248 -3.42911,-30.552244 -6.39962,-40.817712 -1.88475,-6.513292 -5.46219,-13.854088 -8.19807,-16.822168 -1.6674,-1.808917 -6.09546,-4.736174 -16.47629,-10.891984 -14.57872,-8.645148 -16.24811,-9.731855 -13.93337,-9.070069 12.49483,3.572281 38.86688,14.262599 43.8159,17.761451 2.75535,1.947971 7.63987,14.235345 9.85952,24.802319 1.37679,6.554451 1.58063,17.570512 0.43263,23.380903 l -0.77857,3.940601 -0.12042,-2.889774 c -0.49977,-11.99403 -2.11502,-21.531122 -4.33221,-25.579148 l -1.09822,-2.005063 0.26383,2.101654 c 0.1451,1.15591 0.42288,6.366014 0.61727,11.578008 0.40012,10.727515 -0.19939,18.272332 -2.06508,25.98906 l -1.20678,4.991428 z"
   id="path36"
   transform="matrix(2.0441753,0,0,2.0441753,0,-0.00117705)" /></g>
</svg>
