<?xml version="1.0" encoding="UTF-8" standalone="no"?>
<!-- Creator: CorelDRAW 2021 (64-Bit) -->

<svg
   xml:space="preserve"
   width="6.43977in"
   height="4.12206in"
   version="1.1"
   style="shape-rendering:geometricPrecision; text-rendering:geometricPrecision; image-rendering:optimizeQuality; fill-rule:evenodd; clip-rule:evenodd"
   viewBox="0 0 1444.85 924.84"
   id="svg25"
   sodipodi:docname="Karate_blue_brown_belt.svg"
   inkscape:version="1.3.2 (091e20e, 2023-11-25)"
   xmlns:inkscape="http://www.inkscape.org/namespaces/inkscape"
   xmlns:sodipodi="http://sodipodi.sourceforge.net/DTD/sodipodi-0.dtd"
   xmlns="http://www.w3.org/2000/svg"
   xmlns:svg="http://www.w3.org/2000/svg"><sodipodi:namedview
   id="namedview25"
   pagecolor="#ffffff"
   bordercolor="#000000"
   borderopacity="0.25"
   inkscape:showpageshadow="2"
   inkscape:pageopacity="0.0"
   inkscape:pagecheckerboard="0"
   inkscape:deskcolor="#d1d1d1"
   inkscape:document-units="in"
   inkscape:zoom="0.95162693"
   inkscape:cx="361.4862"
   inkscape:cy="295.8092"
   inkscape:window-width="1392"
   inkscape:window-height="1212"
   inkscape:window-x="1402"
   inkscape:window-y="86"
   inkscape:window-maximized="0"
   inkscape:current-layer="Layer_x0020_1" />
 <defs
   id="defs1">
  <style
   type="text/css"
   id="style1">
   <![CDATA[
    .fil3 {fill:#002742;fill-rule:nonzero}
    .fil0 {fill:#0068FF;fill-rule:nonzero}
    .fil2 {fill:#014277;fill-rule:nonzero}
    .fil1 {fill:#055FCC;fill-rule:nonzero}
    .fil4 {fill:#3891FC;fill-rule:nonzero}
   ]]>
  </style>
 </defs>
 <g
   id="Layer_x0020_1"
   inkscape:label="Layer 1">
  <metadata
   id="CorelCorpID_0Corel-Layer" />
  <polygon
   class="fil0"
   points="1388.67,45.6 56.18,45.6 -0,85.36 -0,265.18 56.18,304.95 1388.67,304.95 1444.85,265.18 1444.85,85.36 "
   id="polygon1" />
  <polygon
   class="fil1"
   points="261.07,74.11 1205.23,74.11 929.44,106.84 1322.08,144.22 948.16,181.61 1121.08,223.69 985.56,247.05 1284.69,289.11 176.92,289.11 476.05,237.7 326.49,209.66 480.74,186.29 303.14,153.57 420,130.2 172.24,83.46 "
   id="polygon2"
   style="fill:#603813;fill-opacity:1" />
  <path
   class="fil2"
   d="M1318.51 82.99l0 -12.46 37.39 0 0 12.46 -37.39 0 0 0zm-74.78 0l0 -12.46 37.39 0 0 12.46 -37.39 0 0 0zm-74.78 0l0 -12.46 37.39 0 0 12.46 -37.39 0 0 0zm-74.78 0l0 -12.46 37.39 0 0 12.46 -37.39 0 0 0zm-74.78 0l0 -12.46 37.39 0 0 12.46 -37.39 0 0 0zm-74.78 0l0 -12.46 37.39 0 0 12.46 -37.39 0 0 0zm-74.78 0l0 -12.46 37.39 0 0 12.46 -37.39 0 0 0zm-74.78 0l0 -12.46 37.39 0 0 12.46 -37.39 0 0 0zm-74.78 0l0 -12.46 37.39 0 0 12.46 -37.39 0 0 0zm-74.78 0l0 -12.46 37.39 0 0 12.46 -37.39 0 0 0zm-74.78 0l0 -12.46 37.39 0 0 12.46 -37.39 0 0 0zm-74.85 0l0 -12.46 37.45 0 0 12.46 -37.45 0 0 0zm-74.78 0l0 -12.46 37.39 0 0 12.46 -37.39 0 0 0zm-74.78 0l0 -12.46 37.39 0 0 12.46 -37.39 0 0 0zm-74.78 0l0 -12.46 37.39 0 0 12.46 -37.39 0 0 0zm-74.78 0l0 -12.46 37.39 0 0 12.46 -37.39 0 0 0zm-74.78 0l0 -12.46 37.39 0 0 12.46 -37.39 0 0 0z"
   id="path2" />
  <path
   class="fil2"
   d="M1318.51 282.42l0 -12.46 37.39 0 0 12.46 -37.39 0 0 0zm-74.78 0l0 -12.46 37.39 0 0 12.46 -37.39 0 0 0zm-74.78 0l0 -12.46 37.39 0 0 12.46 -37.39 0 0 0zm-74.78 0l0 -12.46 37.39 0 0 12.46 -37.39 0 0 0zm-74.78 0l0 -12.46 37.39 0 0 12.46 -37.39 0 0 0zm-74.78 0l0 -12.46 37.39 0 0 12.46 -37.39 0 0 0zm-74.78 0l0 -12.46 37.39 0 0 12.46 -37.39 0 0 0zm-74.78 0l0 -12.46 37.39 0 0 12.46 -37.39 0 0 0zm-74.78 0l0 -12.46 37.39 0 0 12.46 -37.39 0 0 0zm-74.78 0l0 -12.46 37.39 0 0 12.46 -37.39 0 0 0zm-74.78 0l0 -12.46 37.39 0 0 12.46 -37.39 0 0 0zm-74.85 0l0 -12.46 37.45 0 0 12.46 -37.45 0 0 0zm-74.78 0l0 -12.46 37.39 0 0 12.46 -37.39 0 0 0zm-74.78 0l0 -12.46 37.39 0 0 12.46 -37.39 0 0 0zm-74.78 0l0 -12.46 37.39 0 0 12.46 -37.39 0 0 0zm-74.78 0l0 -12.46 37.39 0 0 12.46 -37.39 0 0 0zm-74.78 0l0 -12.46 37.39 0 0 12.46 -37.39 0 0 0z"
   id="path3" />
  <path
   class="fil3"
   d="M499.71 66.79c0,0 -7.64,8.17 -7.64,24.51 0,16.34 13.55,146.35 54.46,187.27 0,0 84.89,-37.76 145.44,-98.32 0,0 -137.8,-103.11 -192.26,-113.46z"
   id="path4" />
  <path
   class="fil0"
   d="M944.28 66.79c0,0 -37.64,-27.79 -83.41,-42.5 -45.71,-14.71 -99.67,-34.32 -152.77,-2.45 -53.16,31.87 -168.05,102.09 -239.44,128.3 -160.16,58.84 -335.05,349.76 -328.52,742.02 0,0 143.84,13.08 186.34,32.69 0,0 -35.98,-545.88 192.81,-637.41 228.85,-91.53 212.46,-94.8 284.41,-143.83 71.89,-49.03 140.57,-76.82 140.57,-76.82z"
   id="path5" />
  <path
   class="fil2"
   d="M140.14 892.16c-0.06,-2.75 -0.06,-5.48 -0.06,-8.23 46.14,-13.8 168.42,16.4 168.42,16.4 -9.79,-27.78 8.13,-348.13 60.43,-459.27 52.3,-111.13 86.67,-138.92 132.38,-160.17 45.77,-21.25 219.05,-94.79 264.82,-134.02 45.77,-39.23 106.2,-68.64 142.18,-81.72 10.59,-3.85 19.47,-4.97 26.73,-4.68 5.85,3.84 9.24,6.31 9.24,6.31 0,0 -68.68,27.78 -140.57,76.82 -71.95,49.03 -55.56,52.3 -284.41,143.83 -228.79,91.53 -192.81,637.41 -192.81,637.41 -42.5,-19.61 -186.34,-32.69 -186.34,-32.69z"
   id="path6" />
  <path
   class="fil0"
   d="M697.69 170.85c0,0 -102.07,86.43 -160.96,109.88 0,0 46.88,29.64 148.95,54.33 0,0 52.85,27.17 132.69,-89.51l-120.68 -74.7z"
   id="path7" />
  <path
   class="fil1"
   d="M707.18 183.07c0,0 -36.1,60.01 -85.75,88.91 0,0 38.38,-8.9 76.75,-40.02 0,0 -11.27,37.79 -24.83,46.68 0,0 33.88,8.89 79.03,-24.45 0,0 -4.56,28.89 -24.89,46.67 0,0 58.71,-33.34 81.31,-66.68l-101.64 -51.12z"
   id="path8" />
  <path
   class="fil2"
   d="M697.69 170.85c0,0 -102.07,86.43 -160.96,109.88 0,0 4,2.53 12.2,6.71 77.62,-35.7 139.53,-95.06 156.28,-111.95l-7.52 -4.64z"
   id="path9" />
  <path
   class="fil0"
   d="M499.71 66.79c0,0 37.58,-27.79 83.35,-42.5 45.77,-14.71 99.67,-34.32 152.83,-2.45 53.1,31.87 168.05,102.09 239.44,128.3 160.16,58.84 335.05,349.76 328.52,742.02 0,0 -143.84,13.08 -186.34,32.69 0,0 35.98,-545.88 -192.87,-637.41 -228.79,-91.53 -212.46,-94.8 -284.35,-143.83 -71.95,-49.03 -140.57,-76.82 -140.57,-76.82z"
   id="path10" />
  <path
   class="fil3"
   d="M735.89 21.84c19.34,11.62 46.94,28.34 77.62,46.16 -8.13,-19.77 -24.89,-43.95 -46.14,-50.25 -12.32,-3.63 -24.27,-1.11 -33.76,2.82 0.74,0.42 1.54,0.83 2.28,1.27z"
   id="path11" />
  <path
   class="fil1"
   d="M640.28 143.61c-20.14,-13.71 -39.98,-25.76 -58.15,-36 -44.6,21.47 -97.82,47.38 -152.16,81.76 -106.82,67.56 -163.43,226.64 -163.43,226.64 30.49,-71.91 111.13,-154.72 111.13,-154.72 -95.91,130.75 -108.97,261.5 -108.97,261.5 56.67,-174.32 150.37,-226.63 150.37,-226.63 -45.77,58.84 -58.83,113.32 -58.83,113.32 41.4,-82.81 132.94,-152.55 198.29,-178.7 40.16,-16.07 87.72,-42.83 118.46,-61.08 -10.41,-7.5 -21.62,-15.78 -36.71,-26.08z"
   id="path12" />
  <path
   class="fil1"
   d="M739.4 150.14c0,0 85.01,54.48 150.37,80.63 65.36,26.15 156.9,95.89 198.29,178.7 0,0 -13.06,-54.49 -58.83,-113.32 0,0 93.7,52.31 150.37,226.63 0,0 -13.06,-130.75 -108.97,-261.5 0,0 80.64,82.82 111.13,154.72 0,0 -56.61,-159.08 -163.43,-226.64 -106.75,-67.55 -209.2,-102.42 -250.59,-135.1 0,0 41.4,58.84 80.64,82.8 0,0 -100.23,-52.29 -156.9,-93.7 0,0 76.26,91.53 148.15,128.57 0,0 -71.89,-6.54 -100.23,-21.8z"
   id="path13" />
  <path
   class="fil2"
   d="M1303.85 892.16c0,-2.75 0,-5.48 0.06,-8.23 -46.2,-13.8 -168.42,16.4 -168.42,16.4 9.79,-27.78 -8.19,-348.13 -60.49,-459.27 -52.3,-111.13 -86.61,-138.92 -132.38,-160.17 -45.77,-21.25 -218.99,-94.79 -264.76,-134.02 -45.77,-39.23 -106.26,-68.64 -142.24,-81.72 -10.53,-3.85 -19.4,-4.97 -26.67,-4.68 -5.91,3.84 -9.24,6.31 -9.24,6.31 0,0 68.62,27.78 140.57,76.82 71.89,49.03 55.56,52.3 284.35,143.83 228.85,91.53 192.87,637.41 192.87,637.41 42.5,-19.61 186.34,-32.69 186.34,-32.69z"
   id="path14" />
  <path
   class="fil4"
   d="M1216.68 468.31c0,0 78.42,207.03 71.89,400.97 0,0 -58.83,0 -113.35,10.89 0,0 71.95,-34.86 98.07,-28.32 0,0 4.37,-178.69 -56.61,-383.54z"
   id="path15" />
  <path
   class="fil4"
   d="M224.04 468.31c0,0 -78.48,207.03 -71.95,400.97 0,0 58.89,0 113.35,10.89 0,0 -71.89,-34.86 -98.07,-28.32 0,0 -4.37,-178.69 56.67,-383.54z"
   id="path16" />
  <path
   class="fil4"
   d="M547.08 47.18c0,0 80.08,-34.32 134.04,-34.32 53.9,0 88.28,53.94 88.28,53.94 0,0 -62.16,-75.18 -222.32,-19.61z"
   id="path17" />
  <path
   class="fil4"
   d="M1153.3 859.47c-1.79,-0.09 -3.2,-1.63 -3.08,-3.43l0 0c0.06,-1.36 0.12,-2.72 0.18,-4.08l0 0c0.06,-1.8 1.6,-3.2 3.39,-3.12l0 0c1.79,0.08 3.2,1.61 3.14,3.41l0 0c-0.06,1.36 -0.12,2.73 -0.18,4.1l0 0c-0.12,1.76 -1.54,3.12 -3.26,3.12l0 0c-0.06,0 -0.12,0 -0.18,0l0 0zm0.74 -17.16c-1.79,-0.07 -3.2,-1.59 -3.14,-3.39l0 0c0.18,-4.37 0.37,-8.72 0.49,-13.04l0 0c0,-1.8 1.54,-3.22 3.33,-3.17l0 0c1.79,0.05 3.2,1.56 3.2,3.36l0 0c-0.12,4.33 -0.31,8.7 -0.49,13.09l0 0c-0.06,1.76 -1.48,3.14 -3.2,3.14l0 0c-0.06,0 -0.12,0 -0.18,0l0 0zm0.86 -26.12c-1.79,-0.05 -3.26,-1.54 -3.2,-3.34l0 0c0.06,-4.39 0.18,-8.74 0.25,-13.04l0 0c0,-1.81 1.48,-3.26 3.26,-3.23l0 0c1.85,0.02 3.26,1.5 3.26,3.3l0 0c-0.06,4.34 -0.12,8.7 -0.25,13.1l0 0c-0.06,1.78 -1.48,3.2 -3.26,3.2l0 0c0,0 -0.06,0 -0.06,0l0 0zm0.37 -26.14c-1.79,-0.01 -3.26,-1.48 -3.2,-3.29l0 0c0,-2.22 0,-4.43 0,-6.62l0 0c0,-2.16 0,-4.3 0,-6.43l0 0c-0.06,-1.8 1.42,-3.28 3.2,-3.29l0 0c1.85,0 3.33,1.45 3.33,3.26l0 0c0,2.14 0,4.29 0,6.46l0 0c0,2.2 0,4.42 0,6.64l0 0c0,1.8 -1.48,3.26 -3.26,3.26l0 0c-0.06,0 -0.06,0 -0.06,0l0 0zm-3.33 -29.38c-0.06,-4.39 -0.19,-8.72 -0.25,-13.04l0 0c-0.06,-1.81 1.36,-3.3 3.2,-3.34l0 0c1.79,-0.04 3.26,1.39 3.33,3.19l0 0c0.12,4.33 0.18,8.7 0.25,13.1l0 0c0,1.81 -1.42,3.29 -3.26,3.31l0 0c0,0 0,0 0,0l0 0c-1.79,0 -3.26,-1.44 -3.26,-3.22l0 0zm-0.62 -26.07c-0.12,-4.39 -0.31,-8.73 -0.49,-13.04l0 0c-0.06,-1.8 1.29,-3.33 3.14,-3.4l0 0c1.79,-0.08 3.33,1.32 3.39,3.12l0 0c0.18,4.32 0.37,8.69 0.49,13.09l0 0c0.06,1.8 -1.36,3.31 -3.14,3.38l0 0c-0.06,0 -0.12,0 -0.12,0l0 0c-1.79,0 -3.2,-1.39 -3.26,-3.15l0 0zm-1.11 -26.05c-0.25,-4.39 -0.49,-8.72 -0.8,-13.01l0 0c-0.12,-1.81 1.29,-3.37 3.08,-3.47l0 0c1.79,-0.12 3.33,1.25 3.45,3.05l0 0c0.31,4.32 0.55,8.69 0.8,13.08l0 0c0.06,1.8 -1.29,3.34 -3.08,3.43l0 0c-0.06,0.01 -0.12,0.01 -0.18,0.01l0 0c-1.73,0 -3.2,-1.36 -3.26,-3.09l0 0zm-1.66 -26.03c-0.37,-4.37 -0.68,-8.7 -1.05,-12.99l0 0c-0.18,-1.8 1.17,-3.38 2.96,-3.54l0 0c1.79,-0.16 3.39,1.17 3.51,2.97l0 0c0.37,4.31 0.74,8.67 1.11,13.07l0 0c0.12,1.8 -1.23,3.36 -3.02,3.51l0 0c-0.12,0.01 -0.18,0.01 -0.31,0.01l0 0c-1.66,0 -3.08,-1.31 -3.2,-3.03l0 0zm-2.28 -25.96c-0.43,-4.37 -0.86,-8.69 -1.36,-12.96l0 0c-0.18,-1.79 1.11,-3.41 2.9,-3.61l0 0c1.79,-0.2 3.39,1.09 3.63,2.89l0 0c0.43,4.3 0.92,8.64 1.36,13.04l0 0c0.18,1.79 -1.17,3.39 -2.96,3.58l0 0c-0.12,0.01 -0.18,0.01 -0.31,0.01l0 0c-1.66,0 -3.08,-1.26 -3.26,-2.94l0 0zm-2.9 -25.9c-0.49,-4.35 -1.11,-8.66 -1.66,-12.92l0 0c-0.25,-1.79 0.99,-3.44 2.77,-3.69l0 0c1.79,-0.24 3.45,1.01 3.7,2.8l0 0c0.62,4.28 1.17,8.62 1.72,12.99l0 0c0.18,1.79 -1.05,3.43 -2.83,3.65l0 0c-0.18,0.02 -0.31,0.02 -0.43,0.02l0 0c-1.6,0 -3.02,-1.21 -3.26,-2.86l0 0zm-3.51 -25.8c-0.68,-4.34 -1.36,-8.64 -2.03,-12.86l0 0c-0.31,-1.79 0.86,-3.46 2.65,-3.76l0 0c1.79,-0.3 3.51,0.91 3.76,2.69l0 0c0.74,4.26 1.42,8.58 2.09,12.95l0 0c0.25,1.78 -0.98,3.45 -2.77,3.71l0 0c-0.18,0.03 -0.31,0.04 -0.49,0.04l0 0c-1.6,0 -2.96,-1.16 -3.2,-2.78l0 0zm-4.31 -25.69c-0.74,-4.32 -1.54,-8.58 -2.4,-12.79l0 0c-0.37,-1.77 0.8,-3.49 2.59,-3.84l0 0c1.79,-0.34 3.51,0.8 3.82,2.57l0 0c0.86,4.24 1.66,8.54 2.46,12.9l0 0c0.31,1.76 -0.86,3.47 -2.65,3.79l0 0c-0.18,0.04 -0.37,0.05 -0.55,0.05l0 0c-1.6,0 -2.96,-1.11 -3.26,-2.69l0 0zm-4.99 -25.53c-0.92,-4.3 -1.91,-8.53 -2.83,-12.71l0 0c-0.43,-1.76 0.68,-3.52 2.4,-3.92l0 0c1.79,-0.4 3.51,0.69 3.94,2.45l0 0c0.98,4.21 1.91,8.48 2.83,12.82l0 0c0.37,1.76 -0.74,3.5 -2.46,3.87l0 0c-0.25,0.06 -0.49,0.07 -0.74,0.07l0 0c-1.48,0 -2.83,-1.05 -3.14,-2.58l0 0zm-5.91 -25.36c-1.05,-4.26 -2.16,-8.46 -3.26,-12.58l0 0c-0.43,-1.75 0.55,-3.54 2.34,-4.02l0 0c1.72,-0.46 3.51,0.57 4,2.31l0 0c1.11,4.17 2.22,8.4 3.26,12.71l0 0c0.43,1.74 -0.62,3.52 -2.34,3.96l0 0c-0.31,0.06 -0.55,0.09 -0.8,0.09l0 0c-1.48,0 -2.83,-0.98 -3.2,-2.48l0 0zm-6.72 -25.11c-1.23,-4.23 -2.53,-8.38 -3.76,-12.46l0 0c-0.55,-1.73 0.43,-3.55 2.16,-4.09l0 0c1.73,-0.54 3.51,0.43 4.07,2.16l0 0c1.29,4.12 2.53,8.3 3.76,12.57l0 0c0.55,1.74 -0.49,3.55 -2.22,4.05l0 0c-0.31,0.09 -0.55,0.13 -0.86,0.13l0 0c-1.48,0 -2.77,-0.93 -3.14,-2.36l0 0zm-7.76 -24.83c-1.42,-4.17 -2.77,-8.27 -4.25,-12.28l0 0c-0.62,-1.71 0.31,-3.57 1.97,-4.19l0 0c1.73,-0.6 3.57,0.28 4.19,1.98l0 0c1.48,4.07 2.9,8.21 4.31,12.43l0 0c0.55,1.71 -0.37,3.55 -2.09,4.13l0 0c-0.31,0.12 -0.68,0.17 -1.05,0.17l0 0c-1.36,0 -2.59,-0.86 -3.08,-2.24l0 0zm-8.75 -24.46c-1.6,-4.11 -3.2,-8.13 -4.81,-12.07l0 0c-0.68,-1.68 0.12,-3.58 1.79,-4.26l0 0c1.66,-0.68 3.57,0.11 4.25,1.78l0 0c1.66,3.99 3.26,8.06 4.87,12.21l0 0c0.62,1.69 -0.19,3.58 -1.91,4.23l0 0c-0.37,0.15 -0.74,0.22 -1.17,0.22l0 0c-1.29,0 -2.53,-0.8 -3.02,-2.1l0 0zm-9.86 -24.02c-1.79,-4.04 -3.57,-7.97 -5.42,-11.82l0 0c-0.74,-1.63 -0.06,-3.57 1.6,-4.35l0 0c1.6,-0.77 3.57,-0.07 4.31,1.57l0 0c1.85,3.89 3.7,7.88 5.48,11.96l0 0c0.74,1.65 -0.06,3.59 -1.66,4.31l0 0c-0.43,0.18 -0.92,0.28 -1.36,0.28l0 0c-1.23,0 -2.46,-0.73 -2.96,-1.95l0 0zm-11.09 -23.48c-1.97,-3.94 -4,-7.77 -6.04,-11.5l0 0c-0.86,-1.58 -0.25,-3.57 1.36,-4.43l0 0c1.6,-0.86 3.57,-0.27 4.44,1.32l0 0c2.03,3.78 4.07,7.66 6.04,11.65l0 0c0.86,1.61 0.18,3.58 -1.42,4.39l0 0c-0.43,0.24 -0.99,0.35 -1.48,0.35l0 0c-1.17,0 -2.34,-0.65 -2.89,-1.79l0 0zm-12.38 -22.81c-2.22,-3.82 -4.44,-7.52 -6.65,-11.11l0 0c-0.99,-1.53 -0.49,-3.54 1.05,-4.5l0 0c1.54,-0.95 3.51,-0.49 4.5,1.05l0 0c2.28,3.64 4.56,7.4 6.78,11.29l0 0c0.92,1.56 0.37,3.55 -1.17,4.47l0 0c-0.55,0.3 -1.11,0.44 -1.66,0.44l0 0c-1.11,0 -2.22,-0.58 -2.83,-1.63l0 0zm-13.74 -21.99c-2.46,-3.67 -4.93,-7.22 -7.39,-10.62l0 0c-1.05,-1.47 -0.68,-3.51 0.74,-4.57l0 0c1.48,-1.05 3.51,-0.73 4.56,0.74l0 0c2.53,3.47 5.05,7.07 7.58,10.82l0 0c0.98,1.5 0.55,3.52 -0.92,4.53l0 0c-0.55,0.37 -1.17,0.55 -1.79,0.55l0 0c-1.05,0 -2.09,-0.5 -2.77,-1.45l0 0zm-15.15 -20.98c-2.71,-3.51 -5.42,-6.85 -8.13,-10.03l0 0c-1.17,-1.38 -0.99,-3.44 0.37,-4.61l0 0c1.36,-1.17 3.45,-1 4.62,0.39l0 0c2.71,3.26 5.54,6.67 8.32,10.24l0 0c1.11,1.42 0.86,3.48 -0.55,4.59l0 0c-0.62,0.47 -1.36,0.69 -2.03,0.69l0 0c-0.98,0 -1.91,-0.43 -2.59,-1.26l0 0zm-16.69 -19.74c-3.02,-3.28 -6.04,-6.39 -8.93,-9.31l0 0c-1.29,-1.27 -1.29,-3.34 -0.06,-4.62l0 0c1.29,-1.29 3.39,-1.29 4.62,-0.01l0 0c3.02,2.98 6.1,6.16 9.18,9.52l0 0c1.23,1.33 1.11,3.4 -0.18,4.62l0 0c-0.62,0.58 -1.42,0.86 -2.22,0.86l0 0c-0.86,0 -1.79,-0.36 -2.4,-1.06l0 0zm-18.3 -18.21c-3.39,-3.04 -6.65,-5.85 -9.79,-8.42l0 0c-1.42,-1.14 -1.6,-3.2 -0.49,-4.6l0 0c1.17,-1.4 3.2,-1.6 4.62,-0.47l0 0c3.2,2.65 6.59,5.53 10.04,8.64l0 0c1.29,1.21 1.42,3.28 0.18,4.61l0 0c-0.62,0.71 -1.54,1.08 -2.4,1.08l0 0c-0.8,0 -1.54,-0.28 -2.16,-0.84l0 0zm-20.02 -16.29c-3.82,-2.76 -7.39,-5.17 -10.66,-7.25l0 0c-1.48,-0.96 -1.97,-2.98 -0.99,-4.51l0 0c0.99,-1.53 2.96,-1.98 4.5,-1.01l0 0c3.39,2.15 7.08,4.63 10.96,7.48l0 0c1.48,1.06 1.79,3.1 0.74,4.57l0 0c-0.62,0.88 -1.6,1.35 -2.65,1.35l0 0c-0.68,0 -1.36,-0.2 -1.91,-0.62l0 0zm-21.75 -13.72c-3.63,-1.95 -6.59,-3.29 -8.5,-4.13l0 0c-1.97,-0.84 -2.89,-1.16 -2.96,-1.16l0 0c-1.66,-0.58 -2.59,-2.44 -2.03,-4.15l0 0c0.62,-1.71 2.46,-2.62 4.19,-2.04l0 0c0.12,0.06 4.68,1.63 12.38,5.71l0 0c1.6,0.84 2.22,2.82 1.36,4.42l0 0c-0.62,1.1 -1.72,1.73 -2.89,1.73l0 0c-0.49,0 -1.05,-0.13 -1.54,-0.38l0 0z"
   id="path18" />
  <path
   class="fil4"
   d="M290.51 876.46c-1.85,-0.02 -3.26,-1.48 -3.26,-3.29l0 0c0,-2.61 0.06,-7.1 0.12,-13.18l0 0c0.06,-1.81 1.54,-3.25 3.33,-3.22l0 0c1.79,0.02 3.26,1.51 3.2,3.31l0 0c-0.06,6.08 -0.12,10.53 -0.12,13.12l0 0c0,1.8 -1.48,3.26 -3.26,3.26l0 0c0,0 0,0 0,0l0 0zm0.31 -26.29c-1.85,-0.04 -3.26,-1.53 -3.2,-3.33l0 0c0.06,-4.03 0.18,-8.41 0.31,-13.14l0 0c0.06,-1.8 1.54,-3.23 3.33,-3.18l0 0c1.85,0.04 3.26,1.55 3.2,3.35l0 0c-0.12,4.72 -0.25,9.09 -0.31,13.1l0 0c-0.06,1.78 -1.48,3.2 -3.26,3.2l0 0c-0.06,0 -0.06,0 -0.06,0l0 0zm0.68 -26.22c-1.85,-0.06 -3.26,-1.57 -3.2,-3.37l0 0c0.12,-4.19 0.31,-8.57 0.49,-13.12l0 0c0.06,-1.81 1.54,-3.22 3.39,-3.15l0 0c1.79,0.06 3.2,1.58 3.14,3.39l0 0c-0.19,4.54 -0.31,8.91 -0.49,13.08l0 0c-0.06,1.77 -1.48,3.17 -3.27,3.17l0 0c0,0 -0.06,0 -0.06,0l0 0zm0.92 -26.19c-1.79,-0.09 -3.2,-1.6 -3.14,-3.41l0 0c0.18,-4.24 0.37,-8.62 0.62,-13.1l0 0c0.06,-1.81 1.6,-3.2 3.39,-3.12l0 0c1.79,0.09 3.2,1.61 3.14,3.42l0 0c-0.25,4.47 -0.43,8.83 -0.62,13.07l0 0c-0.06,1.76 -1.54,3.14 -3.26,3.14l0 0c-0.06,0 -0.06,0 -0.12,0l0 0zm1.17 -26.18c-1.79,-0.09 -3.14,-1.63 -3.08,-3.43l0 0c0.25,-4.29 0.49,-8.65 0.74,-13.1l0 0 0 0.01c0.12,-1.82 1.66,-3.19 3.45,-3.08l0 0c1.79,0.1 3.14,1.64 3.08,3.45l0 0c-0.25,4.43 -0.49,8.78 -0.74,13.06l0 0c-0.06,1.75 -1.54,3.1 -3.26,3.1l0 0c-0.06,0 -0.12,0 -0.18,-0.01l0 0zm1.48 -26.15c-1.79,-0.12 -3.14,-1.67 -3.02,-3.47l0 0c0.25,-4.31 0.55,-8.67 0.86,-13.08l0 0c0.12,-1.8 1.66,-3.17 3.45,-3.04l0 0c1.79,0.12 3.14,1.68 3.02,3.47l0 0c-0.25,4.41 -0.55,8.77 -0.8,13.05l0 0c-0.12,1.74 -1.6,3.07 -3.26,3.07l0 0c-0.06,0 -0.19,-0.01 -0.25,-0.01l0 0zm1.79 -26.14c-1.85,-0.13 -3.14,-1.7 -3.02,-3.5l0 0c0.31,-4.32 0.62,-8.68 0.99,-13.07l0 0c0.12,-1.8 1.72,-3.14 3.51,-3l0 0c1.79,0.15 3.14,1.72 3.02,3.52l0 0c-0.37,4.38 -0.68,8.72 -0.99,13.03l0 0c-0.12,1.72 -1.6,3.03 -3.26,3.03l0 0c-0.12,0 -0.18,-0.01 -0.25,-0.01l0 0zm2.03 -26.1c-1.79,-0.15 -3.14,-1.74 -2.96,-3.54l0 0c0.37,-4.32 0.74,-8.68 1.17,-13.07l0 0c0.12,-1.79 1.73,-3.12 3.51,-2.95l0 0c1.79,0.17 3.14,1.76 2.96,3.56l0 0c-0.37,4.36 -0.8,8.7 -1.17,13.02l0 0c-0.12,1.71 -1.54,2.99 -3.26,2.99l0 0c-0.06,0 -0.12,0 -0.25,-0.01l0 0zm2.34 -26.08c-1.79,-0.18 -3.08,-1.79 -2.89,-3.58l0 0c0.43,-4.33 0.86,-8.69 1.36,-13.04l0 0c0.18,-1.8 1.79,-3.1 3.57,-2.91l0 0c1.79,0.18 3.08,1.81 2.89,3.6l0 0c-0.43,4.35 -0.92,8.68 -1.29,13l0 0c-0.18,1.69 -1.6,2.95 -3.26,2.94l0 0c-0.12,0 -0.25,0 -0.37,-0.01l0 0zm2.77 -26.04c-1.85,-0.2 -3.08,-1.83 -2.9,-3.62l0 0c0.49,-4.32 0.99,-8.67 1.54,-13.03l0 0.01c0.19,-1.79 1.85,-3.07 3.63,-2.85l0 0c1.79,0.22 3.08,1.85 2.83,3.63l0 0c-0.49,4.33 -1.05,8.66 -1.54,12.98l0 0c-0.18,1.66 -1.6,2.9 -3.2,2.9l0 0c-0.12,0 -0.25,-0.01 -0.37,-0.02l0 0zm3.08 -26.03c-1.79,-0.23 -3.02,-1.88 -2.77,-3.67l0 0c0.55,-4.34 1.11,-8.67 1.73,-13.01l0 0c0.25,-1.8 1.91,-3.04 3.7,-2.79l0 0c1.79,0.25 3.02,1.9 2.77,3.69l0 0c-0.62,4.31 -1.17,8.63 -1.72,12.96l0 0c-0.25,1.64 -1.6,2.84 -3.26,2.84l0 0c-0.12,0 -0.25,-0.01 -0.43,-0.02l0 0zm3.57 -25.93c-1.79,-0.26 -3.02,-1.94 -2.71,-3.71l0 0c0.62,-4.34 1.29,-8.66 1.97,-12.98l0 0c0.31,-1.78 1.97,-2.99 3.76,-2.71l0 0c1.79,0.29 2.96,1.96 2.71,3.74l0 0c-0.68,4.29 -1.36,8.6 -1.97,12.91l0 0c-0.25,1.63 -1.66,2.8 -3.26,2.8l0 0c-0.18,0 -0.31,-0.01 -0.49,-0.04l0 0zm4.07 -25.87c-1.79,-0.31 -2.96,-2 -2.65,-3.78l0 0c0.74,-4.34 1.54,-8.65 2.28,-12.93l0 0c0.37,-1.77 2.03,-2.95 3.82,-2.62l0 0c1.79,0.33 2.96,2.03 2.65,3.81l0 0c-0.8,4.26 -1.54,8.54 -2.28,12.84l0 0c-0.31,1.6 -1.66,2.72 -3.26,2.72l0 0c-0.19,0 -0.37,-0.02 -0.55,-0.05l0 0zm4.68 -25.77c-1.79,-0.35 -2.9,-2.08 -2.59,-3.84l0 0c0.86,-4.33 1.79,-8.62 2.71,-12.87l0 0c0.37,-1.77 2.1,-2.9 3.88,-2.51l0 0c1.73,0.38 2.83,2.11 2.46,3.88l0 0c-0.86,4.22 -1.79,8.48 -2.59,12.77l0 0c-0.37,1.56 -1.72,2.64 -3.26,2.64l0 0c-0.18,0 -0.37,-0.02 -0.62,-0.07l0 0zm5.42 -25.62c-1.79,-0.41 -2.83,-2.16 -2.46,-3.92l0 0c0.99,-4.32 2.03,-8.58 3.08,-12.79l0 0c0.43,-1.76 2.22,-2.82 3.94,-2.38l0 0c1.79,0.45 2.83,2.22 2.4,3.97l0 0c-1.05,4.16 -2.09,8.39 -3.08,12.66l0 0c-0.31,1.52 -1.66,2.54 -3.14,2.54l0 0c-0.25,0 -0.49,-0.03 -0.74,-0.09l0 0zm6.28 -25.42c-1.79,-0.48 -2.77,-2.28 -2.34,-4.02l0 0c1.23,-4.29 2.4,-8.52 3.63,-12.67l0 0c0.55,-1.73 2.34,-2.7 4.13,-2.19l0 0c1.73,0.52 2.71,2.34 2.16,4.07l0 0c-1.23,4.09 -2.4,8.26 -3.57,12.51l0 0c-0.43,1.45 -1.73,2.41 -3.14,2.41l0 0c-0.31,0 -0.62,-0.04 -0.86,-0.12l0 0zm7.39 -25.12c-1.73,-0.57 -2.65,-2.42 -2.09,-4.13l0 0c1.42,-4.26 2.83,-8.41 4.37,-12.45l0 0c0.62,-1.69 2.46,-2.56 4.19,-1.94l0 0c1.66,0.63 2.59,2.5 1.91,4.2l0 0c-1.48,3.98 -2.9,8.06 -4.25,12.26l0 0c-0.49,1.36 -1.73,2.23 -3.14,2.23l0 0c-0.31,0 -0.68,-0.05 -0.99,-0.17l0 0zm8.87 -24.62c-1.66,-0.69 -2.46,-2.61 -1.79,-4.28l0 0c1.72,-4.18 3.51,-8.22 5.36,-12.11l0 0c0.8,-1.63 2.77,-2.32 4.37,-1.54l0 0c1.66,0.77 2.34,2.72 1.54,4.35l0 0c-1.79,3.78 -3.51,7.72 -5.24,11.81l0 0c-0.49,1.26 -1.73,2.01 -3.02,2.01l0 0c-0.43,0 -0.86,-0.08 -1.23,-0.25l0 0zm10.96 -23.76c-1.6,-0.87 -2.16,-2.86 -1.29,-4.45l0 0c0.12,-0.21 0.25,-0.41 0.31,-0.61l0 0c2.1,-3.68 4.13,-7.28 6.22,-10.82l0 0c0.92,-1.55 2.96,-2.06 4.5,-1.14l0 0c1.54,0.93 2.09,2.93 1.17,4.48l0 0c-2.09,3.48 -4.13,7.03 -6.16,10.67l0 0c-0.12,0.18 -0.18,0.38 -0.31,0.58l0 0c-0.62,1.07 -1.72,1.68 -2.89,1.68l0 0c-0.49,0 -1.05,-0.13 -1.54,-0.41l0 0zm13.12 -22.58c-1.48,-0.97 -1.97,-2.99 -0.98,-4.51l0 0c2.4,-3.77 4.8,-7.44 7.21,-11.03l0 0c0.99,-1.5 3.02,-1.9 4.5,-0.89l0 0c1.54,1 1.91,3.04 0.92,4.53l0 0c-2.4,3.54 -4.74,7.16 -7.08,10.88l0 0c-0.62,0.98 -1.73,1.52 -2.77,1.52l0 0c-0.62,0 -1.23,-0.16 -1.79,-0.51l0 0zm14.48 -21.79c-1.48,-1.05 -1.79,-3.09 -0.74,-4.57l0 0c2.59,-3.62 5.17,-7.15 7.82,-10.58l0 0c1.11,-1.44 3.14,-1.71 4.56,-0.6l0 0c1.48,1.1 1.73,3.14 0.62,4.58l0 0c-2.59,3.38 -5.17,6.86 -7.7,10.42l0 0c-0.62,0.89 -1.66,1.37 -2.65,1.37l0 0c-0.68,0 -1.36,-0.2 -1.91,-0.62l0 0zm15.71 -20.88c-1.42,-1.15 -1.6,-3.2 -0.49,-4.6l0 0c2.83,-3.46 5.67,-6.82 8.5,-10.08l0 0c1.23,-1.36 3.26,-1.49 4.62,-0.31l0 0c1.36,1.18 1.54,3.25 0.31,4.61l0 0c-2.77,3.2 -5.54,6.49 -8.32,9.91l0 0c-0.68,0.79 -1.6,1.2 -2.53,1.2l0 0c-0.74,0 -1.48,-0.23 -2.09,-0.73l0 0zm17 -19.83c-1.29,-1.24 -1.36,-3.31 -0.12,-4.63l0 0c3.02,-3.27 6.1,-6.43 9.12,-9.48l0 0c1.29,-1.28 3.39,-1.28 4.62,0l0 0c1.29,1.28 1.29,3.34 0,4.61l0 0c-2.96,3.01 -5.98,6.11 -8.99,9.33l0 0c-0.62,0.69 -1.48,1.04 -2.34,1.04l0 0c-0.8,0 -1.6,-0.29 -2.28,-0.87l0 0zm18.36 -18.66c-1.23,-1.31 -1.17,-3.38 0.12,-4.62l0 0c3.26,-3.06 6.59,-6 9.79,-8.83l0 0c1.36,-1.18 3.45,-1.05 4.62,0.32l0 0c1.17,1.37 1.05,3.43 -0.31,4.61l0 0c-3.2,2.78 -6.41,5.67 -9.61,8.67l0 0c-0.62,0.59 -1.48,0.88 -2.28,0.88l0 0c-0.86,0 -1.73,-0.34 -2.34,-1.04l0 0zm19.53 -17.34c-1.11,-1.4 -0.92,-3.46 0.49,-4.59l0 0c3.51,-2.84 6.96,-5.54 10.41,-8.12l0 -0.01c1.42,-1.08 3.51,-0.79 4.56,0.65l0 0c1.11,1.45 0.8,3.49 -0.62,4.58l0 0c-3.39,2.54 -6.78,5.2 -10.23,7.97l0 0c-0.62,0.49 -1.36,0.73 -2.03,0.73l0 0c-0.98,0 -1.91,-0.42 -2.59,-1.21l0 0zm20.76 -15.9c-0.99,-1.48 -0.68,-3.52 0.8,-4.55l0 0c3.76,-2.59 7.39,-5.04 10.96,-7.36l0 0c1.54,-0.98 3.57,-0.55 4.5,0.97l0 0c0.99,1.51 0.55,3.54 -0.92,4.52l0 0c-3.51,2.28 -7.15,4.68 -10.78,7.23l0 0c-0.55,0.39 -1.23,0.59 -1.85,0.58l0 0c-1.05,0 -2.03,-0.48 -2.71,-1.39l0 0zm21.87 -14.4c-0.99,-1.55 -0.43,-3.55 1.11,-4.48l0 0c3.88,-2.35 7.7,-4.53 11.4,-6.6l0 0c1.6,-0.88 3.57,-0.31 4.44,1.27l0 0c0.92,1.58 0.31,3.57 -1.23,4.45l0 0c-3.63,2.02 -7.39,4.18 -11.27,6.49l0 0c-0.49,0.31 -1.11,0.46 -1.66,0.46l0 0c-1.11,0 -2.16,-0.57 -2.77,-1.59l0 0zm22.73 -12.9c-0.86,-1.6 -0.25,-3.58 1.42,-4.4l0 0c4.07,-2.13 8.01,-4.09 11.77,-5.9l0 0c1.6,-0.79 3.57,-0.12 4.31,1.5l0 0c0.8,1.63 0.12,3.58 -1.48,4.37l0 0c-3.7,1.8 -7.58,3.73 -11.64,5.83l0 0c-0.43,0.25 -0.99,0.36 -1.48,0.36l0 0c-1.17,0 -2.34,-0.64 -2.9,-1.76l0 0zm23.41 -11.61c-0.74,-1.64 -0.06,-3.58 1.6,-4.35l0 0c3.76,-1.77 7.21,-3.39 10.23,-4.86l0 0c0.49,-0.24 0.99,-0.49 1.54,-0.74l0 -0.01c1.6,-0.79 3.57,-0.12 4.37,1.5l0 0c0.8,1.63 0.12,3.58 -1.54,4.37l0 0c-0.49,0.26 -1.05,0.51 -1.54,0.76l0 0c-3.08,1.5 -6.53,3.12 -10.29,4.89l0 0c-0.43,0.21 -0.92,0.31 -1.42,0.31l0 0c-1.23,0 -2.4,-0.69 -2.96,-1.87l0 0zm23.59 -11.38c-0.8,-1.61 -0.18,-3.59 1.42,-4.39l0 0c3.7,-1.88 7.64,-3.87 11.64,-5.96l0 0.01c1.6,-0.83 3.57,-0.21 4.44,1.39l0 0c0.8,1.61 0.18,3.59 -1.42,4.4l0 0c-4.07,2.09 -7.95,4.1 -11.7,5.98l0 0c-0.43,0.23 -0.99,0.35 -1.48,0.35l0 0c-1.17,0 -2.34,-0.66 -2.9,-1.79l0 0zm23.29 -11.96c-0.8,-1.61 -0.18,-3.57 1.42,-4.41l0 0c3.82,-2 7.7,-4.03 11.58,-6.07l0 0c1.6,-0.84 3.57,-0.23 4.44,1.37l0 0c0.8,1.6 0.18,3.57 -1.42,4.42l0 0c-3.88,2.04 -7.76,4.07 -11.58,6.07l0 0c-0.49,0.25 -0.99,0.38 -1.54,0.38l0 0c-1.17,-0.01 -2.28,-0.64 -2.9,-1.76l0 0zm23.22 -12.18c-0.86,-1.6 -0.25,-3.58 1.36,-4.42l0 0c3.88,-2.08 7.76,-4.14 11.52,-6.15l0 0c1.6,-0.84 3.57,-0.24 4.44,1.35l0 0c0.86,1.59 0.25,3.58 -1.36,4.43l0 0c-3.76,2.01 -7.64,4.07 -11.58,6.15l0 0c-0.49,0.26 -0.99,0.38 -1.48,0.38l0 0c-1.17,0 -2.34,-0.63 -2.9,-1.74l0 0zm23.1 -12.31c-0.86,-1.59 -0.25,-3.57 1.36,-4.42l0 0c4.07,-2.19 7.95,-4.28 11.52,-6.2l0 0c1.6,-0.86 3.57,-0.26 4.44,1.33l0 0c0.86,1.58 0.25,3.57 -1.36,4.42l0 0c-3.57,1.93 -7.45,4.02 -11.52,6.21l0 0c-0.49,0.26 -1.05,0.38 -1.54,0.38l0 0c-1.17,0 -2.34,-0.62 -2.9,-1.73l0 0zm23.1 -12.41c-0.86,-1.59 -0.31,-3.57 1.29,-4.43l0 0c7.15,-3.88 11.52,-6.26 11.52,-6.27l0 0c1.6,-0.86 3.57,-0.28 4.44,1.31l0 0c0.86,1.58 0.31,3.57 -1.29,4.43l0 0c0,0 -4.37,2.38 -11.52,6.26l0 0c-0.55,0.27 -1.05,0.4 -1.6,0.4l0 0c-1.11,0 -2.28,-0.62 -2.83,-1.71l0 0z"
   id="path19" />
  <path
   class="fil0"
   d="M933.63 56.84c-45.58,-22.07 -72.94,-42.43 -143.84,-47.4 -2.09,-0.14 -3.7,-1.58 -5.48,-2.24 13.86,9.83 28.34,26.46 38.99,54.68 27.17,71.92 30.86,168.84 -56.12,266.31 53.22,-10.94 150.06,-27.82 150.06,-27.82 9.86,-6.54 50.7,-68.65 58.83,-122.59 8.19,-53.93 -7.82,-104.17 -42.44,-120.94z"
   id="path20" />
  <path
   class="fil4"
   d="M816.77 21.03c0,0 93.14,29.41 117.66,47.4 0,0 37.64,63.74 17.99,125.85 0,0 1.66,-53.94 -11.4,-75.19 0,0 9.8,58.84 -6.59,106.24 0,0 -3.26,-130.75 -40.84,-158.53l-76.82 -45.76z"
   id="path21" />
  <path
   class="fil2"
   d="M721.6 14.48l15.65 8.17c0,0 20.7,-17.98 48.48,6.54 45.95,40.53 42.5,120.95 29.38,192.86 -13.06,71.91 -82.54,107.73 -82.54,107.73 17.49,3.74 26.61,0.02 34.62,-1.6 86.98,-97.47 83.29,-194.39 56.12,-266.31 -10.72,-28.36 -25.32,-45.02 -39.24,-54.84 -0.49,-0.24 -1.11,-0.49 -1.6,-0.73 -39.24,-17.98 -60.86,8.17 -60.86,8.17z"
   id="path22" />
  <path
   class="fil4"
   d="M815.29 205.34c0,0 -3.39,-1.75 -9.24,-4.82l0 -0.01c-1.6,-0.84 -2.22,-2.82 -1.36,-4.42l0 0c0.8,-1.59 2.77,-2.21 4.37,-1.36l0 0c5.85,3.06 9.18,4.8 9.24,4.81l0 0c1.54,0.83 2.22,2.8 1.36,4.4l0 0c-0.55,1.12 -1.73,1.77 -2.9,1.77l0 0c-0.49,0 -1.05,-0.12 -1.48,-0.38l0 0zm-20.88 -10.98c-3.51,-1.88 -7.39,-3.97 -11.52,-6.21l0 0c-1.6,-0.86 -2.22,-2.84 -1.36,-4.43l0 0c0.86,-1.59 2.83,-2.18 4.44,-1.32l0 0c4.19,2.24 8.01,4.32 11.58,6.19l0 0c1.54,0.85 2.16,2.83 1.29,4.42l0 0c-0.55,1.11 -1.72,1.74 -2.89,1.74l0 0c-0.49,0 -1.05,-0.12 -1.54,-0.39l0 0zm-23.04 -12.48c-3.76,-2.02 -7.58,-4.13 -11.52,-6.32l0 0c-1.6,-0.87 -2.16,-2.86 -1.29,-4.44l0 0c0.86,-1.58 2.9,-2.16 4.44,-1.28l0 0c3.94,2.17 7.82,4.28 11.46,6.3l0 0c1.6,0.87 2.22,2.85 1.36,4.44l0 0c-0.62,1.08 -1.72,1.7 -2.89,1.7l0 0c-0.55,0 -1.05,-0.14 -1.54,-0.41l0 0zm-22.98 -12.7c-3.76,-2.11 -7.58,-4.26 -11.46,-6.45l0 0c-1.54,-0.89 -2.09,-2.89 -1.23,-4.46l0 0c0.92,-1.57 2.9,-2.13 4.5,-1.23l0 0c3.82,2.18 7.64,4.34 11.4,6.43l0 0c1.54,0.88 2.09,2.88 1.23,4.45l0 0c-0.62,1.07 -1.72,1.68 -2.83,1.68l0 0c-0.55,0 -1.11,-0.14 -1.6,-0.42l0 0zm-22.79 -12.98c-3.82,-2.18 -7.64,-4.4 -11.4,-6.62l0 -0.01c-1.54,-0.91 -2.03,-2.92 -1.11,-4.47l0 0c0.86,-1.55 2.9,-2.07 4.44,-1.16l0 0c3.76,2.21 7.52,4.41 11.33,6.59l0 0c1.54,0.91 2.09,2.9 1.17,4.47l0 0c-0.62,1.04 -1.72,1.63 -2.83,1.63l0 0c-0.55,0 -1.11,-0.14 -1.6,-0.44l0 0zm-22.67 -13.34c-3.82,-2.29 -7.52,-4.58 -11.21,-6.85l0 0c-1.54,-0.95 -2.03,-2.96 -1.05,-4.5l0 0c0.92,-1.54 2.96,-2.01 4.5,-1.07l0 0c3.63,2.27 7.33,4.53 11.15,6.81l0 0c1.54,0.92 2.03,2.95 1.11,4.49l0 0c-0.62,1.02 -1.72,1.58 -2.83,1.58l0 0c-0.55,0 -1.11,-0.15 -1.66,-0.47l0 0zm-22.36 -13.86c-3.82,-2.45 -7.52,-4.87 -11.03,-7.23l0 0c-1.48,-1 -1.85,-3.04 -0.86,-4.54l0 0c0.99,-1.5 3.02,-1.89 4.56,-0.89l0 0c3.45,2.33 7.08,4.72 10.9,7.15l0 0c1.48,0.97 1.91,2.99 0.98,4.51l0 0c-0.68,0.98 -1.72,1.51 -2.77,1.51l0 0c-0.62,0 -1.23,-0.17 -1.79,-0.52l0 0zm-21.87 -14.76c-3.88,-2.8 -7.39,-5.49 -10.6,-8.04l0 0c-1.36,-1.13 -1.6,-3.19 -0.43,-4.59l0 0c1.11,-1.41 3.2,-1.62 4.56,-0.49l0 0c3.02,2.46 6.47,5.08 10.29,7.82l0 0c1.48,1.05 1.79,3.09 0.74,4.55l0 0c-0.62,0.89 -1.6,1.37 -2.65,1.37l0 0c-0.68,0 -1.29,-0.2 -1.91,-0.62l0 0zm-20.45 -16.76c-3.08,-2.66 -6.53,-5.21 -10.1,-7.64l0 0c-1.54,-1 -1.91,-3.04 -0.92,-4.54l0 0c0.99,-1.5 3.02,-1.9 4.56,-0.89l0 0c3.82,2.55 7.39,5.25 10.72,8.12l0 0c1.36,1.17 1.54,3.24 0.37,4.6l0 0c-0.68,0.76 -1.6,1.14 -2.53,1.14l0 0c-0.74,0 -1.48,-0.26 -2.09,-0.79l0 0zm-21.07 -14.27c-3.76,-2.04 -7.58,-3.98 -11.52,-5.81l0 0.01c-1.6,-0.77 -2.34,-2.72 -1.54,-4.35l0 0c0.74,-1.64 2.71,-2.34 4.31,-1.58l0 0c4.07,1.89 8.01,3.89 11.89,6.01l0 0c1.6,0.87 2.16,2.86 1.29,4.44l0 0c-0.62,1.08 -1.73,1.69 -2.9,1.69l0 0c-0.49,0 -1.05,-0.12 -1.54,-0.4l0 0zm-23.35 -10.98c-4.07,-1.64 -8.13,-3.18 -12.07,-4.6l0 0c-1.72,-0.62 -2.59,-2.48 -2.03,-4.18l0 0c0.62,-1.7 2.53,-2.59 4.19,-1.98l0 0c4.07,1.45 8.19,3.01 12.38,4.71l0 0c1.66,0.68 2.46,2.59 1.79,4.26l0 0c-0.49,1.26 -1.73,2.03 -3.02,2.03l0 0c-0.43,0 -0.8,-0.07 -1.23,-0.24l0 0zm-24.39 -8.72c-4.37,-1.39 -8.56,-2.62 -12.44,-3.71l0 0c-1.73,-0.49 -2.77,-2.29 -2.28,-4.02l0 0c0.49,-1.75 2.28,-2.77 4,-2.27l0 0c3.94,1.1 8.25,2.35 12.69,3.76l0 0c1.73,0.54 2.65,2.38 2.09,4.1l0 0c-0.43,1.39 -1.72,2.29 -3.08,2.29l0 0c-0.31,0 -0.68,-0.05 -0.99,-0.15l0 0zm-25.01 -7c-7.82,-1.92 -12.63,-2.85 -12.69,-2.85l0 0c-1.72,-0.34 -2.89,-2.05 -2.59,-3.83l0 0c0.37,-1.77 2.09,-2.93 3.82,-2.59l0 0c0.06,0.01 5.05,0.95 13,2.92l0 0c1.72,0.42 2.83,2.19 2.4,3.94l0 0c-0.37,1.5 -1.72,2.5 -3.2,2.5l0 0c-0.25,0 -0.49,-0.03 -0.74,-0.09l0 0z"
   id="path23" />
  <path
   class="fil4"
   d="M581.51 284.84c-0.43,-1.77 0.74,-3.51 2.46,-3.88l0 0c0.62,-0.13 1.23,-0.26 1.85,-0.39l0 -0.01c1.73,-0.4 3.51,0.71 3.94,2.47l0 0c0.37,1.75 -0.74,3.51 -2.46,3.91l0 0c-0.68,0.15 -1.29,0.28 -1.91,0.42l0 0c-0.25,0.04 -0.49,0.07 -0.74,0.07l0 0c-1.48,0 -2.83,-1.05 -3.14,-2.59l0 0zm14.54 -3.57c-0.55,-1.71 0.37,-3.56 2.09,-4.12l0 0c4.07,-1.33 8.07,-2.84 11.95,-4.5l0 0c1.66,-0.71 3.57,0.06 4.31,1.73l0 0c0.68,1.66 -0.12,3.57 -1.79,4.29l0 0c-4,1.73 -8.19,3.3 -12.51,4.71l0 0c-0.31,0.11 -0.62,0.16 -0.99,0.16l0 0c-1.36,0 -2.65,-0.88 -3.08,-2.26l0 0zm24.21 -9.7c-0.8,-1.6 -0.18,-3.57 1.42,-4.42l0 0c3.82,-2 7.52,-4.15 11.09,-6.39l0 0c1.54,-0.95 3.57,-0.49 4.5,1.04l0 0c0.99,1.53 0.49,3.55 -0.99,4.51l0 0c-3.76,2.32 -7.58,4.54 -11.58,6.63l0 0c-0.49,0.26 -0.99,0.38 -1.54,0.38l0 0c-1.17,0 -2.28,-0.63 -2.9,-1.75l0 0zm22.49 -13.42c-1.11,-1.47 -0.74,-3.52 0.68,-4.57l0 0c3.57,-2.56 6.96,-5.2 10.23,-7.88l0 0c1.36,-1.15 3.45,-0.95 4.56,0.44l0 0c1.17,1.4 0.99,3.46 -0.43,4.61l0 0c-3.33,2.76 -6.84,5.48 -10.47,8.13l0 0c-0.62,0.42 -1.29,0.62 -1.91,0.62l0 0c-1.05,0 -2.03,-0.47 -2.65,-1.36l0 0zm20.39 -16.31c-1.17,-1.32 -1.11,-3.39 0.18,-4.62l0 0c3.26,-3.01 6.34,-6.04 9.24,-9.02l0 0c1.29,-1.3 3.33,-1.34 4.62,-0.07l0 0c1.29,1.26 1.36,3.33 0.12,4.63l0 0c-3.02,3.06 -6.16,6.17 -9.49,9.26l0 0c-0.68,0.58 -1.48,0.87 -2.22,0.87l0 0c-0.92,0 -1.79,-0.35 -2.46,-1.05l0 0zm18.48 -18.54c-1.36,-1.19 -1.48,-3.25 -0.31,-4.61l0 0c3.08,-3.47 5.85,-6.83 8.32,-9.94l0 0c1.11,-1.42 3.14,-1.66 4.56,-0.54l0 0c1.42,1.12 1.66,3.17 0.55,4.59l0 0c-2.53,3.2 -5.36,6.62 -8.5,10.19l0 0c-0.62,0.73 -1.54,1.11 -2.46,1.11l0 0c-0.74,0 -1.54,-0.26 -2.16,-0.81l0 0zm16.51 -20.33c-1.48,-1.05 -1.79,-3.09 -0.74,-4.56l0 0c4.68,-6.62 7.02,-10.7 7.08,-10.71l0 0c0.86,-1.55 2.9,-2.08 4.44,-1.17l0 0c1.54,0.91 2.09,2.91 1.17,4.47l0 0c0,0.07 -2.59,4.39 -7.39,11.21l0 0c-0.62,0.89 -1.66,1.37 -2.65,1.37l0 0c-0.68,0 -1.36,-0.19 -1.91,-0.6l0 0z"
   id="path24" />
  <path
   class="fil4"
   d="M797.24 306.57c-1.36,-1.18 -1.54,-3.24 -0.37,-4.61l0 0c2.83,-3.35 5.61,-6.68 8.19,-10l0 0c1.11,-1.42 3.2,-1.66 4.62,-0.55l0 0c1.42,1.12 1.66,3.18 0.55,4.59l0 0c-2.71,3.39 -5.48,6.8 -8.44,10.21l0 0c-0.62,0.76 -1.54,1.14 -2.46,1.14l0 0c-0.74,0 -1.48,-0.25 -2.09,-0.78l0 0zm16.32 -20.37c-1.42,-1.06 -1.79,-3.1 -0.74,-4.56l0 0c2.59,-3.58 4.99,-7.13 7.27,-10.68l0 0c0.99,-1.52 3.02,-1.95 4.56,-0.97l0 0c1.48,0.98 1.97,3.01 0.98,4.52l0 0c-2.4,3.63 -4.87,7.27 -7.45,10.92l0 0c-0.68,0.89 -1.66,1.36 -2.71,1.36l0 0c-0.62,0 -1.29,-0.2 -1.91,-0.6l0 0zm14.48 -21.77c-1.54,-0.91 -2.09,-2.91 -1.17,-4.47l0 0c2.22,-3.81 4.25,-7.58 6.16,-11.33l0 0c0.8,-1.6 2.77,-2.25 4.37,-1.43l0 0c1.6,0.82 2.28,2.78 1.42,4.39l0 0c-1.91,3.86 -4.07,7.74 -6.28,11.64l0 0c-0.62,1.05 -1.73,1.64 -2.83,1.64l0 0c-0.55,0 -1.11,-0.15 -1.66,-0.44l0 0zm12.2 -23.13c-1.66,-0.73 -2.4,-2.65 -1.66,-4.31l0 0c1.73,-4.01 3.33,-7.99 4.81,-11.93l0 0c0.62,-1.7 2.53,-2.56 4.19,-1.93l0 0c1.73,0.63 2.59,2.51 1.97,4.2l0 0c-1.54,4.07 -3.2,8.17 -4.99,12.3l0 0c-0.55,1.22 -1.79,1.95 -3.02,1.95l0 0c-0.43,0 -0.86,-0.09 -1.29,-0.27l0 0zm9.43 -24.38c-1.73,-0.52 -2.71,-2.33 -2.16,-4.07l0 0c1.23,-4.19 2.34,-8.32 3.33,-12.42l0 -0.01c0.43,-1.77 2.16,-2.85 3.94,-2.43l0 0c1.73,0.41 2.83,2.16 2.4,3.92l0 0c-0.99,4.23 -2.09,8.51 -3.45,12.83l0 0c-0.43,1.4 -1.73,2.32 -3.08,2.32l0 0c-0.31,0 -0.68,-0.05 -0.99,-0.15l0 0zm6.41 -25.34c-1.79,-0.3 -3.02,-1.98 -2.71,-3.76l0 0c0.74,-4.31 1.29,-8.54 1.73,-12.75l0 0c0.12,-1.79 1.73,-3.1 3.57,-2.93l0 0c1.79,0.18 3.08,1.79 2.9,3.57l0 0c-0.43,4.34 -0.99,8.73 -1.73,13.18l0 0c-0.31,1.6 -1.66,2.73 -3.26,2.73l0 0c-0.18,0 -0.31,-0.02 -0.49,-0.04l0 0zm3.02 -25.96c-1.79,-0.05 -3.2,-1.58 -3.14,-3.38l0 0c0.06,-2.24 0.06,-4.47 0.06,-6.68l0 0c0,-2.08 0,-4.13 -0.06,-6.18l0 0c-0.06,-1.81 1.36,-3.31 3.14,-3.36l0 0c1.79,-0.06 3.33,1.36 3.39,3.16l0 0c0.06,2.11 0.12,4.24 0.12,6.38l0 0c0,2.28 -0.06,4.59 -0.12,6.91l0 0c-0.06,1.77 -1.54,3.16 -3.27,3.16l0 0c-0.06,0 -0.12,-0.01 -0.12,-0.01l0 0zm-3.94 -29.08c-0.43,-4.34 -0.99,-8.6 -1.66,-12.76l0 0c-0.31,-1.78 0.92,-3.46 2.71,-3.75l0 0c1.79,-0.28 3.45,0.93 3.76,2.71l0 0c0.68,4.29 1.23,8.69 1.66,13.18l0 0c0.18,1.79 -1.11,3.39 -2.96,3.57l0 0c-0.06,0.01 -0.18,0.01 -0.31,0.01l0 0c-1.66,0 -3.08,-1.27 -3.2,-2.96l0 0zm-4.07 -25.4c-0.99,-4.29 -2.03,-8.46 -3.2,-12.47l0 0c-0.49,-1.74 0.49,-3.55 2.22,-4.05l0 0c1.79,-0.51 3.57,0.51 4.07,2.24l0 0c1.17,4.15 2.28,8.43 3.26,12.86l0 0c0.43,1.76 -0.68,3.52 -2.46,3.9l0 0c-0.25,0.06 -0.49,0.08 -0.74,0.08l0 0c-1.48,0 -2.83,-1.03 -3.14,-2.56l0 0zm-7.15 -24.76c-1.48,-4.21 -3.02,-8.23 -4.56,-12.04l0 0.01c-0.74,-1.67 0.06,-3.59 1.73,-4.28l0 0c1.66,-0.7 3.57,0.09 4.31,1.76l0 0c1.6,3.92 3.2,8.05 4.74,12.39l0 0c0.55,1.71 -0.31,3.57 -2.03,4.17l0 0c-0.37,0.12 -0.74,0.18 -1.05,0.18l0 0c-1.36,0 -2.65,-0.84 -3.14,-2.19l0 0zm-9.86 -23.81c-2.03,-4.18 -4,-8 -5.97,-11.45l0 0c-0.86,-1.58 -0.31,-3.57 1.29,-4.45l0 0c1.54,-0.88 3.57,-0.31 4.44,1.28l0 0c1.97,3.54 4.07,7.48 6.1,11.77l0 0c0.8,1.63 0.12,3.58 -1.48,4.37l0 0c-0.49,0.22 -0.99,0.33 -1.42,0.33l0 0c-1.23,0 -2.4,-0.68 -2.96,-1.85l0 0zm-12.57 -22.52c-4.37,-6.85 -7.27,-10.44 -7.27,-10.45l0 0.01c-1.17,-1.4 -0.92,-3.47 0.49,-4.6l0 0c1.36,-1.13 3.45,-0.92 4.56,0.49l0 0c0.06,0.08 3.2,3.95 7.76,11.04l0 0c0.92,1.52 0.49,3.54 -1.05,4.52l0 0c-0.49,0.35 -1.11,0.52 -1.73,0.52l0 0c-1.11,0 -2.16,-0.54 -2.77,-1.51l0 0z"
   id="path25" />
 <path
   style="fill:#603813;fill-opacity:1;stroke-width:0.185763"
   d="m 129.29182,179.39182 -0.001,-8.59993 1.32689,-3.28887 c 7.24,-17.94539 17.12457,-36.00532 28.6053,-52.26428 1.22867,-1.74005 2.20487,-3.1928 2.16933,-3.22834 -0.0901,-0.0901 -4.68913,4.88592 -8.41683,9.10682 -7.87682,8.91899 -16.59444,19.87301 -22.30604,28.02843 l -1.28577,1.8359 -0.0513,-2.92909 -0.0513,-2.92909 1.89556,-3.36511 c 9.19551,-16.32444 19.18211,-30.18685 29.65764,-41.16781 8.74982,-9.171983 15.54454,-14.741045 25.76425,-21.116797 14.68703,-9.162764 30.88252,-17.948002 53.03523,-28.768949 l 9.38101,-4.582348 1.11457,0.60607 c 3.46409,1.883654 12.03865,7.077682 17.51085,10.60716 6.95387,4.485138 20.235,13.857084 19.97736,14.097205 -0.0825,0.07685 -0.90226,0.537768 -1.82179,1.024254 -2.55105,1.349664 -2.87932,1.634722 -2.87932,2.500294 0,0.399451 0.11568,0.834061 0.25707,0.9658 0.2145,0.199864 0.0539,0.357521 -0.96994,0.952063 -0.67486,0.391894 -1.25587,0.62597 -1.29114,0.520169 -0.21489,-0.644667 -0.84732,-1.139823 -1.45581,-1.139823 -0.94183,0 -5.94614,2.692925 -6.31728,3.399452 -0.29457,0.560769 -0.20451,1.132374 0.26212,1.663718 0.33923,0.386275 0.43198,0.290321 -1.09875,1.136719 l -1.23272,0.681616 -0.1163,-0.463409 c -0.15825,-0.630509 -0.8263,-1.216743 -1.38655,-1.216743 -0.7497,0 -6.06717,2.908636 -6.31604,3.454852 -0.31881,0.699705 -0.25683,1.160524 0.22025,1.637607 l 0.43151,0.431508 -1.36339,0.674625 c -0.74987,0.371044 -1.40381,0.674625 -1.4532,0.674625 -0.0494,0 -0.0898,-0.196028 -0.0898,-0.435616 0,-0.516046 -0.4579,-0.973563 -1.14631,-1.145339 -0.39698,-0.09906 -1.07488,0.179602 -3.39196,1.394321 -1.59271,0.834967 -2.97862,1.672803 -3.0798,1.861859 -0.27568,0.51512 -0.22191,1.31867 0.11301,1.688751 0.27835,0.307577 0.21552,0.369163 -1.00225,0.982423 l -1.29922,0.654274 -0.21776,-0.525732 c -0.21492,-0.518863 -0.86112,-0.945452 -1.43217,-0.945452 -0.51412,0 -5.99699,2.981239 -6.20801,3.375524 -0.11151,0.208366 -0.1517,0.650999 -0.0893,0.983628 0.11106,0.592021 0.0898,0.615039 -1.0084,1.09131 -1.11317,0.48277 -1.12466,0.483724 -1.48495,0.123438 -0.73167,-0.731674 -1.09063,-0.661062 -4.20085,0.826363 -1.62362,0.776473 -3.05652,1.550884 -3.18423,1.720916 -0.12771,0.170034 -0.2322,0.525354 -0.2322,0.789594 0,0.41317 -0.16787,0.55358 -1.19888,1.00273 -1.12065,0.48821 -1.22637,0.50303 -1.62031,0.2271 -0.2318,-0.16235 -0.56074,-0.29518 -0.73098,-0.29518 -0.45237,0 -5.77623,2.67615 -6.14141,3.08711 -0.17081,0.19222 -0.33799,0.6368 -0.37152,0.98796 -0.0528,0.55308 -0.19701,0.71816 -1.07823,1.23434 -1.01176,0.59265 -1.01967,0.59397 -1.46471,0.2439 -0.2461,-0.19358 -0.6528,-0.35196 -0.90379,-0.35196 -0.25099,0 -1.69768,0.72315 -3.21487,1.60701 -2.98201,1.7372 -3.42393,2.19939 -2.99759,3.13508 0.19279,0.42313 0.13627,0.50038 -0.86192,1.17824 l -1.06822,0.72542 -0.51567,-0.44356 c -0.28361,-0.24395 -0.71363,-0.44355 -0.9556,-0.44355 -0.41405,0 -5.01091,2.89707 -5.71595,3.60235 -0.35451,0.35464 -0.45313,1.6837 -0.13932,1.87765 0.33786,0.2088 0.19602,0.41202 -0.82628,1.18387 -0.99112,0.74829 -1.0175,0.75632 -1.27548,0.38801 -0.38106,-0.54404 -1.28087,-0.75876 -1.87909,-0.44841 -0.60412,0.31343 -4.34394,3.24129 -4.82739,3.77932 -0.45434,0.50562 -0.45658,1.39013 -0.005,1.88936 0.34516,0.3814 0.34452,0.39354 -0.037,0.69901 -1.75995,1.4092 -1.77035,1.41518 -1.93855,1.11461 -0.25727,-0.45971 -1.1475,-0.75471 -1.66983,-0.55333 -0.50168,0.19341 -4.43243,3.67471 -4.89532,4.33557 -0.39287,0.56091 -0.37029,1.11812 0.0679,1.67518 l 0.36163,0.45974 -0.87913,0.86591 -0.87913,0.86591 -0.68178,-0.34759 c -0.38292,-0.19523 -0.88979,-0.30783 -1.15632,-0.25688 -0.58992,0.11277 -4.87584,4.52228 -4.97052,5.11386 -0.0821,0.51275 0.20193,1.43449 0.44199,1.43449 0.0981,0 -0.21534,0.45593 -0.69644,1.01319 -0.73931,0.85634 -0.92911,0.98409 -1.22602,0.82519 -0.19322,-0.10341 -0.65893,-0.16228 -1.03493,-0.13082 -0.62484,0.0523 -0.86376,0.26918 -2.77857,2.52266 -2.17835,2.56363 -2.41646,3.06203 -1.8762,3.92712 0.1871,0.2996 0.10407,0.48723 -0.57403,1.29715 -0.66256,0.79135 -0.86691,0.92828 -1.24405,0.83362 -0.83828,-0.21039 -1.42825,0.2697 -3.09498,2.51857 -2.07939,2.80565 -2.27356,3.18741 -2.00825,3.94846 0.18475,0.52998 0.14118,0.67314 -0.47899,1.5736 -0.57995,0.84206 -0.76976,0.99057 -1.26602,0.99057 -0.32108,0 -0.72426,0.10449 -0.89594,0.2322 -0.17168,0.12771 -1.06539,1.39465 -1.98601,2.81541 -1.67908,2.59127 -1.99107,3.43409 -1.46569,3.95947 0.15372,0.15372 0.0319,0.49829 -0.4656,1.3173 -0.58548,0.9638 -0.7588,1.11907 -1.32274,1.18491 -0.35694,0.0417 -0.64898,0.0575 -0.64898,0.0351 0,-0.28163 2.64451,-6.96115 3.85232,-9.73019 4.52534,-10.37491 10.70723,-21.00502 17.49398,-30.08189 1.02649,-1.37288 1.82729,-2.53522 1.77953,-2.58297 -0.24619,-0.24619 -6.43721,4.30311 -9.84381,7.23346 -2.94762,2.53553 -8.2795,7.77879 -11.31577,11.12768 -9.95909,10.98452 -18.46644,23.39506 -26.58328,38.77975 l -2.1307,4.03853 z"
   id="path26"
   transform="scale(2.3371206)" /><path
   style="fill:#603813;fill-opacity:1;stroke-width:0.185763"
   d="m 313.04296,127.17711 c 0.23729,-0.29407 0.8187,-0.98371 1.29203,-1.53254 2.03434,-2.35883 4.18365,-6.13342 5.64402,-9.91194 0.87995,-2.27676 2.01196,-6.23996 1.91338,-6.69878 -0.0419,-0.19497 -0.56375,0.0757 -1.82343,0.94578 -7.66077,5.29137 -15.66902,8.53035 -23.20534,9.38551 -2.01104,0.22819 -7.7483,0.16653 -8.15966,-0.0877 -0.16314,-0.10083 0.0482,-0.41906 0.71233,-1.07284 1.92809,-1.89792 3.89095,-5.08509 5.85998,-9.5151 1.05149,-2.36571 3.02262,-7.61581 3.35193,-8.927867 0.15917,-0.634175 0.30461,-0.717414 -2.71149,1.551767 -4.48439,3.37384 -8.94021,6.13455 -14.12078,8.74886 -2.96919,1.49836 -8.8613,4.08886 -9.30016,4.08886 -0.097,0 -0.0398,-0.20838 0.12705,-0.46306 0.19107,-0.29161 0.27454,-0.71034 0.22543,-1.13095 -0.0729,-0.62456 -0.011,-0.71944 0.95478,-1.46236 1.02466,-0.78824 1.03506,-0.79146 1.32915,-0.41088 0.20166,0.26098 0.50897,0.38359 0.96143,0.38359 0.53786,0 0.99626,-0.2523 2.39716,-1.31937 2.9628,-2.25678 3.49686,-2.78867 3.49686,-3.48262 0,-0.33513 -0.16261,-0.81606 -0.36136,-1.06873 l -0.36137,-0.4594 0.97421,-0.9621 0.97421,-0.96211 0.41441,0.56052 c 0.34107,0.46133 0.54615,0.56053 1.15881,0.56053 0.70138,0 0.87923,-0.13165 3.0781,-2.27853 2.17026,-2.118949 2.3337,-2.327456 2.3337,-2.977224 0,-0.794194 -0.25273,-1.176458 -0.98601,-1.491372 l -0.50989,-0.218975 1.14649,-1.350938 1.14648,-1.350938 0.14333,0.553123 c 0.17543,0.67702 0.77924,1.127058 1.51215,1.127058 0.62128,0 1.26896,-0.627326 3.56709,-3.454994 1.1235,-1.382384 1.37371,-1.808539 1.37371,-2.339683 0,-0.78835 -0.4807,-1.279035 -1.40382,-1.432965 l -0.65955,-0.10998 1.1649,-1.560602 1.16489,-1.560601 0.23304,0.571121 c 0.27824,0.681882 0.90104,1.156862 1.51689,1.156862 0.59744,0 1.33839,-0.821457 2.81348,-3.119166 0.6641,-1.034456 1.25687,-1.884338 1.31726,-1.888626 0.0604,-0.0043 1.64867,0.87299 3.52949,1.949509 6.37443,3.6485 18.27614,9.46482 29.70509,14.516763 3.11617,1.377438 6.11247,2.705478 6.65844,2.951188 l 0.99269,0.44674 -0.62116,0.78494 c -4.46381,5.64073 -13.20716,13.08583 -23.28082,19.82396 -3.79036,2.53532 -7.74475,5.03094 -7.97168,5.03094 -0.0766,0 0.0548,-0.2406 0.29213,-0.53468 z"
   id="path27"
   transform="scale(2.3371206)" /><path
   style="fill:#603813;fill-opacity:1;stroke-width:0.371525"
   d="m 342.732,79.769112 c -9.44468,-5.3378 -22.52305,-13.1584 -22.32911,-13.352347 0.0858,-0.08579 1.71762,0.342339 3.62628,0.951401 5.52653,1.763537 20.28105,4.735275 26.51862,5.341172 l 1.12834,0.109602 -0.62936,5.387116 c -0.34614,2.962913 -0.64491,5.428912 -0.66393,5.479996 -0.10676,0.286804 -1.2327,-0.289635 -7.65084,-3.91694 z"
   id="path28"
   transform="scale(2.3371206)" /><path
   style="fill:#603813;fill-opacity:1;stroke-width:0.371525"
   d="M 347.37607,66.204436 C 336.3245,58.61432 326.04113,49.845422 313.54578,37.356449 c -6.30484,-6.301617 -16.03002,-16.78471 -15.79201,-17.022721 0.064,-0.06399 2.43611,1.453717 5.27137,3.372688 10.16143,6.877493 25.20554,15.955982 41.65737,25.138465 l 7.52338,4.199129 v 6.775943 c 0,6.509374 -0.20007,9.117504 -0.69661,9.080816 -0.12771,-0.0094 -1.98765,-1.222786 -4.13321,-2.696333 z"
   id="path29"
   transform="scale(2.3371206)" /><path
   style="fill:#603813;fill-opacity:1;stroke-width:0.371525"
   d="m 346.7893,44.689297 c -6.49269,-6.60744 -17.23488,-19.37522 -16.72792,-19.88219 0.0967,-0.09665 0.73006,0.241868 1.40758,0.752253 2.03772,1.535037 7.98857,5.038753 13.17081,7.75466 l 4.87997,2.557491 0.57714,2.312368 c 0.67716,2.71312 1.85402,10.507847 1.66989,11.060242 -0.0699,0.209701 -2.30976,-1.83997 -4.97747,-4.554824 z"
   id="path30"
   transform="scale(2.3371206)" /><path
   style="fill:#603813;fill-opacity:1;stroke-width:0.371525"
   d="m 129.29077,179.1821 v -8.04617 l 2.82063,-6.61886 c 7.00457,-16.43688 13.93168,-29.17831 24.35258,-44.79307 2.8297,-4.24003 5.00188,-7.70915 4.82708,-7.70915 -0.31081,0 -4.31118,4.27702 -9.55608,10.21694 -5.96562,6.75614 -14.71202,17.70071 -19.67958,24.6255 l -2.20734,3.07704 -0.22888,-2.3149 -0.22888,-2.31489 2.7916,-4.84892 c 16.47734,-28.62069 33.7157,-47.828851 54.56926,-60.804824 15.10273,-9.397553 40.19443,-22.885601 58.62152,-31.512007 l 3.85245,-1.803475 8.11482,4.891615 c 8.39005,5.057531 18.35267,11.629139 25.73858,16.977863 3.67561,2.661797 4.15914,3.130511 3.58387,3.474017 -3.84988,2.298836 -4.01461,2.450297 -3.85415,3.543607 0.12542,0.854509 -0.0255,1.152288 -0.75155,1.483106 -0.73392,0.334397 -1.04092,0.294062 -1.59782,-0.209929 -0.6457,-0.584345 -0.79618,-0.583058 -2.37612,0.02033 -0.92773,0.3543 -2.47668,1.177655 -3.44213,1.829676 -1.49865,1.012116 -1.74323,1.348107 -1.67236,2.297397 0.0585,0.782936 -0.14556,1.254652 -0.68956,1.594386 -0.67292,0.420246 -0.89161,0.371075 -1.69536,-0.381201 l -0.92279,-0.863683 -3.21747,1.707332 c -3.07793,1.633278 -3.21748,1.762197 -3.21748,2.972202 0,0.946858 -0.22407,1.391894 -0.8912,1.770099 -0.77367,0.4386 -0.93534,0.426351 -1.22592,-0.09288 -0.51549,-0.921141 -1.93556,-0.718169 -4.69388,0.670893 -2.87523,1.447945 -3.57607,2.127079 -3.29687,3.19476 0.1465,0.560208 -0.0796,0.895395 -0.88496,1.311856 -0.59496,0.307667 -1.08174,0.393794 -1.08174,0.191395 0,-0.202396 -0.35272,-0.556764 -0.78382,-0.787481 -0.65142,-0.348632 -1.19464,-0.210967 -3.21593,0.814985 -3.11686,1.582036 -4.17381,2.425948 -4.17381,3.332547 0,0.932889 -1.34209,1.436974 -2.5809,0.969377 -0.78887,-0.297763 -1.46997,-0.110217 -3.92377,1.080436 -1.83182,0.888844 -3.10853,1.758232 -3.3329,2.269561 -0.45635,1.04002 -1.05854,1.3006 -3.18556,1.37844 -2.10991,0.0772 -6.54411,2.43488 -7.0419,3.74418 -0.43505,1.14428 -1.53491,1.70775 -2.84623,1.45818 -1.55038,-0.29508 -6.81075,2.84007 -6.81075,4.05916 0,0.47419 -0.33505,1.16537 -0.74456,1.53597 -0.63019,0.57031 -0.8951,0.60523 -1.72458,0.22729 -0.89239,-0.40659 -1.23276,-0.28624 -3.80663,1.34602 -2.60734,1.65349 -2.83552,1.89926 -2.94158,3.16842 -0.1252,1.49827 -1.40285,2.8043 -2.08046,2.12668 -0.75651,-0.75651 -2.04866,-0.31441 -4.4108,1.50914 -2.65144,2.04688 -3.05667,2.64828 -2.49349,3.70059 0.52423,0.97952 -0.79102,1.85891 -2.39174,1.59915 -1.04174,-0.16905 -1.51479,0.0779 -3.69988,1.93167 -2.2496,1.90847 -2.49473,2.24951 -2.40077,3.34009 0.14527,1.68614 -0.59994,2.48318 -2.06477,2.20838 -1.06301,-0.19942 -1.3805,0.007 -3.67661,2.38488 -2.16313,2.24062 -2.47934,2.73777 -2.27052,3.56979 0.29364,1.16996 -0.75533,2.53783 -1.71308,2.23386 -0.3456,-0.10969 -0.88139,-0.10235 -1.19063,0.0163 -0.94737,0.36353 -4.41431,4.91139 -4.4365,5.8197 -0.0317,1.29761 -0.72945,2.52647 -1.43453,2.52647 -0.34659,0 -1.05861,0.33701 -1.58226,0.74891 -1.40739,1.10706 -4.05365,5.23738 -3.8513,6.01117 0.21015,0.80359 -1.07048,2.52805 -1.87739,2.52805 -0.67231,0 -1.10186,0.50435 -2.90881,3.41539 -0.72207,1.16327 -1.36016,2.71558 -1.41796,3.44956 -0.0991,1.25883 -1.09977,2.80023 -1.53517,2.36483 -0.32409,-0.32409 2.95767,-8.19717 6.17022,-14.80266 3.47171,-7.13836 7.97254,-14.83992 12.05022,-20.61965 4.41968,-6.26446 4.64459,-6.60573 4.4692,-6.78111 -0.56779,-0.5678 -9.33968,6.445 -15.21724,12.16561 -12.11513,11.79163 -22.76459,26.24377 -31.62221,42.91378 -3.42909,6.45354 -3.16087,6.66515 -3.16087,-2.49373 z"
   id="path31"
   transform="scale(2.3371206)" /><path
   style="fill:#603813;fill-opacity:1;stroke-width:0.0928813"
   d="m 115.08008,223.09257 c -3.4e-4,-0.23329 0.47791,-3.50195 0.74235,-5.07365 2.02432,-12.03157 5.54043,-25.35164 10.14517,-38.43292 0.90715,-2.57707 2.35192,-6.46558 2.95059,-7.94135 l 0.37679,-0.92882 -0.0285,6.17661 c -0.0157,3.39713 -0.006,7.30511 0.0211,8.6844 l 0.0497,2.5078 -1.05419,2.18271 c -4.59999,9.52425 -8.53273,19.19385 -12.23941,30.09354 -0.52986,1.55808 -0.96345,2.78734 -0.96353,2.73168 z"
   id="path32"
   transform="scale(2.3371206)" /><path
   style="fill:#603813;fill-opacity:1;stroke-width:0.0928813"
   d="m 115.26843,174.97905 c -0.003,-0.11504 1.30882,-3.36595 2.31176,-5.72857 2.46472,-5.80616 5.8924,-13.08606 8.79999,-18.68989 2.41041,-4.6456 2.7594,-5.2688 2.83543,-5.06328 0.036,0.0973 0.0722,1.40574 0.0806,2.90772 l 0.0152,2.73088 -2.03473,3.05607 c -4.54824,6.83126 -7.94115,12.63063 -10.86273,18.56724 -0.62851,1.27712 -1.14397,2.27604 -1.14547,2.21983 z"
   id="path33"
   transform="scale(2.3371206)" /><path
   style="fill:#603813;fill-opacity:1;stroke-width:0.371525"
   d="m 107.74231,375.37826 c -6.27706,-1.2693 -23.515577,-2.90621 -36.856777,-3.49978 l -5.462896,-0.24305 -0.259866,-1.72698 c -0.368539,-2.44917 0.123844,-22.15526 0.790436,-31.63475 2.437356,-34.66119 10.103217,-74.34672 21.745012,-112.57214 2.89535,-9.50678 4.73934,-15.14863 4.779321,-14.62277 0.01773,0.2332 -0.71835,3.24256 -1.635733,6.68746 -7.793018,29.26384 -14.051412,65.13429 -17.071125,97.84441 -1.292906,14.005 -2.42894,35.17391 -2.435528,45.38373 l -0.0023,3.58714 2.191751,-0.19874 c 5.725844,-0.5192 16.745572,2.45755 30.871275,8.33924 6.74385,2.80802 7.24918,3.06494 5.94712,3.02371 -0.51085,-0.0162 -1.68116,-0.18154 -2.60068,-0.36748 z"
   id="path34"
   transform="scale(2.3371206)" /><path
   style="fill:#603813;fill-opacity:1;stroke-width:0.371525"
   d="m 399.76112,92.935254 c 0,-5.711137 -1.37756,-18.958218 -2.98169,-28.672918 -1.96685,-11.911369 -4.22518,-19.863929 -7.61484,-26.815202 -3.36486,-6.90041 -4.17812,-7.571131 -22.01538,-18.156685 -8.23046,-4.88438 -14.8189,-8.929214 -14.64098,-8.988521 0.73616,-0.245389 24.09416,8.145852 32.57765,11.703355 4.57002,1.916415 12.66814,5.915854 13.97723,6.902973 0.78053,0.588563 3.41161,5.832412 5.0661,10.096945 5.46392,14.083611 7.0193,28.656275 4.2758,40.060884 l -0.64217,2.66946 -0.24156,-6.501691 c -0.27011,-7.270113 -1.06827,-13.705 -2.21174,-17.831367 -0.85959,-3.101938 -2.16256,-6.317771 -2.55978,-6.317771 -0.14498,0 -0.13208,0.961321 0.0287,2.13627 1.27372,9.310715 1.09857,23.430827 -0.39723,32.025487 -0.68297,3.924295 -2.19152,10.049742 -2.475,10.049742 -0.0798,0 -0.14506,-1.062432 -0.14506,-2.360961 z"
   id="path35"
   transform="scale(2.3371206)" /><path
   style="fill:#603813;fill-opacity:1;stroke-width:0.371525"
   d="m 325.26,24.743461 c -1.48855,-1.434272 -6.04949,-4.241596 -10.02086,-6.167977 -17.60714,-8.540638 -40.62103,-9.5530698 -66.43831,-2.92277 -2.82515,0.725547 -5.2103,1.245521 -5.30032,1.155498 -0.25665,-0.256651 13.92661,-4.904082 20.00821,-6.556091 14.7622,-4.010016 26.77621,-5.3695984 34.50633,-3.9049566 5.45403,1.0333859 11.18999,3.617745 16.65776,7.5052196 3.80244,2.703461 12.72906,11.597093 11.6401,11.597093 -0.1761,0 -0.64991,-0.317708 -1.05291,-0.706016 z"
   id="path36"
   transform="scale(2.3371206)" /><path
   style="fill:#603813;fill-opacity:1;stroke-width:0.371525"
   d="m 509.73258,373.72129 c 13.83143,-6.11166 26.69993,-9.77095 32.84586,-9.34005 l 2.56656,0.17994 -0.24635,-10.45018 c -1.00444,-42.60906 -7.26313,-88.44047 -17.76374,-130.0813 -3.25369,-12.90272 -3.3722,-13.67383 -1.02773,-6.68745 4.48003,13.35022 10.90033,37.26055 14.42623,53.7258 7.12516,33.27302 10.20068,58.39163 10.69647,87.36089 l 0.22731,13.28203 -1.45011,0.004 c -8.18512,0.0201 -26.17896,1.48415 -36.64221,2.98146 -4.23457,0.60597 -7.82908,1.09628 -7.98779,1.08957 -0.15871,-0.007 1.80127,-0.93563 4.3555,-2.06426 z"
   id="path37"
   transform="scale(2.3371206)" /><path
   style="fill:#603813;fill-opacity:1;stroke-width:1.05083"
   d="m 499.24096,207.21736 c -7.58789,-19.95642 -22.22655,-44.75099 -35.45322,-60.04966 -6.94184,-8.02931 -21.95718,-21.37386 -22.94192,-20.38912 -0.26248,0.26248 1.19412,2.81796 3.23691,5.67883 4.27667,5.98938 12.53544,20.38009 13.57404,23.65242 0.63083,1.98755 0.4737,2.09706 -1.49626,1.04277 -1.2106,-0.6479 -2.2011,-1.88731 -2.2011,-2.75424 0,-2.58767 -3.25573,-6.75647 -5.27664,-6.75647 -1.26933,0 -1.73102,-0.59894 -1.41755,-1.83895 0.60648,-2.39911 -4.36927,-7.74279 -6.46194,-6.93976 -1.14176,0.43814 -1.39364,0.12209 -0.90907,-1.14066 0.80249,-2.09126 -3.44128,-7.02692 -5.84946,-6.80315 -2.94533,0.27369 -3.47619,-0.0725 -2.2946,-1.49619 1.79334,-2.16085 -3.14755,-6.40766 -6.4814,-5.57092 -2.19039,0.54976 -2.47535,0.31654 -2.0899,-1.71043 0.3319,-1.74538 -0.3554,-2.81924 -2.68131,-4.18934 -1.7202,-1.0133 -3.8796,-1.5538 -4.79868,-1.20112 -1.09337,0.41957 -1.67106,0.0668 -1.67106,-1.02044 0,-1.87956 -5.82477,-5.28899 -7.38669,-4.32367 -1.8662,1.15338 -1.05736,-1.57354 2.65087,-8.93711 3.99786,-7.938684 8.93914,-23.679776 8.93914,-28.476783 V 70.98569 l 5.51687,3.228845 c 20.93211,12.250889 34.00924,23.776165 47.41302,41.786555 10.42064,14.00201 24.8412,38.28655 23.51983,39.60792 -0.22128,0.22128 -2.37365,-2.393 -4.78304,-5.80952 -6.19365,-8.78259 -19.97794,-25.80927 -26.41768,-32.63173 -6.29116,-6.66506 -6.07273,-6.02163 2.29192,6.75135 12.38841,18.91733 20.91317,36.62499 28.68054,59.57529 4.35526,12.8685 8.50311,28.99135 7.67223,29.82222 -0.22506,0.22506 -1.52279,-2.51961 -2.88385,-6.09926 z"
   id="path38"
   transform="scale(2.3371206)" /></g>
</svg>
