<?xml version="1.0" encoding="UTF-8"?>
<!DOCTYPE svg PUBLIC "-//W3C//DTD SVG 1.1//EN" "http://www.w3.org/Graphics/SVG/1.1/DTD/svg11.dtd">
<!-- Creator: CorelDRAW 2021 (64-Bit) -->
<svg xmlns="http://www.w3.org/2000/svg" xml:space="preserve" width="6.43977in" height="4.12205in" version="1.1" style="shape-rendering:geometricPrecision; text-rendering:geometricPrecision; image-rendering:optimizeQuality; fill-rule:evenodd; clip-rule:evenodd"
viewBox="0 0 1444.85 924.84"
 xmlns:xlink="http://www.w3.org/1999/xlink"
 xmlns:xodm="http://www.corel.com/coreldraw/odm/2003">
 <defs>
  <style type="text/css">
   <![CDATA[
    .fil3 {fill:#1C0D02;fill-rule:nonzero}
    .fil5 {fill:#331803;fill-rule:nonzero}
    .fil2 {fill:#331906;fill-rule:nonzero}
    .fil1 {fill:#47260B;fill-rule:nonzero}
    .fil0 {fill:#603813;fill-rule:nonzero}
    .fil4 {fill:#844B1C;fill-rule:nonzero}
    .fil6 {fill:white;fill-rule:nonzero}
   ]]>
  </style>
 </defs>
 <g id="Layer_x0020_1">
  <metadata id="CorelCorpID_0Corel-Layer"/>
  <polygon class="fil0" points="1388.67,45.6 56.18,45.6 -0,85.36 -0,265.17 56.18,304.94 1388.67,304.94 1444.85,265.17 1444.85,85.36 "/>
  <polygon class="fil1" points="261.07,74.11 1205.23,74.11 929.44,106.83 1322.08,144.22 948.16,181.61 1121.08,223.68 985.56,247.05 1284.69,289.12 176.92,289.12 476.05,237.7 326.49,209.66 480.74,186.29 303.14,153.57 420,130.2 172.24,83.46 "/>
  <path class="fil2" d="M1318.51 82.99l0 -12.46 37.39 0 0 12.46 -37.39 0 0 0zm-74.78 0l0 -12.46 37.39 0 0 12.46 -37.39 0 0 0zm-74.78 0l0 -12.46 37.39 0 0 12.46 -37.39 0 0 0zm-74.78 0l0 -12.46 37.39 0 0 12.46 -37.39 0 0 0zm-74.78 0l0 -12.46 37.39 0 0 12.46 -37.39 0 0 0zm-74.78 0l0 -12.46 37.39 0 0 12.46 -37.39 0 0 0zm-74.78 0l0 -12.46 37.39 0 0 12.46 -37.39 0 0 0zm-74.78 0l0 -12.46 37.39 0 0 12.46 -37.39 0 0 0zm-74.78 0l0 -12.46 37.39 0 0 12.46 -37.39 0 0 0zm-74.78 0l0 -12.46 37.39 0 0 12.46 -37.39 0 0 0zm-74.78 0l0 -12.46 37.39 0 0 12.46 -37.39 0 0 0zm-74.85 0l0 -12.46 37.45 0 0 12.46 -37.45 0 0 0zm-74.78 0l0 -12.46 37.39 0 0 12.46 -37.39 0 0 0zm-74.78 0l0 -12.46 37.39 0 0 12.46 -37.39 0 0 0zm-74.78 0l0 -12.46 37.39 0 0 12.46 -37.39 0 0 0zm-74.78 0l0 -12.46 37.39 0 0 12.46 -37.39 0 0 0zm-74.78 0l0 -12.46 37.39 0 0 12.46 -37.39 0 0 0z"/>
  <path class="fil2" d="M1318.51 282.42l0 -12.46 37.39 0 0 12.46 -37.39 0 0 0zm-74.78 0l0 -12.46 37.39 0 0 12.46 -37.39 0 0 0zm-74.78 0l0 -12.46 37.39 0 0 12.46 -37.39 0 0 0zm-74.78 0l0 -12.46 37.39 0 0 12.46 -37.39 0 0 0zm-74.78 0l0 -12.46 37.39 0 0 12.46 -37.39 0 0 0zm-74.78 0l0 -12.46 37.39 0 0 12.46 -37.39 0 0 0zm-74.78 0l0 -12.46 37.39 0 0 12.46 -37.39 0 0 0zm-74.78 0l0 -12.46 37.39 0 0 12.46 -37.39 0 0 0zm-74.78 0l0 -12.46 37.39 0 0 12.46 -37.39 0 0 0zm-74.78 0l0 -12.46 37.39 0 0 12.46 -37.39 0 0 0zm-74.78 0l0 -12.46 37.39 0 0 12.46 -37.39 0 0 0zm-74.85 0l0 -12.46 37.45 0 0 12.46 -37.45 0 0 0zm-74.78 0l0 -12.46 37.39 0 0 12.46 -37.39 0 0 0zm-74.78 0l0 -12.46 37.39 0 0 12.46 -37.39 0 0 0zm-74.78 0l0 -12.46 37.39 0 0 12.46 -37.39 0 0 0zm-74.78 0l0 -12.46 37.39 0 0 12.46 -37.39 0 0 0zm-74.78 0l0 -12.46 37.39 0 0 12.46 -37.39 0 0 0z"/>
  <path class="fil3" d="M499.71 66.78c0,0 -7.64,8.17 -7.64,24.52 0,16.35 13.55,146.34 54.46,187.27 0,0 84.89,-37.77 145.44,-98.32 0,0 -137.8,-103.11 -192.26,-113.47z"/>
  <path class="fil0" d="M944.28 66.78c0,0 -37.64,-27.78 -83.41,-42.49 -45.71,-14.7 -99.67,-34.32 -152.77,-2.45 -53.16,31.87 -168.05,102.08 -239.44,128.3 -160.16,58.84 -335.05,349.77 -328.52,742.02 0,0 143.84,13.08 186.34,32.69 0,0 -35.98,-545.89 192.81,-637.42 228.85,-91.52 212.46,-94.79 284.41,-143.83 71.89,-49.03 140.57,-76.82 140.57,-76.82z"/>
  <path class="fil2" d="M140.14 892.15c-0.06,-2.75 -0.06,-5.48 -0.06,-8.22 46.14,-13.8 168.42,16.4 168.42,16.4 -9.86,-27.78 8.13,-348.13 60.43,-459.27 52.3,-111.14 86.61,-138.92 132.38,-160.17 45.77,-21.24 219.05,-94.8 264.82,-134.02 45.71,-39.22 106.2,-68.64 142.18,-81.72 10.59,-3.86 19.47,-4.97 26.73,-4.68 5.85,3.84 9.24,6.31 9.24,6.31 0,0 -68.68,27.79 -140.57,76.82 -71.95,49.04 -55.56,52.31 -284.41,143.83 -228.79,91.53 -192.81,637.42 -192.81,637.42 -42.5,-19.61 -186.34,-32.69 -186.34,-32.69z"/>
  <path class="fil0" d="M697.69 170.84c0,0 -102.07,86.42 -160.96,109.88 0,0 46.88,29.64 148.95,54.33 0,0 52.85,27.17 132.69,-89.51l-120.68 -74.69z"/>
  <path class="fil1" d="M707.18 183.06c0,0 -36.1,60.01 -85.75,88.91 0,0 38.38,-8.89 76.75,-40.01 0,0 -11.27,37.79 -24.83,46.67 0,0 33.82,8.9 78.97,-24.44 0,0 -4.5,28.9 -24.82,46.67 0,0 58.71,-33.34 81.31,-66.68l-101.64 -51.12z"/>
  <path class="fil2" d="M697.69 170.84c0,0 -102.07,86.42 -160.96,109.88 0,0 4,2.53 12.2,6.7 77.56,-35.7 139.53,-95.06 156.28,-111.95l-7.52 -4.63z"/>
  <path class="fil0" d="M499.71 66.78c0,0 37.58,-27.78 83.35,-42.49 45.77,-14.7 99.67,-34.32 152.83,-2.45 53.1,31.87 168.05,102.08 239.44,128.3 160.16,58.84 335.05,349.77 328.52,742.02 0,0 -143.84,13.08 -186.34,32.69 0,0 35.98,-545.89 -192.87,-637.42 -228.79,-91.52 -212.46,-94.79 -284.35,-143.83 -71.95,-49.03 -140.57,-76.82 -140.57,-76.82z"/>
  <path class="fil3" d="M735.89 21.84c19.34,11.62 46.94,28.34 77.62,46.15 -8.13,-19.76 -24.89,-43.95 -46.14,-50.24 -12.32,-3.64 -24.27,-1.11 -33.76,2.8 0.74,0.43 1.48,0.83 2.28,1.28z"/>
  <path class="fil1" d="M640.28 143.6c-20.14,-13.71 -39.98,-25.75 -58.15,-35.99 -44.6,21.47 -97.82,47.38 -152.16,81.76 -106.82,67.56 -163.43,226.64 -163.43,226.64 30.49,-71.91 111.13,-154.72 111.13,-154.72 -95.91,130.75 -108.97,261.5 -108.97,261.5 56.67,-174.33 150.37,-226.63 150.37,-226.63 -45.77,58.84 -58.83,113.32 -58.83,113.32 41.4,-82.81 132.94,-152.54 198.29,-178.69 40.16,-16.07 87.72,-42.83 118.46,-61.08 -10.41,-7.5 -21.62,-15.78 -36.71,-26.09z"/>
  <path class="fil1" d="M739.4 150.13c0,0 85.01,54.48 150.37,80.64 65.36,26.15 156.9,95.88 198.29,178.69 0,0 -13.06,-54.48 -58.83,-113.32 0,0 93.7,52.3 150.37,226.63 0,0 -13.06,-130.75 -108.97,-261.5 0,0 80.64,82.8 111.13,154.72 0,0 -56.61,-159.08 -163.43,-226.64 -106.75,-67.55 -209.2,-102.42 -250.59,-135.11 0,0 41.4,58.84 80.64,82.81 0,0 -100.23,-52.29 -156.9,-93.7 0,0 76.26,91.52 148.15,128.57 0,0 -71.89,-6.54 -100.23,-21.8z"/>
  <path class="fil2" d="M1303.85 892.15c0,-2.75 0,-5.48 0.06,-8.22 -46.2,-13.8 -168.42,16.4 -168.42,16.4 9.79,-27.78 -8.19,-348.13 -60.49,-459.27 -52.3,-111.14 -86.61,-138.92 -132.38,-160.17 -45.77,-21.24 -218.99,-94.8 -264.76,-134.02 -45.77,-39.22 -106.26,-68.64 -142.24,-81.72 -10.6,-3.86 -19.4,-4.97 -26.67,-4.68 -5.91,3.84 -9.24,6.31 -9.24,6.31 0,0 68.62,27.79 140.57,76.82 71.89,49.04 55.56,52.31 284.35,143.83 228.85,91.53 192.87,637.42 192.87,637.42 42.5,-19.61 186.34,-32.69 186.34,-32.69z"/>
  <path class="fil4" d="M1216.62 468.3c0,0 78.48,207.02 71.95,400.97 0,0 -58.83,0 -113.35,10.89 0,0 71.95,-34.87 98.07,-28.33 0,0 4.37,-178.69 -56.67,-383.54z"/>
  <path class="fil4" d="M224.04 468.3c0,0 -78.48,207.02 -71.95,400.97 0,0 58.89,0 113.35,10.89 0,0 -71.95,-34.87 -98.07,-28.33 0,0 -4.37,-178.69 56.67,-383.54z"/>
  <path class="fil4" d="M547.08 47.17c0,0 80.08,-34.32 134.04,-34.32 53.9,0 88.28,53.93 88.28,53.93 0,0 -62.16,-75.18 -222.32,-19.61z"/>
  <path class="fil5" d="M1153.3 859.46c-1.79,-0.09 -3.2,-1.62 -3.08,-3.42l0 0c0.06,-1.36 0.12,-2.72 0.18,-4.08l0 0c0.06,-1.8 1.6,-3.2 3.39,-3.12l0 0c1.79,0.07 3.2,1.6 3.14,3.41l0 0c-0.06,1.37 -0.12,2.73 -0.18,4.1l0 0c-0.12,1.75 -1.54,3.12 -3.26,3.12l0 0c-0.06,0 -0.12,0 -0.18,-0.01l0 0zm0.74 -17.15c-1.79,-0.07 -3.2,-1.59 -3.14,-3.39l0 0c0.18,-4.38 0.37,-8.73 0.49,-13.04l0 0c0,-1.8 1.54,-3.22 3.33,-3.17l0 0c1.79,0.05 3.2,1.56 3.2,3.37l0 0c-0.12,4.32 -0.31,8.69 -0.49,13.09l0 0c-0.06,1.76 -1.48,3.14 -3.26,3.14l0 0c0,0 -0.06,0 -0.12,0l0 0zm0.86 -26.13c-1.85,-0.04 -3.26,-1.53 -3.2,-3.34l0 0c0.06,-4.39 0.18,-8.73 0.25,-13.05l0 0c0,-1.8 1.48,-3.25 3.26,-3.22l0 0c1.85,0.02 3.26,1.5 3.26,3.31l0 0c-0.06,4.34 -0.12,8.7 -0.25,13.1l0 0c-0.06,1.79 -1.48,3.2 -3.26,3.2l0 0c0,0 -0.06,0 -0.06,0l0 0zm0.37 -26.15c-1.79,0 -3.26,-1.47 -3.26,-3.28l0 0c0.06,-2.22 0.06,-4.42 0.06,-6.63l0 0c0,-2.15 0,-4.29 -0.06,-6.41l0 0c0,-1.81 1.48,-3.28 3.26,-3.29l0 0c1.79,-0.01 3.27,1.45 3.33,3.25l0 0c0,2.14 0,4.29 0,6.45l0 0c0,2.21 0,4.43 0,6.65l0 0c-0.06,1.8 -1.48,3.25 -3.33,3.25l0 0c0,0 0,0 0,0l0 0zm-3.39 -29.36c0,-4.39 -0.12,-8.74 -0.18,-13.05l0 0c-0.06,-1.8 1.36,-3.3 3.14,-3.34l0 0c1.85,-0.05 3.33,1.38 3.39,3.2l0 0c0.06,4.32 0.18,8.69 0.25,13.1l0 0c0,1.81 -1.42,3.28 -3.26,3.31l0 0c0,0 0,0 0,0l0 0c-1.85,0 -3.26,-1.44 -3.33,-3.22l0 0zm-0.55 -26.08c-0.12,-4.39 -0.31,-8.73 -0.49,-13.02l0 0c-0.06,-1.81 1.29,-3.34 3.08,-3.41l0 0c1.85,-0.08 3.39,1.32 3.45,3.12l0 0c0.18,4.32 0.31,8.69 0.49,13.1l0 0c0.06,1.8 -1.36,3.31 -3.14,3.38l0 0c-0.06,0 -0.12,0.01 -0.12,0.01l0 0c-1.79,-0.01 -3.2,-1.4 -3.26,-3.17l0 0zm-1.11 -26.05c-0.25,-4.38 -0.49,-8.72 -0.8,-13.01l0 0c-0.12,-1.81 1.29,-3.36 3.08,-3.47l0 0c1.79,-0.12 3.33,1.25 3.45,3.06l0 0c0.31,4.32 0.55,8.68 0.8,13.08l0 0c0.06,1.81 -1.29,3.35 -3.08,3.44l0 0c-0.12,0 -0.18,0.01 -0.18,0.01l0 0c-1.73,0 -3.2,-1.36 -3.26,-3.1l0 0zm-1.66 -26.02c-0.37,-4.37 -0.68,-8.7 -1.05,-12.98l0 0c-0.18,-1.8 1.17,-3.38 2.96,-3.54l0 0c1.79,-0.17 3.39,1.17 3.51,2.97l0 0c0.37,4.31 0.74,8.67 1.05,13.07l0 0c0.19,1.8 -1.17,3.37 -3.02,3.51l0 0c-0.06,0 -0.12,0 -0.25,0l0 0c-1.66,0 -3.08,-1.31 -3.2,-3.03l0 0zm-2.28 -25.96c-0.43,-4.36 -0.86,-8.69 -1.36,-12.95l0 0c-0.18,-1.79 1.11,-3.41 2.9,-3.62l0 0c1.79,-0.2 3.39,1.09 3.57,2.89l0 0c0.49,4.31 0.99,8.65 1.42,13.05l0 0c0.12,1.79 -1.17,3.39 -2.96,3.57l0 0c-0.12,0.01 -0.18,0.01 -0.31,0.01l0 0c-1.66,0 -3.08,-1.26 -3.26,-2.95l0 0zm-2.9 -25.89c-0.49,-4.36 -1.11,-8.66 -1.66,-12.92l0 0c-0.25,-1.79 0.99,-3.44 2.77,-3.69l0 0c1.79,-0.25 3.45,1 3.7,2.8l0 0c0.62,4.28 1.17,8.62 1.72,12.99l0 0c0.18,1.79 -1.05,3.42 -2.89,3.65l0 0c-0.12,0.01 -0.25,0.02 -0.37,0.02l0 0c-1.6,0 -3.02,-1.22 -3.26,-2.86l0 0zm-3.51 -25.8c-0.68,-4.35 -1.36,-8.64 -2.09,-12.86l0 0c-0.25,-1.79 0.92,-3.47 2.71,-3.77l0 0c1.79,-0.29 3.45,0.91 3.76,2.69l0 0c0.74,4.27 1.42,8.59 2.09,12.95l0 0c0.25,1.79 -0.98,3.46 -2.77,3.72l0 0c-0.18,0.02 -0.31,0.04 -0.49,0.04l0 0c-1.6,0 -2.96,-1.16 -3.2,-2.77l0 0zm-4.31 -25.69c-0.74,-4.32 -1.6,-8.59 -2.4,-12.79l0 0c-0.37,-1.77 0.8,-3.49 2.59,-3.83l0 0c1.79,-0.36 3.45,0.79 3.82,2.57l0 0c0.86,4.23 1.66,8.53 2.46,12.89l0 0c0.31,1.77 -0.86,3.47 -2.65,3.8l0 0c-0.18,0.03 -0.37,0.05 -0.55,0.05l0 0c-1.6,0 -2.96,-1.11 -3.26,-2.69l0 0zm-5.05 -25.54c-0.86,-4.3 -1.85,-8.53 -2.77,-12.71l0 0c-0.43,-1.76 0.68,-3.51 2.4,-3.92l0 0c1.79,-0.4 3.51,0.7 3.94,2.45l0 0c0.98,4.21 1.91,8.48 2.83,12.81l0 0c0.37,1.77 -0.74,3.5 -2.46,3.88l0 0c-0.25,0.05 -0.49,0.07 -0.74,0.07l0 0c-1.48,0 -2.83,-1.05 -3.2,-2.58l0 0zm-5.85 -25.36c-1.05,-4.26 -2.16,-8.46 -3.26,-12.58l0 0c-0.43,-1.74 0.55,-3.54 2.34,-4.01l0 0c1.72,-0.47 3.51,0.57 4,2.32l0 0c1.11,4.16 2.22,8.4 3.26,12.7l0 0c0.43,1.75 -0.62,3.52 -2.4,3.96l0 0c-0.25,0.07 -0.49,0.1 -0.74,0.1l0 0c-1.48,0 -2.83,-0.99 -3.2,-2.48l0 0zm-6.78 -25.11c-1.17,-4.23 -2.46,-8.38 -3.7,-12.46l0 0c-0.55,-1.72 0.43,-3.55 2.16,-4.09l0 0c1.73,-0.54 3.51,0.43 4.07,2.16l0 0c1.29,4.12 2.53,8.31 3.76,12.57l0 0c0.55,1.74 -0.49,3.54 -2.22,4.05l0 0c-0.31,0.09 -0.62,0.13 -0.92,0.13l0 0c-1.42,0 -2.71,-0.93 -3.14,-2.36l0 0zm-7.7 -24.83c-1.42,-4.17 -2.83,-8.27 -4.25,-12.28l0 0c-0.62,-1.71 0.25,-3.58 1.97,-4.19l0 0c1.73,-0.61 3.57,0.28 4.19,1.98l0 0c1.48,4.07 2.9,8.21 4.31,12.42l0 0c0.55,1.71 -0.37,3.56 -2.09,4.13l0 0c-0.31,0.11 -0.68,0.17 -1.05,0.17l0 0c-1.36,0 -2.65,-0.86 -3.08,-2.23l0 0zm-8.75 -24.46c-1.6,-4.11 -3.2,-8.14 -4.81,-12.07l0 0c-0.68,-1.68 0.12,-3.59 1.79,-4.27l0 0c1.66,-0.68 3.57,0.11 4.25,1.78l0 0c1.66,3.99 3.26,8.06 4.87,12.22l0 0c0.62,1.69 -0.19,3.58 -1.91,4.23l0 0c-0.37,0.15 -0.74,0.22 -1.17,0.22l0 0c-1.29,0 -2.53,-0.8 -3.02,-2.09l0 0zm-9.86 -24.02c-1.79,-4.04 -3.57,-7.97 -5.42,-11.82l0 0c-0.74,-1.63 -0.06,-3.58 1.6,-4.35l0 0c1.6,-0.78 3.57,-0.07 4.31,1.56l0 0c1.85,3.89 3.63,7.89 5.48,11.96l0 0c0.68,1.65 -0.06,3.59 -1.66,4.31l0 0c-0.43,0.18 -0.92,0.28 -1.36,0.28l0 0c-1.23,0 -2.46,-0.73 -2.96,-1.95l0 0zm-11.09 -23.48c-2.03,-3.94 -4,-7.77 -6.04,-11.49l0 0c-0.86,-1.6 -0.25,-3.57 1.36,-4.43l0 0c1.54,-0.86 3.57,-0.27 4.37,1.32l0 0c2.09,3.78 4.13,7.66 6.1,11.65l0 0c0.86,1.61 0.18,3.57 -1.42,4.39l0 0c-0.49,0.24 -0.99,0.35 -1.48,0.35l0 0c-1.17,0 -2.34,-0.65 -2.89,-1.79l0 0zm-12.38 -22.8c-2.22,-3.82 -4.44,-7.52 -6.65,-11.11l0 0c-0.99,-1.53 -0.49,-3.55 1.05,-4.5l0 0c1.48,-0.96 3.51,-0.49 4.5,1.05l0 0c2.28,3.63 4.5,7.4 6.78,11.28l0 0c0.92,1.56 0.37,3.56 -1.17,4.47l0 0c-0.55,0.3 -1.11,0.44 -1.66,0.44l0 0c-1.11,0 -2.22,-0.59 -2.83,-1.63l0 0zm-13.74 -21.99c-2.46,-3.67 -4.93,-7.22 -7.39,-10.62l0 0c-1.05,-1.47 -0.74,-3.52 0.74,-4.58l0 0c1.48,-1.05 3.51,-0.73 4.56,0.74l0 0c2.53,3.47 5.05,7.07 7.58,10.82l0 0c0.98,1.5 0.55,3.52 -0.92,4.53l0 0c-0.55,0.38 -1.17,0.55 -1.79,0.55l0 0c-1.05,0 -2.09,-0.51 -2.77,-1.45l0 0zm-15.15 -20.98c-2.71,-3.49 -5.42,-6.84 -8.13,-10.03l0 0c-1.17,-1.37 -1.05,-3.44 0.37,-4.61l0 0c1.36,-1.17 3.45,-0.99 4.62,0.38l0 0c2.71,3.26 5.48,6.67 8.32,10.24l0 0c1.11,1.42 0.86,3.47 -0.55,4.58l0 0c-0.62,0.47 -1.36,0.7 -2.03,0.7l0 0c-0.98,0 -1.91,-0.43 -2.59,-1.26l0 0zm-16.69 -19.74c-3.02,-3.29 -6.04,-6.39 -8.99,-9.31l0 0c-1.23,-1.28 -1.23,-3.34 0,-4.62l0 0c1.29,-1.29 3.39,-1.29 4.62,-0.02l0 0c3.02,2.99 6.1,6.17 9.18,9.53l0 0c1.23,1.32 1.11,3.4 -0.18,4.62l0 0c-0.68,0.57 -1.42,0.86 -2.22,0.86l0 0c-0.92,0 -1.79,-0.35 -2.4,-1.05l0 0zm-18.36 -18.21c-3.33,-3.05 -6.59,-5.85 -9.73,-8.42l0 0c-1.42,-1.15 -1.6,-3.2 -0.49,-4.6l0 0c1.17,-1.4 3.2,-1.6 4.62,-0.47l0 0c3.2,2.65 6.59,5.53 10.04,8.64l0 0c1.29,1.21 1.42,3.28 0.18,4.61l0 0c-0.62,0.71 -1.54,1.07 -2.4,1.07l0 0c-0.8,0 -1.54,-0.28 -2.22,-0.84l0 0zm-19.96 -16.3c-3.82,-2.76 -7.39,-5.17 -10.66,-7.24l0 0c-1.54,-0.97 -1.97,-2.99 -0.99,-4.52l0 0c0.92,-1.52 2.96,-1.98 4.5,-1l0 0c3.39,2.14 7.08,4.63 10.96,7.48l0 0c1.48,1.06 1.79,3.1 0.74,4.57l0 0c-0.62,0.88 -1.66,1.35 -2.65,1.35l0 0c-0.68,0 -1.36,-0.21 -1.91,-0.63l0 0zm-21.75 -13.72c-3.63,-1.95 -6.59,-3.28 -8.5,-4.13l0 0c-1.97,-0.84 -2.96,-1.16 -2.96,-1.16l0 0c-1.66,-0.59 -2.59,-2.44 -2.03,-4.15l0 0c0.62,-1.71 2.46,-2.62 4.19,-2.04l0 0c0.12,0.05 4.68,1.62 12.38,5.7l0 0c1.6,0.85 2.22,2.83 1.36,4.43l0 0c-0.62,1.1 -1.72,1.74 -2.89,1.74l0 0c-0.49,0 -1.05,-0.12 -1.54,-0.39l0 0z"/>
  <path class="fil5" d="M290.45 876.45c-1.79,-0.01 -3.26,-1.48 -3.2,-3.28l0 0c0,-2.62 0.06,-7.1 0.12,-13.19l0 0c0,-1.8 1.48,-3.25 3.33,-3.22l0 0c1.79,0.02 3.2,1.51 3.2,3.32l0 0c-0.06,6.07 -0.12,10.53 -0.12,13.12l0 0c0,1.8 -1.48,3.25 -3.26,3.25l0 0c0,0 0,0 -0.06,0l0 0zm0.37 -26.29c-1.85,-0.04 -3.26,-1.53 -3.2,-3.33l0 0c0.06,-4.02 0.18,-8.41 0.31,-13.13l0 0c0.06,-1.81 1.54,-3.23 3.33,-3.18l0 0c1.85,0.05 3.26,1.54 3.2,3.34l0 0c-0.12,4.71 -0.25,9.09 -0.31,13.11l0 0c-0.06,1.78 -1.48,3.2 -3.26,3.2l0 0c-0.06,0 -0.06,0 -0.06,-0.01l0 0zm0.68 -26.22c-1.85,-0.06 -3.26,-1.57 -3.2,-3.37l0 0c0.12,-4.19 0.31,-8.57 0.49,-13.12l0 0c0.06,-1.81 1.54,-3.21 3.39,-3.15l0 0c1.79,0.07 3.2,1.59 3.14,3.39l0 0c-0.19,4.53 -0.37,8.91 -0.49,13.08l0 0c-0.06,1.76 -1.48,3.17 -3.27,3.17l0 0c0,0 -0.06,-0.01 -0.06,-0.01l0 0zm0.92 -26.19c-1.79,-0.08 -3.2,-1.61 -3.14,-3.41l0 0c0.18,-4.24 0.37,-8.61 0.62,-13.1l0 0c0.06,-1.8 1.6,-3.2 3.39,-3.12l0 0c1.79,0.09 3.2,1.62 3.14,3.42l0 0c-0.25,4.47 -0.43,8.83 -0.62,13.07l0 0c-0.06,1.76 -1.54,3.14 -3.26,3.14l0 0c-0.06,0 -0.12,0 -0.12,0l0 0zm1.17 -26.17c-1.79,-0.1 -3.14,-1.64 -3.08,-3.44l0 0c0.25,-4.29 0.49,-8.65 0.74,-13.1l0 0 0 0.01c0.06,-1.81 1.6,-3.18 3.45,-3.07l0 0c1.79,0.09 3.14,1.64 3.08,3.45l0 0c-0.25,4.43 -0.49,8.78 -0.74,13.06l0 0c-0.06,1.75 -1.54,3.1 -3.26,3.1l0 0c-0.06,0 -0.12,0 -0.18,-0.01l0 0zm1.48 -26.16c-1.79,-0.11 -3.14,-1.66 -3.02,-3.47l0 0c0.25,-4.31 0.55,-8.67 0.8,-13.08l0 0c0.18,-1.8 1.73,-3.16 3.51,-3.04l0 0c1.79,0.13 3.14,1.69 3.02,3.49l0 0c-0.31,4.41 -0.55,8.77 -0.8,13.05l0 0c-0.12,1.73 -1.6,3.07 -3.26,3.07l0 0c-0.12,0 -0.19,-0.01 -0.25,-0.01l0 0zm1.79 -26.13c-1.85,-0.14 -3.2,-1.71 -3.02,-3.51l0 0c0.31,-4.32 0.62,-8.67 0.99,-13.07l0 0c0.12,-1.8 1.72,-3.14 3.51,-2.99l0 0c1.79,0.14 3.14,1.71 3.02,3.52l0 0c-0.37,4.39 -0.68,8.73 -1.05,13.04l0 0c-0.12,1.72 -1.54,3.02 -3.2,3.02l0 0c-0.12,0 -0.18,0 -0.25,-0.01l0 0zm2.03 -26.11c-1.79,-0.15 -3.14,-1.74 -2.96,-3.54l0 0c0.37,-4.32 0.74,-8.68 1.11,-13.06l0 0c0.18,-1.79 1.79,-3.12 3.57,-2.96l0 0c1.79,0.17 3.14,1.76 2.96,3.56l0 0c-0.37,4.36 -0.8,8.7 -1.17,13.02l0 0c-0.12,1.71 -1.54,2.99 -3.26,2.99l0 0c-0.06,0 -0.18,0 -0.25,-0.01l0 0zm2.34 -26.08c-1.79,-0.18 -3.08,-1.79 -2.89,-3.57l0 0c0.43,-4.34 0.86,-8.69 1.36,-13.05l0 0c0.18,-1.8 1.79,-3.1 3.57,-2.91l0 0c1.79,0.2 3.08,1.81 2.89,3.6l0 0c-0.43,4.35 -0.92,8.68 -1.36,13l0 0c-0.12,1.68 -1.54,2.94 -3.2,2.94l0 0c-0.12,0 -0.25,-0.01 -0.37,-0.01l0 0zm2.77 -26.04c-1.85,-0.21 -3.14,-1.82 -2.9,-3.62l0 0c0.49,-4.33 0.99,-8.68 1.54,-13.03l0 0.01c0.19,-1.79 1.85,-3.07 3.63,-2.85l0 0c1.79,0.21 3.08,1.84 2.83,3.63l0 0c-0.49,4.33 -1.05,8.66 -1.54,12.97l0 0c-0.18,1.68 -1.6,2.9 -3.2,2.9l0 0c-0.12,0 -0.25,-0.01 -0.37,-0.02l0 0zm3.08 -26.04c-1.79,-0.23 -3.02,-1.87 -2.77,-3.67l0 0c0.55,-4.34 1.11,-8.67 1.73,-13l0 0c0.25,-1.79 1.91,-3.04 3.7,-2.78l0 0c1.79,0.25 3.02,1.9 2.77,3.69l0 0c-0.62,4.31 -1.17,8.64 -1.72,12.95l0 0c-0.25,1.64 -1.66,2.84 -3.26,2.84l0 0c-0.12,0 -0.25,-0.01 -0.43,-0.03l0 0zm3.57 -25.92c-1.79,-0.27 -3.02,-1.95 -2.77,-3.72l0 0c0.68,-4.34 1.36,-8.66 2.03,-12.98l0 0c0.31,-1.77 1.97,-2.99 3.76,-2.7l0 0c1.79,0.28 2.96,1.96 2.71,3.74l0 0c-0.68,4.29 -1.36,8.59 -2.03,12.91l0 0c-0.25,1.63 -1.6,2.79 -3.2,2.79l0 0c-0.18,0 -0.31,-0.01 -0.49,-0.03l0 0zm4.07 -25.87c-1.79,-0.31 -2.96,-2 -2.65,-3.78l0 0c0.74,-4.33 1.48,-8.64 2.28,-12.93l0 0c0.37,-1.77 2.03,-2.95 3.82,-2.61l0 0c1.79,0.33 2.96,2.03 2.65,3.8l0 0c-0.8,4.25 -1.54,8.54 -2.28,12.85l0 0c-0.31,1.59 -1.66,2.72 -3.26,2.72l0 0c-0.19,0 -0.37,-0.01 -0.55,-0.05l0 0zm4.68 -25.76c-1.79,-0.35 -2.9,-2.08 -2.59,-3.84l0 0c0.86,-4.34 1.79,-8.62 2.65,-12.87l0 0c0.43,-1.77 2.16,-2.89 3.94,-2.51l0 0c1.73,0.38 2.83,2.11 2.46,3.89l0 0c-0.86,4.21 -1.79,8.48 -2.65,12.77l0 0c-0.31,1.55 -1.66,2.63 -3.2,2.63l0 0c-0.18,0 -0.37,-0.02 -0.62,-0.06l0 0zm5.42 -25.63c-1.79,-0.41 -2.9,-2.16 -2.46,-3.92l0 0c0.99,-4.32 2.03,-8.58 3.08,-12.78l0 0c0.43,-1.76 2.22,-2.82 3.94,-2.38l0 0c1.79,0.44 2.83,2.22 2.4,3.97l0 0c-1.05,4.16 -2.09,8.39 -3.08,12.66l0 0c-0.31,1.52 -1.66,2.53 -3.14,2.53l0 0c-0.25,0 -0.49,-0.02 -0.74,-0.09l0 0zm6.28 -25.41c-1.79,-0.49 -2.77,-2.28 -2.34,-4.02l0 0c1.17,-4.29 2.4,-8.52 3.63,-12.67l0 0c0.55,-1.73 2.34,-2.71 4.07,-2.19l0 0c1.73,0.52 2.77,2.35 2.22,4.08l0 0c-1.23,4.09 -2.4,8.26 -3.57,12.5l0 0c-0.43,1.45 -1.73,2.41 -3.14,2.41l0 0c-0.31,0 -0.62,-0.03 -0.86,-0.11l0 0zm7.39 -25.13c-1.73,-0.57 -2.65,-2.42 -2.09,-4.12l0 0c1.42,-4.26 2.83,-8.42 4.37,-12.46l0 0c0.62,-1.69 2.46,-2.56 4.19,-1.94l0 0c1.66,0.63 2.53,2.51 1.91,4.21l0 0c-1.48,3.97 -2.9,8.06 -4.25,12.25l0 0c-0.49,1.37 -1.79,2.24 -3.14,2.24l0 0c-0.31,0 -0.68,-0.05 -0.99,-0.17l0 0zm8.87 -24.62c-1.66,-0.69 -2.46,-2.61 -1.79,-4.27l0 0c1.72,-4.18 3.51,-8.23 5.36,-12.11l0 0c0.8,-1.63 2.77,-2.32 4.37,-1.55l0 0c1.66,0.78 2.34,2.72 1.54,4.35l0 0c-1.79,3.79 -3.51,7.74 -5.24,11.82l0 0c-0.49,1.25 -1.73,2.01 -3.02,2.01l0 0c-0.43,0 -0.86,-0.08 -1.23,-0.25l0 0zm10.96 -23.75c-1.6,-0.87 -2.16,-2.87 -1.29,-4.45l0 0c0.12,-0.2 0.25,-0.41 0.31,-0.6l0 0c2.1,-3.68 4.13,-7.28 6.22,-10.81l0 0c0.92,-1.55 2.96,-2.07 4.5,-1.15l0 0c1.54,0.92 2.09,2.93 1.17,4.48l0 0c-2.09,3.49 -4.13,7.04 -6.16,10.67l0 0c-0.12,0.18 -0.25,0.38 -0.31,0.59l0 0c-0.62,1.07 -1.72,1.68 -2.89,1.68l0 0c-0.55,0 -1.05,-0.14 -1.54,-0.41l0 0zm13.12 -22.58c-1.48,-0.97 -1.97,-2.99 -0.98,-4.51l0 0c2.4,-3.77 4.74,-7.44 7.21,-11.03l0 0c0.99,-1.5 3.02,-1.9 4.5,-0.89l0 0c1.54,1 1.91,3.04 0.92,4.53l0 0c-2.4,3.53 -4.74,7.15 -7.08,10.87l0 0c-0.62,0.98 -1.73,1.52 -2.77,1.52l0 0c-0.62,0 -1.23,-0.15 -1.79,-0.5l0 0zm14.48 -21.79c-1.48,-1.06 -1.85,-3.1 -0.74,-4.57l0 0c2.59,-3.62 5.17,-7.15 7.82,-10.58l0 0c1.11,-1.44 3.14,-1.71 4.56,-0.62l0 0c1.42,1.1 1.73,3.15 0.62,4.58l0 0c-2.59,3.38 -5.17,6.86 -7.7,10.42l0 0c-0.68,0.89 -1.66,1.37 -2.65,1.37l0 0c-0.68,0 -1.36,-0.2 -1.91,-0.61l0 0zm15.71 -20.88c-1.42,-1.15 -1.6,-3.21 -0.49,-4.6l0 0c2.83,-3.46 5.67,-6.82 8.5,-10.07l0 0c1.23,-1.36 3.26,-1.49 4.62,-0.31l0 0c1.36,1.18 1.54,3.25 0.31,4.61l0 0c-2.77,3.19 -5.54,6.49 -8.32,9.91l0 0c-0.68,0.78 -1.6,1.2 -2.59,1.2l0 0c-0.68,0 -1.42,-0.24 -2.03,-0.73l0 0zm17 -19.84c-1.29,-1.23 -1.36,-3.3 -0.12,-4.63l0 0c3.02,-3.26 6.1,-6.43 9.12,-9.48l0 0c1.29,-1.27 3.39,-1.27 4.62,0l0 0c1.29,1.28 1.29,3.35 0,4.62l0 0c-2.96,3.01 -5.98,6.1 -8.99,9.33l0 0c-0.62,0.69 -1.48,1.03 -2.34,1.03l0 0c-0.8,0 -1.6,-0.29 -2.28,-0.87l0 0zm18.36 -18.65c-1.23,-1.31 -1.17,-3.38 0.12,-4.62l0 0c3.26,-3.06 6.53,-6 9.79,-8.83l0 0c1.36,-1.18 3.45,-1.04 4.62,0.33l0 0c1.17,1.36 1.05,3.43 -0.31,4.61l0 0c-3.2,2.78 -6.41,5.67 -9.61,8.68l0 0c-0.68,0.59 -1.48,0.88 -2.28,0.88l0 0c-0.86,0 -1.73,-0.35 -2.34,-1.04l0 0zm19.53 -17.33c-1.11,-1.4 -0.92,-3.46 0.49,-4.6l0 0c3.51,-2.83 6.96,-5.54 10.41,-8.11l0 -0.01c1.42,-1.08 3.51,-0.79 4.56,0.65l0 0c1.11,1.45 0.8,3.49 -0.62,4.58l0 0c-3.39,2.54 -6.78,5.19 -10.23,7.96l0 0c-0.62,0.49 -1.36,0.73 -2.03,0.73l0 0c-0.98,0 -1.91,-0.42 -2.59,-1.21l0 0zm20.76 -15.9c-1.05,-1.48 -0.68,-3.52 0.8,-4.55l0 0c3.76,-2.59 7.39,-5.03 10.96,-7.36l0 0c1.54,-0.98 3.51,-0.55 4.5,0.97l0 0c0.99,1.51 0.55,3.54 -0.92,4.52l0 0c-3.57,2.27 -7.15,4.68 -10.78,7.23l0 0c-0.55,0.4 -1.23,0.59 -1.85,0.59l0 0c-1.05,0 -2.03,-0.49 -2.71,-1.4l0 0zm21.81 -14.4c-0.92,-1.55 -0.37,-3.55 1.17,-4.48l0 0c3.88,-2.35 7.7,-4.53 11.4,-6.6l0 0c1.6,-0.88 3.57,-0.3 4.44,1.27l0 0c0.86,1.58 0.31,3.57 -1.23,4.45l0 0c-3.7,2.01 -7.39,4.18 -11.27,6.49l0 0c-0.49,0.31 -1.11,0.46 -1.66,0.46l0 0c-1.11,0 -2.22,-0.57 -2.83,-1.59l0 0zm22.79 -12.9c-0.86,-1.6 -0.25,-3.58 1.36,-4.41l0 0c4.13,-2.13 8.07,-4.09 11.77,-5.9l0 0c1.66,-0.79 3.63,-0.12 4.37,1.5l0 0c0.8,1.63 0.12,3.58 -1.48,4.37l0 0c-3.7,1.79 -7.58,3.73 -11.64,5.83l0 0c-0.49,0.25 -0.99,0.36 -1.48,0.36l0 0c-1.17,0 -2.34,-0.64 -2.9,-1.76l0 0zm23.41 -11.61c-0.74,-1.64 -0.06,-3.59 1.6,-4.36l0 0c3.76,-1.77 7.15,-3.38 10.23,-4.85l0 0c0.49,-0.24 0.99,-0.5 1.54,-0.75l0 -0.01c1.6,-0.79 3.57,-0.12 4.37,1.5l0 0c0.8,1.63 0.12,3.58 -1.54,4.37l0 0c-0.49,0.25 -1.05,0.51 -1.54,0.76l0 0c-3.08,1.5 -6.53,3.12 -10.29,4.88l0 0c-0.43,0.21 -0.92,0.31 -1.42,0.31l0 0c-1.23,0 -2.4,-0.69 -2.96,-1.87l0 0zm23.59 -11.38c-0.8,-1.61 -0.18,-3.59 1.42,-4.4l0 0c3.7,-1.87 7.64,-3.86 11.64,-5.95l0 0.01c1.6,-0.83 3.57,-0.2 4.44,1.4l0 0c0.8,1.61 0.18,3.58 -1.42,4.4l0 0c-4.07,2.09 -7.95,4.1 -11.7,5.98l0 0c-0.43,0.24 -0.99,0.34 -1.48,0.34l0 0c-1.17,0 -2.34,-0.65 -2.9,-1.78l0 0zm23.29 -11.96c-0.8,-1.61 -0.18,-3.58 1.42,-4.41l0 0c3.82,-2 7.7,-4.04 11.58,-6.07l0 0c1.6,-0.84 3.57,-0.23 4.37,1.36l0 0c0.86,1.6 0.25,3.58 -1.36,4.42l0 0c-3.88,2.04 -7.76,4.08 -11.58,6.07l0 0c-0.49,0.26 -0.99,0.38 -1.54,0.38l0 0c-1.17,-0.01 -2.28,-0.64 -2.9,-1.76l0 0zm23.22 -12.18c-0.86,-1.6 -0.25,-3.59 1.36,-4.42l0 0c3.88,-2.08 7.76,-4.13 11.52,-6.15l0 0c1.6,-0.85 3.57,-0.24 4.44,1.35l0 0c0.86,1.59 0.25,3.57 -1.36,4.42l0 0c-3.76,2.01 -7.64,4.07 -11.58,6.15l0 0c-0.49,0.25 -0.99,0.38 -1.48,0.38l0 0c-1.23,0 -2.34,-0.63 -2.9,-1.73l0 0zm23.1 -12.31c-0.86,-1.59 -0.25,-3.58 1.36,-4.43l0 0c4.07,-2.19 7.95,-4.27 11.52,-6.2l0 0c1.6,-0.86 3.57,-0.26 4.44,1.34l0 0c0.86,1.58 0.25,3.57 -1.36,4.42l0 0c-3.57,1.92 -7.45,4.01 -11.52,6.2l0 0c-0.49,0.26 -1.05,0.39 -1.54,0.39l0 0c-1.17,0 -2.34,-0.63 -2.9,-1.73l0 0zm23.1 -12.41c-0.86,-1.6 -0.31,-3.58 1.29,-4.43l0 0c7.15,-3.88 11.52,-6.26 11.52,-6.27l0 0c1.6,-0.86 3.57,-0.28 4.44,1.31l0 0c0.86,1.58 0.31,3.56 -1.29,4.42l0 0c0,0.01 -4.37,2.39 -11.58,6.27l0 0c-0.49,0.27 -0.99,0.39 -1.54,0.39l0 0c-1.17,0 -2.28,-0.62 -2.83,-1.71l0 0z"/>
  <path class="fil0" d="M933.63 56.83c-45.58,-22.07 -72.94,-42.42 -143.84,-47.4 -2.09,-0.14 -3.7,-1.58 -5.48,-2.24 13.86,9.83 28.34,26.46 38.99,54.68 27.17,71.92 30.86,168.83 -56.12,266.3 53.22,-10.94 150.06,-27.83 150.06,-27.83 9.8,-6.54 50.7,-68.64 58.83,-122.57 8.19,-53.93 -7.82,-104.18 -42.44,-120.95z"/>
  <path class="fil4" d="M816.77 21.02c0,0 93.14,29.41 117.66,47.4 0,0 37.64,63.74 17.99,125.85 0,0 1.66,-53.93 -11.46,-75.18 0,0 9.86,58.83 -6.53,106.23 0,0 -3.26,-130.75 -40.84,-158.54l-76.82 -45.76z"/>
  <path class="fil2" d="M721.6 14.48l15.65 8.17c0,0 20.7,-17.98 48.48,6.54 45.89,40.53 42.5,120.94 29.38,192.86 -13.06,71.91 -82.54,107.72 -82.54,107.72 17.49,3.74 26.61,0.02 34.62,-1.6 86.98,-97.47 83.29,-194.38 56.12,-266.3 -10.72,-28.36 -25.32,-45.03 -39.24,-54.84 -0.49,-0.23 -1.11,-0.48 -1.6,-0.72 -39.24,-17.98 -60.86,8.17 -60.86,8.17z"/>
  <path class="fil5" d="M815.29 205.34c0,0 -3.45,-1.75 -9.24,-4.83l0 -0.01c-1.6,-0.84 -2.22,-2.82 -1.36,-4.41l0 0c0.8,-1.59 2.77,-2.21 4.37,-1.36l0 0c5.85,3.06 9.18,4.8 9.18,4.8l0 0c1.6,0.83 2.28,2.81 1.42,4.41l0 0c-0.55,1.12 -1.73,1.76 -2.9,1.76l0 0c-0.49,0 -1.05,-0.12 -1.48,-0.36l0 0zm-20.88 -10.99c-3.51,-1.88 -7.39,-3.97 -11.52,-6.22l0 0c-1.6,-0.86 -2.22,-2.84 -1.36,-4.42l0 0c0.86,-1.6 2.83,-2.19 4.44,-1.33l0 0c4.13,2.25 8.01,4.32 11.52,6.2l0 0c1.6,0.84 2.22,2.82 1.36,4.42l0 0c-0.55,1.1 -1.72,1.74 -2.89,1.74l0 0c-0.49,0 -1.05,-0.13 -1.54,-0.39l0 0zm-23.1 -12.48c-3.7,-2.02 -7.52,-4.14 -11.46,-6.33l0 0c-1.6,-0.87 -2.16,-2.86 -1.29,-4.44l0 0c0.86,-1.58 2.9,-2.15 4.44,-1.27l0 0c3.94,2.17 7.76,4.28 11.46,6.3l0 0c1.6,0.86 2.22,2.85 1.29,4.44l0 0c-0.55,1.08 -1.66,1.7 -2.83,1.7l0 0c-0.55,0 -1.05,-0.14 -1.6,-0.41l0 0zm-22.92 -12.71c-3.76,-2.11 -7.58,-4.26 -11.46,-6.45l0 0c-1.54,-0.89 -2.09,-2.89 -1.23,-4.45l0 0c0.92,-1.58 2.9,-2.13 4.5,-1.23l0 0c3.82,2.19 7.64,4.34 11.4,6.44l0 0c1.54,0.88 2.09,2.88 1.23,4.45l0 0c-0.62,1.07 -1.72,1.67 -2.83,1.67l0 0c-0.55,0 -1.11,-0.13 -1.6,-0.42l0 0zm-22.85 -12.98c-3.76,-2.19 -7.58,-4.4 -11.33,-6.61l0 -0.01c-1.54,-0.91 -2.03,-2.92 -1.17,-4.47l0 0c0.92,-1.55 2.96,-2.07 4.5,-1.15l0 0c3.76,2.2 7.52,4.41 11.27,6.59l0 0c1.6,0.91 2.16,2.9 1.23,4.47l0 0c-0.62,1.04 -1.72,1.63 -2.83,1.63l0 0c-0.55,0 -1.11,-0.14 -1.66,-0.44l0 0zm-22.61 -13.34c-3.82,-2.29 -7.58,-4.58 -11.21,-6.85l0 0c-1.54,-0.95 -2.03,-2.97 -1.05,-4.5l0 0c0.92,-1.53 2.96,-2.01 4.5,-1.06l0 0c3.63,2.26 7.33,4.53 11.15,6.81l0 0c1.54,0.93 2.03,2.95 1.11,4.49l0 0c-0.62,1.02 -1.72,1.58 -2.83,1.58l0 0c-0.55,0 -1.11,-0.15 -1.66,-0.47l0 0zm-22.36 -13.86c-3.82,-2.45 -7.52,-4.86 -11.03,-7.23l0 0c-1.48,-1.01 -1.85,-3.04 -0.86,-4.54l0 0c0.99,-1.5 3.02,-1.89 4.56,-0.89l0 0c3.45,2.33 7.08,4.72 10.9,7.15l0 0c1.48,0.97 1.91,2.99 0.98,4.52l0 0c-0.68,0.97 -1.72,1.5 -2.77,1.5l0 0c-0.62,0 -1.23,-0.16 -1.79,-0.51l0 0zm-21.87 -14.76c-3.88,-2.8 -7.45,-5.49 -10.6,-8.05l0 0c-1.36,-1.13 -1.6,-3.19 -0.43,-4.6l0 0c1.11,-1.4 3.2,-1.61 4.56,-0.48l0 0c3.02,2.46 6.47,5.08 10.29,7.82l0 0c1.48,1.06 1.79,3.09 0.74,4.56l0 0c-0.62,0.89 -1.6,1.36 -2.65,1.36l0 0c-0.68,0 -1.29,-0.2 -1.91,-0.62l0 0zm-20.45 -16.76c-3.14,-2.67 -6.53,-5.21 -10.1,-7.64l0 0c-1.54,-1 -1.91,-3.04 -0.92,-4.54l0 0c0.99,-1.5 3.02,-1.9 4.56,-0.89l0 0c3.76,2.55 7.39,5.25 10.72,8.11l0 0c1.36,1.18 1.54,3.24 0.37,4.61l0 0c-0.68,0.75 -1.6,1.14 -2.53,1.14l0 0c-0.74,0 -1.48,-0.26 -2.09,-0.79l0 0zm-21.07 -14.27c-3.76,-2.04 -7.58,-3.99 -11.52,-5.82l0 0.01c-1.6,-0.78 -2.34,-2.72 -1.54,-4.35l0 0c0.74,-1.64 2.71,-2.35 4.31,-1.58l0 0c4.07,1.89 8.01,3.89 11.89,6.01l0 0c1.54,0.87 2.16,2.86 1.29,4.44l0 0c-0.62,1.08 -1.73,1.69 -2.9,1.69l0 0c-0.49,0 -1.05,-0.13 -1.54,-0.4l0 0zm-23.35 -10.98c-4.07,-1.64 -8.13,-3.18 -12.14,-4.6l0 0c-1.66,-0.61 -2.59,-2.48 -1.97,-4.17l0 0c0.62,-1.71 2.46,-2.59 4.19,-1.98l0 0c4.07,1.45 8.19,3.02 12.38,4.71l0 0c1.66,0.68 2.46,2.58 1.79,4.25l0 0c-0.49,1.27 -1.73,2.04 -3.02,2.04l0 0c-0.43,0 -0.8,-0.07 -1.23,-0.24l0 0zm-24.39 -8.73c-4.37,-1.38 -8.56,-2.62 -12.44,-3.7l0 0c-1.73,-0.49 -2.77,-2.29 -2.28,-4.03l0 0c0.49,-1.74 2.28,-2.76 4,-2.27l0 0c3.94,1.1 8.25,2.35 12.69,3.76l0 0c1.73,0.55 2.65,2.38 2.09,4.11l0 0c-0.43,1.39 -1.72,2.28 -3.08,2.28l0 0c-0.37,0 -0.68,-0.05 -0.99,-0.15l0 0zm-25.01 -7c-7.82,-1.92 -12.63,-2.84 -12.69,-2.84l0 0c-1.72,-0.33 -2.89,-2.06 -2.59,-3.82l0 0c0.37,-1.78 2.09,-2.94 3.82,-2.6l0 0c0.06,0.01 5.05,0.96 13,2.91l0 0c1.72,0.42 2.83,2.2 2.4,3.95l0 0c-0.37,1.49 -1.72,2.5 -3.2,2.5l0 0c-0.25,0 -0.49,-0.03 -0.74,-0.1l0 0z"/>
  <path class="fil5" d="M581.45 284.84c-0.37,-1.77 0.8,-3.51 2.53,-3.88l0 0c0.62,-0.13 1.23,-0.26 1.85,-0.39l0 -0.01c1.73,-0.39 3.51,0.71 3.88,2.48l0 0c0.43,1.76 -0.68,3.51 -2.46,3.91l0 0c-0.62,0.15 -1.23,0.28 -1.91,0.42l0 0c-0.18,0.05 -0.43,0.07 -0.68,0.07l0 0c-1.48,0 -2.83,-1.05 -3.2,-2.59l0 0zm14.6 -3.56c-0.55,-1.72 0.37,-3.56 2.09,-4.12l0 0c4.07,-1.34 8.07,-2.85 11.95,-4.5l0 0c1.66,-0.71 3.57,0.06 4.25,1.72l0 0c0.74,1.66 -0.06,3.58 -1.73,4.3l0 0c-4,1.72 -8.19,3.3 -12.51,4.69l0 0c-0.31,0.11 -0.68,0.16 -0.99,0.16l0 0c-1.36,0 -2.65,-0.88 -3.08,-2.26l0 0zm24.21 -9.7c-0.8,-1.6 -0.18,-3.58 1.42,-4.42l0 0c3.82,-2 7.52,-4.15 11.09,-6.39l0 0c1.54,-0.96 3.57,-0.49 4.5,1.04l0 0c0.99,1.53 0.49,3.54 -1.05,4.5l0 0c-3.7,2.32 -7.52,4.55 -11.52,6.63l0 0c-0.49,0.26 -0.99,0.38 -1.54,0.38l0 0c-1.17,0 -2.28,-0.63 -2.9,-1.75l0 0zm22.42 -13.42c-1.05,-1.47 -0.68,-3.51 0.74,-4.57l0 0c3.57,-2.55 6.96,-5.19 10.23,-7.87l0 0c1.36,-1.15 3.45,-0.95 4.56,0.44l0 0c1.17,1.39 0.99,3.45 -0.43,4.6l0 0c-3.33,2.77 -6.84,5.48 -10.47,8.13l0 0c-0.62,0.41 -1.29,0.62 -1.91,0.62l0 0c-1.05,0 -2.03,-0.47 -2.71,-1.36l0 0zm20.45 -16.3c-1.17,-1.33 -1.11,-3.4 0.18,-4.62l0 0c3.26,-3.01 6.34,-6.04 9.24,-9.02l0 0c1.29,-1.3 3.33,-1.34 4.62,-0.07l0 0c1.29,1.26 1.36,3.33 0.06,4.63l0 0c-2.96,3.06 -6.1,6.16 -9.49,9.26l0 0c-0.62,0.59 -1.42,0.88 -2.22,0.88l0 0c-0.86,0 -1.73,-0.36 -2.4,-1.05l0 0zm18.48 -18.54c-1.36,-1.19 -1.48,-3.25 -0.31,-4.61l0 0c3.08,-3.47 5.85,-6.82 8.32,-9.93l0 0c1.11,-1.42 3.14,-1.66 4.56,-0.54l0 0c1.42,1.12 1.66,3.17 0.55,4.59l0 0c-2.53,3.2 -5.36,6.62 -8.5,10.19l0 0c-0.62,0.73 -1.54,1.11 -2.46,1.11l0 0c-0.74,0 -1.54,-0.27 -2.16,-0.81l0 0zm16.51 -20.33c-1.48,-1.05 -1.79,-3.09 -0.74,-4.56l0 0c4.68,-6.62 7.02,-10.7 7.02,-10.71l0 0c0.92,-1.56 2.96,-2.09 4.5,-1.18l0 0c1.54,0.91 2.09,2.91 1.17,4.47l0 0c0,0.08 -2.59,4.39 -7.39,11.21l0 0c-0.62,0.89 -1.66,1.37 -2.65,1.37l0 0c-0.68,0 -1.36,-0.2 -1.91,-0.6l0 0z"/>
  <path class="fil5" d="M797.24 306.57c-1.42,-1.18 -1.54,-3.24 -0.37,-4.61l0 0c2.83,-3.34 5.61,-6.67 8.19,-9.99l0 0c1.11,-1.43 3.2,-1.68 4.62,-0.55l0 0c1.42,1.11 1.66,3.17 0.49,4.59l0 0c-2.65,3.39 -5.42,6.8 -8.38,10.21l0 0c-0.62,0.75 -1.54,1.14 -2.46,1.14l0 0c-0.74,0 -1.48,-0.26 -2.09,-0.78l0 0zm16.32 -20.38c-1.42,-1.05 -1.79,-3.1 -0.74,-4.56l0 0c2.59,-3.58 4.99,-7.13 7.27,-10.68l0 0c0.99,-1.51 3.02,-1.95 4.56,-0.97l0 0c1.48,0.99 1.91,3.01 0.92,4.52l0 0c-2.34,3.63 -4.81,7.27 -7.39,10.93l0 0c-0.68,0.89 -1.66,1.36 -2.71,1.36l0 0c-0.62,0 -1.29,-0.2 -1.91,-0.61l0 0zm14.48 -21.77c-1.54,-0.9 -2.09,-2.9 -1.17,-4.47l0 0c2.22,-3.8 4.25,-7.58 6.16,-11.33l0 0c0.8,-1.61 2.77,-2.25 4.37,-1.43l0 0c1.6,0.81 2.28,2.78 1.42,4.39l0 0c-1.97,3.87 -4.07,7.74 -6.28,11.65l0 0c-0.62,1.04 -1.73,1.63 -2.83,1.63l0 0c-0.55,0 -1.11,-0.14 -1.66,-0.44l0 0zm12.2 -23.13c-1.66,-0.73 -2.4,-2.65 -1.72,-4.31l0 0c1.79,-4.01 3.39,-7.99 4.87,-11.93l0 0c0.62,-1.69 2.53,-2.56 4.19,-1.93l0 0c1.73,0.63 2.59,2.51 1.97,4.2l0 0c-1.54,4.07 -3.2,8.17 -4.99,12.3l0 0c-0.55,1.23 -1.79,1.95 -3.02,1.95l0 0c-0.43,0 -0.86,-0.09 -1.29,-0.28l0 0zm9.43 -24.36c-1.73,-0.52 -2.71,-2.35 -2.16,-4.08l0 0c1.23,-4.18 2.34,-8.32 3.33,-12.42l0 -0.01c0.37,-1.76 2.16,-2.85 3.94,-2.43l0 0c1.73,0.41 2.83,2.17 2.4,3.93l0 0c-0.99,4.23 -2.09,8.51 -3.45,12.82l0 0c-0.43,1.41 -1.73,2.32 -3.08,2.32l0 0c-0.37,0 -0.68,-0.05 -0.99,-0.14l0 0zm6.41 -25.35c-1.79,-0.3 -3.02,-1.98 -2.71,-3.76l0 0c0.74,-4.3 1.29,-8.54 1.73,-12.74l0 0c0.12,-1.79 1.73,-3.1 3.57,-2.93l0 0c1.79,0.18 3.08,1.79 2.9,3.57l0 0c-0.43,4.34 -0.99,8.73 -1.73,13.18l0 0c-0.31,1.6 -1.66,2.72 -3.26,2.72l0 0c-0.18,0 -0.37,-0.01 -0.49,-0.04l0 0zm3.02 -25.95c-1.79,-0.06 -3.2,-1.58 -3.14,-3.38l0 0c0.06,-2.24 0.06,-4.47 0.06,-6.67l0 0c0,-2.08 0,-4.14 -0.06,-6.18l0 0c-0.06,-1.81 1.36,-3.31 3.14,-3.36l0 0c1.79,-0.06 3.33,1.36 3.39,3.16l0 0c0.06,2.11 0.06,4.24 0.06,6.39l0 0c0,2.28 0,4.58 -0.06,6.9l0 0c-0.06,1.77 -1.54,3.15 -3.33,3.15l0 0c0,0 -0.06,0 -0.06,0l0 0zm-4 -29.08c-0.37,-4.35 -0.92,-8.61 -1.6,-12.76l0 0c-0.31,-1.78 0.92,-3.46 2.71,-3.75l0 0c1.79,-0.29 3.45,0.93 3.76,2.71l0 0c0.68,4.29 1.23,8.69 1.66,13.18l0 0c0.18,1.79 -1.11,3.39 -2.96,3.56l0 0c-0.06,0.01 -0.18,0.02 -0.31,0.02l0 0c-1.66,0 -3.08,-1.26 -3.26,-2.96l0 0zm-4 -25.4c-0.99,-4.29 -2.03,-8.46 -3.2,-12.48l0 0c-0.49,-1.74 0.49,-3.55 2.22,-4.04l0 0c1.73,-0.5 3.57,0.5 4.07,2.23l0 0c1.17,4.15 2.28,8.44 3.26,12.87l0 0c0.37,1.77 -0.68,3.51 -2.46,3.9l0 0c-0.25,0.05 -0.49,0.08 -0.74,0.08l0 0c-1.48,0 -2.83,-1.03 -3.14,-2.56l0 0zm-7.15 -24.76c-1.48,-4.21 -3.02,-8.23 -4.62,-12.05l0 0.01c-0.68,-1.66 0.12,-3.58 1.79,-4.28l0 0c1.66,-0.69 3.57,0.09 4.31,1.76l0 0c1.6,3.92 3.2,8.05 4.74,12.39l0 0c0.55,1.71 -0.31,3.57 -2.03,4.17l0 0c-0.37,0.12 -0.74,0.18 -1.11,0.18l0 0c-1.29,0 -2.59,-0.84 -3.08,-2.19l0 0zm-9.86 -23.81c-2.03,-4.18 -4.07,-8 -5.97,-11.45l0 0c-0.86,-1.58 -0.31,-3.57 1.29,-4.45l0 0c1.54,-0.88 3.57,-0.31 4.44,1.27l0 0c1.97,3.55 4.07,7.48 6.1,11.78l0 0c0.8,1.62 0.12,3.58 -1.48,4.37l0 0c-0.49,0.22 -0.99,0.33 -1.48,0.33l0 0c-1.17,0 -2.34,-0.68 -2.9,-1.85l0 0zm-12.57 -22.52c-4.37,-6.86 -7.27,-10.44 -7.27,-10.45l0 0c-1.17,-1.4 -0.92,-3.46 0.49,-4.6l0 0c1.36,-1.13 3.45,-0.92 4.56,0.49l0 0c0.06,0.07 3.2,3.95 7.7,11.04l0 0c0.98,1.52 0.55,3.54 -0.99,4.52l0 0c-0.49,0.34 -1.11,0.51 -1.73,0.51l0 0c-1.11,0 -2.16,-0.54 -2.77,-1.5l0 0z"/>
  <path class="fil6" d="M699.6 625.41c-17.93,-8.48 -25.69,-22.44 -25.69,-36.39 0,-25.68 21.68,-43.13 50.14,-43.13 31.42,0 47.12,19.7 47.12,39.89 0,13.71 -6.78,28.42 -26.67,37.89l0 0.75c20.14,7.98 32.65,22.18 32.65,41.88 0,28.18 -24.21,47.12 -55.13,47.12 -33.88,0 -54.33,-20.2 -54.33,-43.88 0,-20.45 12.2,-34.9 32.16,-43.38l-0.25 -0.75zm55.38 43.13c0,-19.69 -13.74,-29.17 -35.67,-35.4 -18.97,5.49 -29.2,17.95 -29.2,33.41 -0.74,16.45 11.77,30.91 32.4,30.91 19.71,0 32.46,-12.46 32.46,-28.92zm-60.37 -81.02c0,16.21 12.26,24.93 30.92,29.92 13.98,-4.74 24.7,-14.72 24.7,-29.42 0,-12.96 -7.76,-26.43 -27.41,-26.43 -18.23,0 -28.21,11.97 -28.21,25.93z"/>
 </g>
</svg>
