<?xml version="1.0" encoding="UTF-8" standalone="no"?>
<!-- Creator: CorelDRAW 2021 (64-Bit) -->

<svg
   xml:space="preserve"
   width="6.43974in"
   height="4.12206in"
   version="1.1"
   style="shape-rendering:geometricPrecision; text-rendering:geometricPrecision; image-rendering:optimizeQuality; fill-rule:evenodd; clip-rule:evenodd"
   viewBox="0 0 1263.74 808.92"
   id="svg1740"
   sodipodi:docname="Karate_orange_green_belt.svg"
   inkscape:export-filename="orangebelt.pdf"
   inkscape:export-xdpi="96"
   inkscape:export-ydpi="96"
   inkscape:version="1.3.2 (091e20e, 2023-11-25)"
   xmlns:inkscape="http://www.inkscape.org/namespaces/inkscape"
   xmlns:sodipodi="http://sodipodi.sourceforge.net/DTD/sodipodi-0.dtd"
   xmlns="http://www.w3.org/2000/svg"
   xmlns:svg="http://www.w3.org/2000/svg"><sodipodi:namedview
   id="namedview1742"
   pagecolor="#ffffff"
   bordercolor="#000000"
   borderopacity="0.25"
   inkscape:showpageshadow="2"
   inkscape:pageopacity="0.0"
   inkscape:pagecheckerboard="0"
   inkscape:deskcolor="#d1d1d1"
   inkscape:document-units="in"
   showgrid="false"
   inkscape:zoom="1.1927694"
   inkscape:cx="303.49538"
   inkscape:cy="93.47993"
   inkscape:window-width="1392"
   inkscape:window-height="1212"
   inkscape:window-x="1284"
   inkscape:window-y="43"
   inkscape:window-maximized="0"
   inkscape:current-layer="Layer_x0020_1" />
 <defs
   id="defs1684">
  <style
   type="text/css"
   id="style1682">
   <![CDATA[
    .fil3 {fill:#56020E;fill-rule:nonzero}
    .fil2 {fill:#9E521E;fill-rule:nonzero}
    .fil4 {fill:#A84400;fill-rule:nonzero}
    .fil1 {fill:#D85B05;fill-rule:nonzero}
    .fil0 {fill:#FF6700;fill-rule:nonzero}
    .fil5 {fill:#FFA364;fill-rule:nonzero}
   ]]>
  </style>
 </defs>
 <g
   id="Layer_x0020_1"
   inkscape:label="Layer 1">
  <metadata
   id="CorelCorpID_0Corel-Layer" />
  <polygon
   class="fil0"
   points="1214.6,39.87 49.13,39.87 -0,74.68 -0,231.95 49.13,266.7 1214.6,266.7 1263.74,231.95 1263.74,74.68 "
   id="polygon1687"
   style="stroke:#000000;stroke-opacity:1;stroke-width:2.72557907;stroke-dasharray:none" />
  <polygon
   class="fil1"
   points="228.35,64.82 1054.15,64.82 812.95,93.43 1156.35,126.13 829.3,158.84 980.56,195.64 862.01,216.06 1123.65,252.86 154.76,252.86 416.4,207.92 285.58,183.35 420.49,162.93 265.14,134.32 367.34,113.9 150.67,73.01 "
   id="polygon1689"
   style="fill:#6eaf48;fill-opacity:1" />
  <path
   class="fil2"
   d="M1153.25 72.58l0 -10.88 32.7 0 0 10.88 -32.7 0 0 0zm-65.41 0l0 -10.88 32.7 0 0 10.88 -32.7 0 0 0zm-65.41 0l0 -10.88 32.7 0 0 10.88 -32.7 0 0 0zm-65.42 0l0 -10.88 32.71 0 0 10.88 -32.71 0 0 0zm-65.41 0l0 -10.88 32.7 0 0 10.88 -32.7 0 0 0zm-65.41 0l0 -10.88 32.7 0 0 10.88 -32.7 0 0 0zm-65.42 0l0 -10.88 32.7 0 0 10.88 -32.7 0 0 0zm-65.42 0l0 -10.88 32.71 0 0 10.88 -32.71 0 0 0zm-65.41 0l0 -10.88 32.7 0 0 10.88 -32.7 0 0 0zm-65.42 0l0 -10.88 32.7 0 0 10.88 -32.7 0 0 0zm-65.42 0l0 -10.88 32.71 0 0 10.88 -32.71 0 0 0zm-65.42 0l0 -10.88 32.71 0 0 10.88 -32.71 0 0 0zm-65.41 0l0 -10.88 32.7 0 0 10.88 -32.7 0 0 0zm-65.42 0l0 -10.88 32.71 0 0 10.88 -32.71 0 0 0zm-65.41 0l0 -10.88 32.71 0 0 10.88 -32.71 0 0 0zm-65.41 0l0 -10.88 32.71 0 0 10.88 -32.71 0 0 0zm-65.41 0l0 -10.88 32.71 0 0 10.88 -32.71 0 0 0z"
   id="path1691" />
  <path
   class="fil2"
   d="M1153.25 247.04l0 -10.94 32.7 0 0 10.94 -32.7 0 0 0zm-65.41 0l0 -10.94 32.7 0 0 10.94 -32.7 0 0 0zm-65.41 0l0 -10.94 32.7 0 0 10.94 -32.7 0 0 0zm-65.42 0l0 -10.94 32.71 0 0 10.94 -32.71 0 0 0zm-65.41 0l0 -10.94 32.7 0 0 10.94 -32.7 0 0 0zm-65.41 0l0 -10.94 32.7 0 0 10.94 -32.7 0 0 0zm-65.42 0l0 -10.94 32.7 0 0 10.94 -32.7 0 0 0zm-65.42 0l0 -10.94 32.71 0 0 10.94 -32.71 0 0 0zm-65.41 0l0 -10.94 32.7 0 0 10.94 -32.7 0 0 0zm-65.42 0l0 -10.94 32.7 0 0 10.94 -32.7 0 0 0zm-65.42 0l0 -10.94 32.71 0 0 10.94 -32.71 0 0 0zm-65.42 0l0 -10.94 32.71 0 0 10.94 -32.71 0 0 0zm-65.41 0l0 -10.94 32.7 0 0 10.94 -32.7 0 0 0zm-65.42 0l0 -10.94 32.71 0 0 10.94 -32.71 0 0 0zm-65.41 0l0 -10.94 32.71 0 0 10.94 -32.71 0 0 0zm-65.41 0l0 -10.94 32.71 0 0 10.94 -32.71 0 0 0zm-65.41 0l0 -10.94 32.71 0 0 10.94 -32.71 0 0 0z"
   id="path1693" />
  <path
   class="fil3"
   d="M437.07 58.41c0,0 -6.67,7.17 -6.67,21.44 0,14.28 11.85,128.02 47.65,163.79 0,0 74.25,-33.03 127.21,-85.99 0,0 -120.54,-90.19 -168.19,-99.25z"
   id="path1695" />
  <path
   class="fil0"
   d="M825.9 58.41c0,0 -32.88,-24.3 -72.9,-37.18 -40.03,-12.82 -87.2,-30.01 -133.66,-2.1 -46.46,27.86 -146.99,89.28 -209.42,112.18 -140.1,51.46 -293.06,305.93 -287.34,649.02 0,0 125.8,11.44 162.97,28.59 0,0 -31.45,-477.45 168.69,-557.51 200.14,-80.07 185.84,-82.92 248.74,-125.81 62.9,-42.89 122.94,-67.19 122.94,-67.19z"
   id="path1697"
   style="stroke:#000000;stroke-opacity:1;stroke-width:2.72557907;stroke-dasharray:none" />
  <path
   class="fil4"
   d="M122.57 780.33c-0.04,-2.41 -0.04,-4.8 -0.07,-7.2 40.38,-12.07 147.31,14.34 147.31,14.34 -8.58,-24.3 7.14,-304.49 52.89,-401.69 45.74,-97.2 75.77,-121.5 115.79,-140.09 40.03,-18.59 191.56,-82.92 231.58,-117.24 40.03,-34.32 92.92,-60.02 124.37,-71.44 9.27,-3.39 17.01,-4.36 23.37,-4.1 5.15,3.34 8.08,5.5 8.08,5.5 0,0 -60.04,24.3 -122.94,67.19 -62.9,42.89 -48.6,45.74 -248.74,125.81 -200.14,80.06 -168.69,557.51 -168.69,557.51 -37.17,-17.15 -162.97,-28.59 -162.97,-28.59z"
   id="path1699" />
  <path
   class="fil0"
   d="M610.24 149.41c0,0 -89.3,75.59 -140.78,96.12 0,0 40.98,25.92 130.27,47.52 0,0 46.23,23.76 116.08,-78.29l-105.58 -65.36z"
   id="path1701"
   style="stroke:#000000;stroke-opacity:1;stroke-width:2.72557907;stroke-dasharray:none" />
  <path
   class="fil1"
   d="M618.56 160.13c0,0 -31.59,52.48 -75.03,77.75 0,0 33.57,-7.76 67.14,-34.97 0,0 -9.88,33.03 -21.72,40.79 0,0 29.62,7.81 69.12,-21.39 0,0 -3.95,25.27 -21.72,40.84 0,0 51.34,-29.15 71.09,-58.3l-88.87 -44.72z"
   id="path1703" />
  <path
   class="fil4"
   d="M610.24 149.41c0,0 -89.3,75.59 -140.78,96.12 0,0 3.51,2.21 10.65,5.87 67.88,-31.25 122.07,-83.14 136.69,-97.9l-6.56 -4.09z"
   id="path1705" />
  <path
   class="fil0"
   d="M437.07 58.41c0,0 32.87,-24.3 72.9,-37.18 40.03,-12.82 87.2,-30.01 133.66,-2.1 46.46,27.86 146.99,89.28 209.43,112.18 140.09,51.46 293.05,305.93 287.33,649.02 0,0 -125.8,11.44 -162.97,28.59 0,0 31.45,-477.45 -168.69,-557.51 -200.13,-80.07 -185.84,-82.92 -248.73,-125.81 -62.9,-42.89 -122.94,-67.19 -122.94,-67.19z"
   id="path1707"
   style="stroke:#000000;stroke-opacity:1;stroke-width:2.72557907;stroke-dasharray:none" />
  <path
   class="fil3"
   d="M643.63 19.13c16.93,10.13 41.07,24.73 67.91,40.36 -7.12,-17.29 -21.77,-38.47 -40.37,-43.97 -10.76,-3.18 -21.21,-0.97 -29.51,2.48 0.65,0.38 1.31,0.7 1.97,1.13z"
   id="path1709" />
  <path
   class="fil1"
   d="M560 125.59c-17.59,-11.96 -34.95,-22.52 -50.84,-31.47 -39.03,18.75 -85.57,41.43 -133.1,71.5 -93.4,59.11 -142.95,198.22 -142.95,198.22 26.69,-62.88 97.21,-135.34 97.21,-135.34 -83.86,114.39 -95.3,228.77 -95.3,228.77 49.55,-152.53 131.52,-198.28 131.52,-198.28 -40.03,51.51 -51.46,99.14 -51.46,99.14 36.21,-72.41 116.27,-133.41 173.45,-156.3 35.14,-14.06 76.74,-37.45 103.6,-53.39 -9.11,-6.57 -18.91,-13.85 -32.13,-22.85z"
   id="path1711" />
  <path
   class="fil1"
   d="M646.73 131.31c0,0 74.33,47.68 131.51,70.53 57.18,22.9 137.24,83.89 173.45,156.3 0,0 -11.43,-47.63 -51.46,-99.14 0,0 81.96,45.74 131.52,198.28 0,0 -11.44,-114.39 -95.31,-228.77 0,0 70.52,72.47 97.21,135.34 0,0 -49.55,-139.12 -142.95,-198.22 -93.4,-59.11 -182.98,-89.6 -219.19,-118.16 0,0 36.21,51.46 70.52,72.41 0,0 -87.68,-45.74 -137.24,-81.95 0,0 66.71,80.07 129.61,112.45 0,0 -62.9,-5.71 -87.67,-19.07z"
   id="path1713" />
  <path
   class="fil4"
   d="M1140.39 780.33c0.04,-2.41 0.04,-4.8 0.06,-7.2 -40.38,-12.07 -147.31,14.34 -147.31,14.34 8.57,-24.3 -7.15,-304.49 -52.89,-401.69 -45.74,-97.2 -75.77,-121.5 -115.79,-140.09 -40.03,-18.59 -191.56,-82.92 -231.58,-117.24 -40.02,-34.32 -92.92,-60.02 -124.36,-71.44 -9.27,-3.39 -17.01,-4.36 -23.37,-4.1 -5.15,3.34 -8.08,5.5 -8.08,5.5 0,0 60.03,24.3 122.94,67.19 62.9,42.89 48.6,45.74 248.73,125.81 200.14,80.06 168.69,557.51 168.69,557.51 37.17,-17.15 162.97,-28.59 162.97,-28.59z"
   id="path1715" />
  <path
   class="fil5"
   d="M1064.15 409.59c0,0 68.62,181.08 62.9,350.72 0,0 -51.47,0.01 -99.12,9.54 0,0 62.9,-30.5 85.78,-24.78 0,0 3.81,-156.29 -49.56,-335.47z"
   id="path1717" />
  <path
   class="fil5"
   d="M195.95 409.59c0,0 -68.62,181.08 -62.9,350.72 0,0 51.47,0.01 99.11,9.54 0,0 -62.9,-30.5 -85.77,-24.78 0,0 -3.81,-156.29 49.56,-335.47z"
   id="path1719" />
  <path
   class="fil5"
   d="M478.52 41.27c0,0 70.04,-30.01 117.22,-30.01 47.17,0 77.19,47.14 77.19,47.14 0,0 -54.32,-65.73 -194.41,-17.13z"
   id="path1721" />
  <path
   class="fil2"
   d="M1008.73 751.73c-1.57,-0.08 -2.79,-1.42 -2.71,-3l0 0c0.05,-1.19 0.11,-2.38 0.17,-3.57l0 0c0.06,-1.58 1.41,-2.8 2.98,-2.73l0 0c1.58,0.06 2.8,1.41 2.73,2.99l0 0c-0.05,1.19 -0.1,2.39 -0.16,3.58l0 0c-0.08,1.54 -1.34,2.73 -2.86,2.73l0 0c-0.05,0 -0.09,0 -0.14,-0.01l0 0zm0.67 -15c-1.58,-0.06 -2.81,-1.39 -2.75,-2.96l0 0c0.15,-3.83 0.28,-7.63 0.38,-11.41l0 0c0.05,-1.58 1.36,-2.82 2.94,-2.78l0 0c1.58,0.05 2.82,1.36 2.77,2.94l0 0c-0.11,3.79 -0.23,7.61 -0.38,11.45l0 0c-0.05,1.54 -1.33,2.75 -2.85,2.75l0 0c-0.04,0 -0.08,0 -0.11,0l0 0zm0.72 -22.86c-1.58,-0.04 -2.83,-1.34 -2.79,-2.92l0 0c0.08,-3.84 0.14,-7.63 0.19,-11.41l0 0c0.02,-1.58 1.31,-2.84 2.89,-2.82l0 0c1.58,0.02 2.84,1.31 2.82,2.89l0 0c-0.05,3.8 -0.11,7.61 -0.19,11.46l0 0c-0.04,1.56 -1.31,2.8 -2.86,2.8l0 0c-0.02,0 -0.04,0 -0.07,0l0 0zm0.34 -22.86c-1.58,-0.01 -2.84,-1.3 -2.84,-2.88l0 0c0.01,-1.94 0.01,-3.87 0.01,-5.79l0 0c0,-1.88 -0.01,-3.76 -0.01,-5.61l0 0c-0.01,-1.58 1.26,-2.87 2.84,-2.87l0 0c1.58,-0.01 2.87,1.26 2.88,2.84l0 0c0.01,1.87 0.01,3.76 0.01,5.65l0 0c0,1.93 -0.01,3.87 -0.01,5.81l0 0c-0.01,1.58 -1.29,2.86 -2.87,2.86l0 0c0,0 -0.01,0 -0.01,0l-0.01 0zm-2.95 -25.7c-0.05,-3.84 -0.12,-7.63 -0.2,-11.41l0 0c-0.04,-1.58 1.21,-2.89 2.79,-2.92l0 0c1.58,-0.04 2.88,1.21 2.91,2.79l0 0c0.1,3.78 0.17,7.61 0.21,11.46l0 0c0.03,1.58 -1.24,2.87 -2.81,2.89l0 0c-0.02,0 -0.03,0 -0.04,0l0 0c-1.57,0 -2.83,-1.26 -2.86,-2.82l0 0zm-0.52 -22.81c-0.12,-3.84 -0.27,-7.63 -0.43,-11.4l0 0c-0.06,-1.57 1.16,-2.91 2.74,-2.97l0 0c1.58,-0.07 2.91,1.15 2.98,2.73l0 0c0.16,3.78 0.3,7.6 0.43,11.45l0 0c0.05,1.58 -1.19,2.9 -2.76,2.95l0 0c-0.04,0.01 -0.06,0.01 -0.1,0.01l0 0c-1.53,0 -2.81,-1.22 -2.86,-2.76l0 0zm-0.98 -22.79c-0.2,-3.83 -0.43,-7.63 -0.67,-11.38l0 0c-0.1,-1.58 1.09,-2.94 2.67,-3.04l0 0c1.58,-0.1 2.94,1.1 3.04,2.67l0 0c0.25,3.78 0.46,7.6 0.67,11.44l0 0c0.09,1.58 -1.12,2.93 -2.69,3.01l0 0c-0.06,0 -0.11,0.01 -0.17,0.01l0 0c-1.51,0 -2.76,-1.19 -2.84,-2.71l0 0zm-1.45 -22.76c-0.3,-3.82 -0.59,-7.61 -0.92,-11.36l0 0c-0.14,-1.57 1.02,-2.96 2.6,-3.1l0 0c1.57,-0.14 2.96,1.03 3.1,2.6l0 0c0.33,3.77 0.64,7.59 0.93,11.43l0 0c0.11,1.57 -1.07,2.95 -2.64,3.07l0 0c-0.07,0 -0.15,0 -0.22,0l0 0c-1.48,0 -2.74,-1.14 -2.84,-2.65l0 0zm-1.97 -22.71c-0.38,-3.82 -0.78,-7.6 -1.19,-11.33l-0.01 0c-0.17,-1.57 0.96,-2.99 2.53,-3.16l0 0c1.56,-0.18 2.98,0.95 3.16,2.53l0 0c0.41,3.76 0.81,7.56 1.2,11.41l0 0c0.15,1.57 -1,2.96 -2.57,3.13l0 0c-0.09,0.01 -0.19,0.01 -0.28,0.01l0 0c-1.45,0 -2.7,-1.1 -2.84,-2.58l0 0zm-2.52 -22.65c-0.47,-3.81 -0.96,-7.58 -1.48,-11.3l0 0c-0.22,-1.56 0.88,-3.01 2.44,-3.23l0 0c1.56,-0.22 3.01,0.88 3.22,2.45l0 0c0.52,3.74 1.01,7.53 1.49,11.36l0 0c0.2,1.57 -0.91,3 -2.48,3.2l0 0c-0.12,0.02 -0.23,0.02 -0.35,0.02l0 0c-1.42,0 -2.66,-1.06 -2.84,-2.51l0 0zm-3.1 -22.57c-0.58,-3.8 -1.17,-7.55 -1.79,-11.26l0 0c-0.25,-1.56 0.79,-3.03 2.35,-3.29l0 0c1.56,-0.25 3.03,0.8 3.29,2.35l0 0c0.62,3.73 1.22,7.51 1.8,11.33l0 0c0.23,1.56 -0.84,3.02 -2.4,3.26l0 0c-0.15,0.02 -0.3,0.03 -0.44,0.03l0 0c-1.39,0 -2.61,-1.02 -2.82,-2.43l0 0zm-3.73 -22.47c-0.68,-3.78 -1.4,-7.51 -2.12,-11.19l0 0c-0.31,-1.55 0.7,-3.05 2.25,-3.36l0 0c1.55,-0.31 3.05,0.7 3.36,2.25l0 0c0.73,3.71 1.44,7.47 2.13,11.28l0 0c0.28,1.55 -0.75,3.04 -2.31,3.32l0 0c-0.17,0.03 -0.35,0.04 -0.51,0.04l0 0c-1.36,0 -2.56,-0.97 -2.81,-2.35l0 0zm-4.41 -22.34c-0.8,-3.73 -1.63,-7.45 -2.48,-11.12l0 0c-0.35,-1.51 0.61,-3.07 2.14,-3.45l0 0c1.54,-0.32 3.07,0.65 3.43,2.16l0 0c0.85,3.66 1.69,7.44 2.49,11.21l0 0c0.33,1.55 -0.65,3.06 -2.19,3.39l0 0c-0.2,0.04 -0.4,0.06 -0.6,0.06l0 0c-1.32,0 -2.51,-0.92 -2.79,-2.26l0 0zm-5.13 -22.16c-0.93,-3.77 -1.89,-7.43 -2.86,-11.05l-0.01 0c-0.41,-1.51 0.5,-3.07 2.02,-3.5l0 0c1.52,-0.38 3.09,0.49 3.51,2.05l0 0c0.98,3.61 1.94,7.33 2.88,11.1l0 0c0.38,1.51 -0.55,3.07 -2.09,3.45l0 0c-0.23,0.05 -0.46,0.11 -0.69,0.11l0 0c-1.28,0 -2.44,-0.86 -2.76,-2.16l0 0zm-5.92 -21.98c-1.07,-3.72 -2.16,-7.33 -3.27,-10.88l0 0c-0.47,-1.51 0.37,-3.12 1.89,-3.61l0 0c1.5,-0.43 3.1,0.38 3.58,1.89l0 0c1.12,3.61 2.22,7.27 3.3,10.99l0 0c0.44,1.56 -0.43,3.13 -1.94,3.56l0 0c-0.27,0.11 -0.53,0.11 -0.8,0.11l0 0c-1.24,0 -2.39,-0.81 -2.75,-2.05l0 0zm-6.76 -21.71c-1.22,-3.66 -2.45,-7.22 -3.71,-10.78l0 0c-0.53,-1.45 0.24,-3.07 1.73,-3.61l0 0c1.48,-0.54 3.12,0.22 3.65,1.72l0 0c1.27,3.56 2.52,7.17 3.75,10.83l0 0c0.5,1.51 -0.31,3.13 -1.8,3.61l0 0c-0.3,0.11 -0.61,0.16 -0.9,0.16l0 0c-1.2,0 -2.31,-0.75 -2.72,-1.94l0 0zm-7.66 -21.39c-1.38,-3.61 -2.78,-7.11 -4.2,-10.56l0 0c-0.6,-1.45 0.1,-3.13 1.56,-3.72l0 0c1.45,-0.65 3.13,0.05 3.73,1.51l0 0c1.43,3.5 2.84,7.06 4.25,10.72l0 0c0.56,1.45 -0.18,3.13 -1.65,3.66l0 0c-0.34,0.16 -0.68,0.22 -1.02,0.22l0 0c-1.15,0 -2.23,-0.7 -2.67,-1.83l0 0zm-8.64 -21.01c-1.55,-3.56 -3.12,-7 -4.7,-10.34l0 0c-0.68,-1.4 -0.06,-3.13 1.36,-3.83l0 0c1.43,-0.65 3.13,-0.05 3.8,1.4l0 0c1.61,3.39 3.19,6.9 4.77,10.45l0 0c0.64,1.45 -0.02,3.12 -1.47,3.77l0 0c-0.37,0.16 -0.76,0.22 -1.15,0.22l0 0c-1.1,0 -2.15,-0.59 -2.62,-1.67l0 0zm-9.68 -20.53c-1.75,-3.45 -3.5,-6.79 -5.26,-10.08l0 0c-0.75,-1.4 -0.24,-3.12 1.15,-3.88l0 0c1.4,-0.75 3.13,-0.22 3.88,1.19l0 0c1.79,3.29 3.57,6.68 5.33,10.18l0 0c0.72,1.4 0.15,3.13 -1.26,3.83l0 0c-0.41,0.22 -0.85,0.32 -1.28,0.32l0 0c-1.05,0 -2.05,-0.59 -2.55,-1.56l0 0zm-10.81 -19.99c-1.94,-3.29 -3.89,-6.57 -5.85,-9.7l0 0c-0.84,-1.35 -0.43,-3.07 0.91,-3.93l0 0c1.34,-0.81 3.1,-0.43 3.94,0.92l0 0c1.99,3.18 3.97,6.47 5.94,9.86l0 0c0.8,1.4 0.33,3.13 -1.03,3.93l0 0c-0.45,0.27 -0.94,0.38 -1.43,0.38l0 0c-0.99,0 -1.95,-0.54 -2.47,-1.45l0 0zm-12 -19.18c-2.15,-3.23 -4.31,-6.36 -6.47,-9.32l-0.01 0c-0.92,-1.29 -0.64,-3.07 0.65,-3.99l0 0c1.28,-0.92 3.07,-0.65 3.99,0.65l0 0c2.19,3.02 4.39,6.2 6.59,9.43l0 0c0.88,1.35 0.53,3.12 -0.79,3.99l0 0c-0.49,0.32 -1.03,0.49 -1.58,0.49l0 0c-0.92,0 -1.83,-0.43 -2.38,-1.24l0 0zm-13.27 -18.37c-2.39,-3.07 -4.77,-5.98 -7.14,-8.78l0 0c-1.02,-1.19 -0.87,-3.02 0.33,-4.04l0 0c1.21,-1.02 3.01,-0.86 4.03,0.38l0 0c2.41,2.8 4.84,5.82 7.28,8.94l0 0c0.96,1.24 0.75,3.02 -0.5,3.99l0 0c-0.52,0.43 -1.15,0.65 -1.76,0.65l0 0c-0.85,0 -1.69,-0.43 -2.25,-1.13l0 0zm-14.62 -17.24c-2.66,-2.91 -5.26,-5.6 -7.83,-8.19l0 0c-1.12,-1.08 -1.13,-2.91 -0.02,-4.04l0 0c1.12,-1.08 2.93,-1.13 4.05,0l0 0c2.63,2.64 5.3,5.39 8.01,8.35l0 0c1.06,1.13 0.99,2.96 -0.17,4.04l0 0c-0.55,0.49 -1.24,0.75 -1.93,0.75l0 0c-0.77,0 -1.54,-0.32 -2.1,-0.92l0 0zm-16.02 -15.95c-2.94,-2.64 -5.8,-5.12 -8.56,-7.38l0 0c-1.22,-0.97 -1.41,-2.8 -0.41,-3.99l0 0c1,-1.24 2.8,-1.4 4.02,-0.43l0 0c2.83,2.32 5.77,4.85 8.78,7.54l0 0c1.17,1.08 1.26,2.86 0.19,4.04l0 0c-0.56,0.65 -1.34,0.97 -2.12,0.97l0 0c-0.68,0 -1.36,-0.27 -1.91,-0.75l0 0zm-17.48 -14.28c-3.33,-2.37 -6.44,-4.47 -9.31,-6.3l0 0c-1.34,-0.86 -1.73,-2.64 -0.89,-3.93l0 0c0.85,-1.35 2.61,-1.78 3.95,-0.92l0 0c2.96,1.89 6.19,4.04 9.61,6.57l0 0c1.28,0.92 1.56,2.69 0.63,3.99l0 0c-0.56,0.75 -1.43,1.19 -2.32,1.19l0 0c-0.58,0 -1.17,-0.22 -1.68,-0.59l0 0zm-19.01 -11.96c-3.21,-1.72 -5.75,-2.91 -7.47,-3.61l0 0c-1.71,-0.75 -2.54,-1.02 -2.55,-1.02l0 0c-1.49,-0.54 -2.29,-2.15 -1.78,-3.61l0 0c0.51,-1.51 2.13,-2.32 3.63,-1.83l0 0c0.13,0.05 4.13,1.45 10.85,5.01l0 0c1.4,0.75 1.92,2.48 1.18,3.88l0 0c-0.51,0.97 -1.5,1.51 -2.53,1.51l0 0c-0.45,0 -0.91,-0.11 -1.34,-0.32l0 0z"
   id="path1723" />
  <path
   class="fil2"
   d="M254.08 766.59c-1.58,-0.01 -2.86,-1.29 -2.85,-2.88l0 0c0.01,-2.28 0.04,-6.2 0.12,-11.52l0.01 0c0.03,-1.58 1.31,-2.84 2.9,-2.82l0 0c1.58,0.02 2.84,1.31 2.81,2.9l0 0c-0.08,5.31 -0.1,9.21 -0.12,11.48l0 0c-0.01,1.57 -1.28,2.85 -2.86,2.85l0 0c-0.01,0 -0.01,0 -0.01,0l0 0zm0.28 -23c-1.58,-0.03 -2.83,-1.34 -2.8,-2.92l0 0c0.07,-3.52 0.16,-7.36 0.27,-11.49l0 0c0.04,-1.58 1.36,-2.83 2.94,-2.78l0 0c1.58,0.04 2.82,1.35 2.78,2.93l0 0c-0.11,4.13 -0.2,7.95 -0.28,11.46l0 0c-0.03,1.56 -1.31,2.8 -2.87,2.8l0 0c-0.02,0 -0.04,0 -0.05,-0l0 0zm0.58 -22.94c-1.58,-0.05 -2.81,-1.37 -2.77,-2.95l0 0c0.12,-3.66 0.25,-7.49 0.4,-11.48l0 0c0.06,-1.57 1.39,-2.81 2.96,-2.75l0 0c1.58,0.06 2.81,1.39 2.75,2.97l0 0c-0.15,3.97 -0.28,7.79 -0.4,11.44l0 0c-0.05,1.54 -1.31,2.77 -2.85,2.77l0 0c-0.03,0 -0.06,-0.01 -0.1,-0.01l0 0zm0.82 -22.91c-1.57,-0.07 -2.81,-1.4 -2.73,-2.98l0 0c0.16,-3.71 0.32,-7.54 0.51,-11.46l0 0c0.08,-1.58 1.42,-2.8 2.99,-2.72l0 0c1.58,0.07 2.8,1.41 2.72,2.99l0 0c-0.19,3.91 -0.35,7.73 -0.52,11.43l0 0c-0.06,1.54 -1.33,2.74 -2.86,2.74l0 0c-0.04,0 -0.08,0 -0.12,0l0 0zm1.06 -22.89c-1.58,-0.09 -2.79,-1.43 -2.71,-3.01l0 0c0.2,-3.74 0.4,-7.56 0.63,-11.46l0 0 0.01 0.01c0.09,-1.58 1.44,-2.78 3.02,-2.69l0 0c1.57,0.08 2.77,1.44 2.69,3.01l0 0c-0.22,3.87 -0.43,7.69 -0.63,11.43l0 0c-0.08,1.53 -1.35,2.71 -2.86,2.71l0 0c-0.05,0 -0.1,-0.01 -0.15,-0.01l0 0zm1.29 -22.87c-1.57,-0.11 -2.78,-1.46 -2.68,-3.03l0 0c0.24,-3.77 0.49,-7.59 0.75,-11.45l0 0c0.11,-1.57 1.47,-2.77 3.05,-2.66l0 0c1.57,0.11 2.76,1.47 2.66,3.04l0 0c-0.26,3.86 -0.52,7.66 -0.75,11.42l0 0c-0.09,1.52 -1.36,2.68 -2.86,2.68l0 0c-0.06,0 -0.12,0 -0.18,0l0 0zm1.53 -22.86c-1.58,-0.11 -2.76,-1.49 -2.64,-3.06l0 0c0.28,-3.78 0.58,-7.59 0.88,-11.44l0 0c0.13,-1.57 1.51,-2.75 3.08,-2.62l0 0c1.57,0.12 2.75,1.5 2.62,3.08l0 0c-0.3,3.83 -0.59,7.63 -0.88,11.4l0 0c-0.11,1.5 -1.36,2.65 -2.84,2.65l0 0c-0.07,0 -0.15,0 -0.22,-0.01l0 0zm1.79 -22.83c-1.57,-0.14 -2.74,-1.52 -2.61,-3.09l0 0c0.33,-3.79 0.67,-7.59 1.02,-11.42l0 0c0.15,-1.58 1.54,-2.73 3.11,-2.59l0 0c1.57,0.15 2.73,1.54 2.59,3.11l0 0c-0.36,3.82 -0.7,7.61 -1.02,11.39l0 0c-0.12,1.49 -1.38,2.61 -2.85,2.61l0 0c-0.08,0 -0.16,0 -0.24,-0.01l0 0zm2.07 -22.81c-1.57,-0.16 -2.72,-1.56 -2.56,-3.13l0 0c0.38,-3.79 0.76,-7.6 1.17,-11.41l0 0c0.17,-1.57 1.57,-2.71 3.15,-2.54l0 0c1.57,0.16 2.7,1.57 2.54,3.14l0 0c-0.41,3.82 -0.8,7.6 -1.16,11.38l0 0c-0.15,1.48 -1.4,2.58 -2.85,2.57l0 0c-0.09,0 -0.19,0 -0.29,-0.01l0 0zm2.38 -22.78c-1.57,-0.18 -2.69,-1.59 -2.51,-3.16l0 0c0.43,-3.79 0.87,-7.59 1.34,-11.4l0 0.01c0.19,-1.56 1.62,-2.68 3.18,-2.49l0 0c1.57,0.18 2.68,1.61 2.49,3.18l0 0c-0.46,3.79 -0.91,7.57 -1.34,11.35l0 0c-0.17,1.45 -1.41,2.53 -2.84,2.53l0 0c-0.11,0 -0.22,-0.01 -0.33,-0.02l0 0zm2.74 -22.77c-1.57,-0.2 -2.67,-1.64 -2.47,-3.21l0 0c0.5,-3.79 1.01,-7.59 1.54,-11.37l0 0c0.22,-1.57 1.66,-2.66 3.23,-2.44l0 0c1.56,0.22 2.66,1.66 2.44,3.23l0 0c-0.52,3.77 -1.03,7.54 -1.53,11.34l0 0c-0.19,1.43 -1.42,2.48 -2.83,2.48l0 0c-0.12,0 -0.24,-0.01 -0.37,-0.02l0 0zm3.11 -22.68c-1.56,-0.24 -2.64,-1.7 -2.4,-3.25l0 0c0.57,-3.79 1.15,-7.58 1.76,-11.35l0 0c0.25,-1.56 1.71,-2.61 3.27,-2.37l0 0c1.56,0.25 2.62,1.71 2.37,3.27l0 0c-0.6,3.75 -1.19,7.52 -1.75,11.29l0 0c-0.22,1.42 -1.43,2.44 -2.83,2.44l0 0c-0.14,0 -0.28,-0.01 -0.42,-0.03l0 0zm3.57 -22.63c-1.56,-0.26 -2.6,-1.74 -2.34,-3.3l0 0c0.65,-3.79 1.33,-7.54 2.02,-11.31l0 0c0.28,-1.56 1.77,-2.59 3.32,-2.32l0 0c1.55,0.32 2.58,1.78 2.29,3.34l0 0c-0.68,3.73 -1.35,7.48 -2,11.25l0 0c-0.24,1.4 -1.44,2.38 -2.81,2.38l0 0c-0.16,0 -0.33,-0.02 -0.49,-0.05l0 0zm4.08 -22.53c-1.55,-0.32 -2.56,-1.83 -2.25,-3.34l0 0c0.75,-3.83 1.53,-7.54 2.32,-11.26l0 0c0.33,-1.56 1.85,-2.53 3.39,-2.21l0 0c1.55,0.32 2.53,1.83 2.2,3.39l0 0c-0.79,3.66 -1.56,7.38 -2.31,11.15l0 0c-0.28,1.35 -1.47,2.32 -2.81,2.32l0 0c-0.19,0 -0.37,0 -0.56,-0.05l0 0zm4.72 -22.41c-1.55,-0.38 -2.5,-1.89 -2.14,-3.45l0 0c0.88,-3.77 1.78,-7.49 2.7,-11.15l0 0c0.39,-1.56 1.94,-2.48 3.47,-2.1l0 0c1.54,0.38 2.46,1.94 2.08,3.5l0 0c-0.92,3.61 -1.81,7.33 -2.68,11.05l0 0c-0.3,1.35 -1.48,2.21 -2.78,2.21l0 0c-0.21,0 -0.43,0 -0.64,-0.05l0 0zm5.49 -22.25c-1.53,-0.38 -2.42,-1.99 -2,-3.5l0 0c1.03,-3.77 2.1,-7.44 3.18,-11.05l0 0c0.45,-1.51 2.05,-2.37 3.56,-1.94l0 0c1.51,0.49 2.37,2.05 1.92,3.56l0 0c-1.07,3.61 -2.12,7.22 -3.14,10.94l0 0c-0.35,1.29 -1.5,2.1 -2.75,2.1l0 0c-0.25,0 -0.51,0 -0.76,-0.11l0 0zm6.47 -21.93c-1.5,-0.54 -2.31,-2.15 -1.81,-3.61l0 0c1.23,-3.77 2.51,-7.38 3.82,-10.94l0 0c0.54,-1.45 2.19,-2.21 3.67,-1.67l0 0c1.48,0.54 2.24,2.21 1.69,3.66l0 0c-1.29,3.5 -2.53,7.06 -3.75,10.72l0 0c-0.4,1.19 -1.51,1.94 -2.72,1.94l0 0c-0.3,0 -0.6,-0.05 -0.9,-0.11l0 0zm7.77 -21.55c-1.46,-0.59 -2.14,-2.32 -1.54,-3.72l0 0c1.52,-3.66 3.09,-7.22 4.7,-10.61l0 0c0.68,-1.45 2.38,-2.05 3.82,-1.35l0 0c1.42,0.65 2.03,2.37 1.35,3.77l0 0c-1.57,3.34 -3.1,6.79 -4.59,10.35l0 0c-0.46,1.13 -1.52,1.78 -2.65,1.78l0 0c-0.37,0 -0.74,-0.05 -1.09,-0.22l0 0zm9.58 -20.8c-1.38,-0.75 -1.88,-2.48 -1.12,-3.88l0 0c0.1,-0.16 0.2,-0.38 0.3,-0.54l0 0c1.8,-3.23 3.61,-6.36 5.44,-9.43l0 0c0.81,-1.4 2.56,-1.83 3.92,-1.02l0 0c1.36,0.81 1.81,2.59 1,3.93l0 0c-1.8,3.02 -3.59,6.14 -5.37,9.32l0 0c-0.1,0.16 -0.19,0.32 -0.29,0.49l0 0c-0.52,0.97 -1.5,1.51 -2.51,1.51l0 0c-0.46,0 -0.94,-0.11 -1.38,-0.38l0 0zm11.52 -19.72c-1.33,-0.86 -1.73,-2.64 -0.88,-3.99l0 0c2.08,-3.29 4.18,-6.47 6.29,-9.64l0 0c0.88,-1.29 2.66,-1.62 3.96,-0.75l0 0c1.31,0.86 1.65,2.64 0.78,3.99l0 0c-2.08,3.07 -4.14,6.25 -6.2,9.48l0 0c-0.54,0.86 -1.47,1.35 -2.42,1.35l0 0c-0.52,0 -1.05,-0.16 -1.53,-0.43l0 0zm12.63 -19.07c-1.28,-0.92 -1.58,-2.69 -0.66,-3.99l0 0c2.27,-3.18 4.56,-6.25 6.86,-9.27l0 0c0.95,-1.24 2.75,-1.51 4,-0.54l0 0c1.26,0.97 1.5,2.75 0.54,3.99l0 0c-2.26,2.96 -4.51,6.03 -6.75,9.16l0 0c-0.56,0.75 -1.44,1.19 -2.33,1.19l0 0c-0.57,0 -1.15,-0.16 -1.66,-0.54l0 0zm13.75 -18.27c-1.22,-1.02 -1.4,-2.8 -0.41,-4.04l0 0c2.48,-3.02 4.95,-5.93 7.44,-8.78l0 0c1.03,-1.19 2.84,-1.35 4.04,-0.27l0 0c1.19,1.02 1.31,2.8 0.27,4.04l0 0c-2.45,2.75 -4.88,5.66 -7.32,8.62l0 0c-0.57,0.7 -1.39,1.08 -2.22,1.08l0 0c-0.64,0 -1.27,-0.22 -1.8,-0.65l0 0zm14.89 -17.35c-1.16,-1.08 -1.22,-2.91 -0.14,-4.04l0 0c2.67,-2.86 5.34,-5.6 8.01,-8.3l0 0c1.11,-1.13 2.93,-1.13 4.04,0l0 0c1.12,1.13 1.12,2.91 0,4.04l0 0c-2.62,2.64 -5.24,5.33 -7.87,8.14l0 0c-0.56,0.59 -1.33,0.92 -2.09,0.92l0 0c-0.7,0 -1.4,-0.27 -1.95,-0.75l0 0zm16.02 -16.33c-1.08,-1.13 -1.01,-2.96 0.14,-4.04l0 0c2.87,-2.64 5.72,-5.23 8.57,-7.71l0 0c1.19,-1.02 2.99,-0.92 4.03,0.27l0 0c1.03,1.19 0.92,2.96 -0.28,4.04l0 0c-2.79,2.42 -5.6,4.96 -8.42,7.6l0 0c-0.55,0.49 -1.26,0.75 -1.96,0.75l0 0c-0.76,0 -1.53,-0.32 -2.09,-0.92l0 0zm17.12 -15.14c-1,-1.24 -0.81,-3.07 0.42,-4.04l0 0c3.05,-2.48 6.09,-4.85 9.09,-7.11l0 0c1.27,-0.92 3.06,-0.7 4.01,0.59l0 0c0.95,1.24 0.7,3.07 -0.57,3.99l0 0c-2.95,2.21 -5.93,4.58 -8.94,7l0 0c-0.53,0.38 -1.16,0.59 -1.79,0.59l0 0c-0.84,0 -1.66,-0.32 -2.22,-1.02l0 0zm18.15 -13.9c-0.9,-1.29 -0.59,-3.12 0.71,-3.99l0 0c3.24,-2.26 6.44,-4.42 9.57,-6.47l0 0c1.33,-0.86 3.09,-0.48 3.95,0.86l0 0c0.86,1.35 0.47,3.07 -0.85,3.93l0 0c-3.08,1.99 -6.22,4.09 -9.4,6.36l0 0c-0.5,0.32 -1.07,0.49 -1.63,0.49l0 0c-0.91,0 -1.79,-0.43 -2.35,-1.19l0 0zm19.09 -12.61c-0.81,-1.35 -0.38,-3.13 0.98,-3.93l0 0c3.42,-2.05 6.75,-3.99 9.98,-5.77l0 0c1.38,-0.75 3.12,-0.27 3.89,1.13l0 0c0.77,1.35 0.27,3.07 -1.11,3.88l0 0c-3.19,1.78 -6.47,3.66 -9.83,5.66l0 0c-0.46,0.27 -0.96,0.43 -1.47,0.43l0 0c-0.97,0 -1.92,-0.54 -2.45,-1.4l0 0zm19.9 -11.31c-0.73,-1.4 -0.18,-3.13 1.22,-3.83l0 0c3.6,-1.89 7.04,-3.61 10.29,-5.17l0 0c1.42,-0.7 3.13,-0.11 3.83,1.35l0 0c0.68,1.4 0.1,3.13 -1.32,3.83l0 0c-3.22,1.56 -6.62,3.23 -10.16,5.07l0 0c-0.42,0.22 -0.87,0.32 -1.31,0.32l0 0c-1.03,0 -2.03,-0.54 -2.54,-1.56l0 0zm20.5 -10.13c-0.68,-1.45 -0.06,-3.13 1.37,-3.83l0 0c3.29,-1.56 6.29,-2.96 8.94,-4.26l0 0c0.44,-0.16 0.89,-0.43 1.35,-0.65l0 0c1.41,-0.7 3.13,-0.11 3.82,1.35l0 0c0.69,1.4 0.11,3.13 -1.31,3.83l0 0c-0.46,0.22 -0.92,0.43 -1.36,0.65l0 0c-2.7,1.29 -5.72,2.69 -9.01,4.26l0 0c-0.39,0.22 -0.8,0.27 -1.21,0.27l0 0c-1.07,0 -2.1,-0.59 -2.59,-1.62l0 0zm20.61 -9.97c-0.72,-1.4 -0.15,-3.13 1.26,-3.83l0 0c3.23,-1.67 6.64,-3.39 10.18,-5.23l0 0c1.41,-0.7 3.13,-0.16 3.86,1.24l0 0c0.72,1.4 0.17,3.12 -1.23,3.83l0 0c-3.55,1.83 -6.97,3.61 -10.22,5.23l0 0c-0.41,0.21 -0.86,0.32 -1.29,0.32l0 0c-1.05,0 -2.05,-0.59 -2.55,-1.56l0 0zm20.38 -10.45c-0.73,-1.4 -0.19,-3.12 1.21,-3.88l0 0c3.34,-1.72 6.73,-3.5 10.13,-5.28l0.01 0c1.4,-0.75 3.13,-0.22 3.86,1.19l0 0c0.74,1.4 0.2,3.13 -1.2,3.88l0 0c-3.4,1.78 -6.81,3.56 -10.15,5.28l0 0c-0.43,0.22 -0.88,0.32 -1.32,0.32l0 0c-1.03,0 -2.03,-0.54 -2.54,-1.51l0 0zm20.28 -10.67c-0.74,-1.4 -0.2,-3.12 1.19,-3.88l0 0c3.43,-1.78 6.81,-3.61 10.1,-5.33l0 0c1.4,-0.75 3.13,-0.22 3.87,1.19l0 0c0.74,1.35 0.22,3.13 -1.17,3.83l0 0c-3.3,1.78 -6.69,3.56 -10.12,5.39l0 0c-0.43,0.22 -0.88,0.32 -1.33,0.32l0 0c-1.02,0 -2.02,-0.54 -2.53,-1.51l0 0zm20.22 -10.78c-0.75,-1.35 -0.22,-3.13 1.17,-3.83l0 0c3.58,-1.94 6.96,-3.77 10.09,-5.44l0 0c1.4,-0.75 3.13,-0.22 3.88,1.19l0 0c0.75,1.35 0.23,3.07 -1.16,3.83l0 0c-3.13,1.72 -6.52,3.56 -10.1,5.44l0 0c-0.43,0.22 -0.89,0.32 -1.34,0.32l0 0c-1.02,0 -2.01,-0.54 -2.53,-1.51l0 0zm20.18 -10.83c-0.75,-1.4 -0.23,-3.12 1.16,-3.88l0 0c6.27,-3.39 10.09,-5.5 10.1,-5.5l0 0c1.39,-0.75 3.13,-0.22 3.88,1.19l0 0c0.75,1.35 0.24,3.13 -1.14,3.88l0 0c0,0 -3.83,2.05 -10.11,5.44l0 0c-0.43,0.27 -0.9,0.38 -1.36,0.38l0 0c-1.01,0 -2,-0.54 -2.52,-1.51l0 0z"
   id="path1725" />
  <path
   class="fil0"
   d="M816.58 49.73c-39.86,-19.34 -63.77,-37.12 -125.8,-41.49 -1.8,-0.11 -3.23,-1.35 -4.79,-1.94 12.1,8.57 24.8,23.11 34.12,47.84 23.76,62.88 26.97,147.63 -49.07,232.92 46.55,-9.59 131.24,-24.35 131.24,-24.35 8.58,-5.71 44.32,-60.02 51.47,-107.22 7.14,-47.2 -6.89,-91.11 -37.17,-105.77z"
   id="path1727"
   style="stroke:#000000;stroke-opacity:1;stroke-width:2.72557907;stroke-dasharray:none" />
  <path
   class="fil5"
   d="M714.39 18.37c0,0 81.48,25.75 102.93,41.49 0,0 32.88,55.71 15.72,110.08 0,0 1.43,-47.2 -10,-65.79 0,0 8.57,51.46 -5.72,92.94 0,0 -2.86,-114.39 -35.74,-138.69l-67.19 -40.03z"
   id="path1729" />
  <path
   class="fil4"
   d="M631.12 12.66l13.7 7.17c0,0 18.11,-15.73 42.41,5.71 40.18,35.45 37.17,105.77 25.73,168.7 -11.43,62.88 -72.21,94.18 -72.21,94.18 15.32,3.29 23.27,0.05 30.3,-1.35 76.04,-85.29 72.83,-170.04 49.07,-232.92 -9.38,-24.84 -22.15,-39.39 -34.31,-48.01 -0.47,-0.22 -0.98,-0.43 -1.43,-0.65 -34.31,-15.68 -53.25,7.17 -53.25,7.17z"
   id="path1731" />
  <path
   class="fil2"
   d="M713.07 179.58c-0.01,0 -2.97,-1.51 -8.07,-4.2l0 0c-1.4,-0.75 -1.93,-2.48 -1.2,-3.88l0 0c0.74,-1.4 2.46,-1.94 3.86,-1.19l0 0c5.09,2.69 8.03,4.2 8.04,4.2l0 0c1.4,0.75 1.95,2.48 1.22,3.88l0 0c-0.51,0.97 -1.5,1.51 -2.54,1.51l0 0c-0.44,0 -0.89,-0.11 -1.31,-0.32l0 0zm-18.22 -9.59c-3.08,-1.67 -6.47,-3.45 -10.11,-5.44l0 0c-1.4,-0.75 -1.91,-2.48 -1.16,-3.88l0 0c0.75,-1.4 2.49,-1.89 3.87,-1.13l0 0c3.63,1.94 7.02,3.77 10.09,5.39l0 0c1.38,0.75 1.92,2.48 1.17,3.88l0 0c-0.52,0.97 -1.51,1.51 -2.53,1.51l0 0c-0.45,0 -0.91,-0.11 -1.34,-0.32l0 0zm-20.19 -10.94c-3.24,-1.72 -6.6,-3.61 -10.06,-5.5l0 0c-1.38,-0.75 -1.89,-2.53 -1.12,-3.88l0 0c0.76,-1.4 2.5,-1.89 3.88,-1.13l0 0c3.44,1.89 6.81,3.72 10.03,5.5l0 0c1.38,0.75 1.89,2.53 1.14,3.88l0 0c-0.52,0.97 -1.5,1.51 -2.51,1.51l0 0c-0.46,0 -0.93,-0.11 -1.37,-0.38l0 0zm-20.09 -11.1c-3.29,-1.83 -6.63,-3.72 -10,-5.66l0.01 0c-1.37,-0.75 -1.85,-2.53 -1.07,-3.88l0 0c0.78,-1.35 2.52,-1.83 3.9,-1.08l0 0c3.35,1.94 6.69,3.83 9.97,5.66l0 0c1.37,0.75 1.86,2.48 1.09,3.88l0 0c-0.52,0.92 -1.49,1.45 -2.49,1.45l0 0c-0.47,0 -0.95,-0.11 -1.4,-0.38l0 0zm-19.95 -11.37c-3.32,-1.89 -6.63,-3.83 -9.93,-5.77l0 0c-1.36,-0.81 -1.81,-2.53 -1,-3.93l0 0c0.8,-1.35 2.55,-1.78 3.91,-0.97l0 0c3.28,1.89 6.58,3.83 9.88,5.77l0 0c1.37,0.75 1.84,2.53 1.05,3.88l0 0c-0.53,0.92 -1.49,1.45 -2.48,1.45l0 0c-0.49,0 -0.98,-0.16 -1.43,-0.43l0 0zm-19.8 -11.64c-3.32,-1.99 -6.61,-3.99 -9.81,-5.98l0 0c-1.34,-0.86 -1.75,-2.59 -0.93,-3.93l0 0c0.84,-1.35 2.6,-1.78 3.94,-0.97l0 0c3.18,1.99 6.44,3.99 9.75,5.98l0 0c1.35,0.81 1.79,2.59 0.97,3.93l0 0c-0.53,0.86 -1.48,1.35 -2.45,1.35l0 0c-0.5,0 -1.01,-0.11 -1.47,-0.38l0 0zm-19.55 -12.12c-3.35,-2.16 -6.57,-4.26 -9.64,-6.3l0 0c-1.31,-0.92 -1.66,-2.69 -0.78,-3.99l0 0c0.88,-1.29 2.66,-1.67 3.97,-0.75l0 0c3.03,1.99 6.22,4.09 9.53,6.25l0 0c1.33,0.81 1.72,2.59 0.87,3.93l0 0c-0.55,0.86 -1.47,1.29 -2.41,1.29l0 0c-0.53,0 -1.06,-0.11 -1.54,-0.43l0 0zm-19.13 -12.93c-3.4,-2.42 -6.51,-4.8 -9.26,-7l0 0c-1.23,-1.02 -1.42,-2.8 -0.42,-4.04l0 0c1,-1.24 2.8,-1.4 4.02,-0.43l0 0c2.65,2.15 5.66,4.47 9,6.84l0 0c1.28,0.92 1.57,2.69 0.65,3.99l0 0c-0.55,0.81 -1.43,1.19 -2.32,1.19l0 0c-0.58,0 -1.17,-0.16 -1.67,-0.54l0 0zm-17.91 -14.66c-2.7,-2.32 -5.68,-4.53 -8.85,-6.68l0 0c-1.31,-0.86 -1.66,-2.64 -0.79,-3.93l0 0c0.88,-1.35 2.66,-1.67 3.98,-0.81l0 0c3.34,2.21 6.49,4.58 9.4,7.11l0 0c1.19,1.02 1.33,2.8 0.3,4.04l0 0c-0.57,0.65 -1.36,0.97 -2.17,0.97l0 0c-0.66,0 -1.32,-0.22 -1.86,-0.7l0 0zm-18.43 -12.45c-3.25,-1.83 -6.62,-3.5 -10.04,-5.12l0 0c-1.43,-0.65 -2.05,-2.37 -1.38,-3.77l0 0c0.67,-1.45 2.36,-2.05 3.8,-1.4l0 0c3.52,1.67 7,3.39 10.37,5.28l0 0c1.38,0.75 1.89,2.48 1.13,3.88l0 0c-0.52,0.92 -1.49,1.45 -2.5,1.45l0 0c-0.47,0 -0.94,-0.11 -1.38,-0.32l0 0zm-20.4 -9.64c-3.55,-1.4 -7.1,-2.75 -10.59,-3.99l0 0c-1.48,-0.54 -2.26,-2.15 -1.73,-3.66l0 0c0.53,-1.51 2.17,-2.26 3.65,-1.72l0 0c3.56,1.24 7.18,2.64 10.82,4.09l0 0c1.46,0.59 2.16,2.26 1.57,3.72l0 0c-0.45,1.13 -1.52,1.78 -2.65,1.78l0 0c-0.36,0 -0.72,-0.05 -1.07,-0.22l0 0zm-21.34 -7.6c-3.84,-1.24 -7.49,-2.32 -10.89,-3.23l0 0c-1.52,-0.43 -2.41,-2.05 -1.99,-3.56l0 0c0.43,-1.51 2,-2.43 3.52,-1.99l0 0c3.45,0.97 7.18,2.1 11.07,3.29l0 0c1.51,0.49 2.34,2.1 1.86,3.61l0 0c-0.38,1.24 -1.51,1.99 -2.73,1.99l0 0c-0.29,0 -0.57,-0.05 -0.86,-0.11l0 0zm-21.89 -6.14c-6.85,-1.67 -11.06,-2.48 -11.07,-2.48l0.01 0c-1.55,-0.32 -2.57,-1.78 -2.27,-3.34l0 0c0.3,-1.56 1.79,-2.59 3.35,-2.26l0 0c0.04,0 4.39,0.81 11.35,2.53l0 0c1.54,0.38 2.47,1.94 2.1,3.45l0 0c-0.32,1.29 -1.49,2.21 -2.78,2.21l0 0c-0.23,0 -0.45,-0.05 -0.68,-0.11l0 0z"
   id="path1733" />
  <path
   class="fil2"
   d="M508.6 249.14c-0.32,-1.56 0.66,-3.07 2.2,-3.39l0 0c0.53,-0.11 1.07,-0.22 1.6,-0.38l0 0c1.54,-0.32 3.07,0.65 3.42,2.15l0 0c0.35,1.56 -0.61,3.07 -2.16,3.45l0 0c-0.55,0.11 -1.11,0.27 -1.67,0.38l0 0c-0.2,0.05 -0.4,0.05 -0.6,0.05l0 0c-1.31,0 -2.5,-0.92 -2.79,-2.26l0 0zm12.73 -3.13c-0.49,-1.51 0.33,-3.13 1.83,-3.61l0 0c3.57,-1.19 7.06,-2.48 10.46,-3.93l0 0c1.45,-0.59 3.13,0.05 3.75,1.51l0 0c0.62,1.45 -0.05,3.13 -1.51,3.77l0 0c-3.54,1.51 -7.18,2.86 -10.93,4.09l0 0c-0.29,0.11 -0.59,0.16 -0.88,0.16l0 0c-1.2,0 -2.32,-0.81 -2.72,-1.99l0 0zm21.21 -8.46c-0.73,-1.4 -0.2,-3.13 1.2,-3.88l0 0c3.35,-1.78 6.59,-3.61 9.74,-5.6l-0.01 0c1.34,-0.81 3.1,-0.43 3.94,0.92l0 0c0.84,1.35 0.44,3.12 -0.91,3.93l0 0c-3.25,2.05 -6.62,3.99 -10.1,5.82l0 0c-0.43,0.22 -0.88,0.32 -1.33,0.32l0 0c-1.02,0 -2.03,-0.54 -2.53,-1.51l0 0zm19.62 -11.75c-0.92,-1.29 -0.64,-3.07 0.64,-3.99l0 0c3.1,-2.26 6.06,-4.58 8.91,-6.9l0 0c1.22,-1.02 3.02,-0.86 4.02,0.38l0 0c1.01,1.24 0.84,3.02 -0.38,4.04l0 0c-2.94,2.42 -6,4.79 -9.2,7.11l0 0c-0.51,0.32 -1.09,0.54 -1.67,0.54l0 0c-0.89,0 -1.77,-0.43 -2.32,-1.19l0 0zm17.89 -14.28c-1.07,-1.13 -1,-2.96 0.16,-4.04l0 0c2.86,-2.64 5.54,-5.28 8.08,-7.87l0 0c1.1,-1.13 2.91,-1.19 4.04,-0.11l0 0c1.14,1.13 1.16,2.91 0.06,4.09l0 0c-2.6,2.64 -5.37,5.39 -8.3,8.08l0 0c-0.55,0.48 -1.24,0.75 -1.94,0.75l0 0c-0.76,0 -1.54,-0.32 -2.1,-0.92l0 0zm16.15 -16.22c-1.19,-1.02 -1.3,-2.86 -0.26,-4.04l0 0c2.67,-3.02 5.08,-5.93 7.23,-8.67l0 0c0.99,-1.24 2.79,-1.45 4.02,-0.48l0 0c1.24,1.02 1.45,2.8 0.47,4.04l0 0c-2.21,2.8 -4.68,5.77 -7.41,8.89l0 0c-0.57,0.65 -1.36,0.97 -2.15,0.97l0 0c-0.67,0 -1.34,-0.22 -1.89,-0.7l0 0zm14.43 -17.78c-1.29,-0.92 -1.59,-2.69 -0.68,-3.99l0 0c4.11,-5.77 6.19,-9.32 6.2,-9.37l0 0c0.79,-1.35 2.54,-1.83 3.91,-1.02l0 0c1.36,0.81 1.83,2.53 1.03,3.93l0 0c-0.03,0.05 -2.25,3.83 -6.47,9.81l0 0c-0.56,0.75 -1.44,1.19 -2.34,1.19l0 0c-0.57,0 -1.15,-0.16 -1.65,-0.54l0 0z"
   id="path1735" />
  <path
   class="fil2"
   d="M697.29 268.16c-1.2,-1.02 -1.34,-2.86 -0.31,-4.04l0 0c2.5,-2.91 4.89,-5.82 7.18,-8.73l0 0c0.98,-1.24 2.78,-1.45 4.01,-0.48l0 0c1.24,0.97 1.45,2.75 0.48,3.99l0 0c-2.34,2.96 -4.78,5.98 -7.33,8.94l0 0c-0.56,0.65 -1.36,0.97 -2.17,0.97l0 0c-0.66,0 -1.33,-0.22 -1.86,-0.65l0 0zm14.32 -17.83c-1.28,-0.92 -1.58,-2.69 -0.66,-3.99l0 0c2.24,-3.13 4.36,-6.25 6.37,-9.32l0 0c0.86,-1.35 2.62,-1.72 3.95,-0.86l0 0c1.33,0.86 1.71,2.64 0.85,3.93l0 0c-2.06,3.18 -4.23,6.36 -6.52,9.59l0 0c-0.56,0.75 -1.44,1.19 -2.33,1.19l0 0c-0.58,0 -1.16,-0.16 -1.66,-0.54l0 0zm12.65 -19.02c-1.37,-0.81 -1.84,-2.59 -1.05,-3.93l0 0c1.92,-3.34 3.72,-6.63 5.39,-9.91l0 0c0.72,-1.4 2.44,-1.94 3.84,-1.24l0 0c1.41,0.7 1.97,2.42 1.25,3.83l0 0c-1.71,3.39 -3.56,6.79 -5.53,10.18l0 0c-0.53,0.92 -1.49,1.45 -2.47,1.45l0 0c-0.49,0 -0.98,-0.16 -1.43,-0.38l0 0zm10.64 -20.26c-1.45,-0.65 -2.1,-2.32 -1.47,-3.77l0 0c1.55,-3.5 2.95,-7 4.23,-10.45l0 0c0.56,-1.45 2.2,-2.21 3.67,-1.67l0 0c1.48,0.54 2.24,2.21 1.69,3.66l0 0c-1.32,3.56 -2.77,7.17 -4.36,10.78l0 0c-0.47,1.08 -1.52,1.67 -2.62,1.67l0 0c-0.39,0 -0.78,-0.05 -1.15,-0.22l0 0zm8.27 -21.34c-1.51,-0.43 -2.37,-2.05 -1.91,-3.56l0 0c1.11,-3.66 2.07,-7.27 2.92,-10.83l0 0c0.36,-1.56 1.9,-2.53 3.44,-2.16l0 0c1.54,0.38 2.49,1.89 2.13,3.45l0 0c-0.87,3.66 -1.87,7.44 -3.02,11.21l0 0c-0.37,1.24 -1.5,2.05 -2.73,2.05l0 0c-0.28,0 -0.55,-0.05 -0.83,-0.16l0 0zm5.57 -22.14c-1.56,-0.27 -2.61,-1.72 -2.35,-3.29l0 0c0.63,-3.77 1.11,-7.49 1.49,-11.15l0 0c0.16,-1.56 1.56,-2.69 3.13,-2.53l0 0c1.57,0.11 2.72,1.56 2.56,3.13l0 0c-0.38,3.77 -0.89,7.6 -1.54,11.48l0 0c-0.23,1.4 -1.44,2.42 -2.82,2.42l0 0c-0.15,0 -0.31,0 -0.47,-0.05l0 0zm2.65 -22.68c-1.58,-0.05 -2.82,-1.4 -2.76,-2.96l0 0c0.06,-1.99 0.1,-3.93 0.1,-5.87l0 0c0,-1.78 -0.03,-3.61 -0.08,-5.39l0 0c-0.05,-1.56 1.19,-2.91 2.77,-2.96l0 0c1.57,0 2.89,1.24 2.94,2.8l0 0c0.06,1.83 0.09,3.72 0.09,5.55l0 0c0,1.99 -0.03,4.04 -0.1,6.03l0 0c-0.05,1.56 -1.32,2.8 -2.86,2.8l0 0c-0.03,0 -0.06,0 -0.09,0l0 0zm-3.47 -25.43c-0.36,-3.83 -0.85,-7.54 -1.43,-11.15l0 0c-0.25,-1.56 0.81,-3.07 2.38,-3.29l0 0c1.56,-0.27 3.03,0.81 3.28,2.37l0 0c0.6,3.72 1.09,7.6 1.47,11.53l0 0c0.15,1.56 -1,2.96 -2.58,3.13l0 0c-0.09,0 -0.18,0 -0.27,0l0 0c-1.46,0 -2.7,-1.13 -2.85,-2.59l0 0zm-3.54 -22.25c-0.84,-3.72 -1.78,-7.38 -2.79,-10.88l0 0c-0.44,-1.51 0.44,-3.13 1.96,-3.56l0 0c1.51,-0.43 3.1,0.43 3.53,1.94l0 0c1.04,3.66 2,7.38 2.87,11.26l0 0c0.34,1.56 -0.63,3.07 -2.17,3.45l0 0c-0.21,0 -0.43,0.05 -0.63,0.05l0 0c-1.31,0 -2.49,-0.92 -2.79,-2.26l0 0zm-6.21 -21.66c-1.3,-3.66 -2.66,-7.17 -4.04,-10.51l0 0c-0.61,-1.45 0.08,-3.12 1.54,-3.77l0 0c1.45,-0.59 3.13,0.11 3.74,1.56l0 0c1.42,3.45 2.82,7.06 4.15,10.83l0 0c0.52,1.51 -0.26,3.12 -1.75,3.66l0 0c-0.31,0.11 -0.64,0.16 -0.94,0.16l0 0c-1.19,0 -2.29,-0.75 -2.7,-1.94l0 0zm-8.66 -20.8c-1.76,-3.66 -3.51,-7 -5.19,-10.02l0 0c-0.76,-1.4 -0.27,-3.12 1.12,-3.88l0 0c1.37,-0.75 3.12,-0.27 3.88,1.13l0 0c1.73,3.07 3.53,6.52 5.35,10.29l0 0c0.69,1.4 0.09,3.12 -1.33,3.83l0 0c-0.4,0.16 -0.82,0.27 -1.24,0.27l0 0c-1.07,0 -2.08,-0.59 -2.58,-1.62l0 0zm-10.97 -19.72c-3.83,-5.98 -6.37,-9.11 -6.37,-9.11l0 0c-1,-1.24 -0.81,-3.07 0.42,-4.04l0 0c1.23,-0.97 3.03,-0.81 4.03,0.43l0 0c0.06,0.05 2.79,3.45 6.75,9.64l0 0c0.85,1.35 0.46,3.13 -0.87,3.93l0 0c-0.47,0.32 -1.01,0.49 -1.54,0.49l0 0c-0.94,0 -1.87,-0.49 -2.42,-1.35l0 0z"
   id="path1737" />
 <path
   style="fill:#6eaf48;fill-opacity:1;stroke-width:0.838385"
   d="m 116.56571,215.69771 c -0.0623,-2.98101 6.6563,-27.46886 10.41494,-37.96009 4.97832,-13.89566 17.83583,-40.06261 25.54105,-51.97987 3.2795,-5.07223 6.56288,-10.16542 7.29639,-11.31819 2.46907,-3.88037 -9.79688,9.45545 -17.69037,19.23338 -4.30278,5.32999 -10.68943,13.94137 -14.19256,19.13639 -3.50313,5.19501 -6.36933,8.99894 -6.36933,8.45317 0,-1.47633 9.54726,-19.2249 15.41368,-28.65438 12.89657,-20.7295 29.22128,-38.978676 43.74922,-48.906658 10.85672,-7.41918 30.80715,-18.668234 50.84654,-28.669844 l 17.3679,-8.66827 9.87961,6.010392 c 5.43379,3.305716 13.99573,8.868695 19.02653,12.362176 l 9.14691,6.351785 -2.23023,1.624614 c -1.22663,0.893537 -2.23024,2.18448 -2.23024,2.86876 0,0.850483 -0.51546,1.080545 -1.62909,0.727095 -2.22829,-0.707234 -8.71418,2.650123 -8.11849,4.202461 0.592,1.542734 -0.9356,2.454723 -2.26444,1.351887 -1.5359,-1.274689 -7.77531,2.43049 -7.42562,4.409591 0.22192,1.255909 -0.13882,1.407866 -2.24436,0.945413 -3.30298,-0.725456 -7.66147,1.470252 -7.66147,3.85967 0,1.434701 -0.36659,1.654121 -2.05539,1.230261 -2.4122,-0.605426 -8.00523,1.786629 -8.00523,3.423719 0,1.067942 -0.9975,1.441434 -3.12357,1.169561 -1.43929,-0.184052 -6.38089,2.441354 -7.18831,3.819057 -0.36875,0.62919 -1.57714,1.14399 -2.6853,1.14399 -2.87363,0 -6.05989,1.6265 -7.5041,3.83063 -0.75665,1.15481 -1.82591,1.75133 -2.7365,1.52666 -1.92336,-0.47455 -6.94408,2.61407 -6.94408,4.27182 0,0.80033 -0.78592,1.2699 -2.12546,1.2699 -2.75958,0 -6.21541,2.29293 -7.1464,4.74162 -0.47679,1.25407 -1.18204,1.76192 -2.00712,1.4453 -1.56463,-0.6004 -6.7463,3.59796 -6.7463,5.46609 0,0.79759 -0.85022,1.45589 -2.09596,1.62283 -2.57704,0.34535 -6.78448,4.18136 -6.49809,5.92446 0.1174,0.71454 -0.53005,1.42128 -1.46657,1.60086 -2.27871,0.43692 -6.14402,4.19566 -6.45431,6.27635 -0.13902,0.93225 -0.90085,1.78829 -1.69294,1.90233 -1.90242,0.27389 -5.62607,4.56389 -5.65961,6.52041 -0.0146,0.85012 -0.69398,1.72022 -1.50979,1.93355 -1.78197,0.466 -5.22379,5.26813 -5.22379,7.28839 0,0.79288 -0.66022,1.68934 -1.46717,1.99212 -0.80695,0.3028 -1.92677,1.13981 -2.48849,1.86006 -1.94692,2.49634 -1.05642,-0.13462 2.68183,-7.92341 2.06607,-4.30472 6.54842,-12.00539 9.96078,-17.11259 3.41236,-5.10721 5.89667,-9.28583 5.52068,-9.28583 -1.41157,0 -13.17575,10.02819 -19.05276,16.24122 -14.88775,15.73898 -28.5465,38.18239 -38.84274,63.82455 -2.22183,5.53334 -4.05328,9.41081 -4.06988,8.61661 z"
   id="path1"
   transform="matrix(2.0441843,0,0,2.0441843,-0.00279045,0)" /><path
   style="fill:#6eaf48;fill-opacity:1;stroke-width:0.838385"
   d="m 98.51024,373.88747 c -4.150006,-0.59352 -13.355589,-1.36169 -20.456851,-1.70705 l -12.911386,-0.62791 0.511998,-18.51844 c 0.691892,-25.02497 3.386774,-47.31769 9.079695,-75.10944 3.868089,-18.88326 12.973723,-53.72578 13.220256,-50.58703 0.04206,0.53551 -0.878688,5.01607 -2.046112,9.95681 -7.556273,31.97947 -13.210461,75.77656 -14.370559,111.31372 l -0.54215,16.60765 2.165196,-0.54342 c 4.140955,-1.03931 24.770817,4.72767 33.314573,9.31294 2.46989,1.32554 1.94262,1.31907 -7.96466,-0.0978 z"
   id="path2"
   transform="matrix(2.0441843,0,0,2.0441843,-0.00279045,0)" /><path
   style="fill:#6eaf48;fill-opacity:1;stroke-width:0.838385"
   d="m 509.11498,374.34224 c 6.14124,-3.88353 29.94525,-10.67192 33.92201,-9.67382 l 1.91327,0.4802 v -10.84828 c 0,-29.43853 -5.29598,-74.29497 -13.03636,-110.41653 -4.97382,-23.21108 -3.23193,-19.47588 3.7545,8.05089 9.83757,38.76036 15.15056,75.85215 15.15056,105.77117 v 14.11789 l -6.91668,0.009 c -6.20609,0.008 -25.51243,1.72838 -33.27189,2.96474 -2.40342,0.38296 -2.7,0.29387 -1.51541,-0.45524 z"
   id="path3"
   transform="matrix(2.0441843,0,0,2.0441843,-0.00279045,0)" /><path
   style="fill:#6eaf48;fill-opacity:1;stroke-width:0.838385"
   d="m 500.58248,211.11517 c -11.24077,-31.63292 -33.60876,-64.91988 -54.01593,-80.38388 -6.01213,-4.55583 -7.36165,-4.73405 -4.03417,-0.53276 4.30098,5.43044 11.14899,16.97143 15.37456,25.91086 4.30206,9.10124 4.93122,11.25233 2.76537,9.45483 -0.70281,-0.58328 -1.09625,-1.2421 -0.87431,-1.46403 0.86867,-0.86867 -2.90598,-6.71471 -4.62592,-7.16448 -1.24658,-0.32599 -1.66083,-0.90096 -1.30923,-1.8172 0.80313,-2.09292 -2.87284,-7.12092 -5.21505,-7.13318 -1.61315,-0.008 -1.89638,-0.34602 -1.51473,-1.80543 0.71833,-2.74689 -3.34389,-7.68011 -5.81368,-7.06023 -1.04658,0.26267 -2.1369,0.0989 -2.42293,-0.36387 -0.28603,-0.46281 -0.12051,-0.84146 0.36781,-0.84146 1.76668,0 0.83136,-3.09397 -1.65561,-5.47664 -2.12978,-2.04046 -2.79689,-2.27854 -4.10153,-1.46377 -1.90203,1.18783 -2.92723,0.40766 -1.58675,-1.20751 0.77752,-0.93686 0.36026,-1.79159 -2.05243,-4.20429 -2.56033,-2.56033 -3.22893,-2.86191 -4.32607,-1.95136 -0.71374,0.59235 -1.95217,0.82586 -2.75206,0.51891 -1.17304,-0.45014 -1.23256,-0.69517 -0.3077,-1.26676 1.64511,-1.01674 0.55203,-3.11972 -2.63267,-5.06497 -2.39905,-1.46537 -2.87132,-1.52155 -3.67418,-0.43702 -1.07217,1.44831 -2.01307,0.80924 -2.01307,-1.3673 0,-1.73499 -6.22645,-5.30362 -7.68298,-4.40343 -0.50512,0.31218 -0.7589,0.23213 -0.56395,-0.17789 0.19494,-0.41002 1.88019,-3.95231 3.74499,-7.87176 4.15123,-8.725071 6.89837,-16.79332 8.63472,-25.359873 l 1.31672,-6.49621 9.21548,5.537027 c 21.60007,12.97819 37.42087,29.092296 53.1773,54.163196 5.61053,8.92721 16.36991,29.07182 15.82077,29.62096 -0.20252,0.20252 -3.23599,-3.87268 -6.74103,-9.05599 -7.6885,-11.36984 -18.43465,-24.86801 -26.55438,-33.35476 l -5.98096,-6.25131 6.22958,9.64143 c 16.95955,26.24805 29.2741,54.61987 36.22303,83.45517 2.57552,10.6874 2.36678,13.51455 -0.41901,5.67498 z"
   id="path4"
   transform="matrix(2.0441843,0,0,2.0441843,-0.00279045,0)" /><path
   style="fill:#6eaf48;fill-opacity:1;stroke-width:0.838385"
   d="m 400.00236,90.540445 c -0.37775,-13.685333 -4.76322,-38.442039 -8.54849,-48.25755 -4.10767,-10.651553 -5.71793,-12.276935 -21.25895,-21.458519 -7.60285,-4.491738 -13.67186,-8.3183 -13.48668,-8.503471 0.85446,-0.854466 28.13447,9.444962 37.38424,14.11423 4.1978,2.119043 5.297,3.172846 7.17478,6.878463 2.88556,5.694377 5.13811,12.249896 6.64883,19.349872 1.37017,6.439402 1.61644,22.13151 0.37742,24.04876 -0.56818,0.879182 -0.82096,-0.508267 -0.84011,-4.611118 -0.0299,-6.394486 -1.75733,-15.846016 -3.50632,-19.184087 -0.94713,-1.807661 -1.11503,0.288568 -1.18761,14.827281 -0.0622,12.46594 -0.42481,18.148946 -1.37447,21.543699 l -1.28993,4.611117 z"
   id="path5"
   transform="matrix(2.0441843,0,0,2.0441843,-0.00279045,0)" /><path
   style="fill:#6eaf48;fill-opacity:1;stroke-width:0.838385"
   d="m 320.26308,21.055256 c -4.95017,-3.208084 -15.15089,-7.018358 -22.51942,-8.411672 -8.90565,-1.683969 -24.9938,-1.703116 -35.23678,-0.04194 -4.32976,0.70219 -8.02377,1.12523 -8.20891,0.940089 -0.50532,-0.505321 17.76593,-5.3762444 24.30886,-6.4804869 3.14188,-0.530251 9.36689,-0.8150246 13.83336,-0.6328302 7.01005,0.2859517 8.91485,0.7036728 13.92579,3.0539178 5.58475,2.6193733 17.25064,11.2957623 17.25064,12.8299873 0,0.945728 0.10778,0.98613 -3.35354,-1.257069 z"
   id="path6"
   transform="matrix(2.0441843,0,0,2.0441843,-0.00279045,0)" /><path
   style="fill:#6eaf48;fill-opacity:1;stroke-width:0.838385"
   d="M 344.57624,63.992052 C 340.65679,61.183947 334.05451,55.946216 329.90451,52.352648 320.56446,44.26493 300.47474,24.119999 301.11285,23.48188 c 0.25846,-0.25846 5.14459,2.515931 10.85806,6.165311 5.71347,3.649382 16.80178,10.298798 24.64068,14.776481 7.8389,4.477683 14.55045,8.420703 14.91457,8.762265 0.36412,0.341563 0.55275,4.06144 0.41919,8.266392 l -0.24283,7.645369 z"
   id="path7"
   transform="matrix(2.0441843,0,0,2.0441843,-0.00279045,0)" /><path
   style="fill:#6eaf48;fill-opacity:1;stroke-width:0.838385"
   d="m 318.25343,119.67946 c 1.57668,-3.1125 3.11362,-6.96184 3.4154,-8.55409 l 0.54871,-2.89499 -2.8636,1.91239 c -8.0493,5.37556 -19.40798,9.3271 -26.81073,9.3271 h -3.32417 l 2.14921,-3.24768 c 2.29083,-3.46167 8.06164,-16.18821 7.56548,-16.684366 -0.16288,-0.162883 -2.84783,1.450796 -5.96655,3.585956 -5.40007,3.69703 -13.24935,8.00097 -17.62738,9.6655 -1.57525,0.59891 -2.02628,0.49508 -2.02628,-0.46644 0,-0.74991 0.79981,-1.23682 2.03163,-1.23682 2.54684,0 7.29973,-3.90386 6.99746,-5.74748 -0.15426,-0.94092 0.27372,-1.29279 1.34765,-1.10799 0.90515,0.15577 2.75866,-0.87769 4.36299,-2.43267 2.24353,-2.174514 2.62701,-3.006697 1.95994,-4.253141 -0.86642,-1.618906 -0.55616,-1.854211 2.07428,-1.573188 0.87526,0.09351 2.45981,-0.897242 3.53299,-2.209015 2.03932,-2.492731 2.63296,-5.312916 1.11836,-5.312916 -0.48833,0 -0.64521,-0.39262 -0.34864,-0.872488 0.29658,-0.479869 1.22411,-0.655116 2.06119,-0.389438 1.01806,0.323121 2.0924,-0.242148 3.24491,-1.707327 l 1.72295,-2.190378 7.10084,3.870671 c 3.90547,2.12887 12.80791,6.453123 19.78322,9.609452 6.9753,3.156328 12.86046,5.916868 13.07812,6.134528 1.13186,1.13186 -24.85123,22.43392 -27.36368,22.43392 -0.34705,0 0.65901,-2.54659 2.2357,-5.6591 z"
   id="path8"
   transform="matrix(2.0441843,0,0,2.0441843,-0.00279045,0)" /><path
   style="fill:#6eaf48;fill-opacity:1;stroke-width:0.209596"
   d="m 349.23577,47.421153 c -4.60499,-4.519837 -9.91925,-10.443301 -14.43208,-16.086513 -3.07885,-3.850057 -5.37226,-6.932659 -5.24928,-7.055639 0.0594,-0.05936 0.62069,0.270883 1.24741,0.733867 2.96561,2.190826 9.1486,5.841778 15.2416,8.999917 1.90208,0.985893 3.49462,1.821118 3.53897,1.856053 0.5543,0.436669 2.69882,13.910273 2.21401,13.910273 -0.087,0 -1.23932,-1.061081 -2.56063,-2.357958 z"
   id="path9"
   transform="matrix(2.0441843,0,0,2.0441843,-0.00279045,0)" /></g>
</svg>
